<?xml version="1.0" encoding="UTF-8" standalone="no"?>
<!DOCTYPE svg PUBLIC "-//W3C//DTD SVG 1.1//EN"
 "http://www.w3.org/Graphics/SVG/1.1/DTD/svg11.dtd">
<!-- Generated by graphviz version 12.1.0 (20240811.2233)
 -->
<!-- Title: dependency&#45;cruiser output Pages: 1 -->
<svg width="1114pt" height="1455pt"
 viewBox="0.00 0.00 1113.50 1455.00" xmlns="http://www.w3.org/2000/svg" xmlns:xlink="http://www.w3.org/1999/xlink">
<g id="graph0" class="graph" transform="scale(1 1) rotate(0) translate(4 1451)">
<title>dependency&#45;cruiser output</title>
<polygon fill="white" stroke="none" points="-4,4 -4,-1451 1109.5,-1451 1109.5,4 -4,4"/>
<g id="clust1" class="cluster">
<title>cluster_src</title>
<path fill="#ffffff" stroke="black" stroke-width="2" d="M20,-8C20,-8 1085.5,-8 1085.5,-8 1091.5,-8 1097.5,-14 1097.5,-20 1097.5,-20 1097.5,-1427 1097.5,-1427 1097.5,-1433 1091.5,-1439 1085.5,-1439 1085.5,-1439 20,-1439 20,-1439 14,-1439 8,-1433 8,-1427 8,-1427 8,-20 8,-20 8,-14 14,-8 20,-8"/>
<text text-anchor="middle" x="552.75" y="-1426.45" font-family="Helvetica,sans-Serif" font-weight="bold" font-size="9.00">src</text>
</g>
<g id="clust2" class="cluster">
<title>cluster_src/app</title>
<path fill="#ffffff" stroke="black" stroke-width="2" d="M42.25,-16C42.25,-16 249.88,-16 249.88,-16 255.88,-16 261.88,-22 261.88,-28 261.88,-28 261.88,-127 261.88,-127 261.88,-133 255.88,-139 249.88,-139 249.88,-139 42.25,-139 42.25,-139 36.25,-139 30.25,-133 30.25,-127 30.25,-127 30.25,-28 30.25,-28 30.25,-22 36.25,-16 42.25,-16"/>
<text text-anchor="middle" x="146.06" y="-126.45" font-family="Helvetica,sans-Serif" font-weight="bold" font-size="9.00">app</text>
</g>
<g id="clust3" class="cluster">
<title>cluster_src/app/provider</title>
<path fill="#ffffff" stroke="black" stroke-width="2" d="M50.25,-24C50.25,-24 241.88,-24 241.88,-24 247.88,-24 253.88,-30 253.88,-36 253.88,-36 253.88,-100 253.88,-100 253.88,-106 247.88,-112 241.88,-112 241.88,-112 50.25,-112 50.25,-112 44.25,-112 38.25,-106 38.25,-100 38.25,-100 38.25,-36 38.25,-36 38.25,-30 44.25,-24 50.25,-24"/>
<text text-anchor="middle" x="146.06" y="-99.45" font-family="Helvetica,sans-Serif" font-weight="bold" font-size="9.00">provider</text>
</g>
<g id="clust4" class="cluster">
<title>cluster_src/app/provider/root</title>
<path fill="#ffffff" stroke="black" stroke-width="2" d="M58.25,-32C58.25,-32 233.88,-32 233.88,-32 239.88,-32 245.88,-38 245.88,-44 245.88,-44 245.88,-73 245.88,-73 245.88,-79 239.88,-85 233.88,-85 233.88,-85 58.25,-85 58.25,-85 52.25,-85 46.25,-79 46.25,-73 46.25,-73 46.25,-44 46.25,-44 46.25,-38 52.25,-32 58.25,-32"/>
<text text-anchor="middle" x="146.06" y="-72.45" font-family="Helvetica,sans-Serif" font-weight="bold" font-size="9.00">root</text>
</g>
<g id="clust5" class="cluster">
<title>cluster_src/features</title>
<path fill="#ffffff" stroke="black" stroke-width="2" d="M40,-147C40,-147 590.75,-147 590.75,-147 596.75,-147 602.75,-153 602.75,-159 602.75,-159 602.75,-254 602.75,-254 602.75,-260 596.75,-266 590.75,-266 590.75,-266 40,-266 40,-266 34,-266 28,-260 28,-254 28,-254 28,-159 28,-159 28,-153 34,-147 40,-147"/>
<text text-anchor="middle" x="315.38" y="-253.45" font-family="Helvetica,sans-Serif" font-weight="bold" font-size="9.00">features</text>
</g>
<g id="clust6" class="cluster">
<title>cluster_src/features/catalog</title>
<path fill="#ffffff" stroke="black" stroke-width="2" d="M48,-155C48,-155 582.75,-155 582.75,-155 588.75,-155 594.75,-161 594.75,-167 594.75,-167 594.75,-227 594.75,-227 594.75,-233 588.75,-239 582.75,-239 582.75,-239 48,-239 48,-239 42,-239 36,-233 36,-227 36,-227 36,-167 36,-167 36,-161 42,-155 48,-155"/>
<text text-anchor="middle" x="315.38" y="-226.45" font-family="Helvetica,sans-Serif" font-weight="bold" font-size="9.00">catalog</text>
</g>
<g id="clust7" class="cluster">
<title>cluster_src/screens</title>
<path fill="#ffffff" stroke="black" stroke-width="2" d="M50.25,-274C50.25,-274 241.12,-274 241.12,-274 247.12,-274 253.12,-280 253.12,-286 253.12,-286 253.12,-350 253.12,-350 253.12,-356 247.12,-362 241.12,-362 241.12,-362 50.25,-362 50.25,-362 44.25,-362 38.25,-356 38.25,-350 38.25,-350 38.25,-286 38.25,-286 38.25,-280 44.25,-274 50.25,-274"/>
<text text-anchor="middle" x="145.69" y="-349.45" font-family="Helvetica,sans-Serif" font-weight="bold" font-size="9.00">screens</text>
</g>
<g id="clust8" class="cluster">
<title>cluster_src/screens/root</title>
<path fill="#ffffff" stroke="black" stroke-width="2" d="M58.25,-282C58.25,-282 233.12,-282 233.12,-282 239.12,-282 245.12,-288 245.12,-294 245.12,-294 245.12,-323 245.12,-323 245.12,-329 239.12,-335 233.12,-335 233.12,-335 58.25,-335 58.25,-335 52.25,-335 46.25,-329 46.25,-323 46.25,-323 46.25,-294 46.25,-294 46.25,-288 52.25,-282 58.25,-282"/>
<text text-anchor="middle" x="145.69" y="-322.45" font-family="Helvetica,sans-Serif" font-weight="bold" font-size="9.00">root</text>
</g>
<g id="clust9" class="cluster">
<title>cluster_src/shared</title>
<path fill="#ffffff" stroke="black" stroke-width="2" d="M28,-370C28,-370 353.75,-370 353.75,-370 359.75,-370 365.75,-376 365.75,-382 365.75,-382 365.75,-782 365.75,-782 365.75,-788 359.75,-794 353.75,-794 353.75,-794 28,-794 28,-794 22,-794 16,-788 16,-782 16,-782 16,-382 16,-382 16,-376 22,-370 28,-370"/>
<text text-anchor="middle" x="190.88" y="-781.45" font-family="Helvetica,sans-Serif" font-weight="bold" font-size="9.00">shared</text>
</g>
<g id="clust10" class="cluster">
<title>cluster_src/shared/consts</title>
<path fill="#ffffff" stroke="black" stroke-width="2" d="M57.75,-378C57.75,-378 104.75,-378 104.75,-378 110.75,-378 116.75,-384 116.75,-390 116.75,-390 116.75,-419 116.75,-419 116.75,-425 110.75,-431 104.75,-431 104.75,-431 57.75,-431 57.75,-431 51.75,-431 45.75,-425 45.75,-419 45.75,-419 45.75,-390 45.75,-390 45.75,-384 51.75,-378 57.75,-378"/>
<text text-anchor="middle" x="81.25" y="-418.45" font-family="Helvetica,sans-Serif" font-weight="bold" font-size="9.00">consts</text>
</g>
<g id="clust11" class="cluster">
<title>cluster_src/shared/lib</title>
<path fill="#ffffff" stroke="black" stroke-width="2" d="M36,-439C36,-439 126.5,-439 126.5,-439 132.5,-439 138.5,-445 138.5,-451 138.5,-451 138.5,-511 138.5,-511 138.5,-517 132.5,-523 126.5,-523 126.5,-523 36,-523 36,-523 30,-523 24,-517 24,-511 24,-511 24,-451 24,-451 24,-445 30,-439 36,-439"/>
<text text-anchor="middle" x="81.25" y="-510.45" font-family="Helvetica,sans-Serif" font-weight="bold" font-size="9.00">lib</text>
</g>
<g id="clust12" class="cluster">
<title>cluster_src/shared/types</title>
<path fill="#ffffff" stroke="black" stroke-width="2" d="M58.25,-531C58.25,-531 104.25,-531 104.25,-531 110.25,-531 116.25,-537 116.25,-543 116.25,-543 116.25,-572 116.25,-572 116.25,-578 110.25,-584 104.25,-584 104.25,-584 58.25,-584 58.25,-584 52.25,-584 46.25,-578 46.25,-572 46.25,-572 46.25,-543 46.25,-543 46.25,-537 52.25,-531 58.25,-531"/>
<text text-anchor="middle" x="81.25" y="-571.45" font-family="Helvetica,sans-Serif" font-weight="bold" font-size="9.00">types</text>
</g>
<g id="clust13" class="cluster">
<title>cluster_src/shared/ui</title>
<path fill="#ffffff" stroke="black" stroke-width="2" d="M44.62,-592C44.62,-592 345.75,-592 345.75,-592 351.75,-592 357.75,-598 357.75,-604 357.75,-604 357.75,-755 357.75,-755 357.75,-761 351.75,-767 345.75,-767 345.75,-767 44.62,-767 44.62,-767 38.62,-767 32.62,-761 32.62,-755 32.62,-755 32.62,-604 32.62,-604 32.62,-598 38.62,-592 44.62,-592"/>
<text text-anchor="middle" x="195.19" y="-754.45" font-family="Helvetica,sans-Serif" font-weight="bold" font-size="9.00">ui</text>
</g>
<g id="clust14" class="cluster">
<title>cluster_src/shared/ui/dialog</title>
<path fill="#ffffff" stroke="black" stroke-width="2" d="M58.25,-600C58.25,-600 337.75,-600 337.75,-600 343.75,-600 349.75,-606 349.75,-612 349.75,-612 349.75,-641 349.75,-641 349.75,-647 343.75,-653 337.75,-653 337.75,-653 58.25,-653 58.25,-653 52.25,-653 46.25,-647 46.25,-641 46.25,-641 46.25,-612 46.25,-612 46.25,-606 52.25,-600 58.25,-600"/>
<text text-anchor="middle" x="198" y="-640.45" font-family="Helvetica,sans-Serif" font-weight="bold" font-size="9.00">dialog</text>
</g>
<g id="clust15" class="cluster">
<title>cluster_src/shared/ui/optimize&#45;image</title>
<path fill="#ffffff" stroke="black" stroke-width="2" d="M58.25,-661C58.25,-661 244.75,-661 244.75,-661 250.75,-661 256.75,-667 256.75,-673 256.75,-673 256.75,-702 256.75,-702 256.75,-708 250.75,-714 244.75,-714 244.75,-714 58.25,-714 58.25,-714 52.25,-714 46.25,-708 46.25,-702 46.25,-702 46.25,-673 46.25,-673 46.25,-667 52.25,-661 58.25,-661"/>
<text text-anchor="middle" x="151.5" y="-701.45" font-family="Helvetica,sans-Serif" font-weight="bold" font-size="9.00">optimize&#45;image</text>
</g>
<g id="clust16" class="cluster">
<title>cluster_src/widgets</title>
<path fill="#ffffff" stroke="black" stroke-width="2" d="M50.25,-802C50.25,-802 1077.5,-802 1077.5,-802 1083.5,-802 1089.5,-808 1089.5,-814 1089.5,-814 1089.5,-1400 1089.5,-1400 1089.5,-1406 1083.5,-1412 1077.5,-1412 1077.5,-1412 50.25,-1412 50.25,-1412 44.25,-1412 38.25,-1406 38.25,-1400 38.25,-1400 38.25,-814 38.25,-814 38.25,-808 44.25,-802 50.25,-802"/>
<text text-anchor="middle" x="563.88" y="-1399.45" font-family="Helvetica,sans-Serif" font-weight="bold" font-size="9.00">widgets</text>
</g>
<g id="clust17" class="cluster">
<title>cluster_src/widgets/consultation</title>
<path fill="#ffffff" stroke="black" stroke-width="2" d="M520.5,-1135C520.5,-1135 917.75,-1135 917.75,-1135 923.75,-1135 929.75,-1141 929.75,-1147 929.75,-1147 929.75,-1190 929.75,-1190 929.75,-1196 923.75,-1202 917.75,-1202 917.75,-1202 520.5,-1202 520.5,-1202 514.5,-1202 508.5,-1196 508.5,-1190 508.5,-1190 508.5,-1147 508.5,-1147 508.5,-1141 514.5,-1135 520.5,-1135"/>
<text text-anchor="middle" x="719.12" y="-1189.45" font-family="Helvetica,sans-Serif" font-weight="bold" font-size="9.00">consultation</text>
</g>
<g id="clust18" class="cluster">
<title>cluster_src/widgets/contact</title>
<path fill="#ffffff" stroke="black" stroke-width="2" d="M287.88,-1003C287.88,-1003 572.25,-1003 572.25,-1003 578.25,-1003 584.25,-1009 584.25,-1015 584.25,-1015 584.25,-1044 584.25,-1044 584.25,-1050 578.25,-1056 572.25,-1056 572.25,-1056 287.88,-1056 287.88,-1056 281.88,-1056 275.88,-1050 275.88,-1044 275.88,-1044 275.88,-1015 275.88,-1015 275.88,-1009 281.88,-1003 287.88,-1003"/>
<text text-anchor="middle" x="430.06" y="-1043.45" font-family="Helvetica,sans-Serif" font-weight="bold" font-size="9.00">contact</text>
</g>
<g id="clust19" class="cluster">
<title>cluster_src/widgets/documentation</title>
<path fill="#ffffff" stroke="black" stroke-width="2" d="M287.88,-1064C287.88,-1064 588,-1064 588,-1064 594,-1064 600,-1070 600,-1076 600,-1076 600,-1105 600,-1105 600,-1111 594,-1117 588,-1117 588,-1117 287.88,-1117 287.88,-1117 281.88,-1117 275.88,-1111 275.88,-1105 275.88,-1105 275.88,-1076 275.88,-1076 275.88,-1070 281.88,-1064 287.88,-1064"/>
<text text-anchor="middle" x="437.94" y="-1104.45" font-family="Helvetica,sans-Serif" font-weight="bold" font-size="9.00">documentation</text>
</g>
<g id="clust20" class="cluster">
<title>cluster_src/widgets/faq</title>
<path fill="#ffffff" stroke="black" stroke-width="2" d="M58.25,-810C58.25,-810 333.88,-810 333.88,-810 339.88,-810 345.88,-816 345.88,-822 345.88,-822 345.88,-851 345.88,-851 345.88,-857 339.88,-863 333.88,-863 333.88,-863 58.25,-863 58.25,-863 52.25,-863 46.25,-857 46.25,-851 46.25,-851 46.25,-822 46.25,-822 46.25,-816 52.25,-810 58.25,-810"/>
<text text-anchor="middle" x="196.06" y="-850.45" font-family="Helvetica,sans-Serif" font-weight="bold" font-size="9.00">faq</text>
</g>
<g id="clust21" class="cluster">
<title>cluster_src/widgets/footer</title>
<path fill="#ffffff" stroke="black" stroke-width="2" d="M58.25,-942C58.25,-942 336.25,-942 336.25,-942 342.25,-942 348.25,-948 348.25,-954 348.25,-954 348.25,-983 348.25,-983 348.25,-989 342.25,-995 336.25,-995 336.25,-995 58.25,-995 58.25,-995 52.25,-995 46.25,-989 46.25,-983 46.25,-983 46.25,-954 46.25,-954 46.25,-948 52.25,-942 58.25,-942"/>
<text text-anchor="middle" x="197.25" y="-982.45" font-family="Helvetica,sans-Serif" font-weight="bold" font-size="9.00">footer</text>
</g>
<g id="clust22" class="cluster">
<title>cluster_src/widgets/header</title>
<path fill="#ffffff" stroke="black" stroke-width="2" d="M58.25,-1125C58.25,-1125 339.25,-1125 339.25,-1125 345.25,-1125 351.25,-1131 351.25,-1137 351.25,-1137 351.25,-1166 351.25,-1166 351.25,-1172 345.25,-1178 339.25,-1178 339.25,-1178 58.25,-1178 58.25,-1178 52.25,-1178 46.25,-1172 46.25,-1166 46.25,-1166 46.25,-1137 46.25,-1137 46.25,-1131 52.25,-1125 58.25,-1125"/>
<text text-anchor="middle" x="198.75" y="-1165.45" font-family="Helvetica,sans-Serif" font-weight="bold" font-size="9.00">header</text>
</g>
<g id="clust23" class="cluster">
<title>cluster_src/widgets/hero</title>
<path fill="#ffffff" stroke="black" stroke-width="2" d="M287.88,-1210C287.88,-1210 567,-1210 567,-1210 573,-1210 579,-1216 579,-1222 579,-1222 579,-1251 579,-1251 579,-1257 573,-1263 567,-1263 567,-1263 287.88,-1263 287.88,-1263 281.88,-1263 275.88,-1257 275.88,-1251 275.88,-1251 275.88,-1222 275.88,-1222 275.88,-1216 281.88,-1210 287.88,-1210"/>
<text text-anchor="middle" x="427.44" y="-1250.45" font-family="Helvetica,sans-Serif" font-weight="bold" font-size="9.00">hero</text>
</g>
<g id="clust24" class="cluster">
<title>cluster_src/widgets/information</title>
<path fill="#ffffff" stroke="black" stroke-width="2" d="M58.25,-1271C58.25,-1271 347.88,-1271 347.88,-1271 353.88,-1271 359.88,-1277 359.88,-1283 359.88,-1283 359.88,-1312 359.88,-1312 359.88,-1318 353.88,-1324 347.88,-1324 347.88,-1324 58.25,-1324 58.25,-1324 52.25,-1324 46.25,-1318 46.25,-1312 46.25,-1312 46.25,-1283 46.25,-1283 46.25,-1277 52.25,-1271 58.25,-1271"/>
<text text-anchor="middle" x="203.06" y="-1311.45" font-family="Helvetica,sans-Serif" font-weight="bold" font-size="9.00">information</text>
</g>
<g id="clust25" class="cluster">
<title>cluster_src/widgets/nuaces</title>
<path fill="#ffffff" stroke="black" stroke-width="2" d="M58.25,-1332C58.25,-1332 340,-1332 340,-1332 346,-1332 352,-1338 352,-1344 352,-1344 352,-1373 352,-1373 352,-1379 346,-1385 340,-1385 340,-1385 58.25,-1385 58.25,-1385 52.25,-1385 46.25,-1379 46.25,-1373 46.25,-1373 46.25,-1344 46.25,-1344 46.25,-1338 52.25,-1332 58.25,-1332"/>
<text text-anchor="middle" x="199.12" y="-1372.45" font-family="Helvetica,sans-Serif" font-weight="bold" font-size="9.00">nuaces</text>
</g>
<g id="clust26" class="cluster">
<title>cluster_src/widgets/policy</title>
<path fill="#ffffff" stroke="black" stroke-width="2" d="M855.88,-1074C855.88,-1074 1069.5,-1074 1069.5,-1074 1075.5,-1074 1081.5,-1080 1081.5,-1086 1081.5,-1086 1081.5,-1115 1081.5,-1115 1081.5,-1121 1075.5,-1127 1069.5,-1127 1069.5,-1127 855.88,-1127 855.88,-1127 849.88,-1127 843.88,-1121 843.88,-1115 843.88,-1115 843.88,-1086 843.88,-1086 843.88,-1080 849.88,-1074 855.88,-1074"/>
<text text-anchor="middle" x="962.69" y="-1114.45" font-family="Helvetica,sans-Serif" font-weight="bold" font-size="9.00">policy</text>
</g>
<g id="clust27" class="cluster">
<title>cluster_src/widgets/presentation</title>
<path fill="#ffffff" stroke="black" stroke-width="2" d="M520.5,-1271C520.5,-1271 918.5,-1271 918.5,-1271 924.5,-1271 930.5,-1277 930.5,-1283 930.5,-1283 930.5,-1326 930.5,-1326 930.5,-1332 924.5,-1338 918.5,-1338 918.5,-1338 520.5,-1338 520.5,-1338 514.5,-1338 508.5,-1332 508.5,-1326 508.5,-1326 508.5,-1283 508.5,-1283 508.5,-1277 514.5,-1271 520.5,-1271"/>
<text text-anchor="middle" x="719.5" y="-1325.45" font-family="Helvetica,sans-Serif" font-weight="bold" font-size="9.00">presentation</text>
</g>
<g id="clust28" class="cluster">
<title>cluster_src/widgets/vacancy</title>
<path fill="#ffffff" stroke="black" stroke-width="2" d="M287.88,-881C287.88,-881 574.12,-881 574.12,-881 580.12,-881 586.12,-887 586.12,-893 586.12,-893 586.12,-922 586.12,-922 586.12,-928 580.12,-934 574.12,-934 574.12,-934 287.88,-934 287.88,-934 281.88,-934 275.88,-928 275.88,-922 275.88,-922 275.88,-893 275.88,-893 275.88,-887 281.88,-881 287.88,-881"/>
<text text-anchor="middle" x="431" y="-921.45" font-family="Helvetica,sans-Serif" font-weight="bold" font-size="9.00">vacancy</text>
</g>
<!-- src/app/provider/root/index.ts -->
<g id="node1" class="node">
<title>src/app/provider/root/index.ts</title>
<g id="a_node1"><a xlink:href="src/app/provider/root/index.ts" xlink:title="index.ts">
<path fill="#ddfeff" stroke="black" d="M102.08,-58.25C102.08,-58.25 60.42,-58.25 60.42,-58.25 57.33,-58.25 54.25,-55.17 54.25,-52.08 54.25,-52.08 54.25,-45.92 54.25,-45.92 54.25,-42.83 57.33,-39.75 60.42,-39.75 60.42,-39.75 102.08,-39.75 102.08,-39.75 105.17,-39.75 108.25,-42.83 108.25,-45.92 108.25,-45.92 108.25,-52.08 108.25,-52.08 108.25,-55.17 105.17,-58.25 102.08,-58.25"/>
<text text-anchor="start" x="65.5" y="-45.7" font-family="Helvetica,sans-Serif" font-size="9.00">index.ts</text>
</a>
</g>
</g>
<!-- src/app/provider/root/root.provider.tsx -->
<g id="node2" class="node">
<title>src/app/provider/root/root.provider.tsx</title>
<g id="a_node2"><a xlink:href="src/app/provider/root/root.provider.tsx" xlink:title="root.provider.tsx">
<path fill="#bbfeff" stroke="black" d="M231.71,-58.25C231.71,-58.25 163.54,-58.25 163.54,-58.25 160.46,-58.25 157.38,-55.17 157.38,-52.08 157.38,-52.08 157.38,-45.92 157.38,-45.92 157.38,-42.83 160.46,-39.75 163.54,-39.75 163.54,-39.75 231.71,-39.75 231.71,-39.75 234.79,-39.75 237.88,-42.83 237.88,-45.92 237.88,-45.92 237.88,-52.08 237.88,-52.08 237.88,-55.17 234.79,-58.25 231.71,-58.25"/>
<text text-anchor="start" x="165.38" y="-45.7" font-family="Helvetica,sans-Serif" font-size="9.00">root.provider.tsx</text>
</a>
</g>
</g>
<!-- src/app/provider/root/index.ts&#45;&gt;src/app/provider/root/root.provider.tsx -->
<g id="edge1" class="edge">
<title>src/app/provider/root/index.ts&#45;&gt;src/app/provider/root/root.provider.tsx</title>
<path fill="none" stroke="#000000" stroke-width="2" stroke-opacity="0.200000" d="M108.49,-49C120.85,-49 135.96,-49 150.16,-49"/>
<polygon fill="#000000" fill-opacity="0.200000" stroke="#000000" stroke-width="2" stroke-opacity="0.200000" points="156.04,-51.1 150.04,-49 156.04,-46.9 156.04,-51.1"/>
</g>
<!-- src/features/catalog/catalog.card&#45;modal.tsx -->
<g id="node3" class="node">
<title>src/features/catalog/catalog.card&#45;modal.tsx</title>
<g id="a_node3"><a xlink:href="src/features/catalog/catalog.card-modal.tsx" xlink:title="catalog.card&#45;modal.tsx">
<path fill="#bbfeff" stroke="black" d="M475.83,-181.25C475.83,-181.25 379.92,-181.25 379.92,-181.25 376.83,-181.25 373.75,-178.17 373.75,-175.08 373.75,-175.08 373.75,-168.92 373.75,-168.92 373.75,-165.83 376.83,-162.75 379.92,-162.75 379.92,-162.75 475.83,-162.75 475.83,-162.75 478.92,-162.75 482,-165.83 482,-168.92 482,-168.92 482,-175.08 482,-175.08 482,-178.17 478.92,-181.25 475.83,-181.25"/>
<text text-anchor="start" x="381.75" y="-168.7" font-family="Helvetica,sans-Serif" font-size="9.00">catalog.card&#45;modal.tsx</text>
</a>
</g>
</g>
<!-- src/features/catalog/catalog.card.scss -->
<g id="node4" class="node">
<title>src/features/catalog/catalog.card.scss</title>
<g id="a_node4"><a xlink:href="src/features/catalog/catalog.card.scss" xlink:title="catalog.card.scss">
<path fill="#ffffcc" stroke="black" d="M580.58,-181.25C580.58,-181.25 506.42,-181.25 506.42,-181.25 503.33,-181.25 500.25,-178.17 500.25,-175.08 500.25,-175.08 500.25,-168.92 500.25,-168.92 500.25,-165.83 503.33,-162.75 506.42,-162.75 506.42,-162.75 580.58,-162.75 580.58,-162.75 583.67,-162.75 586.75,-165.83 586.75,-168.92 586.75,-168.92 586.75,-175.08 586.75,-175.08 586.75,-178.17 583.67,-181.25 580.58,-181.25"/>
<text text-anchor="start" x="508.25" y="-168.7" font-family="Helvetica,sans-Serif" font-size="9.00">catalog.card.scss</text>
</a>
</g>
</g>
<!-- src/features/catalog/catalog.card&#45;modal.tsx&#45;&gt;src/features/catalog/catalog.card.scss -->
<g id="edge2" class="edge">
<title>src/features/catalog/catalog.card&#45;modal.tsx&#45;&gt;src/features/catalog/catalog.card.scss</title>
<path fill="none" stroke="#000000" stroke-width="2" stroke-opacity="0.200000" d="M482.36,-172C485.2,-172 488.06,-172 490.9,-172"/>
<polygon fill="#000000" fill-opacity="0.200000" stroke="#000000" stroke-width="2" stroke-opacity="0.200000" points="490.84,-174.1 496.84,-172 490.84,-169.9 490.84,-174.1"/>
</g>
<!-- src/features/catalog/catalog.card.tsx -->
<g id="node5" class="node">
<title>src/features/catalog/catalog.card.tsx</title>
<g id="a_node5"><a xlink:href="src/features/catalog/catalog.card.tsx" xlink:title="catalog.card.tsx">
<path fill="#bbfeff" stroke="black" d="M344.58,-181.25C344.58,-181.25 277.17,-181.25 277.17,-181.25 274.08,-181.25 271,-178.17 271,-175.08 271,-175.08 271,-168.92 271,-168.92 271,-165.83 274.08,-162.75 277.17,-162.75 277.17,-162.75 344.58,-162.75 344.58,-162.75 347.67,-162.75 350.75,-165.83 350.75,-168.92 350.75,-168.92 350.75,-175.08 350.75,-175.08 350.75,-178.17 347.67,-181.25 344.58,-181.25"/>
<text text-anchor="start" x="279" y="-168.7" font-family="Helvetica,sans-Serif" font-size="9.00">catalog.card.tsx</text>
</a>
</g>
</g>
<!-- src/features/catalog/catalog.card.tsx&#45;&gt;src/features/catalog/catalog.card&#45;modal.tsx -->
<g id="edge3" class="edge">
<title>src/features/catalog/catalog.card.tsx&#45;&gt;src/features/catalog/catalog.card&#45;modal.tsx</title>
<path fill="none" stroke="#000000" stroke-width="2" stroke-opacity="0.200000" d="M351.13,-172C355.49,-172 360.01,-172 364.57,-172"/>
<polygon fill="#000000" fill-opacity="0.200000" stroke="#000000" stroke-width="2" stroke-opacity="0.200000" points="364.33,-174.1 370.33,-172 364.33,-169.9 364.33,-174.1"/>
</g>
<!-- src/features/catalog/catalog.scss -->
<g id="node6" class="node">
<title>src/features/catalog/catalog.scss</title>
<g id="a_node6"><a xlink:href="src/features/catalog/catalog.scss" xlink:title="catalog.scss">
<path fill="#ffffcc" stroke="black" d="M337.83,-212.25C337.83,-212.25 283.92,-212.25 283.92,-212.25 280.83,-212.25 277.75,-209.17 277.75,-206.08 277.75,-206.08 277.75,-199.92 277.75,-199.92 277.75,-196.83 280.83,-193.75 283.92,-193.75 283.92,-193.75 337.83,-193.75 337.83,-193.75 340.92,-193.75 344,-196.83 344,-199.92 344,-199.92 344,-206.08 344,-206.08 344,-209.17 340.92,-212.25 337.83,-212.25"/>
<text text-anchor="start" x="285.75" y="-199.7" font-family="Helvetica,sans-Serif" font-size="9.00">catalog.scss</text>
</a>
</g>
</g>
<!-- src/features/catalog/catalog.type.ts -->
<g id="node7" class="node">
<title>src/features/catalog/catalog.type.ts</title>
<g id="a_node7"><a xlink:href="src/features/catalog/catalog.type.ts" xlink:title="no&#45;orphans">
<path fill="#ccffcc" stroke="orange" d="M112.33,-181.25C112.33,-181.25 50.17,-181.25 50.17,-181.25 47.08,-181.25 44,-178.17 44,-175.08 44,-175.08 44,-168.92 44,-168.92 44,-165.83 47.08,-162.75 50.17,-162.75 50.17,-162.75 112.33,-162.75 112.33,-162.75 115.42,-162.75 118.5,-165.83 118.5,-168.92 118.5,-168.92 118.5,-175.08 118.5,-175.08 118.5,-178.17 115.42,-181.25 112.33,-181.25"/>
<text text-anchor="start" x="52" y="-168.7" font-family="Helvetica,sans-Serif" font-size="9.00" fill="orange">catalog.type.ts</text>
</a>
</g>
</g>
<!-- src/features/catalog/catalog.ui.tsx -->
<g id="node8" class="node">
<title>src/features/catalog/catalog.ui.tsx</title>
<g id="a_node8"><a xlink:href="src/features/catalog/catalog.ui.tsx" xlink:title="catalog.ui.tsx">
<path fill="#bbfeff" stroke="black" d="M226.08,-212.25C226.08,-212.25 169.17,-212.25 169.17,-212.25 166.08,-212.25 163,-209.17 163,-206.08 163,-206.08 163,-199.92 163,-199.92 163,-196.83 166.08,-193.75 169.17,-193.75 169.17,-193.75 226.08,-193.75 226.08,-193.75 229.17,-193.75 232.25,-196.83 232.25,-199.92 232.25,-199.92 232.25,-206.08 232.25,-206.08 232.25,-209.17 229.17,-212.25 226.08,-212.25"/>
<text text-anchor="start" x="171" y="-199.7" font-family="Helvetica,sans-Serif" font-size="9.00">catalog.ui.tsx</text>
</a>
</g>
</g>
<!-- src/features/catalog/catalog.ui.tsx&#45;&gt;src/features/catalog/catalog.card.tsx -->
<g id="edge4" class="edge">
<title>src/features/catalog/catalog.ui.tsx&#45;&gt;src/features/catalog/catalog.card.tsx</title>
<path fill="none" stroke="#000000" stroke-width="2" stroke-opacity="0.200000" d="M232.61,-193.53C243.3,-190.55 255.26,-187.22 266.51,-184.08"/>
<polygon fill="#000000" fill-opacity="0.200000" stroke="#000000" stroke-width="2" stroke-opacity="0.200000" points="266.81,-186.18 272.03,-182.55 265.69,-182.13 266.81,-186.18"/>
</g>
<!-- src/features/catalog/catalog.ui.tsx&#45;&gt;src/features/catalog/catalog.scss -->
<g id="edge5" class="edge">
<title>src/features/catalog/catalog.ui.tsx&#45;&gt;src/features/catalog/catalog.scss</title>
<path fill="none" stroke="#000000" stroke-width="2" stroke-opacity="0.200000" d="M232.61,-203C244.01,-203 256.86,-203 268.75,-203"/>
<polygon fill="#000000" fill-opacity="0.200000" stroke="#000000" stroke-width="2" stroke-opacity="0.200000" points="268.6,-205.1 274.6,-203 268.6,-200.9 268.6,-205.1"/>
</g>
<!-- src/features/catalog/index.ts -->
<g id="node9" class="node">
<title>src/features/catalog/index.ts</title>
<g id="a_node9"><a xlink:href="src/features/catalog/index.ts" xlink:title="index.ts">
<path fill="#ddfeff" stroke="black" d="M102.08,-212.25C102.08,-212.25 60.42,-212.25 60.42,-212.25 57.33,-212.25 54.25,-209.17 54.25,-206.08 54.25,-206.08 54.25,-199.92 54.25,-199.92 54.25,-196.83 57.33,-193.75 60.42,-193.75 60.42,-193.75 102.08,-193.75 102.08,-193.75 105.17,-193.75 108.25,-196.83 108.25,-199.92 108.25,-199.92 108.25,-206.08 108.25,-206.08 108.25,-209.17 105.17,-212.25 102.08,-212.25"/>
<text text-anchor="start" x="65.5" y="-199.7" font-family="Helvetica,sans-Serif" font-size="9.00">index.ts</text>
</a>
</g>
</g>
<!-- src/features/catalog/index.ts&#45;&gt;src/features/catalog/catalog.ui.tsx -->
<g id="edge6" class="edge">
<title>src/features/catalog/index.ts&#45;&gt;src/features/catalog/catalog.ui.tsx</title>
<path fill="none" stroke="#000000" stroke-width="2" stroke-opacity="0.200000" d="M108.49,-203C122.44,-203 139.92,-203 155.62,-203"/>
<polygon fill="#000000" fill-opacity="0.200000" stroke="#000000" stroke-width="2" stroke-opacity="0.200000" points="161.69,-205.1 155.69,-203 161.69,-200.9 161.69,-205.1"/>
</g>
<!-- src/screens/root/index.ts -->
<g id="node10" class="node">
<title>src/screens/root/index.ts</title>
<g id="a_node10"><a xlink:href="src/screens/root/index.ts" xlink:title="index.ts">
<path fill="#ddfeff" stroke="black" d="M102.08,-308.25C102.08,-308.25 60.42,-308.25 60.42,-308.25 57.33,-308.25 54.25,-305.17 54.25,-302.08 54.25,-302.08 54.25,-295.92 54.25,-295.92 54.25,-292.83 57.33,-289.75 60.42,-289.75 60.42,-289.75 102.08,-289.75 102.08,-289.75 105.17,-289.75 108.25,-292.83 108.25,-295.92 108.25,-295.92 108.25,-302.08 108.25,-302.08 108.25,-305.17 105.17,-308.25 102.08,-308.25"/>
<text text-anchor="start" x="65.5" y="-295.7" font-family="Helvetica,sans-Serif" font-size="9.00">index.ts</text>
</a>
</g>
</g>
<!-- src/screens/root/root&#45;page.ui.tsx -->
<g id="node11" class="node">
<title>src/screens/root/root&#45;page.ui.tsx</title>
<g id="a_node11"><a xlink:href="src/screens/root/root-page.ui.tsx" xlink:title="root&#45;page.ui.tsx">
<path fill="#bbfeff" stroke="black" d="M230.96,-308.25C230.96,-308.25 164.29,-308.25 164.29,-308.25 161.21,-308.25 158.12,-305.17 158.12,-302.08 158.12,-302.08 158.12,-295.92 158.12,-295.92 158.12,-292.83 161.21,-289.75 164.29,-289.75 164.29,-289.75 230.96,-289.75 230.96,-289.75 234.04,-289.75 237.12,-292.83 237.12,-295.92 237.12,-295.92 237.12,-302.08 237.12,-302.08 237.12,-305.17 234.04,-308.25 230.96,-308.25"/>
<text text-anchor="start" x="166.12" y="-295.7" font-family="Helvetica,sans-Serif" font-size="9.00">root&#45;page.ui.tsx</text>
</a>
</g>
</g>
<!-- src/screens/root/index.ts&#45;&gt;src/screens/root/root&#45;page.ui.tsx -->
<g id="edge7" class="edge">
<title>src/screens/root/index.ts&#45;&gt;src/screens/root/root&#45;page.ui.tsx</title>
<path fill="none" stroke="#000000" stroke-width="2" stroke-opacity="0.200000" d="M108.49,-299C121.07,-299 136.51,-299 150.94,-299"/>
<polygon fill="#000000" fill-opacity="0.200000" stroke="#000000" stroke-width="2" stroke-opacity="0.200000" points="156.92,-301.1 150.92,-299 156.92,-296.9 156.92,-301.1"/>
</g>
<!-- src/shared/consts/catalog.ts -->
<g id="node12" class="node">
<title>src/shared/consts/catalog.ts</title>
<g id="a_node12"><a xlink:href="src/shared/consts/catalog.ts" xlink:title="no&#45;orphans">
<path fill="#ccffcc" stroke="orange" d="M102.58,-404.25C102.58,-404.25 59.92,-404.25 59.92,-404.25 56.83,-404.25 53.75,-401.17 53.75,-398.08 53.75,-398.08 53.75,-391.92 53.75,-391.92 53.75,-388.83 56.83,-385.75 59.92,-385.75 59.92,-385.75 102.58,-385.75 102.58,-385.75 105.67,-385.75 108.75,-388.83 108.75,-391.92 108.75,-391.92 108.75,-398.08 108.75,-398.08 108.75,-401.17 105.67,-404.25 102.58,-404.25"/>
<text text-anchor="start" x="61.75" y="-391.7" font-family="Helvetica,sans-Serif" font-size="9.00" fill="orange">catalog.ts</text>
</a>
</g>
</g>
<!-- src/shared/lib/classname&#45;merge.ts -->
<g id="node13" class="node">
<title>src/shared/lib/classname&#45;merge.ts</title>
<g id="a_node13"><a xlink:href="src/shared/lib/classname-merge.ts" xlink:title="no&#45;orphans">
<path fill="#ccffcc" stroke="orange" d="M124.33,-465.25C124.33,-465.25 38.17,-465.25 38.17,-465.25 35.08,-465.25 32,-462.17 32,-459.08 32,-459.08 32,-452.92 32,-452.92 32,-449.83 35.08,-446.75 38.17,-446.75 38.17,-446.75 124.33,-446.75 124.33,-446.75 127.42,-446.75 130.5,-449.83 130.5,-452.92 130.5,-452.92 130.5,-459.08 130.5,-459.08 130.5,-462.17 127.42,-465.25 124.33,-465.25"/>
<text text-anchor="start" x="40" y="-452.7" font-family="Helvetica,sans-Serif" font-size="9.00" fill="orange">classname&#45;merge.ts</text>
</a>
</g>
</g>
<!-- src/shared/lib/image&#45;loader.ts -->
<g id="node14" class="node">
<title>src/shared/lib/image&#45;loader.ts</title>
<g id="a_node14"><a xlink:href="src/shared/lib/image-loader.ts" xlink:title="no&#45;orphans">
<path fill="#ccffcc" stroke="orange" d="M114.58,-496.25C114.58,-496.25 47.92,-496.25 47.92,-496.25 44.83,-496.25 41.75,-493.17 41.75,-490.08 41.75,-490.08 41.75,-483.92 41.75,-483.92 41.75,-480.83 44.83,-477.75 47.92,-477.75 47.92,-477.75 114.58,-477.75 114.58,-477.75 117.67,-477.75 120.75,-480.83 120.75,-483.92 120.75,-483.92 120.75,-490.08 120.75,-490.08 120.75,-493.17 117.67,-496.25 114.58,-496.25"/>
<text text-anchor="start" x="49.75" y="-483.7" font-family="Helvetica,sans-Serif" font-size="9.00" fill="orange">image&#45;loader.ts</text>
</a>
</g>
</g>
<!-- src/shared/types/env.d.ts -->
<g id="node15" class="node">
<title>src/shared/types/env.d.ts</title>
<g id="a_node15"><a xlink:href="src/shared/types/env.d.ts" xlink:title="env.d.ts">
<path fill="#ccffcc" stroke="black" d="M102.08,-557.25C102.08,-557.25 60.42,-557.25 60.42,-557.25 57.33,-557.25 54.25,-554.17 54.25,-551.08 54.25,-551.08 54.25,-544.92 54.25,-544.92 54.25,-541.83 57.33,-538.75 60.42,-538.75 60.42,-538.75 102.08,-538.75 102.08,-538.75 105.17,-538.75 108.25,-541.83 108.25,-544.92 108.25,-544.92 108.25,-551.08 108.25,-551.08 108.25,-554.17 105.17,-557.25 102.08,-557.25"/>
<text text-anchor="start" x="65.88" y="-544.7" font-family="Helvetica,sans-Serif" font-size="9.00">env.d.ts</text>
</a>
</g>
</g>
<!-- src/shared/ui/dialog/dialog.scss -->
<g id="node16" class="node">
<title>src/shared/ui/dialog/dialog.scss</title>
<g id="a_node16"><a xlink:href="src/shared/ui/dialog/dialog.scss" xlink:title="dialog.scss">
<path fill="#ffffcc" stroke="black" d="M335.58,-626.25C335.58,-626.25 286.17,-626.25 286.17,-626.25 283.08,-626.25 280,-623.17 280,-620.08 280,-620.08 280,-613.92 280,-613.92 280,-610.83 283.08,-607.75 286.17,-607.75 286.17,-607.75 335.58,-607.75 335.58,-607.75 338.67,-607.75 341.75,-610.83 341.75,-613.92 341.75,-613.92 341.75,-620.08 341.75,-620.08 341.75,-623.17 338.67,-626.25 335.58,-626.25"/>
<text text-anchor="start" x="288" y="-613.7" font-family="Helvetica,sans-Serif" font-size="9.00">dialog.scss</text>
</a>
</g>
</g>
<!-- src/shared/ui/dialog/dialog.tsx -->
<g id="node17" class="node">
<title>src/shared/ui/dialog/dialog.tsx</title>
<g id="a_node17"><a xlink:href="src/shared/ui/dialog/dialog.tsx" xlink:title="dialog.tsx">
<path fill="#bbfeff" stroke="black" d="M218.96,-626.25C218.96,-626.25 176.29,-626.25 176.29,-626.25 173.21,-626.25 170.12,-623.17 170.12,-620.08 170.12,-620.08 170.12,-613.92 170.12,-613.92 170.12,-610.83 173.21,-607.75 176.29,-607.75 176.29,-607.75 218.96,-607.75 218.96,-607.75 222.04,-607.75 225.12,-610.83 225.12,-613.92 225.12,-613.92 225.12,-620.08 225.12,-620.08 225.12,-623.17 222.04,-626.25 218.96,-626.25"/>
<text text-anchor="start" x="178.12" y="-613.7" font-family="Helvetica,sans-Serif" font-size="9.00">dialog.tsx</text>
</a>
</g>
</g>
<!-- src/shared/ui/dialog/dialog.tsx&#45;&gt;src/shared/ui/dialog/dialog.scss -->
<g id="edge8" class="edge">
<title>src/shared/ui/dialog/dialog.tsx&#45;&gt;src/shared/ui/dialog/dialog.scss</title>
<path fill="none" stroke="#000000" stroke-width="2" stroke-opacity="0.200000" d="M225.56,-617C239.08,-617 255.73,-617 270.64,-617"/>
<polygon fill="#000000" fill-opacity="0.200000" stroke="#000000" stroke-width="2" stroke-opacity="0.200000" points="270.64,-619.1 276.64,-617 270.64,-614.9 270.64,-619.1"/>
</g>
<!-- src/shared/ui/dialog/index.ts -->
<g id="node18" class="node">
<title>src/shared/ui/dialog/index.ts</title>
<g id="a_node18"><a xlink:href="src/shared/ui/dialog/index.ts" xlink:title="index.ts">
<path fill="#ddfeff" stroke="black" d="M102.08,-626.25C102.08,-626.25 60.42,-626.25 60.42,-626.25 57.33,-626.25 54.25,-623.17 54.25,-620.08 54.25,-620.08 54.25,-613.92 54.25,-613.92 54.25,-610.83 57.33,-607.75 60.42,-607.75 60.42,-607.75 102.08,-607.75 102.08,-607.75 105.17,-607.75 108.25,-610.83 108.25,-613.92 108.25,-613.92 108.25,-620.08 108.25,-620.08 108.25,-623.17 105.17,-626.25 102.08,-626.25"/>
<text text-anchor="start" x="65.5" y="-613.7" font-family="Helvetica,sans-Serif" font-size="9.00">index.ts</text>
</a>
</g>
</g>
<!-- src/shared/ui/dialog/index.ts&#45;&gt;src/shared/ui/dialog/dialog.tsx -->
<g id="edge9" class="edge">
<title>src/shared/ui/dialog/index.ts&#45;&gt;src/shared/ui/dialog/dialog.tsx</title>
<path fill="none" stroke="#000000" stroke-width="2" stroke-opacity="0.200000" d="M108.49,-617C124.68,-617 145.6,-617 162.99,-617"/>
<polygon fill="#000000" fill-opacity="0.200000" stroke="#000000" stroke-width="2" stroke-opacity="0.200000" points="168.71,-619.1 162.71,-617 168.71,-614.9 168.71,-619.1"/>
</g>
<!-- src/shared/ui/optimize&#45;image/index.ts -->
<g id="node19" class="node">
<title>src/shared/ui/optimize&#45;image/index.ts</title>
<g id="a_node19"><a xlink:href="src/shared/ui/optimize-image/index.ts" xlink:title="index.ts">
<path fill="#ddfeff" stroke="black" d="M102.08,-687.25C102.08,-687.25 60.42,-687.25 60.42,-687.25 57.33,-687.25 54.25,-684.17 54.25,-681.08 54.25,-681.08 54.25,-674.92 54.25,-674.92 54.25,-671.83 57.33,-668.75 60.42,-668.75 60.42,-668.75 102.08,-668.75 102.08,-668.75 105.17,-668.75 108.25,-671.83 108.25,-674.92 108.25,-674.92 108.25,-681.08 108.25,-681.08 108.25,-684.17 105.17,-687.25 102.08,-687.25"/>
<text text-anchor="start" x="65.5" y="-674.7" font-family="Helvetica,sans-Serif" font-size="9.00">index.ts</text>
</a>
</g>
</g>
<!-- src/shared/ui/optimize&#45;image/optimize&#45;image.ui.tsx -->
<g id="node20" class="node">
<title>src/shared/ui/optimize&#45;image/optimize&#45;image.ui.tsx</title>
<g id="a_node20"><a xlink:href="src/shared/ui/optimize-image/optimize-image.ui.tsx" xlink:title="optimize&#45;image.ui.tsx">
<path fill="#bbfeff" stroke="black" d="M242.58,-687.25C242.58,-687.25 152.67,-687.25 152.67,-687.25 149.58,-687.25 146.5,-684.17 146.5,-681.08 146.5,-681.08 146.5,-674.92 146.5,-674.92 146.5,-671.83 149.58,-668.75 152.67,-668.75 152.67,-668.75 242.58,-668.75 242.58,-668.75 245.67,-668.75 248.75,-671.83 248.75,-674.92 248.75,-674.92 248.75,-681.08 248.75,-681.08 248.75,-684.17 245.67,-687.25 242.58,-687.25"/>
<text text-anchor="start" x="154.5" y="-674.7" font-family="Helvetica,sans-Serif" font-size="9.00">optimize&#45;image.ui.tsx</text>
</a>
</g>
</g>
<!-- src/shared/ui/optimize&#45;image/index.ts&#45;&gt;src/shared/ui/optimize&#45;image/optimize&#45;image.ui.tsx -->
<g id="edge10" class="edge">
<title>src/shared/ui/optimize&#45;image/index.ts&#45;&gt;src/shared/ui/optimize&#45;image/optimize&#45;image.ui.tsx</title>
<path fill="none" stroke="#000000" stroke-width="2" stroke-opacity="0.200000" d="M108.49,-678C117.69,-678 128.41,-678 139.15,-678"/>
<polygon fill="#000000" fill-opacity="0.200000" stroke="#000000" stroke-width="2" stroke-opacity="0.200000" points="145.19,-680.1 139.19,-678 145.19,-675.9 145.19,-680.1"/>
</g>
<!-- src/shared/ui/optimize&#45;link.tsx -->
<g id="node21" class="node">
<title>src/shared/ui/optimize&#45;link.tsx</title>
<g id="a_node21"><a xlink:href="src/shared/ui/optimize-link.tsx" xlink:title="no&#45;orphans">
<path fill="#ccffcc" stroke="orange" d="M115.71,-740.25C115.71,-740.25 46.79,-740.25 46.79,-740.25 43.71,-740.25 40.62,-737.17 40.62,-734.08 40.62,-734.08 40.62,-727.92 40.62,-727.92 40.62,-724.83 43.71,-721.75 46.79,-721.75 46.79,-721.75 115.71,-721.75 115.71,-721.75 118.79,-721.75 121.88,-724.83 121.88,-727.92 121.88,-727.92 121.88,-734.08 121.88,-734.08 121.88,-737.17 118.79,-740.25 115.71,-740.25"/>
<text text-anchor="start" x="48.62" y="-727.7" font-family="Helvetica,sans-Serif" font-size="9.00" fill="orange">optimize&#45;link.tsx</text>
</a>
</g>
</g>
<!-- src/widgets/consultation/consultation.modal.tsx -->
<g id="node22" class="node">
<title>src/widgets/consultation/consultation.modal.tsx</title>
<g id="a_node22"><a xlink:href="src/widgets/consultation/consultation.modal.tsx" xlink:title="consultation.modal.tsx">
<path fill="#bbfeff" stroke="black" d="M815.33,-1161.25C815.33,-1161.25 720.92,-1161.25 720.92,-1161.25 717.83,-1161.25 714.75,-1158.17 714.75,-1155.08 714.75,-1155.08 714.75,-1148.92 714.75,-1148.92 714.75,-1145.83 717.83,-1142.75 720.92,-1142.75 720.92,-1142.75 815.33,-1142.75 815.33,-1142.75 818.42,-1142.75 821.5,-1145.83 821.5,-1148.92 821.5,-1148.92 821.5,-1155.08 821.5,-1155.08 821.5,-1158.17 818.42,-1161.25 815.33,-1161.25"/>
<text text-anchor="start" x="722.75" y="-1148.7" font-family="Helvetica,sans-Serif" font-size="9.00">consultation.modal.tsx</text>
</a>
</g>
</g>
<!-- src/widgets/policy/index.ts -->
<g id="node23" class="node">
<title>src/widgets/policy/index.ts</title>
<g id="a_node23"><a xlink:href="src/widgets/policy/index.ts" xlink:title="index.ts">
<path fill="#ddfeff" stroke="black" d="M899.71,-1100.25C899.71,-1100.25 858.04,-1100.25 858.04,-1100.25 854.96,-1100.25 851.88,-1097.17 851.88,-1094.08 851.88,-1094.08 851.88,-1087.92 851.88,-1087.92 851.88,-1084.83 854.96,-1081.75 858.04,-1081.75 858.04,-1081.75 899.71,-1081.75 899.71,-1081.75 902.79,-1081.75 905.88,-1084.83 905.88,-1087.92 905.88,-1087.92 905.88,-1094.08 905.88,-1094.08 905.88,-1097.17 902.79,-1100.25 899.71,-1100.25"/>
<text text-anchor="start" x="863.12" y="-1087.7" font-family="Helvetica,sans-Serif" font-size="9.00">index.ts</text>
</a>
</g>
</g>
<!-- src/widgets/consultation/consultation.modal.tsx&#45;&gt;src/widgets/policy/index.ts -->
<g id="edge11" class="edge">
<title>src/widgets/consultation/consultation.modal.tsx&#45;&gt;src/widgets/policy/index.ts</title>
<path fill="none" stroke="#000000" stroke-width="2" stroke-opacity="0.200000" d="M795.87,-1142.26C804.48,-1138.77 813.94,-1134.56 822.25,-1130 835.06,-1122.97 848.5,-1113.6 858.96,-1105.82"/>
<polygon fill="#000000" fill-opacity="0.200000" stroke="#000000" stroke-width="2" stroke-opacity="0.200000" points="860.08,-1107.61 863.59,-1102.31 857.54,-1104.26 860.08,-1107.61"/>
</g>
<!-- src/widgets/consultation/consultation.scss -->
<g id="node24" class="node">
<title>src/widgets/consultation/consultation.scss</title>
<g id="a_node24"><a xlink:href="src/widgets/consultation/consultation.scss" xlink:title="consultation.scss">
<path fill="#ffffcc" stroke="black" d="M915.58,-1168.25C915.58,-1168.25 842.17,-1168.25 842.17,-1168.25 839.08,-1168.25 836,-1165.17 836,-1162.08 836,-1162.08 836,-1155.92 836,-1155.92 836,-1152.83 839.08,-1149.75 842.17,-1149.75 842.17,-1149.75 915.58,-1149.75 915.58,-1149.75 918.67,-1149.75 921.75,-1152.83 921.75,-1155.92 921.75,-1155.92 921.75,-1162.08 921.75,-1162.08 921.75,-1165.17 918.67,-1168.25 915.58,-1168.25"/>
<text text-anchor="start" x="844" y="-1155.7" font-family="Helvetica,sans-Serif" font-size="9.00">consultation.scss</text>
</a>
</g>
</g>
<!-- src/widgets/consultation/consultation.modal.tsx&#45;&gt;src/widgets/consultation/consultation.scss -->
<g id="edge12" class="edge">
<title>src/widgets/consultation/consultation.modal.tsx&#45;&gt;src/widgets/consultation/consultation.scss</title>
<path fill="none" stroke="#000000" stroke-width="2" stroke-opacity="0.200000" d="M821.91,-1155.4C823.65,-1155.51 825.4,-1155.62 827.14,-1155.73"/>
<polygon fill="#000000" fill-opacity="0.200000" stroke="#000000" stroke-width="2" stroke-opacity="0.200000" points="826.64,-1157.81 832.76,-1156.1 826.91,-1153.61 826.64,-1157.81"/>
</g>
<!-- src/widgets/policy/policy.ui.tsx -->
<g id="node52" class="node">
<title>src/widgets/policy/policy.ui.tsx</title>
<g id="a_node52"><a xlink:href="src/widgets/policy/policy.ui.tsx" xlink:title="policy.ui.tsx">
<path fill="#bbfeff" stroke="black" d="M994.83,-1100.25C994.83,-1100.25 944.67,-1100.25 944.67,-1100.25 941.58,-1100.25 938.5,-1097.17 938.5,-1094.08 938.5,-1094.08 938.5,-1087.92 938.5,-1087.92 938.5,-1084.83 941.58,-1081.75 944.67,-1081.75 944.67,-1081.75 994.83,-1081.75 994.83,-1081.75 997.92,-1081.75 1001,-1084.83 1001,-1087.92 1001,-1087.92 1001,-1094.08 1001,-1094.08 1001,-1097.17 997.92,-1100.25 994.83,-1100.25"/>
<text text-anchor="start" x="946.5" y="-1087.7" font-family="Helvetica,sans-Serif" font-size="9.00">policy.ui.tsx</text>
</a>
</g>
</g>
<!-- src/widgets/policy/index.ts&#45;&gt;src/widgets/policy/policy.ui.tsx -->
<g id="edge41" class="edge">
<title>src/widgets/policy/index.ts&#45;&gt;src/widgets/policy/policy.ui.tsx</title>
<path fill="none" stroke="#000000" stroke-width="2" stroke-opacity="0.200000" d="M906.06,-1091C913.9,-1091 922.66,-1091 931.08,-1091"/>
<polygon fill="#000000" fill-opacity="0.200000" stroke="#000000" stroke-width="2" stroke-opacity="0.200000" points="937.06,-1093.1 931.06,-1091 937.06,-1088.9 937.06,-1093.1"/>
</g>
<!-- src/widgets/consultation/consultation.ui.tsx -->
<g id="node25" class="node">
<title>src/widgets/consultation/consultation.ui.tsx</title>
<g id="a_node25"><a xlink:href="src/widgets/consultation/consultation.ui.tsx" xlink:title="consultation.ui.tsx">
<path fill="#bbfeff" stroke="black" d="M694.08,-1175.25C694.08,-1175.25 617.67,-1175.25 617.67,-1175.25 614.58,-1175.25 611.5,-1172.17 611.5,-1169.08 611.5,-1169.08 611.5,-1162.92 611.5,-1162.92 611.5,-1159.83 614.58,-1156.75 617.67,-1156.75 617.67,-1156.75 694.08,-1156.75 694.08,-1156.75 697.17,-1156.75 700.25,-1159.83 700.25,-1162.92 700.25,-1162.92 700.25,-1169.08 700.25,-1169.08 700.25,-1172.17 697.17,-1175.25 694.08,-1175.25"/>
<text text-anchor="start" x="619.5" y="-1162.7" font-family="Helvetica,sans-Serif" font-size="9.00">consultation.ui.tsx</text>
</a>
</g>
</g>
<!-- src/widgets/consultation/consultation.ui.tsx&#45;&gt;src/widgets/consultation/consultation.modal.tsx -->
<g id="edge13" class="edge">
<title>src/widgets/consultation/consultation.ui.tsx&#45;&gt;src/widgets/consultation/consultation.modal.tsx</title>
<path fill="none" stroke="#000000" stroke-width="2" stroke-opacity="0.200000" d="M700.45,-1160.47C702.16,-1160.25 703.9,-1160.03 705.63,-1159.81"/>
<polygon fill="#000000" fill-opacity="0.200000" stroke="#000000" stroke-width="2" stroke-opacity="0.200000" points="705.68,-1161.92 711.37,-1159.08 705.15,-1157.75 705.68,-1161.92"/>
</g>
<!-- src/widgets/consultation/consultation.ui.tsx&#45;&gt;src/widgets/consultation/consultation.scss -->
<g id="edge14" class="edge">
<title>src/widgets/consultation/consultation.ui.tsx&#45;&gt;src/widgets/consultation/consultation.scss</title>
<path fill="none" stroke="#000000" stroke-width="2" stroke-opacity="0.200000" d="M700.46,-1168.1C733.84,-1169.27 781.01,-1169.95 822.25,-1167 823.76,-1166.89 825.28,-1166.77 826.82,-1166.63"/>
<polygon fill="#000000" fill-opacity="0.200000" stroke="#000000" stroke-width="2" stroke-opacity="0.200000" points="826.96,-1168.73 832.72,-1166.02 826.53,-1164.55 826.96,-1168.73"/>
</g>
<!-- src/widgets/consultation/index.ts -->
<g id="node26" class="node">
<title>src/widgets/consultation/index.ts</title>
<g id="a_node26"><a xlink:href="src/widgets/consultation/index.ts" xlink:title="index.ts">
<path fill="#ddfeff" stroke="black" d="M564.33,-1168.25C564.33,-1168.25 522.67,-1168.25 522.67,-1168.25 519.58,-1168.25 516.5,-1165.17 516.5,-1162.08 516.5,-1162.08 516.5,-1155.92 516.5,-1155.92 516.5,-1152.83 519.58,-1149.75 522.67,-1149.75 522.67,-1149.75 564.33,-1149.75 564.33,-1149.75 567.42,-1149.75 570.5,-1152.83 570.5,-1155.92 570.5,-1155.92 570.5,-1162.08 570.5,-1162.08 570.5,-1165.17 567.42,-1168.25 564.33,-1168.25"/>
<text text-anchor="start" x="527.75" y="-1155.7" font-family="Helvetica,sans-Serif" font-size="9.00">index.ts</text>
</a>
</g>
</g>
<!-- src/widgets/consultation/index.ts&#45;&gt;src/widgets/consultation/consultation.modal.tsx -->
<g id="edge15" class="edge">
<title>src/widgets/consultation/index.ts&#45;&gt;src/widgets/consultation/consultation.modal.tsx</title>
<path fill="none" stroke="#000000" stroke-width="2" stroke-opacity="0.200000" d="M570.87,-1155.08C582.99,-1153.47 597.57,-1151.79 610.75,-1151 642.74,-1149.08 678.47,-1149.14 707.7,-1149.77"/>
<polygon fill="#000000" fill-opacity="0.200000" stroke="#000000" stroke-width="2" stroke-opacity="0.200000" points="713.55,-1152 707.6,-1149.76 713.65,-1147.8 713.55,-1152"/>
</g>
<!-- src/widgets/consultation/index.ts&#45;&gt;src/widgets/consultation/consultation.ui.tsx -->
<g id="edge16" class="edge">
<title>src/widgets/consultation/index.ts&#45;&gt;src/widgets/consultation/consultation.ui.tsx</title>
<path fill="none" stroke="#000000" stroke-width="2" stroke-opacity="0.200000" d="M570.94,-1160.68C580.97,-1161.31 592.77,-1162.06 604.29,-1162.79"/>
<polygon fill="#000000" fill-opacity="0.200000" stroke="#000000" stroke-width="2" stroke-opacity="0.200000" points="610.28,-1165.28 604.43,-1162.8 610.55,-1161.08 610.28,-1165.28"/>
</g>
<!-- src/widgets/contact/contact.scss -->
<g id="node27" class="node">
<title>src/widgets/contact/contact.scss</title>
<g id="a_node27"><a xlink:href="src/widgets/contact/contact.scss" xlink:title="contact.scss">
<path fill="#ffffcc" stroke="black" d="M570.08,-1029.25C570.08,-1029.25 516.92,-1029.25 516.92,-1029.25 513.83,-1029.25 510.75,-1026.17 510.75,-1023.08 510.75,-1023.08 510.75,-1016.92 510.75,-1016.92 510.75,-1013.83 513.83,-1010.75 516.92,-1010.75 516.92,-1010.75 570.08,-1010.75 570.08,-1010.75 573.17,-1010.75 576.25,-1013.83 576.25,-1016.92 576.25,-1016.92 576.25,-1023.08 576.25,-1023.08 576.25,-1026.17 573.17,-1029.25 570.08,-1029.25"/>
<text text-anchor="start" x="518.75" y="-1016.7" font-family="Helvetica,sans-Serif" font-size="9.00">contact.scss</text>
</a>
</g>
</g>
<!-- src/widgets/contact/contact.ui.tsx -->
<g id="node28" class="node">
<title>src/widgets/contact/contact.ui.tsx</title>
<g id="a_node28"><a xlink:href="src/widgets/contact/contact.ui.tsx" xlink:title="contact.ui.tsx">
<path fill="#bbfeff" stroke="black" d="M455.96,-1029.25C455.96,-1029.25 399.79,-1029.25 399.79,-1029.25 396.71,-1029.25 393.62,-1026.17 393.62,-1023.08 393.62,-1023.08 393.62,-1016.92 393.62,-1016.92 393.62,-1013.83 396.71,-1010.75 399.79,-1010.75 399.79,-1010.75 455.96,-1010.75 455.96,-1010.75 459.04,-1010.75 462.12,-1013.83 462.12,-1016.92 462.12,-1016.92 462.12,-1023.08 462.12,-1023.08 462.12,-1026.17 459.04,-1029.25 455.96,-1029.25"/>
<text text-anchor="start" x="401.62" y="-1016.7" font-family="Helvetica,sans-Serif" font-size="9.00">contact.ui.tsx</text>
</a>
</g>
</g>
<!-- src/widgets/contact/contact.ui.tsx&#45;&gt;src/widgets/contact/contact.scss -->
<g id="edge17" class="edge">
<title>src/widgets/contact/contact.ui.tsx&#45;&gt;src/widgets/contact/contact.scss</title>
<path fill="none" stroke="#000000" stroke-width="2" stroke-opacity="0.200000" d="M462.35,-1020C474.69,-1020 488.81,-1020 501.72,-1020"/>
<polygon fill="#000000" fill-opacity="0.200000" stroke="#000000" stroke-width="2" stroke-opacity="0.200000" points="501.41,-1022.1 507.41,-1020 501.41,-1017.9 501.41,-1022.1"/>
</g>
<!-- src/widgets/contact/index.ts -->
<g id="node29" class="node">
<title>src/widgets/contact/index.ts</title>
<g id="a_node29"><a xlink:href="src/widgets/contact/index.ts" xlink:title="index.ts">
<path fill="#ddfeff" stroke="black" d="M331.71,-1029.25C331.71,-1029.25 290.04,-1029.25 290.04,-1029.25 286.96,-1029.25 283.88,-1026.17 283.88,-1023.08 283.88,-1023.08 283.88,-1016.92 283.88,-1016.92 283.88,-1013.83 286.96,-1010.75 290.04,-1010.75 290.04,-1010.75 331.71,-1010.75 331.71,-1010.75 334.79,-1010.75 337.88,-1013.83 337.88,-1016.92 337.88,-1016.92 337.88,-1023.08 337.88,-1023.08 337.88,-1026.17 334.79,-1029.25 331.71,-1029.25"/>
<text text-anchor="start" x="295.12" y="-1016.7" font-family="Helvetica,sans-Serif" font-size="9.00">index.ts</text>
</a>
</g>
</g>
<!-- src/widgets/contact/index.ts&#45;&gt;src/widgets/contact/contact.ui.tsx -->
<g id="edge18" class="edge">
<title>src/widgets/contact/index.ts&#45;&gt;src/widgets/contact/contact.ui.tsx</title>
<path fill="none" stroke="#000000" stroke-width="2" stroke-opacity="0.200000" d="M338.26,-1020C352.4,-1020 370.15,-1020 386.03,-1020"/>
<polygon fill="#000000" fill-opacity="0.200000" stroke="#000000" stroke-width="2" stroke-opacity="0.200000" points="392.18,-1022.1 386.18,-1020 392.18,-1017.9 392.18,-1022.1"/>
</g>
<!-- src/widgets/documentation/documentation.scss -->
<g id="node30" class="node">
<title>src/widgets/documentation/documentation.scss</title>
<g id="a_node30"><a xlink:href="src/widgets/documentation/documentation.scss" xlink:title="documentation.scss">
<path fill="#ffffcc" stroke="black" d="M585.83,-1090.25C585.83,-1090.25 501.17,-1090.25 501.17,-1090.25 498.08,-1090.25 495,-1087.17 495,-1084.08 495,-1084.08 495,-1077.92 495,-1077.92 495,-1074.83 498.08,-1071.75 501.17,-1071.75 501.17,-1071.75 585.83,-1071.75 585.83,-1071.75 588.92,-1071.75 592,-1074.83 592,-1077.92 592,-1077.92 592,-1084.08 592,-1084.08 592,-1087.17 588.92,-1090.25 585.83,-1090.25"/>
<text text-anchor="start" x="503" y="-1077.7" font-family="Helvetica,sans-Serif" font-size="9.00">documentation.scss</text>
</a>
</g>
</g>
<!-- src/widgets/documentation/documentation.ui.tsx -->
<g id="node31" class="node">
<title>src/widgets/documentation/documentation.ui.tsx</title>
<g id="a_node31"><a xlink:href="src/widgets/documentation/documentation.ui.tsx" xlink:title="documentation.ui.tsx">
<path fill="#bbfeff" stroke="black" d="M471.71,-1090.25C471.71,-1090.25 384.04,-1090.25 384.04,-1090.25 380.96,-1090.25 377.88,-1087.17 377.88,-1084.08 377.88,-1084.08 377.88,-1077.92 377.88,-1077.92 377.88,-1074.83 380.96,-1071.75 384.04,-1071.75 384.04,-1071.75 471.71,-1071.75 471.71,-1071.75 474.79,-1071.75 477.88,-1074.83 477.88,-1077.92 477.88,-1077.92 477.88,-1084.08 477.88,-1084.08 477.88,-1087.17 474.79,-1090.25 471.71,-1090.25"/>
<text text-anchor="start" x="385.88" y="-1077.7" font-family="Helvetica,sans-Serif" font-size="9.00">documentation.ui.tsx</text>
</a>
</g>
</g>
<!-- src/widgets/documentation/documentation.ui.tsx&#45;&gt;src/widgets/documentation/documentation.scss -->
<g id="edge19" class="edge">
<title>src/widgets/documentation/documentation.ui.tsx&#45;&gt;src/widgets/documentation/documentation.scss</title>
<path fill="none" stroke="#000000" stroke-width="2" stroke-opacity="0.200000" d="M478.05,-1081C480.64,-1081 483.25,-1081 485.85,-1081"/>
<polygon fill="#000000" fill-opacity="0.200000" stroke="#000000" stroke-width="2" stroke-opacity="0.200000" points="485.66,-1083.1 491.66,-1081 485.66,-1078.9 485.66,-1083.1"/>
</g>
<!-- src/widgets/documentation/index.ts -->
<g id="node32" class="node">
<title>src/widgets/documentation/index.ts</title>
<g id="a_node32"><a xlink:href="src/widgets/documentation/index.ts" xlink:title="index.ts">
<path fill="#ddfeff" stroke="black" d="M331.71,-1090.25C331.71,-1090.25 290.04,-1090.25 290.04,-1090.25 286.96,-1090.25 283.88,-1087.17 283.88,-1084.08 283.88,-1084.08 283.88,-1077.92 283.88,-1077.92 283.88,-1074.83 286.96,-1071.75 290.04,-1071.75 290.04,-1071.75 331.71,-1071.75 331.71,-1071.75 334.79,-1071.75 337.88,-1074.83 337.88,-1077.92 337.88,-1077.92 337.88,-1084.08 337.88,-1084.08 337.88,-1087.17 334.79,-1090.25 331.71,-1090.25"/>
<text text-anchor="start" x="295.12" y="-1077.7" font-family="Helvetica,sans-Serif" font-size="9.00">index.ts</text>
</a>
</g>
</g>
<!-- src/widgets/documentation/index.ts&#45;&gt;src/widgets/documentation/documentation.ui.tsx -->
<g id="edge20" class="edge">
<title>src/widgets/documentation/index.ts&#45;&gt;src/widgets/documentation/documentation.ui.tsx</title>
<path fill="none" stroke="#000000" stroke-width="2" stroke-opacity="0.200000" d="M338.26,-1081C347.92,-1081 359.27,-1081 370.55,-1081"/>
<polygon fill="#000000" fill-opacity="0.200000" stroke="#000000" stroke-width="2" stroke-opacity="0.200000" points="376.55,-1083.1 370.55,-1081 376.55,-1078.9 376.55,-1083.1"/>
</g>
<!-- src/widgets/faq/faq.scss -->
<g id="node33" class="node">
<title>src/widgets/faq/faq.scss</title>
<g id="a_node33"><a xlink:href="src/widgets/faq/faq.scss" xlink:title="faq.scss">
<path fill="#ffffcc" stroke="black" d="M331.71,-836.25C331.71,-836.25 290.04,-836.25 290.04,-836.25 286.96,-836.25 283.88,-833.17 283.88,-830.08 283.88,-830.08 283.88,-823.92 283.88,-823.92 283.88,-820.83 286.96,-817.75 290.04,-817.75 290.04,-817.75 331.71,-817.75 331.71,-817.75 334.79,-817.75 337.88,-820.83 337.88,-823.92 337.88,-823.92 337.88,-830.08 337.88,-830.08 337.88,-833.17 334.79,-836.25 331.71,-836.25"/>
<text text-anchor="start" x="294.38" y="-823.7" font-family="Helvetica,sans-Serif" font-size="9.00">faq.scss</text>
</a>
</g>
</g>
<!-- src/widgets/faq/faq.ui.tsx -->
<g id="node34" class="node">
<title>src/widgets/faq/faq.ui.tsx</title>
<g id="a_node34"><a xlink:href="src/widgets/faq/faq.ui.tsx" xlink:title="faq.ui.tsx">
<path fill="#bbfeff" stroke="black" d="M218.46,-836.25C218.46,-836.25 176.79,-836.25 176.79,-836.25 173.71,-836.25 170.62,-833.17 170.62,-830.08 170.62,-830.08 170.62,-823.92 170.62,-823.92 170.62,-820.83 173.71,-817.75 176.79,-817.75 176.79,-817.75 218.46,-817.75 218.46,-817.75 221.54,-817.75 224.62,-820.83 224.62,-823.92 224.62,-823.92 224.62,-830.08 224.62,-830.08 224.62,-833.17 221.54,-836.25 218.46,-836.25"/>
<text text-anchor="start" x="179.62" y="-823.7" font-family="Helvetica,sans-Serif" font-size="9.00">faq.ui.tsx</text>
</a>
</g>
</g>
<!-- src/widgets/faq/faq.ui.tsx&#45;&gt;src/widgets/faq/faq.scss -->
<g id="edge21" class="edge">
<title>src/widgets/faq/faq.ui.tsx&#45;&gt;src/widgets/faq/faq.scss</title>
<path fill="none" stroke="#000000" stroke-width="2" stroke-opacity="0.200000" d="M224.99,-827C239.95,-827 258.87,-827 275.04,-827"/>
<polygon fill="#000000" fill-opacity="0.200000" stroke="#000000" stroke-width="2" stroke-opacity="0.200000" points="274.67,-829.1 280.67,-827 274.67,-824.9 274.67,-829.1"/>
</g>
<!-- src/widgets/faq/index.ts -->
<g id="node35" class="node">
<title>src/widgets/faq/index.ts</title>
<g id="a_node35"><a xlink:href="src/widgets/faq/index.ts" xlink:title="index.ts">
<path fill="#ddfeff" stroke="black" d="M102.08,-836.25C102.08,-836.25 60.42,-836.25 60.42,-836.25 57.33,-836.25 54.25,-833.17 54.25,-830.08 54.25,-830.08 54.25,-823.92 54.25,-823.92 54.25,-820.83 57.33,-817.75 60.42,-817.75 60.42,-817.75 102.08,-817.75 102.08,-817.75 105.17,-817.75 108.25,-820.83 108.25,-823.92 108.25,-823.92 108.25,-830.08 108.25,-830.08 108.25,-833.17 105.17,-836.25 102.08,-836.25"/>
<text text-anchor="start" x="65.5" y="-823.7" font-family="Helvetica,sans-Serif" font-size="9.00">index.ts</text>
</a>
</g>
</g>
<!-- src/widgets/faq/index.ts&#45;&gt;src/widgets/faq/faq.ui.tsx -->
<g id="edge22" class="edge">
<title>src/widgets/faq/index.ts&#45;&gt;src/widgets/faq/faq.ui.tsx</title>
<path fill="none" stroke="#000000" stroke-width="2" stroke-opacity="0.200000" d="M108.49,-827C124.91,-827 146.2,-827 163.74,-827"/>
<polygon fill="#000000" fill-opacity="0.200000" stroke="#000000" stroke-width="2" stroke-opacity="0.200000" points="169.51,-829.1 163.51,-827 169.51,-824.9 169.51,-829.1"/>
</g>
<!-- src/widgets/footer/footer.scss -->
<g id="node36" class="node">
<title>src/widgets/footer/footer.scss</title>
<g id="a_node36"><a xlink:href="src/widgets/footer/footer.scss" xlink:title="footer.scss">
<path fill="#ffffcc" stroke="black" d="M334.08,-968.25C334.08,-968.25 287.67,-968.25 287.67,-968.25 284.58,-968.25 281.5,-965.17 281.5,-962.08 281.5,-962.08 281.5,-955.92 281.5,-955.92 281.5,-952.83 284.58,-949.75 287.67,-949.75 287.67,-949.75 334.08,-949.75 334.08,-949.75 337.17,-949.75 340.25,-952.83 340.25,-955.92 340.25,-955.92 340.25,-962.08 340.25,-962.08 340.25,-965.17 337.17,-968.25 334.08,-968.25"/>
<text text-anchor="start" x="289.5" y="-955.7" font-family="Helvetica,sans-Serif" font-size="9.00">footer.scss</text>
</a>
</g>
</g>
<!-- src/widgets/footer/footer.ui.tsx -->
<g id="node37" class="node">
<title>src/widgets/footer/footer.ui.tsx</title>
<g id="a_node37"><a xlink:href="src/widgets/footer/footer.ui.tsx" xlink:title="footer.ui.tsx">
<path fill="#bbfeff" stroke="black" d="M222.33,-968.25C222.33,-968.25 172.92,-968.25 172.92,-968.25 169.83,-968.25 166.75,-965.17 166.75,-962.08 166.75,-962.08 166.75,-955.92 166.75,-955.92 166.75,-952.83 169.83,-949.75 172.92,-949.75 172.92,-949.75 222.33,-949.75 222.33,-949.75 225.42,-949.75 228.5,-952.83 228.5,-955.92 228.5,-955.92 228.5,-962.08 228.5,-962.08 228.5,-965.17 225.42,-968.25 222.33,-968.25"/>
<text text-anchor="start" x="174.75" y="-955.7" font-family="Helvetica,sans-Serif" font-size="9.00">footer.ui.tsx</text>
</a>
</g>
</g>
<!-- src/widgets/footer/footer.ui.tsx&#45;&gt;src/widgets/policy/index.ts -->
<g id="edge25" class="edge">
<title>src/widgets/footer/footer.ui.tsx&#45;&gt;src/widgets/policy/index.ts</title>
<path fill="none" stroke="#000000" stroke-width="2" stroke-opacity="0.200000" d="M203.52,-949.52C213.31,-931.68 237.23,-893.52 269.88,-878 301.41,-863.01 391.96,-872 426.88,-872 426.88,-872 426.88,-872 656.88,-872 771,-872 847.28,-1021.17 870.45,-1073.28"/>
<polygon fill="#000000" fill-opacity="0.200000" stroke="#000000" stroke-width="2" stroke-opacity="0.200000" points="868.41,-1073.86 872.72,-1078.53 872.26,-1072.19 868.41,-1073.86"/>
</g>
<!-- src/widgets/footer/footer.ui.tsx&#45;&gt;src/widgets/contact/index.ts -->
<g id="edge23" class="edge">
<title>src/widgets/footer/footer.ui.tsx&#45;&gt;src/widgets/contact/index.ts</title>
<path fill="none" stroke="#000000" stroke-width="2" stroke-opacity="0.200000" d="M216.01,-968.53C234.35,-978.59 263.45,-994.54 284.38,-1006.02"/>
<polygon fill="#000000" fill-opacity="0.200000" stroke="#000000" stroke-width="2" stroke-opacity="0.200000" points="283.32,-1007.84 289.59,-1008.88 285.34,-1004.15 283.32,-1007.84"/>
</g>
<!-- src/widgets/footer/footer.ui.tsx&#45;&gt;src/widgets/documentation/index.ts -->
<g id="edge24" class="edge">
<title>src/widgets/footer/footer.ui.tsx&#45;&gt;src/widgets/documentation/index.ts</title>
<path fill="none" stroke="#000000" stroke-width="2" stroke-opacity="0.200000" d="M203.54,-968.62C213.74,-987.81 238.82,-1031.36 269.88,-1059 273.11,-1061.88 276.78,-1064.53 280.56,-1066.92"/>
<polygon fill="#000000" fill-opacity="0.200000" stroke="#000000" stroke-width="2" stroke-opacity="0.200000" points="279.5,-1068.73 285.75,-1069.93 281.61,-1065.1 279.5,-1068.73"/>
</g>
<!-- src/widgets/footer/footer.ui.tsx&#45;&gt;src/widgets/footer/footer.scss -->
<g id="edge27" class="edge">
<title>src/widgets/footer/footer.ui.tsx&#45;&gt;src/widgets/footer/footer.scss</title>
<path fill="none" stroke="#000000" stroke-width="2" stroke-opacity="0.200000" d="M228.73,-959C242.14,-959 258.07,-959 272.26,-959"/>
<polygon fill="#000000" fill-opacity="0.200000" stroke="#000000" stroke-width="2" stroke-opacity="0.200000" points="272.25,-961.1 278.25,-959 272.25,-956.9 272.25,-961.1"/>
</g>
<!-- src/widgets/vacancy/index.ts -->
<g id="node38" class="node">
<title>src/widgets/vacancy/index.ts</title>
<g id="a_node38"><a xlink:href="src/widgets/vacancy/index.ts" xlink:title="index.ts">
<path fill="#ddfeff" stroke="black" d="M331.71,-907.25C331.71,-907.25 290.04,-907.25 290.04,-907.25 286.96,-907.25 283.88,-904.17 283.88,-901.08 283.88,-901.08 283.88,-894.92 283.88,-894.92 283.88,-891.83 286.96,-888.75 290.04,-888.75 290.04,-888.75 331.71,-888.75 331.71,-888.75 334.79,-888.75 337.88,-891.83 337.88,-894.92 337.88,-894.92 337.88,-901.08 337.88,-901.08 337.88,-904.17 334.79,-907.25 331.71,-907.25"/>
<text text-anchor="start" x="295.12" y="-894.7" font-family="Helvetica,sans-Serif" font-size="9.00">index.ts</text>
</a>
</g>
</g>
<!-- src/widgets/footer/footer.ui.tsx&#45;&gt;src/widgets/vacancy/index.ts -->
<g id="edge26" class="edge">
<title>src/widgets/footer/footer.ui.tsx&#45;&gt;src/widgets/vacancy/index.ts</title>
<path fill="none" stroke="#000000" stroke-width="2" stroke-opacity="0.200000" d="M216.01,-949.47C234.35,-939.41 263.45,-923.46 284.38,-911.98"/>
<polygon fill="#000000" fill-opacity="0.200000" stroke="#000000" stroke-width="2" stroke-opacity="0.200000" points="285.34,-913.85 289.59,-909.12 283.32,-910.16 285.34,-913.85"/>
</g>
<!-- src/widgets/vacancy/vacancy.ui.tsx -->
<g id="node58" class="node">
<title>src/widgets/vacancy/vacancy.ui.tsx</title>
<g id="a_node58"><a xlink:href="src/widgets/vacancy/vacancy.ui.tsx" xlink:title="vacancy.ui.tsx">
<path fill="#bbfeff" stroke="black" d="M457.83,-907.25C457.83,-907.25 397.92,-907.25 397.92,-907.25 394.83,-907.25 391.75,-904.17 391.75,-901.08 391.75,-901.08 391.75,-894.92 391.75,-894.92 391.75,-891.83 394.83,-888.75 397.92,-888.75 397.92,-888.75 457.83,-888.75 457.83,-888.75 460.92,-888.75 464,-891.83 464,-894.92 464,-894.92 464,-901.08 464,-901.08 464,-904.17 460.92,-907.25 457.83,-907.25"/>
<text text-anchor="start" x="399.75" y="-894.7" font-family="Helvetica,sans-Serif" font-size="9.00">vacancy.ui.tsx</text>
</a>
</g>
</g>
<!-- src/widgets/vacancy/index.ts&#45;&gt;src/widgets/vacancy/vacancy.ui.tsx -->
<g id="edge49" class="edge">
<title>src/widgets/vacancy/index.ts&#45;&gt;src/widgets/vacancy/vacancy.ui.tsx</title>
<path fill="none" stroke="#000000" stroke-width="2" stroke-opacity="0.200000" d="M338.26,-898C351.94,-898 369,-898 384.48,-898"/>
<polygon fill="#000000" fill-opacity="0.200000" stroke="#000000" stroke-width="2" stroke-opacity="0.200000" points="390.46,-900.1 384.46,-898 390.46,-895.9 390.46,-900.1"/>
</g>
<!-- src/widgets/footer/index.ts -->
<g id="node39" class="node">
<title>src/widgets/footer/index.ts</title>
<g id="a_node39"><a xlink:href="src/widgets/footer/index.ts" xlink:title="index.ts">
<path fill="#ddfeff" stroke="black" d="M102.08,-968.25C102.08,-968.25 60.42,-968.25 60.42,-968.25 57.33,-968.25 54.25,-965.17 54.25,-962.08 54.25,-962.08 54.25,-955.92 54.25,-955.92 54.25,-952.83 57.33,-949.75 60.42,-949.75 60.42,-949.75 102.08,-949.75 102.08,-949.75 105.17,-949.75 108.25,-952.83 108.25,-955.92 108.25,-955.92 108.25,-962.08 108.25,-962.08 108.25,-965.17 105.17,-968.25 102.08,-968.25"/>
<text text-anchor="start" x="65.5" y="-955.7" font-family="Helvetica,sans-Serif" font-size="9.00">index.ts</text>
</a>
</g>
</g>
<!-- src/widgets/footer/index.ts&#45;&gt;src/widgets/footer/footer.ui.tsx -->
<g id="edge28" class="edge">
<title>src/widgets/footer/index.ts&#45;&gt;src/widgets/footer/footer.ui.tsx</title>
<path fill="none" stroke="#000000" stroke-width="2" stroke-opacity="0.200000" d="M108.49,-959C123.61,-959 142.86,-959 159.51,-959"/>
<polygon fill="#000000" fill-opacity="0.200000" stroke="#000000" stroke-width="2" stroke-opacity="0.200000" points="165.47,-961.1 159.47,-959 165.47,-956.9 165.47,-961.1"/>
</g>
<!-- src/widgets/header/header.scss -->
<g id="node40" class="node">
<title>src/widgets/header/header.scss</title>
<g id="a_node40"><a xlink:href="src/widgets/header/header.scss" xlink:title="header.scss">
<path fill="#ffffcc" stroke="black" d="M337.08,-1151.25C337.08,-1151.25 284.67,-1151.25 284.67,-1151.25 281.58,-1151.25 278.5,-1148.17 278.5,-1145.08 278.5,-1145.08 278.5,-1138.92 278.5,-1138.92 278.5,-1135.83 281.58,-1132.75 284.67,-1132.75 284.67,-1132.75 337.08,-1132.75 337.08,-1132.75 340.17,-1132.75 343.25,-1135.83 343.25,-1138.92 343.25,-1138.92 343.25,-1145.08 343.25,-1145.08 343.25,-1148.17 340.17,-1151.25 337.08,-1151.25"/>
<text text-anchor="start" x="286.5" y="-1138.7" font-family="Helvetica,sans-Serif" font-size="9.00">header.scss</text>
</a>
</g>
</g>
<!-- src/widgets/header/header.ui.tsx -->
<g id="node41" class="node">
<title>src/widgets/header/header.ui.tsx</title>
<g id="a_node41"><a xlink:href="src/widgets/header/header.ui.tsx" xlink:title="header.ui.tsx">
<path fill="#bbfeff" stroke="black" d="M225.33,-1151.25C225.33,-1151.25 169.92,-1151.25 169.92,-1151.25 166.83,-1151.25 163.75,-1148.17 163.75,-1145.08 163.75,-1145.08 163.75,-1138.92 163.75,-1138.92 163.75,-1135.83 166.83,-1132.75 169.92,-1132.75 169.92,-1132.75 225.33,-1132.75 225.33,-1132.75 228.42,-1132.75 231.5,-1135.83 231.5,-1138.92 231.5,-1138.92 231.5,-1145.08 231.5,-1145.08 231.5,-1148.17 228.42,-1151.25 225.33,-1151.25"/>
<text text-anchor="start" x="171.75" y="-1138.7" font-family="Helvetica,sans-Serif" font-size="9.00">header.ui.tsx</text>
</a>
</g>
</g>
<!-- src/widgets/header/header.ui.tsx&#45;&gt;src/widgets/contact/index.ts -->
<g id="edge29" class="edge">
<title>src/widgets/header/header.ui.tsx&#45;&gt;src/widgets/contact/index.ts</title>
<path fill="none" stroke="#000000" stroke-width="2" stroke-opacity="0.200000" d="M206.8,-1132.38C219.89,-1117.06 246.45,-1086.28 269.88,-1061 277.64,-1052.62 286.48,-1043.51 293.88,-1036.01"/>
<polygon fill="#000000" fill-opacity="0.200000" stroke="#000000" stroke-width="2" stroke-opacity="0.200000" points="295.33,-1037.53 298.06,-1031.79 292.35,-1034.57 295.33,-1037.53"/>
</g>
<!-- src/widgets/header/header.ui.tsx&#45;&gt;src/widgets/documentation/index.ts -->
<g id="edge30" class="edge">
<title>src/widgets/header/header.ui.tsx&#45;&gt;src/widgets/documentation/index.ts</title>
<path fill="none" stroke="#000000" stroke-width="2" stroke-opacity="0.200000" d="M216.01,-1132.47C234.35,-1122.41 263.45,-1106.46 284.38,-1094.98"/>
<polygon fill="#000000" fill-opacity="0.200000" stroke="#000000" stroke-width="2" stroke-opacity="0.200000" points="285.34,-1096.85 289.59,-1092.12 283.32,-1093.16 285.34,-1096.85"/>
</g>
<!-- src/widgets/header/header.ui.tsx&#45;&gt;src/widgets/header/header.scss -->
<g id="edge31" class="edge">
<title>src/widgets/header/header.ui.tsx&#45;&gt;src/widgets/header/header.scss</title>
<path fill="none" stroke="#000000" stroke-width="2" stroke-opacity="0.200000" d="M231.7,-1142C243.56,-1142 257.06,-1142 269.46,-1142"/>
<polygon fill="#000000" fill-opacity="0.200000" stroke="#000000" stroke-width="2" stroke-opacity="0.200000" points="269.23,-1144.1 275.23,-1142 269.23,-1139.9 269.23,-1144.1"/>
</g>
<!-- src/widgets/header/index.ts -->
<g id="node42" class="node">
<title>src/widgets/header/index.ts</title>
<g id="a_node42"><a xlink:href="src/widgets/header/index.ts" xlink:title="index.ts">
<path fill="#ddfeff" stroke="black" d="M102.08,-1151.25C102.08,-1151.25 60.42,-1151.25 60.42,-1151.25 57.33,-1151.25 54.25,-1148.17 54.25,-1145.08 54.25,-1145.08 54.25,-1138.92 54.25,-1138.92 54.25,-1135.83 57.33,-1132.75 60.42,-1132.75 60.42,-1132.75 102.08,-1132.75 102.08,-1132.75 105.17,-1132.75 108.25,-1135.83 108.25,-1138.92 108.25,-1138.92 108.25,-1145.08 108.25,-1145.08 108.25,-1148.17 105.17,-1151.25 102.08,-1151.25"/>
<text text-anchor="start" x="65.5" y="-1138.7" font-family="Helvetica,sans-Serif" font-size="9.00">index.ts</text>
</a>
</g>
</g>
<!-- src/widgets/header/index.ts&#45;&gt;src/widgets/header/header.ui.tsx -->
<g id="edge32" class="edge">
<title>src/widgets/header/index.ts&#45;&gt;src/widgets/header/header.ui.tsx</title>
<path fill="none" stroke="#000000" stroke-width="2" stroke-opacity="0.200000" d="M108.49,-1142C122.67,-1142 140.49,-1142 156.39,-1142"/>
<polygon fill="#000000" fill-opacity="0.200000" stroke="#000000" stroke-width="2" stroke-opacity="0.200000" points="162.54,-1144.1 156.54,-1142 162.54,-1139.9 162.54,-1144.1"/>
</g>
<!-- src/widgets/hero/hero.scss -->
<g id="node43" class="node">
<title>src/widgets/hero/hero.scss</title>
<g id="a_node43"><a xlink:href="src/widgets/hero/hero.scss" xlink:title="hero.scss">
<path fill="#ffffcc" stroke="black" d="M564.83,-1236.25C564.83,-1236.25 522.17,-1236.25 522.17,-1236.25 519.08,-1236.25 516,-1233.17 516,-1230.08 516,-1230.08 516,-1223.92 516,-1223.92 516,-1220.83 519.08,-1217.75 522.17,-1217.75 522.17,-1217.75 564.83,-1217.75 564.83,-1217.75 567.92,-1217.75 571,-1220.83 571,-1223.92 571,-1223.92 571,-1230.08 571,-1230.08 571,-1233.17 567.92,-1236.25 564.83,-1236.25"/>
<text text-anchor="start" x="524" y="-1223.7" font-family="Helvetica,sans-Serif" font-size="9.00">hero.scss</text>
</a>
</g>
</g>
<!-- src/widgets/hero/hero.ui.tsx -->
<g id="node44" class="node">
<title>src/widgets/hero/hero.ui.tsx</title>
<g id="a_node44"><a xlink:href="src/widgets/hero/hero.ui.tsx" xlink:title="hero.ui.tsx">
<path fill="#bbfeff" stroke="black" d="M450.71,-1236.25C450.71,-1236.25 405.04,-1236.25 405.04,-1236.25 401.96,-1236.25 398.88,-1233.17 398.88,-1230.08 398.88,-1230.08 398.88,-1223.92 398.88,-1223.92 398.88,-1220.83 401.96,-1217.75 405.04,-1217.75 405.04,-1217.75 450.71,-1217.75 450.71,-1217.75 453.79,-1217.75 456.88,-1220.83 456.88,-1223.92 456.88,-1223.92 456.88,-1230.08 456.88,-1230.08 456.88,-1233.17 453.79,-1236.25 450.71,-1236.25"/>
<text text-anchor="start" x="406.88" y="-1223.7" font-family="Helvetica,sans-Serif" font-size="9.00">hero.ui.tsx</text>
</a>
</g>
</g>
<!-- src/widgets/hero/hero.ui.tsx&#45;&gt;src/widgets/policy/index.ts -->
<g id="edge34" class="edge">
<title>src/widgets/hero/hero.ui.tsx&#45;&gt;src/widgets/policy/index.ts</title>
<path fill="none" stroke="#000000" stroke-width="2" stroke-opacity="0.200000" d="M432.37,-1217.4C440.14,-1197.56 460.94,-1152.17 495,-1132 495.94,-1131.45 748.28,-1104.71 842.74,-1094.72"/>
<polygon fill="#000000" fill-opacity="0.200000" stroke="#000000" stroke-width="2" stroke-opacity="0.200000" points="842.88,-1096.81 848.62,-1094.09 842.43,-1092.64 842.88,-1096.81"/>
</g>
<!-- src/widgets/hero/hero.ui.tsx&#45;&gt;src/widgets/consultation/index.ts -->
<g id="edge33" class="edge">
<title>src/widgets/hero/hero.ui.tsx&#45;&gt;src/widgets/consultation/index.ts</title>
<path fill="none" stroke="#000000" stroke-width="2" stroke-opacity="0.200000" d="M445.15,-1217.26C464.39,-1205.74 496.57,-1186.49 518.62,-1173.29"/>
<polygon fill="#000000" fill-opacity="0.200000" stroke="#000000" stroke-width="2" stroke-opacity="0.200000" points="519.58,-1175.16 523.65,-1170.28 517.43,-1171.56 519.58,-1175.16"/>
</g>
<!-- src/widgets/hero/hero.ui.tsx&#45;&gt;src/widgets/hero/hero.scss -->
<g id="edge35" class="edge">
<title>src/widgets/hero/hero.ui.tsx&#45;&gt;src/widgets/hero/hero.scss</title>
<path fill="none" stroke="#000000" stroke-width="2" stroke-opacity="0.200000" d="M457.25,-1227C472.34,-1227 491.03,-1227 507.06,-1227"/>
<polygon fill="#000000" fill-opacity="0.200000" stroke="#000000" stroke-width="2" stroke-opacity="0.200000" points="506.63,-1229.1 512.63,-1227 506.63,-1224.9 506.63,-1229.1"/>
</g>
<!-- src/widgets/hero/index.ts -->
<g id="node45" class="node">
<title>src/widgets/hero/index.ts</title>
<g id="a_node45"><a xlink:href="src/widgets/hero/index.ts" xlink:title="index.ts">
<path fill="#ddfeff" stroke="black" d="M331.71,-1236.25C331.71,-1236.25 290.04,-1236.25 290.04,-1236.25 286.96,-1236.25 283.88,-1233.17 283.88,-1230.08 283.88,-1230.08 283.88,-1223.92 283.88,-1223.92 283.88,-1220.83 286.96,-1217.75 290.04,-1217.75 290.04,-1217.75 331.71,-1217.75 331.71,-1217.75 334.79,-1217.75 337.88,-1220.83 337.88,-1223.92 337.88,-1223.92 337.88,-1230.08 337.88,-1230.08 337.88,-1233.17 334.79,-1236.25 331.71,-1236.25"/>
<text text-anchor="start" x="295.12" y="-1223.7" font-family="Helvetica,sans-Serif" font-size="9.00">index.ts</text>
</a>
</g>
</g>
<!-- src/widgets/hero/index.ts&#45;&gt;src/widgets/hero/hero.ui.tsx -->
<g id="edge36" class="edge">
<title>src/widgets/hero/index.ts&#45;&gt;src/widgets/hero/hero.ui.tsx</title>
<path fill="none" stroke="#000000" stroke-width="2" stroke-opacity="0.200000" d="M338.26,-1227C354.04,-1227 374.3,-1227 391.46,-1227"/>
<polygon fill="#000000" fill-opacity="0.200000" stroke="#000000" stroke-width="2" stroke-opacity="0.200000" points="397.6,-1229.1 391.6,-1227 397.6,-1224.9 397.6,-1229.1"/>
</g>
<!-- src/widgets/information/index.ts -->
<g id="node46" class="node">
<title>src/widgets/information/index.ts</title>
<g id="a_node46"><a xlink:href="src/widgets/information/index.ts" xlink:title="index.ts">
<path fill="#ddfeff" stroke="black" d="M102.08,-1297.25C102.08,-1297.25 60.42,-1297.25 60.42,-1297.25 57.33,-1297.25 54.25,-1294.17 54.25,-1291.08 54.25,-1291.08 54.25,-1284.92 54.25,-1284.92 54.25,-1281.83 57.33,-1278.75 60.42,-1278.75 60.42,-1278.75 102.08,-1278.75 102.08,-1278.75 105.17,-1278.75 108.25,-1281.83 108.25,-1284.92 108.25,-1284.92 108.25,-1291.08 108.25,-1291.08 108.25,-1294.17 105.17,-1297.25 102.08,-1297.25"/>
<text text-anchor="start" x="65.5" y="-1284.7" font-family="Helvetica,sans-Serif" font-size="9.00">index.ts</text>
</a>
</g>
</g>
<!-- src/widgets/information/information.ui.tsx -->
<g id="node47" class="node">
<title>src/widgets/information/information.ui.tsx</title>
<g id="a_node47"><a xlink:href="src/widgets/information/information.ui.tsx" xlink:title="information.ui.tsx">
<path fill="#bbfeff" stroke="black" d="M233.96,-1297.25C233.96,-1297.25 161.29,-1297.25 161.29,-1297.25 158.21,-1297.25 155.12,-1294.17 155.12,-1291.08 155.12,-1291.08 155.12,-1284.92 155.12,-1284.92 155.12,-1281.83 158.21,-1278.75 161.29,-1278.75 161.29,-1278.75 233.96,-1278.75 233.96,-1278.75 237.04,-1278.75 240.12,-1281.83 240.12,-1284.92 240.12,-1284.92 240.12,-1291.08 240.12,-1291.08 240.12,-1294.17 237.04,-1297.25 233.96,-1297.25"/>
<text text-anchor="start" x="163.12" y="-1284.7" font-family="Helvetica,sans-Serif" font-size="9.00">information.ui.tsx</text>
</a>
</g>
</g>
<!-- src/widgets/information/index.ts&#45;&gt;src/widgets/information/information.ui.tsx -->
<g id="edge37" class="edge">
<title>src/widgets/information/index.ts&#45;&gt;src/widgets/information/information.ui.tsx</title>
<path fill="none" stroke="#000000" stroke-width="2" stroke-opacity="0.200000" d="M108.49,-1288C120.17,-1288 134.32,-1288 147.83,-1288"/>
<polygon fill="#000000" fill-opacity="0.200000" stroke="#000000" stroke-width="2" stroke-opacity="0.200000" points="153.82,-1290.1 147.82,-1288 153.82,-1285.9 153.82,-1290.1"/>
</g>
<!-- src/widgets/information/information.scss -->
<g id="node48" class="node">
<title>src/widgets/information/information.scss</title>
<g id="a_node48"><a xlink:href="src/widgets/information/information.scss" xlink:title="information.scss">
<path fill="#ffffcc" stroke="black" d="M345.71,-1297.25C345.71,-1297.25 276.04,-1297.25 276.04,-1297.25 272.96,-1297.25 269.88,-1294.17 269.88,-1291.08 269.88,-1291.08 269.88,-1284.92 269.88,-1284.92 269.88,-1281.83 272.96,-1278.75 276.04,-1278.75 276.04,-1278.75 345.71,-1278.75 345.71,-1278.75 348.79,-1278.75 351.88,-1281.83 351.88,-1284.92 351.88,-1284.92 351.88,-1291.08 351.88,-1291.08 351.88,-1294.17 348.79,-1297.25 345.71,-1297.25"/>
<text text-anchor="start" x="277.88" y="-1284.7" font-family="Helvetica,sans-Serif" font-size="9.00">information.scss</text>
</a>
</g>
</g>
<!-- src/widgets/information/information.ui.tsx&#45;&gt;src/widgets/information/information.scss -->
<g id="edge38" class="edge">
<title>src/widgets/information/information.ui.tsx&#45;&gt;src/widgets/information/information.scss</title>
<path fill="none" stroke="#000000" stroke-width="2" stroke-opacity="0.200000" d="M240.37,-1288C246.89,-1288 253.69,-1288 260.38,-1288"/>
<polygon fill="#000000" fill-opacity="0.200000" stroke="#000000" stroke-width="2" stroke-opacity="0.200000" points="260.35,-1290.1 266.35,-1288 260.35,-1285.9 260.35,-1290.1"/>
</g>
<!-- src/widgets/nuaces/index.ts -->
<g id="node49" class="node">
<title>src/widgets/nuaces/index.ts</title>
<g id="a_node49"><a xlink:href="src/widgets/nuaces/index.ts" xlink:title="index.ts">
<path fill="#ddfeff" stroke="black" d="M102.08,-1358.25C102.08,-1358.25 60.42,-1358.25 60.42,-1358.25 57.33,-1358.25 54.25,-1355.17 54.25,-1352.08 54.25,-1352.08 54.25,-1345.92 54.25,-1345.92 54.25,-1342.83 57.33,-1339.75 60.42,-1339.75 60.42,-1339.75 102.08,-1339.75 102.08,-1339.75 105.17,-1339.75 108.25,-1342.83 108.25,-1345.92 108.25,-1345.92 108.25,-1352.08 108.25,-1352.08 108.25,-1355.17 105.17,-1358.25 102.08,-1358.25"/>
<text text-anchor="start" x="65.5" y="-1345.7" font-family="Helvetica,sans-Serif" font-size="9.00">index.ts</text>
</a>
</g>
</g>
<!-- src/widgets/nuaces/nuaces.ui.tsx -->
<g id="node50" class="node">
<title>src/widgets/nuaces/nuaces.ui.tsx</title>
<g id="a_node50"><a xlink:href="src/widgets/nuaces/nuaces.ui.tsx" xlink:title="nuaces.ui.tsx">
<path fill="#bbfeff" stroke="black" d="M226.08,-1358.25C226.08,-1358.25 169.17,-1358.25 169.17,-1358.25 166.08,-1358.25 163,-1355.17 163,-1352.08 163,-1352.08 163,-1345.92 163,-1345.92 163,-1342.83 166.08,-1339.75 169.17,-1339.75 169.17,-1339.75 226.08,-1339.75 226.08,-1339.75 229.17,-1339.75 232.25,-1342.83 232.25,-1345.92 232.25,-1345.92 232.25,-1352.08 232.25,-1352.08 232.25,-1355.17 229.17,-1358.25 226.08,-1358.25"/>
<text text-anchor="start" x="171" y="-1345.7" font-family="Helvetica,sans-Serif" font-size="9.00">nuaces.ui.tsx</text>
</a>
</g>
</g>
<!-- src/widgets/nuaces/index.ts&#45;&gt;src/widgets/nuaces/nuaces.ui.tsx -->
<g id="edge39" class="edge">
<title>src/widgets/nuaces/index.ts&#45;&gt;src/widgets/nuaces/nuaces.ui.tsx</title>
<path fill="none" stroke="#000000" stroke-width="2" stroke-opacity="0.200000" d="M108.49,-1349C122.44,-1349 139.92,-1349 155.62,-1349"/>
<polygon fill="#000000" fill-opacity="0.200000" stroke="#000000" stroke-width="2" stroke-opacity="0.200000" points="161.69,-1351.1 155.69,-1349 161.69,-1346.9 161.69,-1351.1"/>
</g>
<!-- src/widgets/nuaces/nuaces.scss -->
<g id="node51" class="node">
<title>src/widgets/nuaces/nuaces.scss</title>
<g id="a_node51"><a xlink:href="src/widgets/nuaces/nuaces.scss" xlink:title="nuaces.scss">
<path fill="#ffffcc" stroke="black" d="M337.83,-1358.25C337.83,-1358.25 283.92,-1358.25 283.92,-1358.25 280.83,-1358.25 277.75,-1355.17 277.75,-1352.08 277.75,-1352.08 277.75,-1345.92 277.75,-1345.92 277.75,-1342.83 280.83,-1339.75 283.92,-1339.75 283.92,-1339.75 337.83,-1339.75 337.83,-1339.75 340.92,-1339.75 344,-1342.83 344,-1345.92 344,-1345.92 344,-1352.08 344,-1352.08 344,-1355.17 340.92,-1358.25 337.83,-1358.25"/>
<text text-anchor="start" x="285.75" y="-1345.7" font-family="Helvetica,sans-Serif" font-size="9.00">nuaces.scss</text>
</a>
</g>
</g>
<!-- src/widgets/nuaces/nuaces.ui.tsx&#45;&gt;src/widgets/nuaces/nuaces.scss -->
<g id="edge40" class="edge">
<title>src/widgets/nuaces/nuaces.ui.tsx&#45;&gt;src/widgets/nuaces/nuaces.scss</title>
<path fill="none" stroke="#000000" stroke-width="2" stroke-opacity="0.200000" d="M232.61,-1349C244.01,-1349 256.86,-1349 268.75,-1349"/>
<polygon fill="#000000" fill-opacity="0.200000" stroke="#000000" stroke-width="2" stroke-opacity="0.200000" points="268.6,-1351.1 274.6,-1349 268.6,-1346.9 268.6,-1351.1"/>
</g>
<!-- src/widgets/policy/policy.scss -->
<g id="node53" class="node">
<title>src/widgets/policy/policy.scss</title>
<g id="a_node53"><a xlink:href="src/widgets/policy/policy.scss" xlink:title="policy.scss">
<path fill="#ffffcc" stroke="black" d="M1067.33,-1100.25C1067.33,-1100.25 1020.17,-1100.25 1020.17,-1100.25 1017.08,-1100.25 1014,-1097.17 1014,-1094.08 1014,-1094.08 1014,-1087.92 1014,-1087.92 1014,-1084.83 1017.08,-1081.75 1020.17,-1081.75 1020.17,-1081.75 1067.33,-1081.75 1067.33,-1081.75 1070.42,-1081.75 1073.5,-1084.83 1073.5,-1087.92 1073.5,-1087.92 1073.5,-1094.08 1073.5,-1094.08 1073.5,-1097.17 1070.42,-1100.25 1067.33,-1100.25"/>
<text text-anchor="start" x="1022" y="-1087.7" font-family="Helvetica,sans-Serif" font-size="9.00">policy.scss</text>
</a>
</g>
</g>
<!-- src/widgets/policy/policy.ui.tsx&#45;&gt;src/widgets/policy/policy.scss -->
<g id="edge42" class="edge">
<title>src/widgets/policy/policy.ui.tsx&#45;&gt;src/widgets/policy/policy.scss</title>
<path fill="none" stroke="#000000" stroke-width="2" stroke-opacity="0.200000" d="M1001.28,-1091C1002.45,-1091 1003.62,-1091 1004.8,-1091"/>
<polygon fill="#000000" fill-opacity="0.200000" stroke="#000000" stroke-width="2" stroke-opacity="0.200000" points="1004.75,-1093.1 1010.75,-1091 1004.75,-1088.9 1004.75,-1093.1"/>
</g>
<!-- src/widgets/presentation/index.ts -->
<g id="node54" class="node">
<title>src/widgets/presentation/index.ts</title>
<g id="a_node54"><a xlink:href="src/widgets/presentation/index.ts" xlink:title="index.ts">
<path fill="#ddfeff" stroke="black" d="M564.33,-1304.25C564.33,-1304.25 522.67,-1304.25 522.67,-1304.25 519.58,-1304.25 516.5,-1301.17 516.5,-1298.08 516.5,-1298.08 516.5,-1291.92 516.5,-1291.92 516.5,-1288.83 519.58,-1285.75 522.67,-1285.75 522.67,-1285.75 564.33,-1285.75 564.33,-1285.75 567.42,-1285.75 570.5,-1288.83 570.5,-1291.92 570.5,-1291.92 570.5,-1298.08 570.5,-1298.08 570.5,-1301.17 567.42,-1304.25 564.33,-1304.25"/>
<text text-anchor="start" x="527.75" y="-1291.7" font-family="Helvetica,sans-Serif" font-size="9.00">index.ts</text>
</a>
</g>
</g>
<!-- src/widgets/presentation/presentation.modal.tsx -->
<g id="node55" class="node">
<title>src/widgets/presentation/presentation.modal.tsx</title>
<g id="a_node55"><a xlink:href="src/widgets/presentation/presentation.modal.tsx" xlink:title="presentation.modal.tsx">
<path fill="#bbfeff" stroke="black" d="M816.08,-1297.25C816.08,-1297.25 720.17,-1297.25 720.17,-1297.25 717.08,-1297.25 714,-1294.17 714,-1291.08 714,-1291.08 714,-1284.92 714,-1284.92 714,-1281.83 717.08,-1278.75 720.17,-1278.75 720.17,-1278.75 816.08,-1278.75 816.08,-1278.75 819.17,-1278.75 822.25,-1281.83 822.25,-1284.92 822.25,-1284.92 822.25,-1291.08 822.25,-1291.08 822.25,-1294.17 819.17,-1297.25 816.08,-1297.25"/>
<text text-anchor="start" x="722" y="-1284.7" font-family="Helvetica,sans-Serif" font-size="9.00">presentation.modal.tsx</text>
</a>
</g>
</g>
<!-- src/widgets/presentation/index.ts&#45;&gt;src/widgets/presentation/presentation.modal.tsx -->
<g id="edge43" class="edge">
<title>src/widgets/presentation/index.ts&#45;&gt;src/widgets/presentation/presentation.modal.tsx</title>
<path fill="none" stroke="#000000" stroke-width="2" stroke-opacity="0.200000" d="M570.87,-1291.08C582.99,-1289.47 597.57,-1287.79 610.75,-1287 642.36,-1285.1 677.63,-1285.14 706.66,-1285.74"/>
<polygon fill="#000000" fill-opacity="0.200000" stroke="#000000" stroke-width="2" stroke-opacity="0.200000" points="712.47,-1287.98 706.52,-1285.74 712.57,-1283.78 712.47,-1287.98"/>
</g>
<!-- src/widgets/presentation/presentation.ui.tsx -->
<g id="node56" class="node">
<title>src/widgets/presentation/presentation.ui.tsx</title>
<g id="a_node56"><a xlink:href="src/widgets/presentation/presentation.ui.tsx" xlink:title="presentation.ui.tsx">
<path fill="#bbfeff" stroke="black" d="M694.83,-1311.25C694.83,-1311.25 616.92,-1311.25 616.92,-1311.25 613.83,-1311.25 610.75,-1308.17 610.75,-1305.08 610.75,-1305.08 610.75,-1298.92 610.75,-1298.92 610.75,-1295.83 613.83,-1292.75 616.92,-1292.75 616.92,-1292.75 694.83,-1292.75 694.83,-1292.75 697.92,-1292.75 701,-1295.83 701,-1298.92 701,-1298.92 701,-1305.08 701,-1305.08 701,-1308.17 697.92,-1311.25 694.83,-1311.25"/>
<text text-anchor="start" x="618.75" y="-1298.7" font-family="Helvetica,sans-Serif" font-size="9.00">presentation.ui.tsx</text>
</a>
</g>
</g>
<!-- src/widgets/presentation/index.ts&#45;&gt;src/widgets/presentation/presentation.ui.tsx -->
<g id="edge44" class="edge">
<title>src/widgets/presentation/index.ts&#45;&gt;src/widgets/presentation/presentation.ui.tsx</title>
<path fill="none" stroke="#000000" stroke-width="2" stroke-opacity="0.200000" d="M570.94,-1296.68C580.76,-1297.3 592.27,-1298.03 603.56,-1298.75"/>
<polygon fill="#000000" fill-opacity="0.200000" stroke="#000000" stroke-width="2" stroke-opacity="0.200000" points="609.42,-1301.22 603.56,-1298.75 609.68,-1297.03 609.42,-1301.22"/>
</g>
<!-- src/widgets/presentation/presentation.modal.tsx&#45;&gt;src/widgets/policy/index.ts -->
<g id="edge45" class="edge">
<title>src/widgets/presentation/presentation.modal.tsx&#45;&gt;src/widgets/policy/index.ts</title>
<path fill="none" stroke="#000000" stroke-width="2" stroke-opacity="0.200000" d="M777.03,-1278.47C788.84,-1263.72 810.91,-1234 822.25,-1205 834.25,-1174.31 819.73,-1161.07 835.25,-1132 840.62,-1121.95 849.34,-1112.91 857.5,-1105.9"/>
<polygon fill="#000000" fill-opacity="0.200000" stroke="#000000" stroke-width="2" stroke-opacity="0.200000" points="858.45,-1107.82 861.78,-1102.41 855.8,-1104.57 858.45,-1107.82"/>
</g>
<!-- src/widgets/presentation/presentation.scss -->
<g id="node57" class="node">
<title>src/widgets/presentation/presentation.scss</title>
<g id="a_node57"><a xlink:href="src/widgets/presentation/presentation.scss" xlink:title="presentation.scss">
<path fill="#ffffcc" stroke="black" d="M916.33,-1304.25C916.33,-1304.25 841.42,-1304.25 841.42,-1304.25 838.33,-1304.25 835.25,-1301.17 835.25,-1298.08 835.25,-1298.08 835.25,-1291.92 835.25,-1291.92 835.25,-1288.83 838.33,-1285.75 841.42,-1285.75 841.42,-1285.75 916.33,-1285.75 916.33,-1285.75 919.42,-1285.75 922.5,-1288.83 922.5,-1291.92 922.5,-1291.92 922.5,-1298.08 922.5,-1298.08 922.5,-1301.17 919.42,-1304.25 916.33,-1304.25"/>
<text text-anchor="start" x="843.25" y="-1291.7" font-family="Helvetica,sans-Serif" font-size="9.00">presentation.scss</text>
</a>
</g>
</g>
<!-- src/widgets/presentation/presentation.modal.tsx&#45;&gt;src/widgets/presentation/presentation.scss -->
<g id="edge46" class="edge">
<title>src/widgets/presentation/presentation.modal.tsx&#45;&gt;src/widgets/presentation/presentation.scss</title>
<path fill="none" stroke="#000000" stroke-width="2" stroke-opacity="0.200000" d="M822.54,-1291.44C823.72,-1291.51 824.9,-1291.59 826.08,-1291.67"/>
<polygon fill="#000000" fill-opacity="0.200000" stroke="#000000" stroke-width="2" stroke-opacity="0.200000" points="825.89,-1293.76 832.02,-1292.05 826.16,-1289.57 825.89,-1293.76"/>
</g>
<!-- src/widgets/presentation/presentation.ui.tsx&#45;&gt;src/widgets/presentation/presentation.modal.tsx -->
<g id="edge47" class="edge">
<title>src/widgets/presentation/presentation.ui.tsx&#45;&gt;src/widgets/presentation/presentation.modal.tsx</title>
<path fill="none" stroke="#000000" stroke-width="2" stroke-opacity="0.200000" d="M701.4,-1296.35C702.54,-1296.2 703.69,-1296.05 704.85,-1295.91"/>
<polygon fill="#000000" fill-opacity="0.200000" stroke="#000000" stroke-width="2" stroke-opacity="0.200000" points="705.05,-1298 710.74,-1295.16 704.52,-1293.83 705.05,-1298"/>
</g>
<!-- src/widgets/presentation/presentation.ui.tsx&#45;&gt;src/widgets/presentation/presentation.scss -->
<g id="edge48" class="edge">
<title>src/widgets/presentation/presentation.ui.tsx&#45;&gt;src/widgets/presentation/presentation.scss</title>
<path fill="none" stroke="#000000" stroke-width="2" stroke-opacity="0.200000" d="M701.16,-1304.13C734.49,-1305.27 781.3,-1305.93 822.25,-1303 823.53,-1302.91 824.82,-1302.81 826.12,-1302.69"/>
<polygon fill="#000000" fill-opacity="0.200000" stroke="#000000" stroke-width="2" stroke-opacity="0.200000" points="826.05,-1304.81 831.81,-1302.12 825.63,-1300.63 826.05,-1304.81"/>
</g>
<!-- src/widgets/vacancy/vacancy.ui.tsx&#45;&gt;src/widgets/policy/index.ts -->
<g id="edge51" class="edge">
<title>src/widgets/vacancy/vacancy.ui.tsx&#45;&gt;src/widgets/policy/index.ts</title>
<path fill="none" stroke="#000000" stroke-width="2" stroke-opacity="0.200000" d="M451.45,-907.7C525.64,-939.59 762.03,-1041.2 847.05,-1077.75"/>
<polygon fill="#000000" fill-opacity="0.200000" stroke="#000000" stroke-width="2" stroke-opacity="0.200000" points="846.13,-1079.64 852.48,-1080.08 847.79,-1075.78 846.13,-1079.64"/>
</g>
<!-- src/widgets/vacancy/vacancy.ui.tsx&#45;&gt;src/widgets/consultation/index.ts -->
<g id="edge50" class="edge">
<title>src/widgets/vacancy/vacancy.ui.tsx&#45;&gt;src/widgets/consultation/index.ts</title>
<path fill="none" stroke="#000000" stroke-width="2" stroke-opacity="0.200000" d="M435.46,-907.6C447.07,-925.09 471.01,-963.69 482,-1000 497.55,-1051.34 469.49,-1072.81 495,-1120 500.26,-1129.73 509.05,-1137.97 517.64,-1144.34"/>
<polygon fill="#000000" fill-opacity="0.200000" stroke="#000000" stroke-width="2" stroke-opacity="0.200000" points="516.43,-1146.05 522.56,-1147.72 518.81,-1142.59 516.43,-1146.05"/>
</g>
<!-- src/widgets/vacancy/vacancy.scss -->
<g id="node59" class="node">
<title>src/widgets/vacancy/vacancy.scss</title>
<g id="a_node59"><a xlink:href="src/widgets/vacancy/vacancy.scss" xlink:title="vacancy.scss">
<path fill="#ffffcc" stroke="black" d="M571.96,-907.25C571.96,-907.25 515.04,-907.25 515.04,-907.25 511.96,-907.25 508.88,-904.17 508.88,-901.08 508.88,-901.08 508.88,-894.92 508.88,-894.92 508.88,-891.83 511.96,-888.75 515.04,-888.75 515.04,-888.75 571.96,-888.75 571.96,-888.75 575.04,-888.75 578.12,-891.83 578.12,-894.92 578.12,-894.92 578.12,-901.08 578.12,-901.08 578.12,-904.17 575.04,-907.25 571.96,-907.25"/>
<text text-anchor="start" x="516.88" y="-894.7" font-family="Helvetica,sans-Serif" font-size="9.00">vacancy.scss</text>
</a>
</g>
</g>
<!-- src/widgets/vacancy/vacancy.ui.tsx&#45;&gt;src/widgets/vacancy/vacancy.scss -->
<g id="edge52" class="edge">
<title>src/widgets/vacancy/vacancy.ui.tsx&#45;&gt;src/widgets/vacancy/vacancy.scss</title>
<path fill="none" stroke="#000000" stroke-width="2" stroke-opacity="0.200000" d="M464.2,-898C475.52,-898 488.17,-898 499.95,-898"/>
<polygon fill="#000000" fill-opacity="0.200000" stroke="#000000" stroke-width="2" stroke-opacity="0.200000" points="499.72,-900.1 505.72,-898 499.72,-895.9 499.72,-900.1"/>
</g>
</g>
</svg>
