<?xml version="1.0" encoding="UTF-8" standalone="no"?>
<!DOCTYPE svg PUBLIC "-//W3C//DTD SVG 1.1//EN"
 "http://www.w3.org/Graphics/SVG/1.1/DTD/svg11.dtd">
<!-- Generated by graphviz version 12.1.0 (20240811.2233)
 -->
<!-- Title: dependency&#45;cruiser output Pages: 1 -->
<svg width="581pt" height="928pt"
 viewBox="0.00 0.00 580.75 928.00" xmlns="http://www.w3.org/2000/svg" xmlns:xlink="http://www.w3.org/1999/xlink">
<g id="graph0" class="graph" transform="scale(1 1) rotate(0) translate(4 924)">
<title>dependency&#45;cruiser output</title>
<polygon fill="white" stroke="none" points="-4,4 -4,-924 576.75,-924 576.75,4 -4,4"/>
<g id="clust1" class="cluster">
<title>cluster_src</title>
<path fill="#ffffff" stroke="black" stroke-width="2" d="M20,-8C20,-8 552.75,-8 552.75,-8 558.75,-8 564.75,-14 564.75,-20 564.75,-20 564.75,-900 564.75,-900 564.75,-906 558.75,-912 552.75,-912 552.75,-912 20,-912 20,-912 14,-912 8,-906 8,-900 8,-900 8,-20 8,-20 8,-14 14,-8 20,-8"/>
<text text-anchor="middle" x="286.38" y="-899.45" font-family="Helvetica,sans-Serif" font-weight="bold" font-size="9.00">src</text>
</g>
<g id="clust2" class="cluster">
<title>cluster_src/app</title>
<path fill="#ffffff" stroke="black" stroke-width="2" d="M51.25,-16C51.25,-16 544.75,-16 544.75,-16 550.75,-16 556.75,-22 556.75,-28 556.75,-28 556.75,-127 556.75,-127 556.75,-133 550.75,-139 544.75,-139 544.75,-139 51.25,-139 51.25,-139 45.25,-139 39.25,-133 39.25,-127 39.25,-127 39.25,-28 39.25,-28 39.25,-22 45.25,-16 51.25,-16"/>
<text text-anchor="middle" x="298" y="-126.45" font-family="Helvetica,sans-Serif" font-weight="bold" font-size="9.00">app</text>
</g>
<g id="clust3" class="cluster">
<title>cluster_src/app/provider</title>
<path fill="#ffffff" stroke="black" stroke-width="2" d="M59.25,-24C59.25,-24 536.75,-24 536.75,-24 542.75,-24 548.75,-30 548.75,-36 548.75,-36 548.75,-100 548.75,-100 548.75,-106 542.75,-112 536.75,-112 536.75,-112 59.25,-112 59.25,-112 53.25,-112 47.25,-106 47.25,-100 47.25,-100 47.25,-36 47.25,-36 47.25,-30 53.25,-24 59.25,-24"/>
<text text-anchor="middle" x="298" y="-99.45" font-family="Helvetica,sans-Serif" font-weight="bold" font-size="9.00">provider</text>
</g>
<g id="clust4" class="cluster">
<title>cluster_src/app/provider/root</title>
<path fill="#ffffff" stroke="black" stroke-width="2" d="M67.25,-32C67.25,-32 251.88,-32 251.88,-32 257.88,-32 263.88,-38 263.88,-44 263.88,-44 263.88,-73 263.88,-73 263.88,-79 257.88,-85 251.88,-85 251.88,-85 67.25,-85 67.25,-85 61.25,-85 55.25,-79 55.25,-73 55.25,-73 55.25,-44 55.25,-44 55.25,-38 61.25,-32 67.25,-32"/>
<text text-anchor="middle" x="159.56" y="-72.45" font-family="Helvetica,sans-Serif" font-weight="bold" font-size="9.00">root</text>
</g>
<g id="clust5" class="cluster">
<title>cluster_src/app/provider/theme</title>
<path fill="#ffffff" stroke="black" stroke-width="2" d="M323.62,-32C323.62,-32 528.75,-32 528.75,-32 534.75,-32 540.75,-38 540.75,-44 540.75,-44 540.75,-73 540.75,-73 540.75,-79 534.75,-85 528.75,-85 528.75,-85 323.62,-85 323.62,-85 317.62,-85 311.62,-79 311.62,-73 311.62,-73 311.62,-44 311.62,-44 311.62,-38 317.62,-32 323.62,-32"/>
<text text-anchor="middle" x="426.19" y="-72.45" font-family="Helvetica,sans-Serif" font-weight="bold" font-size="9.00">theme</text>
</g>
<g id="clust6" class="cluster">
<title>cluster_src/screens</title>
<path fill="#ffffff" stroke="black" stroke-width="2" d="M59.25,-147C59.25,-147 402.88,-147 402.88,-147 408.88,-147 414.88,-153 414.88,-159 414.88,-159 414.88,-223 414.88,-223 414.88,-229 408.88,-235 402.88,-235 402.88,-235 59.25,-235 59.25,-235 53.25,-235 47.25,-229 47.25,-223 47.25,-223 47.25,-159 47.25,-159 47.25,-153 53.25,-147 59.25,-147"/>
<text text-anchor="middle" x="231.06" y="-222.45" font-family="Helvetica,sans-Serif" font-weight="bold" font-size="9.00">screens</text>
</g>
<g id="clust7" class="cluster">
<title>cluster_src/screens/root</title>
<path fill="#ffffff" stroke="black" stroke-width="2" d="M67.25,-155C67.25,-155 394.88,-155 394.88,-155 400.88,-155 406.88,-161 406.88,-167 406.88,-167 406.88,-196 406.88,-196 406.88,-202 400.88,-208 394.88,-208 394.88,-208 67.25,-208 67.25,-208 61.25,-208 55.25,-202 55.25,-196 55.25,-196 55.25,-167 55.25,-167 55.25,-161 61.25,-155 67.25,-155"/>
<text text-anchor="middle" x="231.06" y="-195.45" font-family="Helvetica,sans-Serif" font-weight="bold" font-size="9.00">root</text>
</g>
<g id="clust8" class="cluster">
<title>cluster_src/shared</title>
<path fill="#ffffff" stroke="black" stroke-width="2" d="M28,-243C28,-243 422.5,-243 422.5,-243 428.5,-243 434.5,-249 434.5,-255 434.5,-255 434.5,-655 434.5,-655 434.5,-661 428.5,-667 422.5,-667 422.5,-667 28,-667 28,-667 22,-667 16,-661 16,-655 16,-655 16,-255 16,-255 16,-249 22,-243 28,-243"/>
<text text-anchor="middle" x="225.25" y="-654.45" font-family="Helvetica,sans-Serif" font-weight="bold" font-size="9.00">shared</text>
</g>
<g id="clust9" class="cluster">
<title>cluster_src/shared/hooks</title>
<path fill="#ffffff" stroke="black" stroke-width="2" d="M36,-251C36,-251 144.5,-251 144.5,-251 150.5,-251 156.5,-257 156.5,-263 156.5,-263 156.5,-292 156.5,-292 156.5,-298 150.5,-304 144.5,-304 144.5,-304 36,-304 36,-304 30,-304 24,-298 24,-292 24,-292 24,-263 24,-263 24,-257 30,-251 36,-251"/>
<text text-anchor="middle" x="90.25" y="-291.45" font-family="Helvetica,sans-Serif" font-weight="bold" font-size="9.00">hooks</text>
</g>
<g id="clust10" class="cluster">
<title>cluster_src/shared/lib</title>
<path fill="#ffffff" stroke="black" stroke-width="2" d="M45,-312C45,-312 135.5,-312 135.5,-312 141.5,-312 147.5,-318 147.5,-324 147.5,-324 147.5,-384 147.5,-384 147.5,-390 141.5,-396 135.5,-396 135.5,-396 45,-396 45,-396 39,-396 33,-390 33,-384 33,-384 33,-324 33,-324 33,-318 39,-312 45,-312"/>
<text text-anchor="middle" x="90.25" y="-383.45" font-family="Helvetica,sans-Serif" font-weight="bold" font-size="9.00">lib</text>
</g>
<g id="clust11" class="cluster">
<title>cluster_src/shared/types</title>
<path fill="#ffffff" stroke="black" stroke-width="2" d="M67.25,-404C67.25,-404 113.25,-404 113.25,-404 119.25,-404 125.25,-410 125.25,-416 125.25,-416 125.25,-445 125.25,-445 125.25,-451 119.25,-457 113.25,-457 113.25,-457 67.25,-457 67.25,-457 61.25,-457 55.25,-451 55.25,-445 55.25,-445 55.25,-416 55.25,-416 55.25,-410 61.25,-404 67.25,-404"/>
<text text-anchor="middle" x="90.25" y="-444.45" font-family="Helvetica,sans-Serif" font-weight="bold" font-size="9.00">types</text>
</g>
<g id="clust12" class="cluster">
<title>cluster_src/shared/ui</title>
<path fill="#ffffff" stroke="black" stroke-width="2" d="M53.62,-465C53.62,-465 414.5,-465 414.5,-465 420.5,-465 426.5,-471 426.5,-477 426.5,-477 426.5,-628 426.5,-628 426.5,-634 420.5,-640 414.5,-640 414.5,-640 53.62,-640 53.62,-640 47.62,-640 41.62,-634 41.62,-628 41.62,-628 41.62,-477 41.62,-477 41.62,-471 47.62,-465 53.62,-465"/>
<text text-anchor="middle" x="234.06" y="-627.45" font-family="Helvetica,sans-Serif" font-weight="bold" font-size="9.00">ui</text>
</g>
<g id="clust13" class="cluster">
<title>cluster_src/shared/ui/button</title>
<path fill="#ffffff" stroke="black" stroke-width="2" d="M67.25,-473C67.25,-473 371.25,-473 371.25,-473 377.25,-473 383.25,-479 383.25,-485 383.25,-485 383.25,-514 383.25,-514 383.25,-520 377.25,-526 371.25,-526 371.25,-526 67.25,-526 67.25,-526 61.25,-526 55.25,-520 55.25,-514 55.25,-514 55.25,-485 55.25,-485 55.25,-479 61.25,-473 67.25,-473"/>
<text text-anchor="middle" x="219.25" y="-513.45" font-family="Helvetica,sans-Serif" font-weight="bold" font-size="9.00">button</text>
</g>
<g id="clust14" class="cluster">
<title>cluster_src/shared/ui/optimize&#45;image</title>
<path fill="#ffffff" stroke="black" stroke-width="2" d="M67.25,-534C67.25,-534 406.5,-534 406.5,-534 412.5,-534 418.5,-540 418.5,-546 418.5,-546 418.5,-575 418.5,-575 418.5,-581 412.5,-587 406.5,-587 406.5,-587 67.25,-587 67.25,-587 61.25,-587 55.25,-581 55.25,-575 55.25,-575 55.25,-546 55.25,-546 55.25,-540 61.25,-534 67.25,-534"/>
<text text-anchor="middle" x="236.88" y="-574.45" font-family="Helvetica,sans-Serif" font-weight="bold" font-size="9.00">optimize&#45;image</text>
</g>
<g id="clust15" class="cluster">
<title>cluster_src/widgets</title>
<path fill="#ffffff" stroke="black" stroke-width="2" d="M59.25,-675C59.25,-675 397.25,-675 397.25,-675 403.25,-675 409.25,-681 409.25,-687 409.25,-687 409.25,-873 409.25,-873 409.25,-879 403.25,-885 397.25,-885 397.25,-885 59.25,-885 59.25,-885 53.25,-885 47.25,-879 47.25,-873 47.25,-873 47.25,-687 47.25,-687 47.25,-681 53.25,-675 59.25,-675"/>
<text text-anchor="middle" x="228.25" y="-872.45" font-family="Helvetica,sans-Serif" font-weight="bold" font-size="9.00">widgets</text>
</g>
<g id="clust16" class="cluster">
<title>cluster_src/widgets/google&#45;analytic</title>
<path fill="#ffffff" stroke="black" stroke-width="2" d="M67.25,-683C67.25,-683 262.75,-683 262.75,-683 268.75,-683 274.75,-689 274.75,-695 274.75,-695 274.75,-724 274.75,-724 274.75,-730 268.75,-736 262.75,-736 262.75,-736 67.25,-736 67.25,-736 61.25,-736 55.25,-730 55.25,-724 55.25,-724 55.25,-695 55.25,-695 55.25,-689 61.25,-683 67.25,-683"/>
<text text-anchor="middle" x="165" y="-723.45" font-family="Helvetica,sans-Serif" font-weight="bold" font-size="9.00">google&#45;analytic</text>
</g>
<g id="clust17" class="cluster">
<title>cluster_src/widgets/header</title>
<path fill="#ffffff" stroke="black" stroke-width="2" d="M67.25,-744C67.25,-744 389.25,-744 389.25,-744 395.25,-744 401.25,-750 401.25,-756 401.25,-756 401.25,-785 401.25,-785 401.25,-791 395.25,-797 389.25,-797 389.25,-797 67.25,-797 67.25,-797 61.25,-797 55.25,-791 55.25,-785 55.25,-785 55.25,-756 55.25,-756 55.25,-750 61.25,-744 67.25,-744"/>
<text text-anchor="middle" x="228.25" y="-784.45" font-family="Helvetica,sans-Serif" font-weight="bold" font-size="9.00">header</text>
</g>
<g id="clust18" class="cluster">
<title>cluster_src/widgets/hero</title>
<path fill="#ffffff" stroke="black" stroke-width="2" d="M67.25,-805C67.25,-805 384.38,-805 384.38,-805 390.38,-805 396.38,-811 396.38,-817 396.38,-817 396.38,-846 396.38,-846 396.38,-852 390.38,-858 384.38,-858 384.38,-858 67.25,-858 67.25,-858 61.25,-858 55.25,-852 55.25,-846 55.25,-846 55.25,-817 55.25,-817 55.25,-811 61.25,-805 67.25,-805"/>
<text text-anchor="middle" x="225.81" y="-845.45" font-family="Helvetica,sans-Serif" font-weight="bold" font-size="9.00">hero</text>
</g>
<!-- src/app/provider/root/index.ts -->
<g id="node1" class="node">
<title>src/app/provider/root/index.ts</title>
<g id="a_node1"><a xlink:href="src/app/provider/root/index.ts" xlink:title="index.ts">
<path fill="#ddfeff" stroke="black" d="M111.08,-58.25C111.08,-58.25 69.42,-58.25 69.42,-58.25 66.33,-58.25 63.25,-55.17 63.25,-52.08 63.25,-52.08 63.25,-45.92 63.25,-45.92 63.25,-42.83 66.33,-39.75 69.42,-39.75 69.42,-39.75 111.08,-39.75 111.08,-39.75 114.17,-39.75 117.25,-42.83 117.25,-45.92 117.25,-45.92 117.25,-52.08 117.25,-52.08 117.25,-55.17 114.17,-58.25 111.08,-58.25"/>
<text text-anchor="start" x="74.5" y="-45.7" font-family="Helvetica,sans-Serif" font-size="9.00">index.ts</text>
</a>
</g>
</g>
<!-- src/app/provider/root/root.provider.tsx -->
<g id="node2" class="node">
<title>src/app/provider/root/root.provider.tsx</title>
<g id="a_node2"><a xlink:href="src/app/provider/root/root.provider.tsx" xlink:title="root.provider.tsx">
<path fill="#bbfeff" stroke="black" d="M249.71,-58.25C249.71,-58.25 181.54,-58.25 181.54,-58.25 178.46,-58.25 175.38,-55.17 175.38,-52.08 175.38,-52.08 175.38,-45.92 175.38,-45.92 175.38,-42.83 178.46,-39.75 181.54,-39.75 181.54,-39.75 249.71,-39.75 249.71,-39.75 252.79,-39.75 255.88,-42.83 255.88,-45.92 255.88,-45.92 255.88,-52.08 255.88,-52.08 255.88,-55.17 252.79,-58.25 249.71,-58.25"/>
<text text-anchor="start" x="183.38" y="-45.7" font-family="Helvetica,sans-Serif" font-size="9.00">root.provider.tsx</text>
</a>
</g>
</g>
<!-- src/app/provider/root/index.ts&#45;&gt;src/app/provider/root/root.provider.tsx -->
<g id="edge1" class="edge">
<title>src/app/provider/root/index.ts&#45;&gt;src/app/provider/root/root.provider.tsx</title>
<path fill="none" stroke="#000000" stroke-width="2" stroke-opacity="0.200000" d="M117.72,-49C132.34,-49 150.93,-49 167.91,-49"/>
<polygon fill="#000000" fill-opacity="0.200000" stroke="#000000" stroke-width="2" stroke-opacity="0.200000" points="174.07,-51.1 168.07,-49 174.07,-46.9 174.07,-51.1"/>
</g>
<!-- src/app/provider/theme/index.ts -->
<g id="node3" class="node">
<title>src/app/provider/theme/index.ts</title>
<g id="a_node3"><a xlink:href="src/app/provider/theme/index.ts" xlink:title="index.ts">
<path fill="#ddfeff" stroke="black" d="M367.46,-58.25C367.46,-58.25 325.79,-58.25 325.79,-58.25 322.71,-58.25 319.62,-55.17 319.62,-52.08 319.62,-52.08 319.62,-45.92 319.62,-45.92 319.62,-42.83 322.71,-39.75 325.79,-39.75 325.79,-39.75 367.46,-39.75 367.46,-39.75 370.54,-39.75 373.62,-42.83 373.62,-45.92 373.62,-45.92 373.62,-52.08 373.62,-52.08 373.62,-55.17 370.54,-58.25 367.46,-58.25"/>
<text text-anchor="start" x="330.88" y="-45.7" font-family="Helvetica,sans-Serif" font-size="9.00">index.ts</text>
</a>
</g>
</g>
<!-- src/app/provider/root/root.provider.tsx&#45;&gt;src/app/provider/theme/index.ts -->
<g id="edge2" class="edge">
<title>src/app/provider/root/root.provider.tsx&#45;&gt;src/app/provider/theme/index.ts</title>
<path fill="none" stroke="#000000" stroke-width="2" stroke-opacity="0.200000" d="M256.03,-49C273.41,-49 293.67,-49 310.52,-49"/>
<polygon fill="#000000" fill-opacity="0.200000" stroke="#000000" stroke-width="2" stroke-opacity="0.200000" points="310.47,-51.1 316.47,-49 310.47,-46.9 310.47,-51.1"/>
</g>
<!-- src/app/provider/theme/theme.provider.tsx -->
<g id="node4" class="node">
<title>src/app/provider/theme/theme.provider.tsx</title>
<g id="a_node4"><a xlink:href="src/app/provider/theme/theme.provider.tsx" xlink:title="theme.provider.tsx">
<path fill="#bbfeff" stroke="black" d="M526.58,-58.25C526.58,-58.25 448.67,-58.25 448.67,-58.25 445.58,-58.25 442.5,-55.17 442.5,-52.08 442.5,-52.08 442.5,-45.92 442.5,-45.92 442.5,-42.83 445.58,-39.75 448.67,-39.75 448.67,-39.75 526.58,-39.75 526.58,-39.75 529.67,-39.75 532.75,-42.83 532.75,-45.92 532.75,-45.92 532.75,-52.08 532.75,-52.08 532.75,-55.17 529.67,-58.25 526.58,-58.25"/>
<text text-anchor="start" x="450.5" y="-45.7" font-family="Helvetica,sans-Serif" font-size="9.00">theme.provider.tsx</text>
</a>
</g>
</g>
<!-- src/app/provider/theme/index.ts&#45;&gt;src/app/provider/theme/theme.provider.tsx -->
<g id="edge3" class="edge">
<title>src/app/provider/theme/index.ts&#45;&gt;src/app/provider/theme/theme.provider.tsx</title>
<path fill="none" stroke="#000000" stroke-width="2" stroke-opacity="0.200000" d="M374.1,-49C391.36,-49 414.47,-49 435.26,-49"/>
<polygon fill="#000000" fill-opacity="0.200000" stroke="#000000" stroke-width="2" stroke-opacity="0.200000" points="441.21,-51.1 435.21,-49 441.21,-46.9 441.21,-51.1"/>
</g>
<!-- src/screens/root/index.ts -->
<g id="node5" class="node">
<title>src/screens/root/index.ts</title>
<g id="a_node5"><a xlink:href="src/screens/root/index.ts" xlink:title="index.ts">
<path fill="#ddfeff" stroke="black" d="M111.08,-181.25C111.08,-181.25 69.42,-181.25 69.42,-181.25 66.33,-181.25 63.25,-178.17 63.25,-175.08 63.25,-175.08 63.25,-168.92 63.25,-168.92 63.25,-165.83 66.33,-162.75 69.42,-162.75 69.42,-162.75 111.08,-162.75 111.08,-162.75 114.17,-162.75 117.25,-165.83 117.25,-168.92 117.25,-168.92 117.25,-175.08 117.25,-175.08 117.25,-178.17 114.17,-181.25 111.08,-181.25"/>
<text text-anchor="start" x="74.5" y="-168.7" font-family="Helvetica,sans-Serif" font-size="9.00">index.ts</text>
</a>
</g>
</g>
<!-- src/screens/root/root&#45;page.ui.tsx -->
<g id="node6" class="node">
<title>src/screens/root/root&#45;page.ui.tsx</title>
<g id="a_node6"><a xlink:href="src/screens/root/root-page.ui.tsx" xlink:title="root&#45;page.ui.tsx">
<path fill="#bbfeff" stroke="black" d="M248.96,-181.25C248.96,-181.25 182.29,-181.25 182.29,-181.25 179.21,-181.25 176.12,-178.17 176.12,-175.08 176.12,-175.08 176.12,-168.92 176.12,-168.92 176.12,-165.83 179.21,-162.75 182.29,-162.75 182.29,-162.75 248.96,-162.75 248.96,-162.75 252.04,-162.75 255.12,-165.83 255.12,-168.92 255.12,-168.92 255.12,-175.08 255.12,-175.08 255.12,-178.17 252.04,-181.25 248.96,-181.25"/>
<text text-anchor="start" x="184.12" y="-168.7" font-family="Helvetica,sans-Serif" font-size="9.00">root&#45;page.ui.tsx</text>
</a>
</g>
</g>
<!-- src/screens/root/index.ts&#45;&gt;src/screens/root/root&#45;page.ui.tsx -->
<g id="edge4" class="edge">
<title>src/screens/root/index.ts&#45;&gt;src/screens/root/root&#45;page.ui.tsx</title>
<path fill="none" stroke="#000000" stroke-width="2" stroke-opacity="0.200000" d="M117.72,-172C132.72,-172 151.9,-172 169.23,-172"/>
<polygon fill="#000000" fill-opacity="0.200000" stroke="#000000" stroke-width="2" stroke-opacity="0.200000" points="175.02,-174.1 169.02,-172 175.02,-169.9 175.02,-174.1"/>
</g>
<!-- src/screens/root/root&#45;page.module.css -->
<g id="node7" class="node">
<title>src/screens/root/root&#45;page.module.css</title>
<g id="a_node7"><a xlink:href="src/screens/root/root-page.module.css" xlink:title="root&#45;page.module.css">
<path fill="#ffffcc" stroke="black" d="M392.71,-181.25C392.71,-181.25 300.54,-181.25 300.54,-181.25 297.46,-181.25 294.38,-178.17 294.38,-175.08 294.38,-175.08 294.38,-168.92 294.38,-168.92 294.38,-165.83 297.46,-162.75 300.54,-162.75 300.54,-162.75 392.71,-162.75 392.71,-162.75 395.79,-162.75 398.88,-165.83 398.88,-168.92 398.88,-168.92 398.88,-175.08 398.88,-175.08 398.88,-178.17 395.79,-181.25 392.71,-181.25"/>
<text text-anchor="start" x="302.38" y="-168.7" font-family="Helvetica,sans-Serif" font-size="9.00">root&#45;page.module.css</text>
</a>
</g>
</g>
<!-- src/screens/root/root&#45;page.ui.tsx&#45;&gt;src/screens/root/root&#45;page.module.css -->
<g id="edge5" class="edge">
<title>src/screens/root/root&#45;page.ui.tsx&#45;&gt;src/screens/root/root&#45;page.module.css</title>
<path fill="none" stroke="#000000" stroke-width="2" stroke-opacity="0.200000" d="M255.33,-172C264.74,-172 275.03,-172 285.19,-172"/>
<polygon fill="#000000" fill-opacity="0.200000" stroke="#000000" stroke-width="2" stroke-opacity="0.200000" points="285.03,-174.1 291.03,-172 285.03,-169.9 285.03,-174.1"/>
</g>
<!-- src/shared/hooks/use&#45;mutation&#45;observer.ts -->
<g id="node8" class="node">
<title>src/shared/hooks/use&#45;mutation&#45;observer.ts</title>
<g id="a_node8"><a xlink:href="src/shared/hooks/use-mutation-observer.ts" xlink:title="no&#45;orphans">
<path fill="#ccffcc" stroke="orange" d="M142.33,-277.25C142.33,-277.25 38.17,-277.25 38.17,-277.25 35.08,-277.25 32,-274.17 32,-271.08 32,-271.08 32,-264.92 32,-264.92 32,-261.83 35.08,-258.75 38.17,-258.75 38.17,-258.75 142.33,-258.75 142.33,-258.75 145.42,-258.75 148.5,-261.83 148.5,-264.92 148.5,-264.92 148.5,-271.08 148.5,-271.08 148.5,-274.17 145.42,-277.25 142.33,-277.25"/>
<text text-anchor="start" x="40" y="-264.7" font-family="Helvetica,sans-Serif" font-size="9.00" fill="orange">use&#45;mutation&#45;observer.ts</text>
</a>
</g>
</g>
<!-- src/shared/lib/classname&#45;merge.ts -->
<g id="node9" class="node">
<title>src/shared/lib/classname&#45;merge.ts</title>
<g id="a_node9"><a xlink:href="src/shared/lib/classname-merge.ts" xlink:title="no&#45;orphans">
<path fill="#ccffcc" stroke="orange" d="M133.33,-338.25C133.33,-338.25 47.17,-338.25 47.17,-338.25 44.08,-338.25 41,-335.17 41,-332.08 41,-332.08 41,-325.92 41,-325.92 41,-322.83 44.08,-319.75 47.17,-319.75 47.17,-319.75 133.33,-319.75 133.33,-319.75 136.42,-319.75 139.5,-322.83 139.5,-325.92 139.5,-325.92 139.5,-332.08 139.5,-332.08 139.5,-335.17 136.42,-338.25 133.33,-338.25"/>
<text text-anchor="start" x="49" y="-325.7" font-family="Helvetica,sans-Serif" font-size="9.00" fill="orange">classname&#45;merge.ts</text>
</a>
</g>
</g>
<!-- src/shared/lib/image&#45;loader.ts -->
<g id="node10" class="node">
<title>src/shared/lib/image&#45;loader.ts</title>
<g id="a_node10"><a xlink:href="src/shared/lib/image-loader.ts" xlink:title="no&#45;orphans">
<path fill="#ccffcc" stroke="orange" d="M123.58,-369.25C123.58,-369.25 56.92,-369.25 56.92,-369.25 53.83,-369.25 50.75,-366.17 50.75,-363.08 50.75,-363.08 50.75,-356.92 50.75,-356.92 50.75,-353.83 53.83,-350.75 56.92,-350.75 56.92,-350.75 123.58,-350.75 123.58,-350.75 126.67,-350.75 129.75,-353.83 129.75,-356.92 129.75,-356.92 129.75,-363.08 129.75,-363.08 129.75,-366.17 126.67,-369.25 123.58,-369.25"/>
<text text-anchor="start" x="58.75" y="-356.7" font-family="Helvetica,sans-Serif" font-size="9.00" fill="orange">image&#45;loader.ts</text>
</a>
</g>
</g>
<!-- src/shared/types/env.d.ts -->
<g id="node11" class="node">
<title>src/shared/types/env.d.ts</title>
<g id="a_node11"><a xlink:href="src/shared/types/env.d.ts" xlink:title="env.d.ts">
<path fill="#ccffcc" stroke="black" d="M111.08,-430.25C111.08,-430.25 69.42,-430.25 69.42,-430.25 66.33,-430.25 63.25,-427.17 63.25,-424.08 63.25,-424.08 63.25,-417.92 63.25,-417.92 63.25,-414.83 66.33,-411.75 69.42,-411.75 69.42,-411.75 111.08,-411.75 111.08,-411.75 114.17,-411.75 117.25,-414.83 117.25,-417.92 117.25,-417.92 117.25,-424.08 117.25,-424.08 117.25,-427.17 114.17,-430.25 111.08,-430.25"/>
<text text-anchor="start" x="74.88" y="-417.7" font-family="Helvetica,sans-Serif" font-size="9.00">env.d.ts</text>
</a>
</g>
</g>
<!-- src/shared/ui/button/button.css -->
<g id="node12" class="node">
<title>src/shared/ui/button/button.css</title>
<g id="a_node12"><a xlink:href="src/shared/ui/button/button.css" xlink:title="button.css">
<path fill="#ffffcc" stroke="black" d="M369.08,-499.25C369.08,-499.25 324.17,-499.25 324.17,-499.25 321.08,-499.25 318,-496.17 318,-493.08 318,-493.08 318,-486.92 318,-486.92 318,-483.83 321.08,-480.75 324.17,-480.75 324.17,-480.75 369.08,-480.75 369.08,-480.75 372.17,-480.75 375.25,-483.83 375.25,-486.92 375.25,-486.92 375.25,-493.08 375.25,-493.08 375.25,-496.17 372.17,-499.25 369.08,-499.25"/>
<text text-anchor="start" x="326" y="-486.7" font-family="Helvetica,sans-Serif" font-size="9.00">button.css</text>
</a>
</g>
</g>
<!-- src/shared/ui/button/button.ui.tsx -->
<g id="node13" class="node">
<title>src/shared/ui/button/button.ui.tsx</title>
<g id="a_node13"><a xlink:href="src/shared/ui/button/button.ui.tsx" xlink:title="button.ui.tsx">
<path fill="#bbfeff" stroke="black" d="M241.83,-499.25C241.83,-499.25 189.42,-499.25 189.42,-499.25 186.33,-499.25 183.25,-496.17 183.25,-493.08 183.25,-493.08 183.25,-486.92 183.25,-486.92 183.25,-483.83 186.33,-480.75 189.42,-480.75 189.42,-480.75 241.83,-480.75 241.83,-480.75 244.92,-480.75 248,-483.83 248,-486.92 248,-486.92 248,-493.08 248,-493.08 248,-496.17 244.92,-499.25 241.83,-499.25"/>
<text text-anchor="start" x="191.25" y="-486.7" font-family="Helvetica,sans-Serif" font-size="9.00">button.ui.tsx</text>
</a>
</g>
</g>
<!-- src/shared/ui/button/button.ui.tsx&#45;&gt;src/shared/ui/button/button.css -->
<g id="edge6" class="edge">
<title>src/shared/ui/button/button.ui.tsx&#45;&gt;src/shared/ui/button/button.css</title>
<path fill="none" stroke="#000000" stroke-width="2" stroke-opacity="0.200000" d="M248.18,-490C266.6,-490 289.91,-490 309.12,-490"/>
<polygon fill="#000000" fill-opacity="0.200000" stroke="#000000" stroke-width="2" stroke-opacity="0.200000" points="308.87,-492.1 314.87,-490 308.87,-487.9 308.87,-492.1"/>
</g>
<!-- src/shared/ui/button/index.ts -->
<g id="node14" class="node">
<title>src/shared/ui/button/index.ts</title>
<g id="a_node14"><a xlink:href="src/shared/ui/button/index.ts" xlink:title="index.ts">
<path fill="#ddfeff" stroke="black" d="M111.08,-499.25C111.08,-499.25 69.42,-499.25 69.42,-499.25 66.33,-499.25 63.25,-496.17 63.25,-493.08 63.25,-493.08 63.25,-486.92 63.25,-486.92 63.25,-483.83 66.33,-480.75 69.42,-480.75 69.42,-480.75 111.08,-480.75 111.08,-480.75 114.17,-480.75 117.25,-483.83 117.25,-486.92 117.25,-486.92 117.25,-493.08 117.25,-493.08 117.25,-496.17 114.17,-499.25 111.08,-499.25"/>
<text text-anchor="start" x="74.5" y="-486.7" font-family="Helvetica,sans-Serif" font-size="9.00">index.ts</text>
</a>
</g>
</g>
<!-- src/shared/ui/button/index.ts&#45;&gt;src/shared/ui/button/button.ui.tsx -->
<g id="edge7" class="edge">
<title>src/shared/ui/button/index.ts&#45;&gt;src/shared/ui/button/button.ui.tsx</title>
<path fill="none" stroke="#000000" stroke-width="2" stroke-opacity="0.200000" d="M117.72,-490C134.67,-490 156.96,-490 175.88,-490"/>
<polygon fill="#000000" fill-opacity="0.200000" stroke="#000000" stroke-width="2" stroke-opacity="0.200000" points="181.95,-492.1 175.95,-490 181.95,-487.9 181.95,-492.1"/>
</g>
<!-- src/shared/ui/optimize&#45;image/index.ts -->
<g id="node15" class="node">
<title>src/shared/ui/optimize&#45;image/index.ts</title>
<g id="a_node15"><a xlink:href="src/shared/ui/optimize-image/index.ts" xlink:title="index.ts">
<path fill="#ddfeff" stroke="black" d="M111.08,-560.25C111.08,-560.25 69.42,-560.25 69.42,-560.25 66.33,-560.25 63.25,-557.17 63.25,-554.08 63.25,-554.08 63.25,-547.92 63.25,-547.92 63.25,-544.83 66.33,-541.75 69.42,-541.75 69.42,-541.75 111.08,-541.75 111.08,-541.75 114.17,-541.75 117.25,-544.83 117.25,-547.92 117.25,-547.92 117.25,-554.08 117.25,-554.08 117.25,-557.17 114.17,-560.25 111.08,-560.25"/>
<text text-anchor="start" x="74.5" y="-547.7" font-family="Helvetica,sans-Serif" font-size="9.00">index.ts</text>
</a>
</g>
</g>
<!-- src/shared/ui/optimize&#45;image/optimize&#45;image.ui.tsx -->
<g id="node16" class="node">
<title>src/shared/ui/optimize&#45;image/optimize&#45;image.ui.tsx</title>
<g id="a_node16"><a xlink:href="src/shared/ui/optimize-image/optimize-image.ui.tsx" xlink:title="optimize&#45;image.ui.tsx">
<path fill="#bbfeff" stroke="black" d="M260.58,-560.25C260.58,-560.25 170.67,-560.25 170.67,-560.25 167.58,-560.25 164.5,-557.17 164.5,-554.08 164.5,-554.08 164.5,-547.92 164.5,-547.92 164.5,-544.83 167.58,-541.75 170.67,-541.75 170.67,-541.75 260.58,-541.75 260.58,-541.75 263.67,-541.75 266.75,-544.83 266.75,-547.92 266.75,-547.92 266.75,-554.08 266.75,-554.08 266.75,-557.17 263.67,-560.25 260.58,-560.25"/>
<text text-anchor="start" x="172.5" y="-547.7" font-family="Helvetica,sans-Serif" font-size="9.00">optimize&#45;image.ui.tsx</text>
</a>
</g>
</g>
<!-- src/shared/ui/optimize&#45;image/index.ts&#45;&gt;src/shared/ui/optimize&#45;image/optimize&#45;image.ui.tsx -->
<g id="edge8" class="edge">
<title>src/shared/ui/optimize&#45;image/index.ts&#45;&gt;src/shared/ui/optimize&#45;image/optimize&#45;image.ui.tsx</title>
<path fill="none" stroke="#000000" stroke-width="2" stroke-opacity="0.200000" d="M117.72,-551C129.23,-551 143.21,-551 156.93,-551"/>
<polygon fill="#000000" fill-opacity="0.200000" stroke="#000000" stroke-width="2" stroke-opacity="0.200000" points="163.06,-553.1 157.06,-551 163.06,-548.9 163.06,-553.1"/>
</g>
<!-- src/shared/ui/optimize&#45;image/optimize&#45;image.module.css -->
<g id="node17" class="node">
<title>src/shared/ui/optimize&#45;image/optimize&#45;image.module.css</title>
<g id="a_node17"><a xlink:href="src/shared/ui/optimize-image/optimize-image.module.css" xlink:title="optimize&#45;image.module.css">
<path fill="#ffffcc" stroke="black" d="M404.33,-560.25C404.33,-560.25 288.92,-560.25 288.92,-560.25 285.83,-560.25 282.75,-557.17 282.75,-554.08 282.75,-554.08 282.75,-547.92 282.75,-547.92 282.75,-544.83 285.83,-541.75 288.92,-541.75 288.92,-541.75 404.33,-541.75 404.33,-541.75 407.42,-541.75 410.5,-544.83 410.5,-547.92 410.5,-547.92 410.5,-554.08 410.5,-554.08 410.5,-557.17 407.42,-560.25 404.33,-560.25"/>
<text text-anchor="start" x="290.75" y="-547.7" font-family="Helvetica,sans-Serif" font-size="9.00">optimize&#45;image.module.css</text>
</a>
</g>
</g>
<!-- src/shared/ui/optimize&#45;image/optimize&#45;image.ui.tsx&#45;&gt;src/shared/ui/optimize&#45;image/optimize&#45;image.module.css -->
<g id="edge9" class="edge">
<title>src/shared/ui/optimize&#45;image/optimize&#45;image.ui.tsx&#45;&gt;src/shared/ui/optimize&#45;image/optimize&#45;image.module.css</title>
<path fill="none" stroke="#000000" stroke-width="2" stroke-opacity="0.200000" d="M267.24,-551C269.25,-551 271.27,-551 273.31,-551"/>
<polygon fill="#000000" fill-opacity="0.200000" stroke="#000000" stroke-width="2" stroke-opacity="0.200000" points="273.25,-553.1 279.25,-551 273.25,-548.9 273.25,-553.1"/>
</g>
<!-- src/shared/ui/optimize&#45;link.tsx -->
<g id="node18" class="node">
<title>src/shared/ui/optimize&#45;link.tsx</title>
<g id="a_node18"><a xlink:href="src/shared/ui/optimize-link.tsx" xlink:title="no&#45;orphans">
<path fill="#ccffcc" stroke="orange" d="M124.71,-613.25C124.71,-613.25 55.79,-613.25 55.79,-613.25 52.71,-613.25 49.62,-610.17 49.62,-607.08 49.62,-607.08 49.62,-600.92 49.62,-600.92 49.62,-597.83 52.71,-594.75 55.79,-594.75 55.79,-594.75 124.71,-594.75 124.71,-594.75 127.79,-594.75 130.88,-597.83 130.88,-600.92 130.88,-600.92 130.88,-607.08 130.88,-607.08 130.88,-610.17 127.79,-613.25 124.71,-613.25"/>
<text text-anchor="start" x="57.62" y="-600.7" font-family="Helvetica,sans-Serif" font-size="9.00" fill="orange">optimize&#45;link.tsx</text>
</a>
</g>
</g>
<!-- src/widgets/google&#45;analytic/google&#45;analytic.ui.tsx -->
<g id="node19" class="node">
<title>src/widgets/google&#45;analytic/google&#45;analytic.ui.tsx</title>
<g id="a_node19"><a xlink:href="src/widgets/google-analytic/google-analytic.ui.tsx" xlink:title="google&#45;analytic.ui.tsx">
<path fill="#bbfeff" stroke="black" d="M260.58,-709.25C260.58,-709.25 170.67,-709.25 170.67,-709.25 167.58,-709.25 164.5,-706.17 164.5,-703.08 164.5,-703.08 164.5,-696.92 164.5,-696.92 164.5,-693.83 167.58,-690.75 170.67,-690.75 170.67,-690.75 260.58,-690.75 260.58,-690.75 263.67,-690.75 266.75,-693.83 266.75,-696.92 266.75,-696.92 266.75,-703.08 266.75,-703.08 266.75,-706.17 263.67,-709.25 260.58,-709.25"/>
<text text-anchor="start" x="172.5" y="-696.7" font-family="Helvetica,sans-Serif" font-size="9.00">google&#45;analytic.ui.tsx</text>
</a>
</g>
</g>
<!-- src/widgets/google&#45;analytic/index.ts -->
<g id="node20" class="node">
<title>src/widgets/google&#45;analytic/index.ts</title>
<g id="a_node20"><a xlink:href="src/widgets/google-analytic/index.ts" xlink:title="index.ts">
<path fill="#ddfeff" stroke="black" d="M111.08,-709.25C111.08,-709.25 69.42,-709.25 69.42,-709.25 66.33,-709.25 63.25,-706.17 63.25,-703.08 63.25,-703.08 63.25,-696.92 63.25,-696.92 63.25,-693.83 66.33,-690.75 69.42,-690.75 69.42,-690.75 111.08,-690.75 111.08,-690.75 114.17,-690.75 117.25,-693.83 117.25,-696.92 117.25,-696.92 117.25,-703.08 117.25,-703.08 117.25,-706.17 114.17,-709.25 111.08,-709.25"/>
<text text-anchor="start" x="74.5" y="-696.7" font-family="Helvetica,sans-Serif" font-size="9.00">index.ts</text>
</a>
</g>
</g>
<!-- src/widgets/google&#45;analytic/index.ts&#45;&gt;src/widgets/google&#45;analytic/google&#45;analytic.ui.tsx -->
<g id="edge10" class="edge">
<title>src/widgets/google&#45;analytic/index.ts&#45;&gt;src/widgets/google&#45;analytic/google&#45;analytic.ui.tsx</title>
<path fill="none" stroke="#000000" stroke-width="2" stroke-opacity="0.200000" d="M117.72,-700C129.23,-700 143.21,-700 156.93,-700"/>
<polygon fill="#000000" fill-opacity="0.200000" stroke="#000000" stroke-width="2" stroke-opacity="0.200000" points="163.06,-702.1 157.06,-700 163.06,-697.9 163.06,-702.1"/>
</g>
<!-- src/widgets/header/header.module.css -->
<g id="node21" class="node">
<title>src/widgets/header/header.module.css</title>
<g id="a_node21"><a xlink:href="src/widgets/header/header.module.css" xlink:title="header.module.css">
<path fill="#ffffcc" stroke="black" d="M387.08,-770.25C387.08,-770.25 306.17,-770.25 306.17,-770.25 303.08,-770.25 300,-767.17 300,-764.08 300,-764.08 300,-757.92 300,-757.92 300,-754.83 303.08,-751.75 306.17,-751.75 306.17,-751.75 387.08,-751.75 387.08,-751.75 390.17,-751.75 393.25,-754.83 393.25,-757.92 393.25,-757.92 393.25,-764.08 393.25,-764.08 393.25,-767.17 390.17,-770.25 387.08,-770.25"/>
<text text-anchor="start" x="308" y="-757.7" font-family="Helvetica,sans-Serif" font-size="9.00">header.module.css</text>
</a>
</g>
</g>
<!-- src/widgets/header/header.ui.tsx -->
<g id="node22" class="node">
<title>src/widgets/header/header.ui.tsx</title>
<g id="a_node22"><a xlink:href="src/widgets/header/header.ui.tsx" xlink:title="header.ui.tsx">
<path fill="#bbfeff" stroke="black" d="M243.33,-770.25C243.33,-770.25 187.92,-770.25 187.92,-770.25 184.83,-770.25 181.75,-767.17 181.75,-764.08 181.75,-764.08 181.75,-757.92 181.75,-757.92 181.75,-754.83 184.83,-751.75 187.92,-751.75 187.92,-751.75 243.33,-751.75 243.33,-751.75 246.42,-751.75 249.5,-754.83 249.5,-757.92 249.5,-757.92 249.5,-764.08 249.5,-764.08 249.5,-767.17 246.42,-770.25 243.33,-770.25"/>
<text text-anchor="start" x="189.75" y="-757.7" font-family="Helvetica,sans-Serif" font-size="9.00">header.ui.tsx</text>
</a>
</g>
</g>
<!-- src/widgets/header/header.ui.tsx&#45;&gt;src/widgets/header/header.module.css -->
<g id="edge11" class="edge">
<title>src/widgets/header/header.ui.tsx&#45;&gt;src/widgets/header/header.module.css</title>
<path fill="none" stroke="#000000" stroke-width="2" stroke-opacity="0.200000" d="M249.85,-761C262.46,-761 277.17,-761 291.23,-761"/>
<polygon fill="#000000" fill-opacity="0.200000" stroke="#000000" stroke-width="2" stroke-opacity="0.200000" points="290.85,-763.1 296.85,-761 290.85,-758.9 290.85,-763.1"/>
</g>
<!-- src/widgets/header/index.ts -->
<g id="node23" class="node">
<title>src/widgets/header/index.ts</title>
<g id="a_node23"><a xlink:href="src/widgets/header/index.ts" xlink:title="index.ts">
<path fill="#ddfeff" stroke="black" d="M111.08,-770.25C111.08,-770.25 69.42,-770.25 69.42,-770.25 66.33,-770.25 63.25,-767.17 63.25,-764.08 63.25,-764.08 63.25,-757.92 63.25,-757.92 63.25,-754.83 66.33,-751.75 69.42,-751.75 69.42,-751.75 111.08,-751.75 111.08,-751.75 114.17,-751.75 117.25,-754.83 117.25,-757.92 117.25,-757.92 117.25,-764.08 117.25,-764.08 117.25,-767.17 114.17,-770.25 111.08,-770.25"/>
<text text-anchor="start" x="74.5" y="-757.7" font-family="Helvetica,sans-Serif" font-size="9.00">index.ts</text>
</a>
</g>
</g>
<!-- src/widgets/header/index.ts&#45;&gt;src/widgets/header/header.ui.tsx -->
<g id="edge12" class="edge">
<title>src/widgets/header/index.ts&#45;&gt;src/widgets/header/header.ui.tsx</title>
<path fill="none" stroke="#000000" stroke-width="2" stroke-opacity="0.200000" d="M117.72,-761C134.36,-761 156.16,-761 174.86,-761"/>
<polygon fill="#000000" fill-opacity="0.200000" stroke="#000000" stroke-width="2" stroke-opacity="0.200000" points="180.6,-763.1 174.6,-761 180.6,-758.9 180.6,-763.1"/>
</g>
<!-- src/widgets/hero/hero.module.css -->
<g id="node24" class="node">
<title>src/widgets/hero/hero.module.css</title>
<g id="a_node24"><a xlink:href="src/widgets/hero/hero.module.css" xlink:title="hero.module.css">
<path fill="#ffffcc" stroke="black" d="M382.21,-831.25C382.21,-831.25 311.04,-831.25 311.04,-831.25 307.96,-831.25 304.88,-828.17 304.88,-825.08 304.88,-825.08 304.88,-818.92 304.88,-818.92 304.88,-815.83 307.96,-812.75 311.04,-812.75 311.04,-812.75 382.21,-812.75 382.21,-812.75 385.29,-812.75 388.38,-815.83 388.38,-818.92 388.38,-818.92 388.38,-825.08 388.38,-825.08 388.38,-828.17 385.29,-831.25 382.21,-831.25"/>
<text text-anchor="start" x="312.88" y="-818.7" font-family="Helvetica,sans-Serif" font-size="9.00">hero.module.css</text>
</a>
</g>
</g>
<!-- src/widgets/hero/hero.ui.tsx -->
<g id="node25" class="node">
<title>src/widgets/hero/hero.ui.tsx</title>
<g id="a_node25"><a xlink:href="src/widgets/hero/hero.ui.tsx" xlink:title="hero.ui.tsx">
<path fill="#bbfeff" stroke="black" d="M238.46,-831.25C238.46,-831.25 192.79,-831.25 192.79,-831.25 189.71,-831.25 186.62,-828.17 186.62,-825.08 186.62,-825.08 186.62,-818.92 186.62,-818.92 186.62,-815.83 189.71,-812.75 192.79,-812.75 192.79,-812.75 238.46,-812.75 238.46,-812.75 241.54,-812.75 244.62,-815.83 244.62,-818.92 244.62,-818.92 244.62,-825.08 244.62,-825.08 244.62,-828.17 241.54,-831.25 238.46,-831.25"/>
<text text-anchor="start" x="194.62" y="-818.7" font-family="Helvetica,sans-Serif" font-size="9.00">hero.ui.tsx</text>
</a>
</g>
</g>
<!-- src/widgets/hero/hero.ui.tsx&#45;&gt;src/widgets/hero/hero.module.css -->
<g id="edge13" class="edge">
<title>src/widgets/hero/hero.ui.tsx&#45;&gt;src/widgets/hero/hero.module.css</title>
<path fill="none" stroke="#000000" stroke-width="2" stroke-opacity="0.200000" d="M244.93,-822C259.84,-822 278.56,-822 295.8,-822"/>
<polygon fill="#000000" fill-opacity="0.200000" stroke="#000000" stroke-width="2" stroke-opacity="0.200000" points="295.62,-824.1 301.62,-822 295.62,-819.9 295.62,-824.1"/>
</g>
<!-- src/widgets/hero/index.ts -->
<g id="node26" class="node">
<title>src/widgets/hero/index.ts</title>
<g id="a_node26"><a xlink:href="src/widgets/hero/index.ts" xlink:title="index.ts">
<path fill="#ddfeff" stroke="black" d="M111.08,-831.25C111.08,-831.25 69.42,-831.25 69.42,-831.25 66.33,-831.25 63.25,-828.17 63.25,-825.08 63.25,-825.08 63.25,-818.92 63.25,-818.92 63.25,-815.83 66.33,-812.75 69.42,-812.75 69.42,-812.75 111.08,-812.75 111.08,-812.75 114.17,-812.75 117.25,-815.83 117.25,-818.92 117.25,-818.92 117.25,-825.08 117.25,-825.08 117.25,-828.17 114.17,-831.25 111.08,-831.25"/>
<text text-anchor="start" x="74.5" y="-818.7" font-family="Helvetica,sans-Serif" font-size="9.00">index.ts</text>
</a>
</g>
</g>
<!-- src/widgets/hero/index.ts&#45;&gt;src/widgets/hero/hero.ui.tsx -->
<g id="edge14" class="edge">
<title>src/widgets/hero/index.ts&#45;&gt;src/widgets/hero/hero.ui.tsx</title>
<path fill="none" stroke="#000000" stroke-width="2" stroke-opacity="0.200000" d="M117.72,-822C135.75,-822 159.83,-822 179.47,-822"/>
<polygon fill="#000000" fill-opacity="0.200000" stroke="#000000" stroke-width="2" stroke-opacity="0.200000" points="185.49,-824.1 179.49,-822 185.49,-819.9 185.49,-824.1"/>
</g>
</g>
</svg>
