<?xml version="1.0" encoding="UTF-8" standalone="no"?>
<!DOCTYPE svg PUBLIC "-//W3C//DTD SVG 1.1//EN"
 "http://www.w3.org/Graphics/SVG/1.1/DTD/svg11.dtd">
<!-- Generated by graphviz version 12.1.0 (20240811.2233)
 -->
<!-- Title: dependency&#45;cruiser output Pages: 1 -->
<svg width="955pt" height="1575pt"
 viewBox="0.00 0.00 955.12 1575.00" xmlns="http://www.w3.org/2000/svg" xmlns:xlink="http://www.w3.org/1999/xlink">
<g id="graph0" class="graph" transform="scale(1 1) rotate(0) translate(4 1571)">
<title>dependency&#45;cruiser output</title>
<polygon fill="white" stroke="none" points="-4,4 -4,-1571 951.12,-1571 951.12,4 -4,4"/>
<g id="clust1" class="cluster">
<title>cluster_src</title>
<path fill="#ffffff" stroke="black" stroke-width="2" d="M20,-8C20,-8 927.12,-8 927.12,-8 933.12,-8 939.12,-14 939.12,-20 939.12,-20 939.12,-1547 939.12,-1547 939.12,-1553 933.12,-1559 927.12,-1559 927.12,-1559 20,-1559 20,-1559 14,-1559 8,-1553 8,-1547 8,-1547 8,-20 8,-20 8,-14 14,-8 20,-8"/>
<text text-anchor="middle" x="473.56" y="-1546.45" font-family="Helvetica,sans-Serif" font-weight="bold" font-size="9.00">src</text>
</g>
<g id="clust2" class="cluster">
<title>cluster_src/app</title>
<path fill="#ffffff" stroke="black" stroke-width="2" d="M33.62,-16C33.62,-16 229.62,-16 229.62,-16 235.62,-16 241.62,-22 241.62,-28 241.62,-28 241.62,-127 241.62,-127 241.62,-133 235.62,-139 229.62,-139 229.62,-139 33.62,-139 33.62,-139 27.62,-139 21.62,-133 21.62,-127 21.62,-127 21.62,-28 21.62,-28 21.62,-22 27.62,-16 33.62,-16"/>
<text text-anchor="middle" x="131.62" y="-126.45" font-family="Helvetica,sans-Serif" font-weight="bold" font-size="9.00">app</text>
</g>
<g id="clust3" class="cluster">
<title>cluster_src/app/provider</title>
<path fill="#ffffff" stroke="black" stroke-width="2" d="M41.62,-24C41.62,-24 221.62,-24 221.62,-24 227.62,-24 233.62,-30 233.62,-36 233.62,-36 233.62,-100 233.62,-100 233.62,-106 227.62,-112 221.62,-112 221.62,-112 41.62,-112 41.62,-112 35.62,-112 29.62,-106 29.62,-100 29.62,-100 29.62,-36 29.62,-36 29.62,-30 35.62,-24 41.62,-24"/>
<text text-anchor="middle" x="131.62" y="-99.45" font-family="Helvetica,sans-Serif" font-weight="bold" font-size="9.00">provider</text>
</g>
<g id="clust4" class="cluster">
<title>cluster_src/app/provider/root</title>
<path fill="#ffffff" stroke="black" stroke-width="2" d="M49.62,-32C49.62,-32 213.62,-32 213.62,-32 219.62,-32 225.62,-38 225.62,-44 225.62,-44 225.62,-73 225.62,-73 225.62,-79 219.62,-85 213.62,-85 213.62,-85 49.62,-85 49.62,-85 43.62,-85 37.62,-79 37.62,-73 37.62,-73 37.62,-44 37.62,-44 37.62,-38 43.62,-32 49.62,-32"/>
<text text-anchor="middle" x="131.62" y="-72.45" font-family="Helvetica,sans-Serif" font-weight="bold" font-size="9.00">root</text>
</g>
<g id="clust5" class="cluster">
<title>cluster_src/features</title>
<path fill="#ffffff" stroke="black" stroke-width="2" d="M31.38,-147C31.38,-147 587.88,-147 587.88,-147 593.88,-147 599.88,-153 599.88,-159 599.88,-159 599.88,-254 599.88,-254 599.88,-260 593.88,-266 587.88,-266 587.88,-266 31.38,-266 31.38,-266 25.38,-266 19.38,-260 19.38,-254 19.38,-254 19.38,-159 19.38,-159 19.38,-153 25.38,-147 31.38,-147"/>
<text text-anchor="middle" x="309.62" y="-253.45" font-family="Helvetica,sans-Serif" font-weight="bold" font-size="9.00">features</text>
</g>
<g id="clust6" class="cluster">
<title>cluster_src/features/catalog</title>
<path fill="#ffffff" stroke="black" stroke-width="2" d="M39.38,-155C39.38,-155 579.88,-155 579.88,-155 585.88,-155 591.88,-161 591.88,-167 591.88,-167 591.88,-227 591.88,-227 591.88,-233 585.88,-239 579.88,-239 579.88,-239 39.38,-239 39.38,-239 33.38,-239 27.38,-233 27.38,-227 27.38,-227 27.38,-167 27.38,-167 27.38,-161 33.38,-155 39.38,-155"/>
<text text-anchor="middle" x="309.62" y="-226.45" font-family="Helvetica,sans-Serif" font-weight="bold" font-size="9.00">catalog</text>
</g>
<g id="clust7" class="cluster">
<title>cluster_src/screens</title>
<path fill="#ffffff" stroke="black" stroke-width="2" d="M41.62,-274C41.62,-274 349.88,-274 349.88,-274 355.88,-274 361.88,-280 361.88,-286 361.88,-286 361.88,-411 361.88,-411 361.88,-417 355.88,-423 349.88,-423 349.88,-423 41.62,-423 41.62,-423 35.62,-423 29.62,-417 29.62,-411 29.62,-411 29.62,-286 29.62,-286 29.62,-280 35.62,-274 41.62,-274"/>
<text text-anchor="middle" x="195.75" y="-410.45" font-family="Helvetica,sans-Serif" font-weight="bold" font-size="9.00">screens</text>
</g>
<g id="clust8" class="cluster">
<title>cluster_src/screens/policy</title>
<path fill="#ffffff" stroke="black" stroke-width="2" d="M49.62,-282C49.62,-282 341.88,-282 341.88,-282 347.88,-282 353.88,-288 353.88,-294 353.88,-294 353.88,-323 353.88,-323 353.88,-329 347.88,-335 341.88,-335 341.88,-335 49.62,-335 49.62,-335 43.62,-335 37.62,-329 37.62,-323 37.62,-323 37.62,-294 37.62,-294 37.62,-288 43.62,-282 49.62,-282"/>
<text text-anchor="middle" x="195.75" y="-322.45" font-family="Helvetica,sans-Serif" font-weight="bold" font-size="9.00">policy</text>
</g>
<g id="clust9" class="cluster">
<title>cluster_src/screens/root</title>
<path fill="#ffffff" stroke="black" stroke-width="2" d="M49.62,-343C49.62,-343 212.88,-343 212.88,-343 218.88,-343 224.88,-349 224.88,-355 224.88,-355 224.88,-384 224.88,-384 224.88,-390 218.88,-396 212.88,-396 212.88,-396 49.62,-396 49.62,-396 43.62,-396 37.62,-390 37.62,-384 37.62,-384 37.62,-355 37.62,-355 37.62,-349 43.62,-343 49.62,-343"/>
<text text-anchor="middle" x="131.25" y="-383.45" font-family="Helvetica,sans-Serif" font-weight="bold" font-size="9.00">root</text>
</g>
<g id="clust10" class="cluster">
<title>cluster_src/shared</title>
<path fill="#ffffff" stroke="black" stroke-width="2" d="M28,-431C28,-431 346.62,-431 346.62,-431 352.62,-431 358.62,-437 358.62,-443 358.62,-443 358.62,-847 358.62,-847 358.62,-853 352.62,-859 346.62,-859 346.62,-859 28,-859 28,-859 22,-859 16,-853 16,-847 16,-847 16,-443 16,-443 16,-437 22,-431 28,-431"/>
<text text-anchor="middle" x="187.31" y="-846.45" font-family="Helvetica,sans-Serif" font-weight="bold" font-size="9.00">shared</text>
</g>
<g id="clust11" class="cluster">
<title>cluster_src/shared/api</title>
<path fill="#ffffff" stroke="black" stroke-width="2" d="M41.62,-439C41.62,-439 103.62,-439 103.62,-439 109.62,-439 115.62,-445 115.62,-451 115.62,-451 115.62,-515 115.62,-515 115.62,-521 109.62,-527 103.62,-527 103.62,-527 41.62,-527 41.62,-527 35.62,-527 29.62,-521 29.62,-515 29.62,-515 29.62,-451 29.62,-451 29.62,-445 35.62,-439 41.62,-439"/>
<text text-anchor="middle" x="72.62" y="-514.45" font-family="Helvetica,sans-Serif" font-weight="bold" font-size="9.00">api</text>
</g>
<g id="clust12" class="cluster">
<title>cluster_src/shared/api/mail</title>
<path fill="#ffffff" stroke="black" stroke-width="2" d="M49.62,-447C49.62,-447 95.62,-447 95.62,-447 101.62,-447 107.62,-453 107.62,-459 107.62,-459 107.62,-488 107.62,-488 107.62,-494 101.62,-500 95.62,-500 95.62,-500 49.63,-500 49.63,-500 43.62,-500 37.62,-494 37.62,-488 37.62,-488 37.62,-459 37.62,-459 37.62,-453 43.62,-447 49.62,-447"/>
<text text-anchor="middle" x="72.62" y="-487.45" font-family="Helvetica,sans-Serif" font-weight="bold" font-size="9.00">mail</text>
</g>
<g id="clust13" class="cluster">
<title>cluster_src/shared/consts</title>
<path fill="#ffffff" stroke="black" stroke-width="2" d="M49.12,-535C49.12,-535 96.12,-535 96.12,-535 102.12,-535 108.12,-541 108.12,-547 108.12,-547 108.12,-576 108.12,-576 108.12,-582 102.12,-588 96.12,-588 96.12,-588 49.12,-588 49.12,-588 43.12,-588 37.12,-582 37.12,-576 37.12,-576 37.12,-547 37.12,-547 37.12,-541 43.12,-535 49.12,-535"/>
<text text-anchor="middle" x="72.62" y="-575.45" font-family="Helvetica,sans-Serif" font-weight="bold" font-size="9.00">consts</text>
</g>
<g id="clust14" class="cluster">
<title>cluster_src/shared/types</title>
<path fill="#ffffff" stroke="black" stroke-width="2" d="M49.62,-596C49.62,-596 95.62,-596 95.62,-596 101.62,-596 107.62,-602 107.62,-608 107.62,-608 107.62,-637 107.62,-637 107.62,-643 101.62,-649 95.62,-649 95.62,-649 49.63,-649 49.63,-649 43.62,-649 37.62,-643 37.62,-637 37.62,-637 37.62,-608 37.62,-608 37.62,-602 43.62,-596 49.62,-596"/>
<text text-anchor="middle" x="72.62" y="-636.45" font-family="Helvetica,sans-Serif" font-weight="bold" font-size="9.00">types</text>
</g>
<g id="clust15" class="cluster">
<title>cluster_src/shared/ui</title>
<path fill="#ffffff" stroke="black" stroke-width="2" d="M36,-657C36,-657 338.62,-657 338.62,-657 344.62,-657 350.62,-663 350.62,-669 350.62,-669 350.62,-820 350.62,-820 350.62,-826 344.62,-832 338.62,-832 338.62,-832 36,-832 36,-832 30,-832 24,-826 24,-820 24,-820 24,-669 24,-669 24,-663 30,-657 36,-657"/>
<text text-anchor="middle" x="187.31" y="-819.45" font-family="Helvetica,sans-Serif" font-weight="bold" font-size="9.00">ui</text>
</g>
<g id="clust16" class="cluster">
<title>cluster_src/shared/ui/dialog</title>
<path fill="#ffffff" stroke="black" stroke-width="2" d="M49.62,-665C49.62,-665 330.62,-665 330.62,-665 336.62,-665 342.62,-671 342.62,-677 342.62,-677 342.62,-706 342.62,-706 342.62,-712 336.62,-718 330.62,-718 330.62,-718 49.62,-718 49.62,-718 43.62,-718 37.62,-712 37.62,-706 37.62,-706 37.62,-677 37.62,-677 37.62,-671 43.62,-665 49.62,-665"/>
<text text-anchor="middle" x="190.12" y="-705.45" font-family="Helvetica,sans-Serif" font-weight="bold" font-size="9.00">dialog</text>
</g>
<g id="clust17" class="cluster">
<title>cluster_src/shared/ui/optimize&#45;image</title>
<path fill="#ffffff" stroke="black" stroke-width="2" d="M49.62,-726C49.62,-726 224.5,-726 224.5,-726 230.5,-726 236.5,-732 236.5,-738 236.5,-738 236.5,-767 236.5,-767 236.5,-773 230.5,-779 224.5,-779 224.5,-779 49.62,-779 49.62,-779 43.62,-779 37.62,-773 37.62,-767 37.62,-767 37.62,-738 37.62,-738 37.62,-732 43.62,-726 49.62,-726"/>
<text text-anchor="middle" x="137.06" y="-766.45" font-family="Helvetica,sans-Serif" font-weight="bold" font-size="9.00">optimize&#45;image</text>
</g>
<g id="clust18" class="cluster">
<title>cluster_src/widgets</title>
<path fill="#ffffff" stroke="black" stroke-width="2" d="M41.62,-867C41.62,-867 919.12,-867 919.12,-867 925.12,-867 931.12,-873 931.12,-879 931.12,-879 931.12,-1520 931.12,-1520 931.12,-1526 925.12,-1532 919.12,-1532 919.12,-1532 41.62,-1532 41.62,-1532 35.62,-1532 29.62,-1526 29.62,-1520 29.62,-1520 29.62,-879 29.62,-879 29.62,-873 35.62,-867 41.62,-867"/>
<text text-anchor="middle" x="480.38" y="-1519.45" font-family="Helvetica,sans-Serif" font-weight="bold" font-size="9.00">widgets</text>
</g>
<g id="clust19" class="cluster">
<title>cluster_src/widgets/consultation</title>
<path fill="#ffffff" stroke="black" stroke-width="2" d="M517.62,-1180C517.62,-1180 911.12,-1180 911.12,-1180 917.12,-1180 923.12,-1186 923.12,-1192 923.12,-1192 923.12,-1235 923.12,-1235 923.12,-1241 917.12,-1247 911.12,-1247 911.12,-1247 517.62,-1247 517.62,-1247 511.62,-1247 505.62,-1241 505.62,-1235 505.62,-1235 505.62,-1192 505.62,-1192 505.62,-1186 511.62,-1180 517.62,-1180"/>
<text text-anchor="middle" x="714.38" y="-1234.45" font-family="Helvetica,sans-Serif" font-weight="bold" font-size="9.00">consultation</text>
</g>
<g id="clust20" class="cluster">
<title>cluster_src/widgets/contact</title>
<path fill="#ffffff" stroke="black" stroke-width="2" d="M280.75,-997C280.75,-997 569.38,-997 569.38,-997 575.38,-997 581.38,-1003 581.38,-1009 581.38,-1009 581.38,-1038 581.38,-1038 581.38,-1044 575.38,-1050 569.38,-1050 569.38,-1050 280.75,-1050 280.75,-1050 274.75,-1050 268.75,-1044 268.75,-1038 268.75,-1038 268.75,-1009 268.75,-1009 268.75,-1003 274.75,-997 280.75,-997"/>
<text text-anchor="middle" x="425.06" y="-1037.45" font-family="Helvetica,sans-Serif" font-weight="bold" font-size="9.00">contact</text>
</g>
<g id="clust21" class="cluster">
<title>cluster_src/widgets/documentation</title>
<path fill="#ffffff" stroke="black" stroke-width="2" d="M280.75,-1058C280.75,-1058 585.12,-1058 585.12,-1058 591.12,-1058 597.12,-1064 597.12,-1070 597.12,-1070 597.12,-1099 597.12,-1099 597.12,-1105 591.12,-1111 585.12,-1111 585.12,-1111 280.75,-1111 280.75,-1111 274.75,-1111 268.75,-1105 268.75,-1099 268.75,-1099 268.75,-1070 268.75,-1070 268.75,-1064 274.75,-1058 280.75,-1058"/>
<text text-anchor="middle" x="432.94" y="-1098.45" font-family="Helvetica,sans-Serif" font-weight="bold" font-size="9.00">documentation</text>
</g>
<g id="clust22" class="cluster">
<title>cluster_src/widgets/faq</title>
<path fill="#ffffff" stroke="black" stroke-width="2" d="M49.62,-875C49.62,-875 326.75,-875 326.75,-875 332.75,-875 338.75,-881 338.75,-887 338.75,-887 338.75,-916 338.75,-916 338.75,-922 332.75,-928 326.75,-928 326.75,-928 49.62,-928 49.62,-928 43.62,-928 37.62,-922 37.62,-916 37.62,-916 37.62,-887 37.62,-887 37.62,-881 43.62,-875 49.62,-875"/>
<text text-anchor="middle" x="188.19" y="-915.45" font-family="Helvetica,sans-Serif" font-weight="bold" font-size="9.00">faq</text>
</g>
<g id="clust23" class="cluster">
<title>cluster_src/widgets/footer</title>
<path fill="#ffffff" stroke="black" stroke-width="2" d="M49.62,-936C49.62,-936 329.12,-936 329.12,-936 335.12,-936 341.12,-942 341.12,-948 341.12,-948 341.12,-977 341.12,-977 341.12,-983 335.12,-989 329.12,-989 329.12,-989 49.62,-989 49.62,-989 43.62,-989 37.62,-983 37.62,-977 37.62,-977 37.62,-948 37.62,-948 37.62,-942 43.62,-936 49.62,-936"/>
<text text-anchor="middle" x="189.38" y="-976.45" font-family="Helvetica,sans-Serif" font-weight="bold" font-size="9.00">footer</text>
</g>
<g id="clust24" class="cluster">
<title>cluster_src/widgets/header</title>
<path fill="#ffffff" stroke="black" stroke-width="2" d="M49.62,-1180C49.62,-1180 332.12,-1180 332.12,-1180 338.12,-1180 344.12,-1186 344.12,-1192 344.12,-1192 344.12,-1221 344.12,-1221 344.12,-1227 338.12,-1233 332.12,-1233 332.12,-1233 49.62,-1233 49.62,-1233 43.62,-1233 37.62,-1227 37.62,-1221 37.62,-1221 37.62,-1192 37.62,-1192 37.62,-1186 43.62,-1180 49.62,-1180"/>
<text text-anchor="middle" x="190.88" y="-1220.45" font-family="Helvetica,sans-Serif" font-weight="bold" font-size="9.00">header</text>
</g>
<g id="clust25" class="cluster">
<title>cluster_src/widgets/hero</title>
<path fill="#ffffff" stroke="black" stroke-width="2" d="M280.75,-1255C280.75,-1255 564.12,-1255 564.12,-1255 570.12,-1255 576.12,-1261 576.12,-1267 576.12,-1267 576.12,-1296 576.12,-1296 576.12,-1302 570.12,-1308 564.12,-1308 564.12,-1308 280.75,-1308 280.75,-1308 274.75,-1308 268.75,-1302 268.75,-1296 268.75,-1296 268.75,-1267 268.75,-1267 268.75,-1261 274.75,-1255 280.75,-1255"/>
<text text-anchor="middle" x="422.44" y="-1295.45" font-family="Helvetica,sans-Serif" font-weight="bold" font-size="9.00">hero</text>
</g>
<g id="clust26" class="cluster">
<title>cluster_src/widgets/information</title>
<path fill="#ffffff" stroke="black" stroke-width="2" d="M49.62,-1316C49.62,-1316 340.75,-1316 340.75,-1316 346.75,-1316 352.75,-1322 352.75,-1328 352.75,-1328 352.75,-1357 352.75,-1357 352.75,-1363 346.75,-1369 340.75,-1369 340.75,-1369 49.62,-1369 49.62,-1369 43.62,-1369 37.62,-1363 37.62,-1357 37.62,-1357 37.62,-1328 37.62,-1328 37.62,-1322 43.62,-1316 49.62,-1316"/>
<text text-anchor="middle" x="195.19" y="-1356.45" font-family="Helvetica,sans-Serif" font-weight="bold" font-size="9.00">information</text>
</g>
<g id="clust27" class="cluster">
<title>cluster_src/widgets/nuaces</title>
<path fill="#ffffff" stroke="black" stroke-width="2" d="M49.62,-1377C49.62,-1377 332.88,-1377 332.88,-1377 338.88,-1377 344.88,-1383 344.88,-1389 344.88,-1389 344.88,-1418 344.88,-1418 344.88,-1424 338.88,-1430 332.88,-1430 332.88,-1430 49.62,-1430 49.62,-1430 43.62,-1430 37.62,-1424 37.62,-1418 37.62,-1418 37.62,-1389 37.62,-1389 37.62,-1383 43.62,-1377 49.62,-1377"/>
<text text-anchor="middle" x="191.25" y="-1417.45" font-family="Helvetica,sans-Serif" font-weight="bold" font-size="9.00">nuaces</text>
</g>
<g id="clust28" class="cluster">
<title>cluster_src/widgets/presentation</title>
<path fill="#ffffff" stroke="black" stroke-width="2" d="M49.62,-1438C49.62,-1438 464.62,-1438 464.62,-1438 470.62,-1438 476.62,-1444 476.62,-1450 476.62,-1450 476.62,-1493 476.62,-1493 476.62,-1499 470.62,-1505 464.62,-1505 464.62,-1505 49.62,-1505 49.62,-1505 43.62,-1505 37.62,-1499 37.62,-1493 37.62,-1493 37.62,-1450 37.62,-1450 37.62,-1444 43.62,-1438 49.62,-1438"/>
<text text-anchor="middle" x="257.12" y="-1492.45" font-family="Helvetica,sans-Serif" font-weight="bold" font-size="9.00">presentation</text>
</g>
<g id="clust29" class="cluster">
<title>cluster_src/widgets/vacancy</title>
<path fill="#ffffff" stroke="black" stroke-width="2" d="M280.75,-1119C280.75,-1119 571.25,-1119 571.25,-1119 577.25,-1119 583.25,-1125 583.25,-1131 583.25,-1131 583.25,-1160 583.25,-1160 583.25,-1166 577.25,-1172 571.25,-1172 571.25,-1172 280.75,-1172 280.75,-1172 274.75,-1172 268.75,-1166 268.75,-1160 268.75,-1160 268.75,-1131 268.75,-1131 268.75,-1125 274.75,-1119 280.75,-1119"/>
<text text-anchor="middle" x="426" y="-1159.45" font-family="Helvetica,sans-Serif" font-weight="bold" font-size="9.00">vacancy</text>
</g>
<!-- src/app/provider/root/index.ts -->
<g id="node1" class="node">
<title>src/app/provider/root/index.ts</title>
<g id="a_node1"><a xlink:href="src/app/provider/root/index.ts" xlink:title="index.ts">
<path fill="#ddfeff" stroke="black" d="M93.46,-58.25C93.46,-58.25 51.79,-58.25 51.79,-58.25 48.71,-58.25 45.62,-55.17 45.62,-52.08 45.62,-52.08 45.62,-45.92 45.62,-45.92 45.62,-42.83 48.71,-39.75 51.79,-39.75 51.79,-39.75 93.46,-39.75 93.46,-39.75 96.54,-39.75 99.62,-42.83 99.62,-45.92 99.62,-45.92 99.62,-52.08 99.62,-52.08 99.62,-55.17 96.54,-58.25 93.46,-58.25"/>
<text text-anchor="start" x="56.88" y="-45.7" font-family="Helvetica,sans-Serif" font-size="9.00">index.ts</text>
</a>
</g>
</g>
<!-- src/app/provider/root/root.provider.tsx -->
<g id="node2" class="node">
<title>src/app/provider/root/root.provider.tsx</title>
<g id="a_node2"><a xlink:href="src/app/provider/root/root.provider.tsx" xlink:title="root.provider.tsx">
<path fill="#bbfeff" stroke="black" d="M211.46,-58.25C211.46,-58.25 143.29,-58.25 143.29,-58.25 140.21,-58.25 137.12,-55.17 137.12,-52.08 137.12,-52.08 137.12,-45.92 137.12,-45.92 137.12,-42.83 140.21,-39.75 143.29,-39.75 143.29,-39.75 211.46,-39.75 211.46,-39.75 214.54,-39.75 217.62,-42.83 217.62,-45.92 217.62,-45.92 217.62,-52.08 217.62,-52.08 217.62,-55.17 214.54,-58.25 211.46,-58.25"/>
<text text-anchor="start" x="145.12" y="-45.7" font-family="Helvetica,sans-Serif" font-size="9.00">root.provider.tsx</text>
</a>
</g>
</g>
<!-- src/app/provider/root/index.ts&#45;&gt;src/app/provider/root/root.provider.tsx -->
<g id="edge1" class="edge">
<title>src/app/provider/root/index.ts&#45;&gt;src/app/provider/root/root.provider.tsx</title>
<path fill="none" stroke="#000000" stroke-width="2" stroke-opacity="0.200000" d="M100.09,-49C109.17,-49 119.62,-49 129.82,-49"/>
<polygon fill="#000000" fill-opacity="0.200000" stroke="#000000" stroke-width="2" stroke-opacity="0.200000" points="135.82,-51.1 129.82,-49 135.82,-46.9 135.82,-51.1"/>
</g>
<!-- src/features/catalog/catalog.card&#45;modal.tsx -->
<g id="node3" class="node">
<title>src/features/catalog/catalog.card&#45;modal.tsx</title>
<g id="a_node3"><a xlink:href="src/features/catalog/catalog.card-modal.tsx" xlink:title="catalog.card&#45;modal.tsx">
<path fill="#bbfeff" stroke="black" d="M472.96,-181.25C472.96,-181.25 377.04,-181.25 377.04,-181.25 373.96,-181.25 370.88,-178.17 370.88,-175.08 370.88,-175.08 370.88,-168.92 370.88,-168.92 370.88,-165.83 373.96,-162.75 377.04,-162.75 377.04,-162.75 472.96,-162.75 472.96,-162.75 476.04,-162.75 479.12,-165.83 479.12,-168.92 479.12,-168.92 479.12,-175.08 479.12,-175.08 479.12,-178.17 476.04,-181.25 472.96,-181.25"/>
<text text-anchor="start" x="378.88" y="-168.7" font-family="Helvetica,sans-Serif" font-size="9.00">catalog.card&#45;modal.tsx</text>
</a>
</g>
</g>
<!-- src/features/catalog/catalog.card.scss -->
<g id="node4" class="node">
<title>src/features/catalog/catalog.card.scss</title>
<g id="a_node4"><a xlink:href="src/features/catalog/catalog.card.scss" xlink:title="catalog.card.scss">
<path fill="#ffffcc" stroke="black" d="M577.71,-181.25C577.71,-181.25 503.54,-181.25 503.54,-181.25 500.46,-181.25 497.38,-178.17 497.38,-175.08 497.38,-175.08 497.38,-168.92 497.38,-168.92 497.38,-165.83 500.46,-162.75 503.54,-162.75 503.54,-162.75 577.71,-162.75 577.71,-162.75 580.79,-162.75 583.88,-165.83 583.88,-168.92 583.88,-168.92 583.88,-175.08 583.88,-175.08 583.88,-178.17 580.79,-181.25 577.71,-181.25"/>
<text text-anchor="start" x="505.38" y="-168.7" font-family="Helvetica,sans-Serif" font-size="9.00">catalog.card.scss</text>
</a>
</g>
</g>
<!-- src/features/catalog/catalog.card&#45;modal.tsx&#45;&gt;src/features/catalog/catalog.card.scss -->
<g id="edge2" class="edge">
<title>src/features/catalog/catalog.card&#45;modal.tsx&#45;&gt;src/features/catalog/catalog.card.scss</title>
<path fill="none" stroke="#000000" stroke-width="2" stroke-opacity="0.200000" d="M479.49,-172C482.33,-172 485.18,-172 488.02,-172"/>
<polygon fill="#000000" fill-opacity="0.200000" stroke="#000000" stroke-width="2" stroke-opacity="0.200000" points="487.96,-174.1 493.96,-172 487.96,-169.9 487.96,-174.1"/>
</g>
<!-- src/features/catalog/catalog.card.tsx -->
<g id="node5" class="node">
<title>src/features/catalog/catalog.card.tsx</title>
<g id="a_node5"><a xlink:href="src/features/catalog/catalog.card.tsx" xlink:title="catalog.card.tsx">
<path fill="#bbfeff" stroke="black" d="M337.46,-181.25C337.46,-181.25 270.04,-181.25 270.04,-181.25 266.96,-181.25 263.88,-178.17 263.88,-175.08 263.88,-175.08 263.88,-168.92 263.88,-168.92 263.88,-165.83 266.96,-162.75 270.04,-162.75 270.04,-162.75 337.46,-162.75 337.46,-162.75 340.54,-162.75 343.62,-165.83 343.62,-168.92 343.62,-168.92 343.62,-175.08 343.62,-175.08 343.62,-178.17 340.54,-181.25 337.46,-181.25"/>
<text text-anchor="start" x="271.88" y="-168.7" font-family="Helvetica,sans-Serif" font-size="9.00">catalog.card.tsx</text>
</a>
</g>
</g>
<!-- src/features/catalog/catalog.card.tsx&#45;&gt;src/features/catalog/catalog.card&#45;modal.tsx -->
<g id="edge3" class="edge">
<title>src/features/catalog/catalog.card.tsx&#45;&gt;src/features/catalog/catalog.card&#45;modal.tsx</title>
<path fill="none" stroke="#000000" stroke-width="2" stroke-opacity="0.200000" d="M343.8,-172C349.55,-172 355.59,-172 361.67,-172"/>
<polygon fill="#000000" fill-opacity="0.200000" stroke="#000000" stroke-width="2" stroke-opacity="0.200000" points="361.54,-174.1 367.54,-172 361.54,-169.9 361.54,-174.1"/>
</g>
<!-- src/features/catalog/catalog.scss -->
<g id="node6" class="node">
<title>src/features/catalog/catalog.scss</title>
<g id="a_node6"><a xlink:href="src/features/catalog/catalog.scss" xlink:title="catalog.scss">
<path fill="#ffffcc" stroke="black" d="M330.71,-212.25C330.71,-212.25 276.79,-212.25 276.79,-212.25 273.71,-212.25 270.62,-209.17 270.62,-206.08 270.62,-206.08 270.62,-199.92 270.62,-199.92 270.62,-196.83 273.71,-193.75 276.79,-193.75 276.79,-193.75 330.71,-193.75 330.71,-193.75 333.79,-193.75 336.88,-196.83 336.88,-199.92 336.88,-199.92 336.88,-206.08 336.88,-206.08 336.88,-209.17 333.79,-212.25 330.71,-212.25"/>
<text text-anchor="start" x="278.62" y="-199.7" font-family="Helvetica,sans-Serif" font-size="9.00">catalog.scss</text>
</a>
</g>
</g>
<!-- src/features/catalog/catalog.type.ts -->
<g id="node7" class="node">
<title>src/features/catalog/catalog.type.ts</title>
<g id="a_node7"><a xlink:href="src/features/catalog/catalog.type.ts" xlink:title="no&#45;orphans">
<path fill="#ccffcc" stroke="orange" d="M103.71,-181.25C103.71,-181.25 41.54,-181.25 41.54,-181.25 38.46,-181.25 35.38,-178.17 35.38,-175.08 35.38,-175.08 35.38,-168.92 35.38,-168.92 35.38,-165.83 38.46,-162.75 41.54,-162.75 41.54,-162.75 103.71,-162.75 103.71,-162.75 106.79,-162.75 109.88,-165.83 109.88,-168.92 109.88,-168.92 109.88,-175.08 109.88,-175.08 109.88,-178.17 106.79,-181.25 103.71,-181.25"/>
<text text-anchor="start" x="43.38" y="-168.7" font-family="Helvetica,sans-Serif" font-size="9.00" fill="orange">catalog.type.ts</text>
</a>
</g>
</g>
<!-- src/features/catalog/catalog.ui.tsx -->
<g id="node8" class="node">
<title>src/features/catalog/catalog.ui.tsx</title>
<g id="a_node8"><a xlink:href="src/features/catalog/catalog.ui.tsx" xlink:title="catalog.ui.tsx">
<path fill="#bbfeff" stroke="black" d="M205.83,-212.25C205.83,-212.25 148.92,-212.25 148.92,-212.25 145.83,-212.25 142.75,-209.17 142.75,-206.08 142.75,-206.08 142.75,-199.92 142.75,-199.92 142.75,-196.83 145.83,-193.75 148.92,-193.75 148.92,-193.75 205.83,-193.75 205.83,-193.75 208.92,-193.75 212,-196.83 212,-199.92 212,-199.92 212,-206.08 212,-206.08 212,-209.17 208.92,-212.25 205.83,-212.25"/>
<text text-anchor="start" x="150.75" y="-199.7" font-family="Helvetica,sans-Serif" font-size="9.00">catalog.ui.tsx</text>
</a>
</g>
</g>
<!-- src/features/catalog/catalog.ui.tsx&#45;&gt;src/features/catalog/catalog.card.tsx -->
<g id="edge4" class="edge">
<title>src/features/catalog/catalog.ui.tsx&#45;&gt;src/features/catalog/catalog.card.tsx</title>
<path fill="none" stroke="#000000" stroke-width="2" stroke-opacity="0.200000" d="M212.36,-194.53C225.58,-191.23 240.96,-187.4 255.25,-183.84"/>
<polygon fill="#000000" fill-opacity="0.200000" stroke="#000000" stroke-width="2" stroke-opacity="0.200000" points="255.72,-185.89 261.04,-182.4 254.71,-181.81 255.72,-185.89"/>
</g>
<!-- src/features/catalog/catalog.ui.tsx&#45;&gt;src/features/catalog/catalog.scss -->
<g id="edge5" class="edge">
<title>src/features/catalog/catalog.ui.tsx&#45;&gt;src/features/catalog/catalog.scss</title>
<path fill="none" stroke="#000000" stroke-width="2" stroke-opacity="0.200000" d="M212.36,-203C227.65,-203 245.83,-203 261.86,-203"/>
<polygon fill="#000000" fill-opacity="0.200000" stroke="#000000" stroke-width="2" stroke-opacity="0.200000" points="261.49,-205.1 267.49,-203 261.49,-200.9 261.49,-205.1"/>
</g>
<!-- src/features/catalog/index.ts -->
<g id="node9" class="node">
<title>src/features/catalog/index.ts</title>
<g id="a_node9"><a xlink:href="src/features/catalog/index.ts" xlink:title="index.ts">
<path fill="#ddfeff" stroke="black" d="M93.46,-212.25C93.46,-212.25 51.79,-212.25 51.79,-212.25 48.71,-212.25 45.62,-209.17 45.62,-206.08 45.62,-206.08 45.62,-199.92 45.62,-199.92 45.62,-196.83 48.71,-193.75 51.79,-193.75 51.79,-193.75 93.46,-193.75 93.46,-193.75 96.54,-193.75 99.62,-196.83 99.62,-199.92 99.62,-199.92 99.62,-206.08 99.62,-206.08 99.62,-209.17 96.54,-212.25 93.46,-212.25"/>
<text text-anchor="start" x="56.88" y="-199.7" font-family="Helvetica,sans-Serif" font-size="9.00">index.ts</text>
</a>
</g>
</g>
<!-- src/features/catalog/index.ts&#45;&gt;src/features/catalog/catalog.ui.tsx -->
<g id="edge6" class="edge">
<title>src/features/catalog/index.ts&#45;&gt;src/features/catalog/catalog.ui.tsx</title>
<path fill="none" stroke="#000000" stroke-width="2" stroke-opacity="0.200000" d="M100.09,-203C110.92,-203 123.71,-203 135.68,-203"/>
<polygon fill="#000000" fill-opacity="0.200000" stroke="#000000" stroke-width="2" stroke-opacity="0.200000" points="141.62,-205.1 135.62,-203 141.62,-200.9 141.62,-205.1"/>
</g>
<!-- src/screens/policy/index.ts -->
<g id="node10" class="node">
<title>src/screens/policy/index.ts</title>
<g id="a_node10"><a xlink:href="src/screens/policy/index.ts" xlink:title="index.ts">
<path fill="#ddfeff" stroke="black" d="M93.46,-308.25C93.46,-308.25 51.79,-308.25 51.79,-308.25 48.71,-308.25 45.62,-305.17 45.62,-302.08 45.62,-302.08 45.62,-295.92 45.62,-295.92 45.62,-292.83 48.71,-289.75 51.79,-289.75 51.79,-289.75 93.46,-289.75 93.46,-289.75 96.54,-289.75 99.62,-292.83 99.62,-295.92 99.62,-295.92 99.62,-302.08 99.62,-302.08 99.62,-305.17 96.54,-308.25 93.46,-308.25"/>
<text text-anchor="start" x="56.88" y="-295.7" font-family="Helvetica,sans-Serif" font-size="9.00">index.ts</text>
</a>
</g>
</g>
<!-- src/screens/policy/policy&#45;page.ui.tsx -->
<g id="node11" class="node">
<title>src/screens/policy/policy&#45;page.ui.tsx</title>
<g id="a_node11"><a xlink:href="src/screens/policy/policy-page.ui.tsx" xlink:title="policy&#45;page.ui.tsx">
<path fill="#bbfeff" stroke="black" d="M214.83,-308.25C214.83,-308.25 139.92,-308.25 139.92,-308.25 136.83,-308.25 133.75,-305.17 133.75,-302.08 133.75,-302.08 133.75,-295.92 133.75,-295.92 133.75,-292.83 136.83,-289.75 139.92,-289.75 139.92,-289.75 214.83,-289.75 214.83,-289.75 217.92,-289.75 221,-292.83 221,-295.92 221,-295.92 221,-302.08 221,-302.08 221,-305.17 217.92,-308.25 214.83,-308.25"/>
<text text-anchor="start" x="141.75" y="-295.7" font-family="Helvetica,sans-Serif" font-size="9.00">policy&#45;page.ui.tsx</text>
</a>
</g>
</g>
<!-- src/screens/policy/index.ts&#45;&gt;src/screens/policy/policy&#45;page.ui.tsx -->
<g id="edge7" class="edge">
<title>src/screens/policy/index.ts&#45;&gt;src/screens/policy/policy&#45;page.ui.tsx</title>
<path fill="none" stroke="#000000" stroke-width="2" stroke-opacity="0.200000" d="M100.09,-299C108.14,-299 117.27,-299 126.35,-299"/>
<polygon fill="#000000" fill-opacity="0.200000" stroke="#000000" stroke-width="2" stroke-opacity="0.200000" points="132.26,-301.1 126.26,-299 132.26,-296.9 132.26,-301.1"/>
</g>
<!-- src/screens/policy/policy&#45;page.scss -->
<g id="node12" class="node">
<title>src/screens/policy/policy&#45;page.scss</title>
<g id="a_node12"><a xlink:href="src/screens/policy/policy-page.scss" xlink:title="policy&#45;page.scss">
<path fill="#ffffcc" stroke="black" d="M339.71,-308.25C339.71,-308.25 267.79,-308.25 267.79,-308.25 264.71,-308.25 261.62,-305.17 261.62,-302.08 261.62,-302.08 261.62,-295.92 261.62,-295.92 261.62,-292.83 264.71,-289.75 267.79,-289.75 267.79,-289.75 339.71,-289.75 339.71,-289.75 342.79,-289.75 345.88,-292.83 345.88,-295.92 345.88,-295.92 345.88,-302.08 345.88,-302.08 345.88,-305.17 342.79,-308.25 339.71,-308.25"/>
<text text-anchor="start" x="269.62" y="-295.7" font-family="Helvetica,sans-Serif" font-size="9.00">policy&#45;page.scss</text>
</a>
</g>
</g>
<!-- src/screens/policy/policy&#45;page.ui.tsx&#45;&gt;src/screens/policy/policy&#45;page.scss -->
<g id="edge8" class="edge">
<title>src/screens/policy/policy&#45;page.ui.tsx&#45;&gt;src/screens/policy/policy&#45;page.scss</title>
<path fill="none" stroke="#000000" stroke-width="2" stroke-opacity="0.200000" d="M221.18,-299C231.18,-299 241.92,-299 252.22,-299"/>
<polygon fill="#000000" fill-opacity="0.200000" stroke="#000000" stroke-width="2" stroke-opacity="0.200000" points="252.1,-301.1 258.1,-299 252.1,-296.9 252.1,-301.1"/>
</g>
<!-- src/screens/root/index.ts -->
<g id="node13" class="node">
<title>src/screens/root/index.ts</title>
<g id="a_node13"><a xlink:href="src/screens/root/index.ts" xlink:title="index.ts">
<path fill="#ddfeff" stroke="black" d="M93.46,-369.25C93.46,-369.25 51.79,-369.25 51.79,-369.25 48.71,-369.25 45.62,-366.17 45.62,-363.08 45.62,-363.08 45.62,-356.92 45.62,-356.92 45.62,-353.83 48.71,-350.75 51.79,-350.75 51.79,-350.75 93.46,-350.75 93.46,-350.75 96.54,-350.75 99.62,-353.83 99.62,-356.92 99.62,-356.92 99.62,-363.08 99.62,-363.08 99.62,-366.17 96.54,-369.25 93.46,-369.25"/>
<text text-anchor="start" x="56.88" y="-356.7" font-family="Helvetica,sans-Serif" font-size="9.00">index.ts</text>
</a>
</g>
</g>
<!-- src/screens/root/root&#45;page.ui.tsx -->
<g id="node14" class="node">
<title>src/screens/root/root&#45;page.ui.tsx</title>
<g id="a_node14"><a xlink:href="src/screens/root/root-page.ui.tsx" xlink:title="root&#45;page.ui.tsx">
<path fill="#bbfeff" stroke="black" d="M210.71,-369.25C210.71,-369.25 144.04,-369.25 144.04,-369.25 140.96,-369.25 137.88,-366.17 137.88,-363.08 137.88,-363.08 137.88,-356.92 137.88,-356.92 137.88,-353.83 140.96,-350.75 144.04,-350.75 144.04,-350.75 210.71,-350.75 210.71,-350.75 213.79,-350.75 216.88,-353.83 216.88,-356.92 216.88,-356.92 216.88,-363.08 216.88,-363.08 216.88,-366.17 213.79,-369.25 210.71,-369.25"/>
<text text-anchor="start" x="145.88" y="-356.7" font-family="Helvetica,sans-Serif" font-size="9.00">root&#45;page.ui.tsx</text>
</a>
</g>
</g>
<!-- src/screens/root/index.ts&#45;&gt;src/screens/root/root&#45;page.ui.tsx -->
<g id="edge9" class="edge">
<title>src/screens/root/index.ts&#45;&gt;src/screens/root/root&#45;page.ui.tsx</title>
<path fill="none" stroke="#000000" stroke-width="2" stroke-opacity="0.200000" d="M100.09,-360C109.36,-360 120.07,-360 130.47,-360"/>
<polygon fill="#000000" fill-opacity="0.200000" stroke="#000000" stroke-width="2" stroke-opacity="0.200000" points="136.6,-362.1 130.6,-360 136.6,-357.9 136.6,-362.1"/>
</g>
<!-- src/shared/api/mail/index.ts -->
<g id="node15" class="node">
<title>src/shared/api/mail/index.ts</title>
<g id="a_node15"><a xlink:href="src/shared/api/mail/index.ts" xlink:title="no&#45;orphans">
<path fill="#ccffcc" stroke="orange" d="M93.46,-473.25C93.46,-473.25 51.79,-473.25 51.79,-473.25 48.71,-473.25 45.62,-470.17 45.62,-467.08 45.62,-467.08 45.62,-460.92 45.62,-460.92 45.62,-457.83 48.71,-454.75 51.79,-454.75 51.79,-454.75 93.46,-454.75 93.46,-454.75 96.54,-454.75 99.62,-457.83 99.62,-460.92 99.62,-460.92 99.62,-467.08 99.62,-467.08 99.62,-470.17 96.54,-473.25 93.46,-473.25"/>
<text text-anchor="start" x="56.88" y="-460.7" font-family="Helvetica,sans-Serif" font-size="9.00" fill="orange">index.ts</text>
</a>
</g>
</g>
<!-- src/shared/consts/catalog.ts -->
<g id="node16" class="node">
<title>src/shared/consts/catalog.ts</title>
<g id="a_node16"><a xlink:href="src/shared/consts/catalog.ts" xlink:title="no&#45;orphans">
<path fill="#ccffcc" stroke="orange" d="M93.96,-561.25C93.96,-561.25 51.29,-561.25 51.29,-561.25 48.21,-561.25 45.12,-558.17 45.12,-555.08 45.12,-555.08 45.12,-548.92 45.12,-548.92 45.12,-545.83 48.21,-542.75 51.29,-542.75 51.29,-542.75 93.96,-542.75 93.96,-542.75 97.04,-542.75 100.12,-545.83 100.12,-548.92 100.12,-548.92 100.12,-555.08 100.12,-555.08 100.12,-558.17 97.04,-561.25 93.96,-561.25"/>
<text text-anchor="start" x="53.12" y="-548.7" font-family="Helvetica,sans-Serif" font-size="9.00" fill="orange">catalog.ts</text>
</a>
</g>
</g>
<!-- src/shared/types/env.d.ts -->
<g id="node17" class="node">
<title>src/shared/types/env.d.ts</title>
<g id="a_node17"><a xlink:href="src/shared/types/env.d.ts" xlink:title="env.d.ts">
<path fill="#ccffcc" stroke="black" d="M93.46,-622.25C93.46,-622.25 51.79,-622.25 51.79,-622.25 48.71,-622.25 45.62,-619.17 45.62,-616.08 45.62,-616.08 45.62,-609.92 45.62,-609.92 45.62,-606.83 48.71,-603.75 51.79,-603.75 51.79,-603.75 93.46,-603.75 93.46,-603.75 96.54,-603.75 99.62,-606.83 99.62,-609.92 99.62,-609.92 99.62,-616.08 99.62,-616.08 99.62,-619.17 96.54,-622.25 93.46,-622.25"/>
<text text-anchor="start" x="57.25" y="-609.7" font-family="Helvetica,sans-Serif" font-size="9.00">env.d.ts</text>
</a>
</g>
</g>
<!-- src/shared/ui/dialog/dialog.scss -->
<g id="node18" class="node">
<title>src/shared/ui/dialog/dialog.scss</title>
<g id="a_node18"><a xlink:href="src/shared/ui/dialog/dialog.scss" xlink:title="dialog.scss">
<path fill="#ffffcc" stroke="black" d="M328.46,-691.25C328.46,-691.25 279.04,-691.25 279.04,-691.25 275.96,-691.25 272.88,-688.17 272.88,-685.08 272.88,-685.08 272.88,-678.92 272.88,-678.92 272.88,-675.83 275.96,-672.75 279.04,-672.75 279.04,-672.75 328.46,-672.75 328.46,-672.75 331.54,-672.75 334.62,-675.83 334.62,-678.92 334.62,-678.92 334.62,-685.08 334.62,-685.08 334.62,-688.17 331.54,-691.25 328.46,-691.25"/>
<text text-anchor="start" x="280.88" y="-678.7" font-family="Helvetica,sans-Serif" font-size="9.00">dialog.scss</text>
</a>
</g>
</g>
<!-- src/shared/ui/dialog/dialog.tsx -->
<g id="node19" class="node">
<title>src/shared/ui/dialog/dialog.tsx</title>
<g id="a_node19"><a xlink:href="src/shared/ui/dialog/dialog.tsx" xlink:title="dialog.tsx">
<path fill="#bbfeff" stroke="black" d="M198.71,-691.25C198.71,-691.25 156.04,-691.25 156.04,-691.25 152.96,-691.25 149.88,-688.17 149.88,-685.08 149.88,-685.08 149.88,-678.92 149.88,-678.92 149.88,-675.83 152.96,-672.75 156.04,-672.75 156.04,-672.75 198.71,-672.75 198.71,-672.75 201.79,-672.75 204.88,-675.83 204.88,-678.92 204.88,-678.92 204.88,-685.08 204.88,-685.08 204.88,-688.17 201.79,-691.25 198.71,-691.25"/>
<text text-anchor="start" x="157.88" y="-678.7" font-family="Helvetica,sans-Serif" font-size="9.00">dialog.tsx</text>
</a>
</g>
</g>
<!-- src/shared/ui/dialog/dialog.tsx&#45;&gt;src/shared/ui/dialog/dialog.scss -->
<g id="edge10" class="edge">
<title>src/shared/ui/dialog/dialog.tsx&#45;&gt;src/shared/ui/dialog/dialog.scss</title>
<path fill="none" stroke="#000000" stroke-width="2" stroke-opacity="0.200000" d="M205.36,-682C222.43,-682 244.77,-682 263.75,-682"/>
<polygon fill="#000000" fill-opacity="0.200000" stroke="#000000" stroke-width="2" stroke-opacity="0.200000" points="263.74,-684.1 269.74,-682 263.74,-679.9 263.74,-684.1"/>
</g>
<!-- src/shared/ui/dialog/index.ts -->
<g id="node20" class="node">
<title>src/shared/ui/dialog/index.ts</title>
<g id="a_node20"><a xlink:href="src/shared/ui/dialog/index.ts" xlink:title="index.ts">
<path fill="#ddfeff" stroke="black" d="M93.46,-691.25C93.46,-691.25 51.79,-691.25 51.79,-691.25 48.71,-691.25 45.62,-688.17 45.62,-685.08 45.62,-685.08 45.62,-678.92 45.62,-678.92 45.62,-675.83 48.71,-672.75 51.79,-672.75 51.79,-672.75 93.46,-672.75 93.46,-672.75 96.54,-672.75 99.62,-675.83 99.62,-678.92 99.62,-678.92 99.62,-685.08 99.62,-685.08 99.62,-688.17 96.54,-691.25 93.46,-691.25"/>
<text text-anchor="start" x="56.88" y="-678.7" font-family="Helvetica,sans-Serif" font-size="9.00">index.ts</text>
</a>
</g>
</g>
<!-- src/shared/ui/dialog/index.ts&#45;&gt;src/shared/ui/dialog/dialog.tsx -->
<g id="edge11" class="edge">
<title>src/shared/ui/dialog/index.ts&#45;&gt;src/shared/ui/dialog/dialog.tsx</title>
<path fill="none" stroke="#000000" stroke-width="2" stroke-opacity="0.200000" d="M100.09,-682C113.05,-682 128.8,-682 142.62,-682"/>
<polygon fill="#000000" fill-opacity="0.200000" stroke="#000000" stroke-width="2" stroke-opacity="0.200000" points="148.65,-684.1 142.65,-682 148.65,-679.9 148.65,-684.1"/>
</g>
<!-- src/shared/ui/optimize&#45;image/index.ts -->
<g id="node21" class="node">
<title>src/shared/ui/optimize&#45;image/index.ts</title>
<g id="a_node21"><a xlink:href="src/shared/ui/optimize-image/index.ts" xlink:title="index.ts">
<path fill="#ddfeff" stroke="black" d="M93.46,-752.25C93.46,-752.25 51.79,-752.25 51.79,-752.25 48.71,-752.25 45.62,-749.17 45.62,-746.08 45.62,-746.08 45.62,-739.92 45.62,-739.92 45.62,-736.83 48.71,-733.75 51.79,-733.75 51.79,-733.75 93.46,-733.75 93.46,-733.75 96.54,-733.75 99.62,-736.83 99.62,-739.92 99.62,-739.92 99.62,-746.08 99.62,-746.08 99.62,-749.17 96.54,-752.25 93.46,-752.25"/>
<text text-anchor="start" x="56.88" y="-739.7" font-family="Helvetica,sans-Serif" font-size="9.00">index.ts</text>
</a>
</g>
</g>
<!-- src/shared/ui/optimize&#45;image/optimize&#45;image.ui.tsx -->
<g id="node22" class="node">
<title>src/shared/ui/optimize&#45;image/optimize&#45;image.ui.tsx</title>
<g id="a_node22"><a xlink:href="src/shared/ui/optimize-image/optimize-image.ui.tsx" xlink:title="optimize&#45;image.ui.tsx">
<path fill="#bbfeff" stroke="black" d="M222.33,-752.25C222.33,-752.25 132.42,-752.25 132.42,-752.25 129.33,-752.25 126.25,-749.17 126.25,-746.08 126.25,-746.08 126.25,-739.92 126.25,-739.92 126.25,-736.83 129.33,-733.75 132.42,-733.75 132.42,-733.75 222.33,-733.75 222.33,-733.75 225.42,-733.75 228.5,-736.83 228.5,-739.92 228.5,-739.92 228.5,-746.08 228.5,-746.08 228.5,-749.17 225.42,-752.25 222.33,-752.25"/>
<text text-anchor="start" x="134.25" y="-739.7" font-family="Helvetica,sans-Serif" font-size="9.00">optimize&#45;image.ui.tsx</text>
</a>
</g>
</g>
<!-- src/shared/ui/optimize&#45;image/index.ts&#45;&gt;src/shared/ui/optimize&#45;image/optimize&#45;image.ui.tsx -->
<g id="edge12" class="edge">
<title>src/shared/ui/optimize&#45;image/index.ts&#45;&gt;src/shared/ui/optimize&#45;image/optimize&#45;image.ui.tsx</title>
<path fill="none" stroke="#000000" stroke-width="2" stroke-opacity="0.200000" d="M100.09,-743C105.94,-743 112.36,-743 118.91,-743"/>
<polygon fill="#000000" fill-opacity="0.200000" stroke="#000000" stroke-width="2" stroke-opacity="0.200000" points="125.06,-745.1 119.06,-743 125.06,-740.9 125.06,-745.1"/>
</g>
<!-- src/shared/ui/optimize&#45;link.tsx -->
<g id="node23" class="node">
<title>src/shared/ui/optimize&#45;link.tsx</title>
<g id="a_node23"><a xlink:href="src/shared/ui/optimize-link.tsx" xlink:title="no&#45;orphans">
<path fill="#ccffcc" stroke="orange" d="M107.08,-805.25C107.08,-805.25 38.17,-805.25 38.17,-805.25 35.08,-805.25 32,-802.17 32,-799.08 32,-799.08 32,-792.92 32,-792.92 32,-789.83 35.08,-786.75 38.17,-786.75 38.17,-786.75 107.08,-786.75 107.08,-786.75 110.17,-786.75 113.25,-789.83 113.25,-792.92 113.25,-792.92 113.25,-799.08 113.25,-799.08 113.25,-802.17 110.17,-805.25 107.08,-805.25"/>
<text text-anchor="start" x="40" y="-792.7" font-family="Helvetica,sans-Serif" font-size="9.00" fill="orange">optimize&#45;link.tsx</text>
</a>
</g>
</g>
<!-- src/widgets/consultation/consultation.modal.tsx -->
<g id="node24" class="node">
<title>src/widgets/consultation/consultation.modal.tsx</title>
<g id="a_node24"><a xlink:href="src/widgets/consultation/consultation.modal.tsx" xlink:title="consultation.modal.tsx">
<path fill="#bbfeff" stroke="black" d="M810.21,-1206.25C810.21,-1206.25 715.79,-1206.25 715.79,-1206.25 712.71,-1206.25 709.62,-1203.17 709.62,-1200.08 709.62,-1200.08 709.62,-1193.92 709.62,-1193.92 709.62,-1190.83 712.71,-1187.75 715.79,-1187.75 715.79,-1187.75 810.21,-1187.75 810.21,-1187.75 813.29,-1187.75 816.38,-1190.83 816.38,-1193.92 816.38,-1193.92 816.38,-1200.08 816.38,-1200.08 816.38,-1203.17 813.29,-1206.25 810.21,-1206.25"/>
<text text-anchor="start" x="717.62" y="-1193.7" font-family="Helvetica,sans-Serif" font-size="9.00">consultation.modal.tsx</text>
</a>
</g>
</g>
<!-- src/widgets/consultation/consultation.scss -->
<g id="node25" class="node">
<title>src/widgets/consultation/consultation.scss</title>
<g id="a_node25"><a xlink:href="src/widgets/consultation/consultation.scss" xlink:title="consultation.scss">
<path fill="#ffffcc" stroke="black" d="M908.96,-1213.25C908.96,-1213.25 835.54,-1213.25 835.54,-1213.25 832.46,-1213.25 829.38,-1210.17 829.38,-1207.08 829.38,-1207.08 829.38,-1200.92 829.38,-1200.92 829.38,-1197.83 832.46,-1194.75 835.54,-1194.75 835.54,-1194.75 908.96,-1194.75 908.96,-1194.75 912.04,-1194.75 915.12,-1197.83 915.12,-1200.92 915.12,-1200.92 915.12,-1207.08 915.12,-1207.08 915.12,-1210.17 912.04,-1213.25 908.96,-1213.25"/>
<text text-anchor="start" x="837.38" y="-1200.7" font-family="Helvetica,sans-Serif" font-size="9.00">consultation.scss</text>
</a>
</g>
</g>
<!-- src/widgets/consultation/consultation.modal.tsx&#45;&gt;src/widgets/consultation/consultation.scss -->
<g id="edge13" class="edge">
<title>src/widgets/consultation/consultation.modal.tsx&#45;&gt;src/widgets/consultation/consultation.scss</title>
<path fill="none" stroke="#000000" stroke-width="2" stroke-opacity="0.200000" d="M816.68,-1200.44C817.84,-1200.51 819.01,-1200.59 820.17,-1200.67"/>
<polygon fill="#000000" fill-opacity="0.200000" stroke="#000000" stroke-width="2" stroke-opacity="0.200000" points="819.86,-1202.75 825.98,-1201.05 820.13,-1198.56 819.86,-1202.75"/>
</g>
<!-- src/widgets/consultation/consultation.ui.tsx -->
<g id="node26" class="node">
<title>src/widgets/consultation/consultation.ui.tsx</title>
<g id="a_node26"><a xlink:href="src/widgets/consultation/consultation.ui.tsx" xlink:title="consultation.ui.tsx">
<path fill="#bbfeff" stroke="black" d="M690.46,-1220.25C690.46,-1220.25 614.04,-1220.25 614.04,-1220.25 610.96,-1220.25 607.88,-1217.17 607.88,-1214.08 607.88,-1214.08 607.88,-1207.92 607.88,-1207.92 607.88,-1204.83 610.96,-1201.75 614.04,-1201.75 614.04,-1201.75 690.46,-1201.75 690.46,-1201.75 693.54,-1201.75 696.62,-1204.83 696.62,-1207.92 696.62,-1207.92 696.62,-1214.08 696.62,-1214.08 696.62,-1217.17 693.54,-1220.25 690.46,-1220.25"/>
<text text-anchor="start" x="615.88" y="-1207.7" font-family="Helvetica,sans-Serif" font-size="9.00">consultation.ui.tsx</text>
</a>
</g>
</g>
<!-- src/widgets/consultation/consultation.ui.tsx&#45;&gt;src/widgets/consultation/consultation.modal.tsx -->
<g id="edge14" class="edge">
<title>src/widgets/consultation/consultation.ui.tsx&#45;&gt;src/widgets/consultation/consultation.modal.tsx</title>
<path fill="none" stroke="#000000" stroke-width="2" stroke-opacity="0.200000" d="M696.86,-1205.39C698.15,-1205.22 699.45,-1205.05 700.76,-1204.88"/>
<polygon fill="#000000" fill-opacity="0.200000" stroke="#000000" stroke-width="2" stroke-opacity="0.200000" points="700.74,-1207 706.42,-1204.15 700.2,-1202.84 700.74,-1207"/>
</g>
<!-- src/widgets/consultation/consultation.ui.tsx&#45;&gt;src/widgets/consultation/consultation.scss -->
<g id="edge15" class="edge">
<title>src/widgets/consultation/consultation.ui.tsx&#45;&gt;src/widgets/consultation/consultation.scss</title>
<path fill="none" stroke="#000000" stroke-width="2" stroke-opacity="0.200000" d="M696.93,-1213.12C729.82,-1214.27 775.98,-1214.93 816.38,-1212 817.67,-1211.91 818.97,-1211.8 820.29,-1211.68"/>
<polygon fill="#000000" fill-opacity="0.200000" stroke="#000000" stroke-width="2" stroke-opacity="0.200000" points="820.31,-1213.79 826.06,-1211.09 819.88,-1209.62 820.31,-1213.79"/>
</g>
<!-- src/widgets/consultation/index.ts -->
<g id="node27" class="node">
<title>src/widgets/consultation/index.ts</title>
<g id="a_node27"><a xlink:href="src/widgets/consultation/index.ts" xlink:title="index.ts">
<path fill="#ddfeff" stroke="black" d="M561.46,-1213.25C561.46,-1213.25 519.79,-1213.25 519.79,-1213.25 516.71,-1213.25 513.62,-1210.17 513.62,-1207.08 513.62,-1207.08 513.62,-1200.92 513.62,-1200.92 513.62,-1197.83 516.71,-1194.75 519.79,-1194.75 519.79,-1194.75 561.46,-1194.75 561.46,-1194.75 564.54,-1194.75 567.62,-1197.83 567.62,-1200.92 567.62,-1200.92 567.62,-1207.08 567.62,-1207.08 567.62,-1210.17 564.54,-1213.25 561.46,-1213.25"/>
<text text-anchor="start" x="524.88" y="-1200.7" font-family="Helvetica,sans-Serif" font-size="9.00">index.ts</text>
</a>
</g>
</g>
<!-- src/widgets/consultation/index.ts&#45;&gt;src/widgets/consultation/consultation.modal.tsx -->
<g id="edge16" class="edge">
<title>src/widgets/consultation/index.ts&#45;&gt;src/widgets/consultation/consultation.modal.tsx</title>
<path fill="none" stroke="#000000" stroke-width="2" stroke-opacity="0.200000" d="M567.99,-1200.08C580.11,-1198.47 594.69,-1196.79 607.88,-1196 638.9,-1194.13 673.5,-1194.17 702.05,-1194.76"/>
<polygon fill="#000000" fill-opacity="0.200000" stroke="#000000" stroke-width="2" stroke-opacity="0.200000" points="708.12,-1197 702.17,-1194.76 708.22,-1192.8 708.12,-1197"/>
</g>
<!-- src/widgets/consultation/index.ts&#45;&gt;src/widgets/consultation/consultation.ui.tsx -->
<g id="edge17" class="edge">
<title>src/widgets/consultation/index.ts&#45;&gt;src/widgets/consultation/consultation.ui.tsx</title>
<path fill="none" stroke="#000000" stroke-width="2" stroke-opacity="0.200000" d="M567.88,-1205.68C577.74,-1206.31 589.32,-1207.05 600.65,-1207.77"/>
<polygon fill="#000000" fill-opacity="0.200000" stroke="#000000" stroke-width="2" stroke-opacity="0.200000" points="606.52,-1210.25 600.67,-1207.77 606.79,-1206.06 606.52,-1210.25"/>
</g>
<!-- src/widgets/contact/contact.scss -->
<g id="node28" class="node">
<title>src/widgets/contact/contact.scss</title>
<g id="a_node28"><a xlink:href="src/widgets/contact/contact.scss" xlink:title="contact.scss">
<path fill="#ffffcc" stroke="black" d="M567.21,-1023.25C567.21,-1023.25 514.04,-1023.25 514.04,-1023.25 510.96,-1023.25 507.88,-1020.17 507.88,-1017.08 507.88,-1017.08 507.88,-1010.92 507.88,-1010.92 507.88,-1007.83 510.96,-1004.75 514.04,-1004.75 514.04,-1004.75 567.21,-1004.75 567.21,-1004.75 570.29,-1004.75 573.38,-1007.83 573.38,-1010.92 573.38,-1010.92 573.38,-1017.08 573.38,-1017.08 573.38,-1020.17 570.29,-1023.25 567.21,-1023.25"/>
<text text-anchor="start" x="515.88" y="-1010.7" font-family="Helvetica,sans-Serif" font-size="9.00">contact.scss</text>
</a>
</g>
</g>
<!-- src/widgets/contact/contact.ui.tsx -->
<g id="node29" class="node">
<title>src/widgets/contact/contact.ui.tsx</title>
<g id="a_node29"><a xlink:href="src/widgets/contact/contact.ui.tsx" xlink:title="contact.ui.tsx">
<path fill="#bbfeff" stroke="black" d="M453.08,-1023.25C453.08,-1023.25 396.92,-1023.25 396.92,-1023.25 393.83,-1023.25 390.75,-1020.17 390.75,-1017.08 390.75,-1017.08 390.75,-1010.92 390.75,-1010.92 390.75,-1007.83 393.83,-1004.75 396.92,-1004.75 396.92,-1004.75 453.08,-1004.75 453.08,-1004.75 456.17,-1004.75 459.25,-1007.83 459.25,-1010.92 459.25,-1010.92 459.25,-1017.08 459.25,-1017.08 459.25,-1020.17 456.17,-1023.25 453.08,-1023.25"/>
<text text-anchor="start" x="398.75" y="-1010.7" font-family="Helvetica,sans-Serif" font-size="9.00">contact.ui.tsx</text>
</a>
</g>
</g>
<!-- src/widgets/contact/contact.ui.tsx&#45;&gt;src/widgets/contact/contact.scss -->
<g id="edge18" class="edge">
<title>src/widgets/contact/contact.ui.tsx&#45;&gt;src/widgets/contact/contact.scss</title>
<path fill="none" stroke="#000000" stroke-width="2" stroke-opacity="0.200000" d="M459.48,-1014C471.82,-1014 485.93,-1014 498.85,-1014"/>
<polygon fill="#000000" fill-opacity="0.200000" stroke="#000000" stroke-width="2" stroke-opacity="0.200000" points="498.53,-1016.1 504.53,-1014 498.53,-1011.9 498.53,-1016.1"/>
</g>
<!-- src/widgets/contact/index.ts -->
<g id="node30" class="node">
<title>src/widgets/contact/index.ts</title>
<g id="a_node30"><a xlink:href="src/widgets/contact/index.ts" xlink:title="index.ts">
<path fill="#ddfeff" stroke="black" d="M324.58,-1023.25C324.58,-1023.25 282.92,-1023.25 282.92,-1023.25 279.83,-1023.25 276.75,-1020.17 276.75,-1017.08 276.75,-1017.08 276.75,-1010.92 276.75,-1010.92 276.75,-1007.83 279.83,-1004.75 282.92,-1004.75 282.92,-1004.75 324.58,-1004.75 324.58,-1004.75 327.67,-1004.75 330.75,-1007.83 330.75,-1010.92 330.75,-1010.92 330.75,-1017.08 330.75,-1017.08 330.75,-1020.17 327.67,-1023.25 324.58,-1023.25"/>
<text text-anchor="start" x="288" y="-1010.7" font-family="Helvetica,sans-Serif" font-size="9.00">index.ts</text>
</a>
</g>
</g>
<!-- src/widgets/contact/index.ts&#45;&gt;src/widgets/contact/contact.ui.tsx -->
<g id="edge19" class="edge">
<title>src/widgets/contact/index.ts&#45;&gt;src/widgets/contact/contact.ui.tsx</title>
<path fill="none" stroke="#000000" stroke-width="2" stroke-opacity="0.200000" d="M331.22,-1014C346.6,-1014 366.31,-1014 383.6,-1014"/>
<polygon fill="#000000" fill-opacity="0.200000" stroke="#000000" stroke-width="2" stroke-opacity="0.200000" points="389.34,-1016.1 383.34,-1014 389.34,-1011.9 389.34,-1016.1"/>
</g>
<!-- src/widgets/documentation/documentation.scss -->
<g id="node31" class="node">
<title>src/widgets/documentation/documentation.scss</title>
<g id="a_node31"><a xlink:href="src/widgets/documentation/documentation.scss" xlink:title="documentation.scss">
<path fill="#ffffcc" stroke="black" d="M582.96,-1084.25C582.96,-1084.25 498.29,-1084.25 498.29,-1084.25 495.21,-1084.25 492.12,-1081.17 492.12,-1078.08 492.12,-1078.08 492.12,-1071.92 492.12,-1071.92 492.12,-1068.83 495.21,-1065.75 498.29,-1065.75 498.29,-1065.75 582.96,-1065.75 582.96,-1065.75 586.04,-1065.75 589.12,-1068.83 589.12,-1071.92 589.12,-1071.92 589.12,-1078.08 589.12,-1078.08 589.12,-1081.17 586.04,-1084.25 582.96,-1084.25"/>
<text text-anchor="start" x="500.12" y="-1071.7" font-family="Helvetica,sans-Serif" font-size="9.00">documentation.scss</text>
</a>
</g>
</g>
<!-- src/widgets/documentation/documentation.ui.tsx -->
<g id="node32" class="node">
<title>src/widgets/documentation/documentation.ui.tsx</title>
<g id="a_node32"><a xlink:href="src/widgets/documentation/documentation.ui.tsx" xlink:title="documentation.ui.tsx">
<path fill="#bbfeff" stroke="black" d="M468.83,-1084.25C468.83,-1084.25 381.17,-1084.25 381.17,-1084.25 378.08,-1084.25 375,-1081.17 375,-1078.08 375,-1078.08 375,-1071.92 375,-1071.92 375,-1068.83 378.08,-1065.75 381.17,-1065.75 381.17,-1065.75 468.83,-1065.75 468.83,-1065.75 471.92,-1065.75 475,-1068.83 475,-1071.92 475,-1071.92 475,-1078.08 475,-1078.08 475,-1081.17 471.92,-1084.25 468.83,-1084.25"/>
<text text-anchor="start" x="383" y="-1071.7" font-family="Helvetica,sans-Serif" font-size="9.00">documentation.ui.tsx</text>
</a>
</g>
</g>
<!-- src/widgets/documentation/documentation.ui.tsx&#45;&gt;src/widgets/documentation/documentation.scss -->
<g id="edge20" class="edge">
<title>src/widgets/documentation/documentation.ui.tsx&#45;&gt;src/widgets/documentation/documentation.scss</title>
<path fill="none" stroke="#000000" stroke-width="2" stroke-opacity="0.200000" d="M475.18,-1075C477.76,-1075 480.37,-1075 482.98,-1075"/>
<polygon fill="#000000" fill-opacity="0.200000" stroke="#000000" stroke-width="2" stroke-opacity="0.200000" points="482.78,-1077.1 488.78,-1075 482.78,-1072.9 482.78,-1077.1"/>
</g>
<!-- src/widgets/documentation/index.ts -->
<g id="node33" class="node">
<title>src/widgets/documentation/index.ts</title>
<g id="a_node33"><a xlink:href="src/widgets/documentation/index.ts" xlink:title="index.ts">
<path fill="#ddfeff" stroke="black" d="M324.58,-1084.25C324.58,-1084.25 282.92,-1084.25 282.92,-1084.25 279.83,-1084.25 276.75,-1081.17 276.75,-1078.08 276.75,-1078.08 276.75,-1071.92 276.75,-1071.92 276.75,-1068.83 279.83,-1065.75 282.92,-1065.75 282.92,-1065.75 324.58,-1065.75 324.58,-1065.75 327.67,-1065.75 330.75,-1068.83 330.75,-1071.92 330.75,-1071.92 330.75,-1078.08 330.75,-1078.08 330.75,-1081.17 327.67,-1084.25 324.58,-1084.25"/>
<text text-anchor="start" x="288" y="-1071.7" font-family="Helvetica,sans-Serif" font-size="9.00">index.ts</text>
</a>
</g>
</g>
<!-- src/widgets/documentation/index.ts&#45;&gt;src/widgets/documentation/documentation.ui.tsx -->
<g id="edge21" class="edge">
<title>src/widgets/documentation/index.ts&#45;&gt;src/widgets/documentation/documentation.ui.tsx</title>
<path fill="none" stroke="#000000" stroke-width="2" stroke-opacity="0.200000" d="M331.22,-1075C341.98,-1075 354.87,-1075 367.56,-1075"/>
<polygon fill="#000000" fill-opacity="0.200000" stroke="#000000" stroke-width="2" stroke-opacity="0.200000" points="373.58,-1077.1 367.58,-1075 373.58,-1072.9 373.58,-1077.1"/>
</g>
<!-- src/widgets/faq/faq.scss -->
<g id="node34" class="node">
<title>src/widgets/faq/faq.scss</title>
<g id="a_node34"><a xlink:href="src/widgets/faq/faq.scss" xlink:title="faq.scss">
<path fill="#ffffcc" stroke="black" d="M324.58,-901.25C324.58,-901.25 282.92,-901.25 282.92,-901.25 279.83,-901.25 276.75,-898.17 276.75,-895.08 276.75,-895.08 276.75,-888.92 276.75,-888.92 276.75,-885.83 279.83,-882.75 282.92,-882.75 282.92,-882.75 324.58,-882.75 324.58,-882.75 327.67,-882.75 330.75,-885.83 330.75,-888.92 330.75,-888.92 330.75,-895.08 330.75,-895.08 330.75,-898.17 327.67,-901.25 324.58,-901.25"/>
<text text-anchor="start" x="287.25" y="-888.7" font-family="Helvetica,sans-Serif" font-size="9.00">faq.scss</text>
</a>
</g>
</g>
<!-- src/widgets/faq/faq.ui.tsx -->
<g id="node35" class="node">
<title>src/widgets/faq/faq.ui.tsx</title>
<g id="a_node35"><a xlink:href="src/widgets/faq/faq.ui.tsx" xlink:title="faq.ui.tsx">
<path fill="#bbfeff" stroke="black" d="M198.21,-901.25C198.21,-901.25 156.54,-901.25 156.54,-901.25 153.46,-901.25 150.38,-898.17 150.38,-895.08 150.38,-895.08 150.38,-888.92 150.38,-888.92 150.38,-885.83 153.46,-882.75 156.54,-882.75 156.54,-882.75 198.21,-882.75 198.21,-882.75 201.29,-882.75 204.38,-885.83 204.38,-888.92 204.38,-888.92 204.38,-895.08 204.38,-895.08 204.38,-898.17 201.29,-901.25 198.21,-901.25"/>
<text text-anchor="start" x="159.38" y="-888.7" font-family="Helvetica,sans-Serif" font-size="9.00">faq.ui.tsx</text>
</a>
</g>
</g>
<!-- src/widgets/faq/faq.ui.tsx&#45;&gt;src/widgets/faq/faq.scss -->
<g id="edge22" class="edge">
<title>src/widgets/faq/faq.ui.tsx&#45;&gt;src/widgets/faq/faq.scss</title>
<path fill="none" stroke="#000000" stroke-width="2" stroke-opacity="0.200000" d="M204.75,-892C223.06,-892 247.64,-892 267.6,-892"/>
<polygon fill="#000000" fill-opacity="0.200000" stroke="#000000" stroke-width="2" stroke-opacity="0.200000" points="267.38,-894.1 273.38,-892 267.38,-889.9 267.38,-894.1"/>
</g>
<!-- src/widgets/faq/index.ts -->
<g id="node36" class="node">
<title>src/widgets/faq/index.ts</title>
<g id="a_node36"><a xlink:href="src/widgets/faq/index.ts" xlink:title="index.ts">
<path fill="#ddfeff" stroke="black" d="M93.46,-901.25C93.46,-901.25 51.79,-901.25 51.79,-901.25 48.71,-901.25 45.62,-898.17 45.62,-895.08 45.62,-895.08 45.62,-888.92 45.62,-888.92 45.62,-885.83 48.71,-882.75 51.79,-882.75 51.79,-882.75 93.46,-882.75 93.46,-882.75 96.54,-882.75 99.62,-885.83 99.62,-888.92 99.62,-888.92 99.62,-895.08 99.62,-895.08 99.62,-898.17 96.54,-901.25 93.46,-901.25"/>
<text text-anchor="start" x="56.88" y="-888.7" font-family="Helvetica,sans-Serif" font-size="9.00">index.ts</text>
</a>
</g>
</g>
<!-- src/widgets/faq/index.ts&#45;&gt;src/widgets/faq/faq.ui.tsx -->
<g id="edge23" class="edge">
<title>src/widgets/faq/index.ts&#45;&gt;src/widgets/faq/faq.ui.tsx</title>
<path fill="none" stroke="#000000" stroke-width="2" stroke-opacity="0.200000" d="M100.09,-892C113.15,-892 129.05,-892 142.95,-892"/>
<polygon fill="#000000" fill-opacity="0.200000" stroke="#000000" stroke-width="2" stroke-opacity="0.200000" points="149,-894.1 143,-892 149,-889.9 149,-894.1"/>
</g>
<!-- src/widgets/footer/footer.scss -->
<g id="node37" class="node">
<title>src/widgets/footer/footer.scss</title>
<g id="a_node37"><a xlink:href="src/widgets/footer/footer.scss" xlink:title="footer.scss">
<path fill="#ffffcc" stroke="black" d="M326.96,-962.25C326.96,-962.25 280.54,-962.25 280.54,-962.25 277.46,-962.25 274.38,-959.17 274.38,-956.08 274.38,-956.08 274.38,-949.92 274.38,-949.92 274.38,-946.83 277.46,-943.75 280.54,-943.75 280.54,-943.75 326.96,-943.75 326.96,-943.75 330.04,-943.75 333.12,-946.83 333.12,-949.92 333.12,-949.92 333.12,-956.08 333.12,-956.08 333.12,-959.17 330.04,-962.25 326.96,-962.25"/>
<text text-anchor="start" x="282.38" y="-949.7" font-family="Helvetica,sans-Serif" font-size="9.00">footer.scss</text>
</a>
</g>
</g>
<!-- src/widgets/footer/footer.ui.tsx -->
<g id="node38" class="node">
<title>src/widgets/footer/footer.ui.tsx</title>
<g id="a_node38"><a xlink:href="src/widgets/footer/footer.ui.tsx" xlink:title="footer.ui.tsx">
<path fill="#bbfeff" stroke="black" d="M202.08,-962.25C202.08,-962.25 152.67,-962.25 152.67,-962.25 149.58,-962.25 146.5,-959.17 146.5,-956.08 146.5,-956.08 146.5,-949.92 146.5,-949.92 146.5,-946.83 149.58,-943.75 152.67,-943.75 152.67,-943.75 202.08,-943.75 202.08,-943.75 205.17,-943.75 208.25,-946.83 208.25,-949.92 208.25,-949.92 208.25,-956.08 208.25,-956.08 208.25,-959.17 205.17,-962.25 202.08,-962.25"/>
<text text-anchor="start" x="154.5" y="-949.7" font-family="Helvetica,sans-Serif" font-size="9.00">footer.ui.tsx</text>
</a>
</g>
</g>
<!-- src/widgets/footer/footer.ui.tsx&#45;&gt;src/widgets/contact/index.ts -->
<g id="edge24" class="edge">
<title>src/widgets/footer/footer.ui.tsx&#45;&gt;src/widgets/contact/index.ts</title>
<path fill="none" stroke="#000000" stroke-width="2" stroke-opacity="0.200000" d="M194.81,-962.66C209.08,-970.89 230.42,-982.8 249.62,-992 255.96,-995.03 262.82,-998.06 269.44,-1000.85"/>
<polygon fill="#000000" fill-opacity="0.200000" stroke="#000000" stroke-width="2" stroke-opacity="0.200000" points="268.5,-1002.74 274.84,-1003.09 270.1,-998.86 268.5,-1002.74"/>
</g>
<!-- src/widgets/footer/footer.ui.tsx&#45;&gt;src/widgets/documentation/index.ts -->
<g id="edge25" class="edge">
<title>src/widgets/footer/footer.ui.tsx&#45;&gt;src/widgets/documentation/index.ts</title>
<path fill="none" stroke="#000000" stroke-width="2" stroke-opacity="0.200000" d="M182.89,-962.62C192.53,-982.19 216.93,-1026.98 249.62,-1053 255.12,-1057.37 261.6,-1061 268.12,-1063.97"/>
<polygon fill="#000000" fill-opacity="0.200000" stroke="#000000" stroke-width="2" stroke-opacity="0.200000" points="267.17,-1065.85 273.52,-1066.21 268.78,-1061.97 267.17,-1065.85"/>
</g>
<!-- src/widgets/footer/footer.ui.tsx&#45;&gt;src/widgets/footer/footer.scss -->
<g id="edge27" class="edge">
<title>src/widgets/footer/footer.ui.tsx&#45;&gt;src/widgets/footer/footer.scss</title>
<path fill="none" stroke="#000000" stroke-width="2" stroke-opacity="0.200000" d="M208.48,-953C225.66,-953 247.33,-953 265.56,-953"/>
<polygon fill="#000000" fill-opacity="0.200000" stroke="#000000" stroke-width="2" stroke-opacity="0.200000" points="265.17,-955.1 271.17,-953 265.17,-950.9 265.17,-955.1"/>
</g>
<!-- src/widgets/vacancy/index.ts -->
<g id="node39" class="node">
<title>src/widgets/vacancy/index.ts</title>
<g id="a_node39"><a xlink:href="src/widgets/vacancy/index.ts" xlink:title="index.ts">
<path fill="#ddfeff" stroke="black" d="M324.58,-1145.25C324.58,-1145.25 282.92,-1145.25 282.92,-1145.25 279.83,-1145.25 276.75,-1142.17 276.75,-1139.08 276.75,-1139.08 276.75,-1132.92 276.75,-1132.92 276.75,-1129.83 279.83,-1126.75 282.92,-1126.75 282.92,-1126.75 324.58,-1126.75 324.58,-1126.75 327.67,-1126.75 330.75,-1129.83 330.75,-1132.92 330.75,-1132.92 330.75,-1139.08 330.75,-1139.08 330.75,-1142.17 327.67,-1145.25 324.58,-1145.25"/>
<text text-anchor="start" x="288" y="-1132.7" font-family="Helvetica,sans-Serif" font-size="9.00">index.ts</text>
</a>
</g>
</g>
<!-- src/widgets/footer/footer.ui.tsx&#45;&gt;src/widgets/vacancy/index.ts -->
<g id="edge26" class="edge">
<title>src/widgets/footer/footer.ui.tsx&#45;&gt;src/widgets/vacancy/index.ts</title>
<path fill="none" stroke="#000000" stroke-width="2" stroke-opacity="0.200000" d="M180,-962.38C185.17,-989.55 203.69,-1069.16 249.62,-1114 254.91,-1119.16 261.59,-1123.18 268.4,-1126.28"/>
<polygon fill="#000000" fill-opacity="0.200000" stroke="#000000" stroke-width="2" stroke-opacity="0.200000" points="267.23,-1128.07 273.58,-1128.38 268.81,-1124.18 267.23,-1128.07"/>
</g>
<!-- src/widgets/vacancy/vacancy.ui.tsx -->
<g id="node57" class="node">
<title>src/widgets/vacancy/vacancy.ui.tsx</title>
<g id="a_node57"><a xlink:href="src/widgets/vacancy/vacancy.ui.tsx" xlink:title="vacancy.ui.tsx">
<path fill="#bbfeff" stroke="black" d="M454.96,-1145.25C454.96,-1145.25 395.04,-1145.25 395.04,-1145.25 391.96,-1145.25 388.88,-1142.17 388.88,-1139.08 388.88,-1139.08 388.88,-1132.92 388.88,-1132.92 388.88,-1129.83 391.96,-1126.75 395.04,-1126.75 395.04,-1126.75 454.96,-1126.75 454.96,-1126.75 458.04,-1126.75 461.12,-1129.83 461.12,-1132.92 461.12,-1132.92 461.12,-1139.08 461.12,-1139.08 461.12,-1142.17 458.04,-1145.25 454.96,-1145.25"/>
<text text-anchor="start" x="396.88" y="-1132.7" font-family="Helvetica,sans-Serif" font-size="9.00">vacancy.ui.tsx</text>
</a>
</g>
</g>
<!-- src/widgets/vacancy/index.ts&#45;&gt;src/widgets/vacancy/vacancy.ui.tsx -->
<g id="edge45" class="edge">
<title>src/widgets/vacancy/index.ts&#45;&gt;src/widgets/vacancy/vacancy.ui.tsx</title>
<path fill="none" stroke="#000000" stroke-width="2" stroke-opacity="0.200000" d="M331.22,-1136C345.99,-1136 364.74,-1136 381.51,-1136"/>
<polygon fill="#000000" fill-opacity="0.200000" stroke="#000000" stroke-width="2" stroke-opacity="0.200000" points="387.56,-1138.1 381.56,-1136 387.56,-1133.9 387.56,-1138.1"/>
</g>
<!-- src/widgets/footer/index.ts -->
<g id="node40" class="node">
<title>src/widgets/footer/index.ts</title>
<g id="a_node40"><a xlink:href="src/widgets/footer/index.ts" xlink:title="index.ts">
<path fill="#ddfeff" stroke="black" d="M93.46,-962.25C93.46,-962.25 51.79,-962.25 51.79,-962.25 48.71,-962.25 45.62,-959.17 45.62,-956.08 45.62,-956.08 45.62,-949.92 45.62,-949.92 45.62,-946.83 48.71,-943.75 51.79,-943.75 51.79,-943.75 93.46,-943.75 93.46,-943.75 96.54,-943.75 99.62,-946.83 99.62,-949.92 99.62,-949.92 99.62,-956.08 99.62,-956.08 99.62,-959.17 96.54,-962.25 93.46,-962.25"/>
<text text-anchor="start" x="56.88" y="-949.7" font-family="Helvetica,sans-Serif" font-size="9.00">index.ts</text>
</a>
</g>
</g>
<!-- src/widgets/footer/index.ts&#45;&gt;src/widgets/footer/footer.ui.tsx -->
<g id="edge28" class="edge">
<title>src/widgets/footer/index.ts&#45;&gt;src/widgets/footer/footer.ui.tsx</title>
<path fill="none" stroke="#000000" stroke-width="2" stroke-opacity="0.200000" d="M100.09,-953C111.93,-953 126.1,-953 138.99,-953"/>
<polygon fill="#000000" fill-opacity="0.200000" stroke="#000000" stroke-width="2" stroke-opacity="0.200000" points="145,-955.1 139,-953 145,-950.9 145,-955.1"/>
</g>
<!-- src/widgets/header/header.scss -->
<g id="node41" class="node">
<title>src/widgets/header/header.scss</title>
<g id="a_node41"><a xlink:href="src/widgets/header/header.scss" xlink:title="header.scss">
<path fill="#ffffcc" stroke="black" d="M329.96,-1206.25C329.96,-1206.25 277.54,-1206.25 277.54,-1206.25 274.46,-1206.25 271.38,-1203.17 271.38,-1200.08 271.38,-1200.08 271.38,-1193.92 271.38,-1193.92 271.38,-1190.83 274.46,-1187.75 277.54,-1187.75 277.54,-1187.75 329.96,-1187.75 329.96,-1187.75 333.04,-1187.75 336.12,-1190.83 336.12,-1193.92 336.12,-1193.92 336.12,-1200.08 336.12,-1200.08 336.12,-1203.17 333.04,-1206.25 329.96,-1206.25"/>
<text text-anchor="start" x="279.38" y="-1193.7" font-family="Helvetica,sans-Serif" font-size="9.00">header.scss</text>
</a>
</g>
</g>
<!-- src/widgets/header/header.ui.tsx -->
<g id="node42" class="node">
<title>src/widgets/header/header.ui.tsx</title>
<g id="a_node42"><a xlink:href="src/widgets/header/header.ui.tsx" xlink:title="header.ui.tsx">
<path fill="#bbfeff" stroke="black" d="M205.08,-1206.25C205.08,-1206.25 149.67,-1206.25 149.67,-1206.25 146.58,-1206.25 143.5,-1203.17 143.5,-1200.08 143.5,-1200.08 143.5,-1193.92 143.5,-1193.92 143.5,-1190.83 146.58,-1187.75 149.67,-1187.75 149.67,-1187.75 205.08,-1187.75 205.08,-1187.75 208.17,-1187.75 211.25,-1190.83 211.25,-1193.92 211.25,-1193.92 211.25,-1200.08 211.25,-1200.08 211.25,-1203.17 208.17,-1206.25 205.08,-1206.25"/>
<text text-anchor="start" x="151.5" y="-1193.7" font-family="Helvetica,sans-Serif" font-size="9.00">header.ui.tsx</text>
</a>
</g>
</g>
<!-- src/widgets/header/header.ui.tsx&#45;&gt;src/widgets/contact/index.ts -->
<g id="edge29" class="edge">
<title>src/widgets/header/header.ui.tsx&#45;&gt;src/widgets/contact/index.ts</title>
<path fill="none" stroke="#000000" stroke-width="2" stroke-opacity="0.200000" d="M181.45,-1187.53C189.61,-1163.44 213.66,-1098.63 249.62,-1055 258.01,-1044.83 269.36,-1035.64 279.42,-1028.55"/>
<polygon fill="#000000" fill-opacity="0.200000" stroke="#000000" stroke-width="2" stroke-opacity="0.200000" points="280.49,-1030.36 284.28,-1025.25 278.14,-1026.88 280.49,-1030.36"/>
</g>
<!-- src/widgets/header/header.ui.tsx&#45;&gt;src/widgets/documentation/index.ts -->
<g id="edge30" class="edge">
<title>src/widgets/header/header.ui.tsx&#45;&gt;src/widgets/documentation/index.ts</title>
<path fill="none" stroke="#000000" stroke-width="2" stroke-opacity="0.200000" d="M185.74,-1187.49C198.12,-1171.79 224.22,-1139.83 249.62,-1116 259.65,-1106.6 271.71,-1097.16 281.81,-1089.71"/>
<polygon fill="#000000" fill-opacity="0.200000" stroke="#000000" stroke-width="2" stroke-opacity="0.200000" points="283,-1091.44 286.63,-1086.21 280.54,-1088.04 283,-1091.44"/>
</g>
<!-- src/widgets/header/header.ui.tsx&#45;&gt;src/widgets/header/header.scss -->
<g id="edge31" class="edge">
<title>src/widgets/header/header.ui.tsx&#45;&gt;src/widgets/header/header.scss</title>
<path fill="none" stroke="#000000" stroke-width="2" stroke-opacity="0.200000" d="M211.71,-1197C227.25,-1197 245.88,-1197 262.23,-1197"/>
<polygon fill="#000000" fill-opacity="0.200000" stroke="#000000" stroke-width="2" stroke-opacity="0.200000" points="262.02,-1199.1 268.02,-1197 262.02,-1194.9 262.02,-1199.1"/>
</g>
<!-- src/widgets/header/index.ts -->
<g id="node43" class="node">
<title>src/widgets/header/index.ts</title>
<g id="a_node43"><a xlink:href="src/widgets/header/index.ts" xlink:title="index.ts">
<path fill="#ddfeff" stroke="black" d="M93.46,-1206.25C93.46,-1206.25 51.79,-1206.25 51.79,-1206.25 48.71,-1206.25 45.62,-1203.17 45.62,-1200.08 45.62,-1200.08 45.62,-1193.92 45.62,-1193.92 45.62,-1190.83 48.71,-1187.75 51.79,-1187.75 51.79,-1187.75 93.46,-1187.75 93.46,-1187.75 96.54,-1187.75 99.62,-1190.83 99.62,-1193.92 99.62,-1193.92 99.62,-1200.08 99.62,-1200.08 99.62,-1203.17 96.54,-1206.25 93.46,-1206.25"/>
<text text-anchor="start" x="56.88" y="-1193.7" font-family="Helvetica,sans-Serif" font-size="9.00">index.ts</text>
</a>
</g>
</g>
<!-- src/widgets/header/index.ts&#45;&gt;src/widgets/header/header.ui.tsx -->
<g id="edge32" class="edge">
<title>src/widgets/header/index.ts&#45;&gt;src/widgets/header/header.ui.tsx</title>
<path fill="none" stroke="#000000" stroke-width="2" stroke-opacity="0.200000" d="M100.09,-1197C111.02,-1197 123.94,-1197 136.01,-1197"/>
<polygon fill="#000000" fill-opacity="0.200000" stroke="#000000" stroke-width="2" stroke-opacity="0.200000" points="142,-1199.1 136,-1197 142,-1194.9 142,-1199.1"/>
</g>
<!-- src/widgets/hero/hero.scss -->
<g id="node44" class="node">
<title>src/widgets/hero/hero.scss</title>
<g id="a_node44"><a xlink:href="src/widgets/hero/hero.scss" xlink:title="hero.scss">
<path fill="#ffffcc" stroke="black" d="M561.96,-1281.25C561.96,-1281.25 519.29,-1281.25 519.29,-1281.25 516.21,-1281.25 513.12,-1278.17 513.12,-1275.08 513.12,-1275.08 513.12,-1268.92 513.12,-1268.92 513.12,-1265.83 516.21,-1262.75 519.29,-1262.75 519.29,-1262.75 561.96,-1262.75 561.96,-1262.75 565.04,-1262.75 568.12,-1265.83 568.12,-1268.92 568.12,-1268.92 568.12,-1275.08 568.12,-1275.08 568.12,-1278.17 565.04,-1281.25 561.96,-1281.25"/>
<text text-anchor="start" x="521.12" y="-1268.7" font-family="Helvetica,sans-Serif" font-size="9.00">hero.scss</text>
</a>
</g>
</g>
<!-- src/widgets/hero/hero.ui.tsx -->
<g id="node45" class="node">
<title>src/widgets/hero/hero.ui.tsx</title>
<g id="a_node45"><a xlink:href="src/widgets/hero/hero.ui.tsx" xlink:title="hero.ui.tsx">
<path fill="#bbfeff" stroke="black" d="M447.83,-1281.25C447.83,-1281.25 402.17,-1281.25 402.17,-1281.25 399.08,-1281.25 396,-1278.17 396,-1275.08 396,-1275.08 396,-1268.92 396,-1268.92 396,-1265.83 399.08,-1262.75 402.17,-1262.75 402.17,-1262.75 447.83,-1262.75 447.83,-1262.75 450.92,-1262.75 454,-1265.83 454,-1268.92 454,-1268.92 454,-1275.08 454,-1275.08 454,-1278.17 450.92,-1281.25 447.83,-1281.25"/>
<text text-anchor="start" x="404" y="-1268.7" font-family="Helvetica,sans-Serif" font-size="9.00">hero.ui.tsx</text>
</a>
</g>
</g>
<!-- src/widgets/hero/hero.ui.tsx&#45;&gt;src/widgets/consultation/index.ts -->
<g id="edge33" class="edge">
<title>src/widgets/hero/hero.ui.tsx&#45;&gt;src/widgets/consultation/index.ts</title>
<path fill="none" stroke="#000000" stroke-width="2" stroke-opacity="0.200000" d="M442.28,-1262.26C461.52,-1250.74 493.69,-1231.49 515.75,-1218.29"/>
<polygon fill="#000000" fill-opacity="0.200000" stroke="#000000" stroke-width="2" stroke-opacity="0.200000" points="516.71,-1220.16 520.78,-1215.28 514.55,-1216.56 516.71,-1220.16"/>
</g>
<!-- src/widgets/hero/hero.ui.tsx&#45;&gt;src/widgets/hero/hero.scss -->
<g id="edge34" class="edge">
<title>src/widgets/hero/hero.ui.tsx&#45;&gt;src/widgets/hero/hero.scss</title>
<path fill="none" stroke="#000000" stroke-width="2" stroke-opacity="0.200000" d="M454.38,-1272C469.46,-1272 488.15,-1272 504.19,-1272"/>
<polygon fill="#000000" fill-opacity="0.200000" stroke="#000000" stroke-width="2" stroke-opacity="0.200000" points="503.75,-1274.1 509.75,-1272 503.75,-1269.9 503.75,-1274.1"/>
</g>
<!-- src/widgets/hero/index.ts -->
<g id="node46" class="node">
<title>src/widgets/hero/index.ts</title>
<g id="a_node46"><a xlink:href="src/widgets/hero/index.ts" xlink:title="index.ts">
<path fill="#ddfeff" stroke="black" d="M324.58,-1281.25C324.58,-1281.25 282.92,-1281.25 282.92,-1281.25 279.83,-1281.25 276.75,-1278.17 276.75,-1275.08 276.75,-1275.08 276.75,-1268.92 276.75,-1268.92 276.75,-1265.83 279.83,-1262.75 282.92,-1262.75 282.92,-1262.75 324.58,-1262.75 324.58,-1262.75 327.67,-1262.75 330.75,-1265.83 330.75,-1268.92 330.75,-1268.92 330.75,-1275.08 330.75,-1275.08 330.75,-1278.17 327.67,-1281.25 324.58,-1281.25"/>
<text text-anchor="start" x="288" y="-1268.7" font-family="Helvetica,sans-Serif" font-size="9.00">index.ts</text>
</a>
</g>
</g>
<!-- src/widgets/hero/index.ts&#45;&gt;src/widgets/hero/hero.ui.tsx -->
<g id="edge35" class="edge">
<title>src/widgets/hero/index.ts&#45;&gt;src/widgets/hero/hero.ui.tsx</title>
<path fill="none" stroke="#000000" stroke-width="2" stroke-opacity="0.200000" d="M331.22,-1272C348.06,-1272 370.07,-1272 388.43,-1272"/>
<polygon fill="#000000" fill-opacity="0.200000" stroke="#000000" stroke-width="2" stroke-opacity="0.200000" points="394.53,-1274.1 388.53,-1272 394.53,-1269.9 394.53,-1274.1"/>
</g>
<!-- src/widgets/information/index.ts -->
<g id="node47" class="node">
<title>src/widgets/information/index.ts</title>
<g id="a_node47"><a xlink:href="src/widgets/information/index.ts" xlink:title="index.ts">
<path fill="#ddfeff" stroke="black" d="M93.46,-1342.25C93.46,-1342.25 51.79,-1342.25 51.79,-1342.25 48.71,-1342.25 45.62,-1339.17 45.62,-1336.08 45.62,-1336.08 45.62,-1329.92 45.62,-1329.92 45.62,-1326.83 48.71,-1323.75 51.79,-1323.75 51.79,-1323.75 93.46,-1323.75 93.46,-1323.75 96.54,-1323.75 99.62,-1326.83 99.62,-1329.92 99.62,-1329.92 99.62,-1336.08 99.62,-1336.08 99.62,-1339.17 96.54,-1342.25 93.46,-1342.25"/>
<text text-anchor="start" x="56.88" y="-1329.7" font-family="Helvetica,sans-Serif" font-size="9.00">index.ts</text>
</a>
</g>
</g>
<!-- src/widgets/information/information.ui.tsx -->
<g id="node48" class="node">
<title>src/widgets/information/information.ui.tsx</title>
<g id="a_node48"><a xlink:href="src/widgets/information/information.ui.tsx" xlink:title="information.ui.tsx">
<path fill="#bbfeff" stroke="black" d="M213.71,-1342.25C213.71,-1342.25 141.04,-1342.25 141.04,-1342.25 137.96,-1342.25 134.88,-1339.17 134.88,-1336.08 134.88,-1336.08 134.88,-1329.92 134.88,-1329.92 134.88,-1326.83 137.96,-1323.75 141.04,-1323.75 141.04,-1323.75 213.71,-1323.75 213.71,-1323.75 216.79,-1323.75 219.88,-1326.83 219.88,-1329.92 219.88,-1329.92 219.88,-1336.08 219.88,-1336.08 219.88,-1339.17 216.79,-1342.25 213.71,-1342.25"/>
<text text-anchor="start" x="142.88" y="-1329.7" font-family="Helvetica,sans-Serif" font-size="9.00">information.ui.tsx</text>
</a>
</g>
</g>
<!-- src/widgets/information/index.ts&#45;&gt;src/widgets/information/information.ui.tsx -->
<g id="edge36" class="edge">
<title>src/widgets/information/index.ts&#45;&gt;src/widgets/information/information.ui.tsx</title>
<path fill="none" stroke="#000000" stroke-width="2" stroke-opacity="0.200000" d="M100.09,-1333C108.43,-1333 117.92,-1333 127.31,-1333"/>
<polygon fill="#000000" fill-opacity="0.200000" stroke="#000000" stroke-width="2" stroke-opacity="0.200000" points="133.45,-1335.1 127.45,-1333 133.45,-1330.9 133.45,-1335.1"/>
</g>
<!-- src/widgets/information/information.scss -->
<g id="node49" class="node">
<title>src/widgets/information/information.scss</title>
<g id="a_node49"><a xlink:href="src/widgets/information/information.scss" xlink:title="information.scss">
<path fill="#ffffcc" stroke="black" d="M338.58,-1342.25C338.58,-1342.25 268.92,-1342.25 268.92,-1342.25 265.83,-1342.25 262.75,-1339.17 262.75,-1336.08 262.75,-1336.08 262.75,-1329.92 262.75,-1329.92 262.75,-1326.83 265.83,-1323.75 268.92,-1323.75 268.92,-1323.75 338.58,-1323.75 338.58,-1323.75 341.67,-1323.75 344.75,-1326.83 344.75,-1329.92 344.75,-1329.92 344.75,-1336.08 344.75,-1336.08 344.75,-1339.17 341.67,-1342.25 338.58,-1342.25"/>
<text text-anchor="start" x="270.75" y="-1329.7" font-family="Helvetica,sans-Serif" font-size="9.00">information.scss</text>
</a>
</g>
</g>
<!-- src/widgets/information/information.ui.tsx&#45;&gt;src/widgets/information/information.scss -->
<g id="edge37" class="edge">
<title>src/widgets/information/information.ui.tsx&#45;&gt;src/widgets/information/information.scss</title>
<path fill="none" stroke="#000000" stroke-width="2" stroke-opacity="0.200000" d="M220.14,-1333C230.94,-1333 242.67,-1333 253.8,-1333"/>
<polygon fill="#000000" fill-opacity="0.200000" stroke="#000000" stroke-width="2" stroke-opacity="0.200000" points="253.55,-1335.1 259.55,-1333 253.55,-1330.9 253.55,-1335.1"/>
</g>
<!-- src/widgets/nuaces/index.ts -->
<g id="node50" class="node">
<title>src/widgets/nuaces/index.ts</title>
<g id="a_node50"><a xlink:href="src/widgets/nuaces/index.ts" xlink:title="index.ts">
<path fill="#ddfeff" stroke="black" d="M93.46,-1403.25C93.46,-1403.25 51.79,-1403.25 51.79,-1403.25 48.71,-1403.25 45.62,-1400.17 45.62,-1397.08 45.62,-1397.08 45.62,-1390.92 45.62,-1390.92 45.62,-1387.83 48.71,-1384.75 51.79,-1384.75 51.79,-1384.75 93.46,-1384.75 93.46,-1384.75 96.54,-1384.75 99.62,-1387.83 99.62,-1390.92 99.62,-1390.92 99.62,-1397.08 99.62,-1397.08 99.62,-1400.17 96.54,-1403.25 93.46,-1403.25"/>
<text text-anchor="start" x="56.88" y="-1390.7" font-family="Helvetica,sans-Serif" font-size="9.00">index.ts</text>
</a>
</g>
</g>
<!-- src/widgets/nuaces/nuaces.ui.tsx -->
<g id="node51" class="node">
<title>src/widgets/nuaces/nuaces.ui.tsx</title>
<g id="a_node51"><a xlink:href="src/widgets/nuaces/nuaces.ui.tsx" xlink:title="nuaces.ui.tsx">
<path fill="#bbfeff" stroke="black" d="M205.83,-1403.25C205.83,-1403.25 148.92,-1403.25 148.92,-1403.25 145.83,-1403.25 142.75,-1400.17 142.75,-1397.08 142.75,-1397.08 142.75,-1390.92 142.75,-1390.92 142.75,-1387.83 145.83,-1384.75 148.92,-1384.75 148.92,-1384.75 205.83,-1384.75 205.83,-1384.75 208.92,-1384.75 212,-1387.83 212,-1390.92 212,-1390.92 212,-1397.08 212,-1397.08 212,-1400.17 208.92,-1403.25 205.83,-1403.25"/>
<text text-anchor="start" x="150.75" y="-1390.7" font-family="Helvetica,sans-Serif" font-size="9.00">nuaces.ui.tsx</text>
</a>
</g>
</g>
<!-- src/widgets/nuaces/index.ts&#45;&gt;src/widgets/nuaces/nuaces.ui.tsx -->
<g id="edge38" class="edge">
<title>src/widgets/nuaces/index.ts&#45;&gt;src/widgets/nuaces/nuaces.ui.tsx</title>
<path fill="none" stroke="#000000" stroke-width="2" stroke-opacity="0.200000" d="M100.09,-1394C110.92,-1394 123.71,-1394 135.68,-1394"/>
<polygon fill="#000000" fill-opacity="0.200000" stroke="#000000" stroke-width="2" stroke-opacity="0.200000" points="141.62,-1396.1 135.62,-1394 141.62,-1391.9 141.62,-1396.1"/>
</g>
<!-- src/widgets/nuaces/nuaces.scss -->
<g id="node52" class="node">
<title>src/widgets/nuaces/nuaces.scss</title>
<g id="a_node52"><a xlink:href="src/widgets/nuaces/nuaces.scss" xlink:title="nuaces.scss">
<path fill="#ffffcc" stroke="black" d="M330.71,-1403.25C330.71,-1403.25 276.79,-1403.25 276.79,-1403.25 273.71,-1403.25 270.62,-1400.17 270.62,-1397.08 270.62,-1397.08 270.62,-1390.92 270.62,-1390.92 270.62,-1387.83 273.71,-1384.75 276.79,-1384.75 276.79,-1384.75 330.71,-1384.75 330.71,-1384.75 333.79,-1384.75 336.88,-1387.83 336.88,-1390.92 336.88,-1390.92 336.88,-1397.08 336.88,-1397.08 336.88,-1400.17 333.79,-1403.25 330.71,-1403.25"/>
<text text-anchor="start" x="278.62" y="-1390.7" font-family="Helvetica,sans-Serif" font-size="9.00">nuaces.scss</text>
</a>
</g>
</g>
<!-- src/widgets/nuaces/nuaces.ui.tsx&#45;&gt;src/widgets/nuaces/nuaces.scss -->
<g id="edge39" class="edge">
<title>src/widgets/nuaces/nuaces.ui.tsx&#45;&gt;src/widgets/nuaces/nuaces.scss</title>
<path fill="none" stroke="#000000" stroke-width="2" stroke-opacity="0.200000" d="M212.36,-1394C227.65,-1394 245.83,-1394 261.86,-1394"/>
<polygon fill="#000000" fill-opacity="0.200000" stroke="#000000" stroke-width="2" stroke-opacity="0.200000" points="261.49,-1396.1 267.49,-1394 261.49,-1391.9 261.49,-1396.1"/>
</g>
<!-- src/widgets/presentation/index.ts -->
<g id="node53" class="node">
<title>src/widgets/presentation/index.ts</title>
<g id="a_node53"><a xlink:href="src/widgets/presentation/index.ts" xlink:title="index.ts">
<path fill="#ddfeff" stroke="black" d="M93.46,-1471.25C93.46,-1471.25 51.79,-1471.25 51.79,-1471.25 48.71,-1471.25 45.62,-1468.17 45.62,-1465.08 45.62,-1465.08 45.62,-1458.92 45.62,-1458.92 45.62,-1455.83 48.71,-1452.75 51.79,-1452.75 51.79,-1452.75 93.46,-1452.75 93.46,-1452.75 96.54,-1452.75 99.62,-1455.83 99.62,-1458.92 99.62,-1458.92 99.62,-1465.08 99.62,-1465.08 99.62,-1468.17 96.54,-1471.25 93.46,-1471.25"/>
<text text-anchor="start" x="56.88" y="-1458.7" font-family="Helvetica,sans-Serif" font-size="9.00">index.ts</text>
</a>
</g>
</g>
<!-- src/widgets/presentation/presentation.modal.tsx -->
<g id="node54" class="node">
<title>src/widgets/presentation/presentation.modal.tsx</title>
<g id="a_node54"><a xlink:href="src/widgets/presentation/presentation.modal.tsx" xlink:title="presentation.modal.tsx">
<path fill="#bbfeff" stroke="black" d="M351.71,-1478.25C351.71,-1478.25 255.79,-1478.25 255.79,-1478.25 252.71,-1478.25 249.62,-1475.17 249.62,-1472.08 249.62,-1472.08 249.62,-1465.92 249.62,-1465.92 249.62,-1462.83 252.71,-1459.75 255.79,-1459.75 255.79,-1459.75 351.71,-1459.75 351.71,-1459.75 354.79,-1459.75 357.88,-1462.83 357.88,-1465.92 357.88,-1465.92 357.88,-1472.08 357.88,-1472.08 357.88,-1475.17 354.79,-1478.25 351.71,-1478.25"/>
<text text-anchor="start" x="257.62" y="-1465.7" font-family="Helvetica,sans-Serif" font-size="9.00">presentation.modal.tsx</text>
</a>
</g>
</g>
<!-- src/widgets/presentation/index.ts&#45;&gt;src/widgets/presentation/presentation.modal.tsx -->
<g id="edge40" class="edge">
<title>src/widgets/presentation/index.ts&#45;&gt;src/widgets/presentation/presentation.modal.tsx</title>
<path fill="none" stroke="#000000" stroke-width="2" stroke-opacity="0.200000" d="M100.04,-1466.81C108.39,-1468.12 117.68,-1469.35 126.25,-1470 164.76,-1472.91 208.13,-1472.71 242.24,-1471.76"/>
<polygon fill="#000000" fill-opacity="0.200000" stroke="#000000" stroke-width="2" stroke-opacity="0.200000" points="248.44,-1473.68 242.38,-1471.76 248.32,-1469.48 248.44,-1473.68"/>
</g>
<!-- src/widgets/presentation/presentation.ui.tsx -->
<g id="node55" class="node">
<title>src/widgets/presentation/presentation.ui.tsx</title>
<g id="a_node55"><a xlink:href="src/widgets/presentation/presentation.ui.tsx" xlink:title="presentation.ui.tsx">
<path fill="#bbfeff" stroke="black" d="M216.33,-1464.25C216.33,-1464.25 138.42,-1464.25 138.42,-1464.25 135.33,-1464.25 132.25,-1461.17 132.25,-1458.08 132.25,-1458.08 132.25,-1451.92 132.25,-1451.92 132.25,-1448.83 135.33,-1445.75 138.42,-1445.75 138.42,-1445.75 216.33,-1445.75 216.33,-1445.75 219.42,-1445.75 222.5,-1448.83 222.5,-1451.92 222.5,-1451.92 222.5,-1458.08 222.5,-1458.08 222.5,-1461.17 219.42,-1464.25 216.33,-1464.25"/>
<text text-anchor="start" x="140.25" y="-1451.7" font-family="Helvetica,sans-Serif" font-size="9.00">presentation.ui.tsx</text>
</a>
</g>
</g>
<!-- src/widgets/presentation/index.ts&#45;&gt;src/widgets/presentation/presentation.ui.tsx -->
<g id="edge41" class="edge">
<title>src/widgets/presentation/index.ts&#45;&gt;src/widgets/presentation/presentation.ui.tsx</title>
<path fill="none" stroke="#000000" stroke-width="2" stroke-opacity="0.200000" d="M100.09,-1460.2C107.78,-1459.67 116.46,-1459.08 125.13,-1458.49"/>
<polygon fill="#000000" fill-opacity="0.200000" stroke="#000000" stroke-width="2" stroke-opacity="0.200000" points="131.21,-1460.18 125.08,-1458.49 130.93,-1455.99 131.21,-1460.18"/>
</g>
<!-- src/widgets/presentation/presentation.scss -->
<g id="node56" class="node">
<title>src/widgets/presentation/presentation.scss</title>
<g id="a_node56"><a xlink:href="src/widgets/presentation/presentation.scss" xlink:title="presentation.scss">
<path fill="#ffffcc" stroke="black" d="M462.46,-1471.25C462.46,-1471.25 387.54,-1471.25 387.54,-1471.25 384.46,-1471.25 381.38,-1468.17 381.38,-1465.08 381.38,-1465.08 381.38,-1458.92 381.38,-1458.92 381.38,-1455.83 384.46,-1452.75 387.54,-1452.75 387.54,-1452.75 462.46,-1452.75 462.46,-1452.75 465.54,-1452.75 468.62,-1455.83 468.62,-1458.92 468.62,-1458.92 468.62,-1465.08 468.62,-1465.08 468.62,-1468.17 465.54,-1471.25 462.46,-1471.25"/>
<text text-anchor="start" x="389.38" y="-1458.7" font-family="Helvetica,sans-Serif" font-size="9.00">presentation.scss</text>
</a>
</g>
</g>
<!-- src/widgets/presentation/presentation.modal.tsx&#45;&gt;src/widgets/presentation/presentation.scss -->
<g id="edge42" class="edge">
<title>src/widgets/presentation/presentation.modal.tsx&#45;&gt;src/widgets/presentation/presentation.scss</title>
<path fill="none" stroke="#000000" stroke-width="2" stroke-opacity="0.200000" d="M358.1,-1465.87C362.78,-1465.59 367.52,-1465.32 372.19,-1465.04"/>
<polygon fill="#000000" fill-opacity="0.200000" stroke="#000000" stroke-width="2" stroke-opacity="0.200000" points="372.18,-1467.15 378.05,-1464.7 371.93,-1462.95 372.18,-1467.15"/>
</g>
<!-- src/widgets/presentation/presentation.ui.tsx&#45;&gt;src/widgets/presentation/presentation.modal.tsx -->
<g id="edge43" class="edge">
<title>src/widgets/presentation/presentation.ui.tsx&#45;&gt;src/widgets/presentation/presentation.modal.tsx</title>
<path fill="none" stroke="#000000" stroke-width="2" stroke-opacity="0.200000" d="M222.93,-1460.01C228.64,-1460.66 234.57,-1461.33 240.5,-1461.99"/>
<polygon fill="#000000" fill-opacity="0.200000" stroke="#000000" stroke-width="2" stroke-opacity="0.200000" points="239.96,-1464.05 246.16,-1462.63 240.43,-1459.87 239.96,-1464.05"/>
</g>
<!-- src/widgets/presentation/presentation.ui.tsx&#45;&gt;src/widgets/presentation/presentation.scss -->
<g id="edge44" class="edge">
<title>src/widgets/presentation/presentation.ui.tsx&#45;&gt;src/widgets/presentation/presentation.scss</title>
<path fill="none" stroke="#000000" stroke-width="2" stroke-opacity="0.200000" d="M222.92,-1453.03C260.11,-1451.8 314.5,-1450.96 361.88,-1454 365.26,-1454.22 368.74,-1454.5 372.24,-1454.83"/>
<polygon fill="#000000" fill-opacity="0.200000" stroke="#000000" stroke-width="2" stroke-opacity="0.200000" points="371.76,-1456.89 377.95,-1455.42 372.19,-1452.71 371.76,-1456.89"/>
</g>
<!-- src/widgets/vacancy/vacancy.ui.tsx&#45;&gt;src/widgets/consultation/index.ts -->
<g id="edge46" class="edge">
<title>src/widgets/vacancy/vacancy.ui.tsx&#45;&gt;src/widgets/consultation/index.ts</title>
<path fill="none" stroke="#000000" stroke-width="2" stroke-opacity="0.200000" d="M442.28,-1145.74C461.52,-1157.26 493.69,-1176.51 515.75,-1189.71"/>
<polygon fill="#000000" fill-opacity="0.200000" stroke="#000000" stroke-width="2" stroke-opacity="0.200000" points="514.55,-1191.44 520.78,-1192.72 516.71,-1187.84 514.55,-1191.44"/>
</g>
<!-- src/widgets/vacancy/vacancy.scss -->
<g id="node58" class="node">
<title>src/widgets/vacancy/vacancy.scss</title>
<g id="a_node58"><a xlink:href="src/widgets/vacancy/vacancy.scss" xlink:title="vacancy.scss">
<path fill="#ffffcc" stroke="black" d="M569.08,-1145.25C569.08,-1145.25 512.17,-1145.25 512.17,-1145.25 509.08,-1145.25 506,-1142.17 506,-1139.08 506,-1139.08 506,-1132.92 506,-1132.92 506,-1129.83 509.08,-1126.75 512.17,-1126.75 512.17,-1126.75 569.08,-1126.75 569.08,-1126.75 572.17,-1126.75 575.25,-1129.83 575.25,-1132.92 575.25,-1132.92 575.25,-1139.08 575.25,-1139.08 575.25,-1142.17 572.17,-1145.25 569.08,-1145.25"/>
<text text-anchor="start" x="514" y="-1132.7" font-family="Helvetica,sans-Serif" font-size="9.00">vacancy.scss</text>
</a>
</g>
</g>
<!-- src/widgets/vacancy/vacancy.ui.tsx&#45;&gt;src/widgets/vacancy/vacancy.scss -->
<g id="edge47" class="edge">
<title>src/widgets/vacancy/vacancy.ui.tsx&#45;&gt;src/widgets/vacancy/vacancy.scss</title>
<path fill="none" stroke="#000000" stroke-width="2" stroke-opacity="0.200000" d="M461.33,-1136C472.65,-1136 485.3,-1136 497.07,-1136"/>
<polygon fill="#000000" fill-opacity="0.200000" stroke="#000000" stroke-width="2" stroke-opacity="0.200000" points="496.85,-1138.1 502.85,-1136 496.85,-1133.9 496.85,-1138.1"/>
</g>
</g>
</svg>
