<?xml version="1.0" encoding="UTF-8" standalone="no"?>
<!DOCTYPE svg PUBLIC "-//W3C//DTD SVG 1.1//EN"
 "http://www.w3.org/Graphics/SVG/1.1/DTD/svg11.dtd">
<!-- Generated by graphviz version 12.1.0 (20240811.2233)
 -->
<!-- Title: dependency&#45;cruiser output Pages: 1 -->
<svg width="1093pt" height="1363pt"
 viewBox="0.00 0.00 1093.25 1363.00" xmlns="http://www.w3.org/2000/svg" xmlns:xlink="http://www.w3.org/1999/xlink">
<g id="graph0" class="graph" transform="scale(1 1) rotate(0) translate(4 1359)">
<title>dependency&#45;cruiser output</title>
<polygon fill="white" stroke="none" points="-4,4 -4,-1359 1089.25,-1359 1089.25,4 -4,4"/>
<g id="clust1" class="cluster">
<title>cluster_src</title>
<path fill="#ffffff" stroke="black" stroke-width="2" d="M20,-8C20,-8 1065.25,-8 1065.25,-8 1071.25,-8 1077.25,-14 1077.25,-20 1077.25,-20 1077.25,-1335 1077.25,-1335 1077.25,-1341 1071.25,-1347 1065.25,-1347 1065.25,-1347 20,-1347 20,-1347 14,-1347 8,-1341 8,-1335 8,-1335 8,-20 8,-20 8,-14 14,-8 20,-8"/>
<text text-anchor="middle" x="542.62" y="-1334.45" font-family="Helvetica,sans-Serif" font-weight="bold" font-size="9.00">src</text>
</g>
<g id="clust2" class="cluster">
<title>cluster_src/app</title>
<path fill="#ffffff" stroke="black" stroke-width="2" d="M33.62,-16C33.62,-16 229.62,-16 229.62,-16 235.62,-16 241.62,-22 241.62,-28 241.62,-28 241.62,-127 241.62,-127 241.62,-133 235.62,-139 229.62,-139 229.62,-139 33.62,-139 33.62,-139 27.62,-139 21.62,-133 21.62,-127 21.62,-127 21.62,-28 21.62,-28 21.62,-22 27.62,-16 33.62,-16"/>
<text text-anchor="middle" x="131.62" y="-126.45" font-family="Helvetica,sans-Serif" font-weight="bold" font-size="9.00">app</text>
</g>
<g id="clust3" class="cluster">
<title>cluster_src/app/provider</title>
<path fill="#ffffff" stroke="black" stroke-width="2" d="M41.62,-24C41.62,-24 221.62,-24 221.62,-24 227.62,-24 233.62,-30 233.62,-36 233.62,-36 233.62,-100 233.62,-100 233.62,-106 227.62,-112 221.62,-112 221.62,-112 41.62,-112 41.62,-112 35.62,-112 29.62,-106 29.62,-100 29.62,-100 29.62,-36 29.62,-36 29.62,-30 35.62,-24 41.62,-24"/>
<text text-anchor="middle" x="131.62" y="-99.45" font-family="Helvetica,sans-Serif" font-weight="bold" font-size="9.00">provider</text>
</g>
<g id="clust4" class="cluster">
<title>cluster_src/app/provider/root</title>
<path fill="#ffffff" stroke="black" stroke-width="2" d="M49.62,-32C49.62,-32 213.62,-32 213.62,-32 219.62,-32 225.62,-38 225.62,-44 225.62,-44 225.62,-73 225.62,-73 225.62,-79 219.62,-85 213.62,-85 213.62,-85 49.62,-85 49.62,-85 43.62,-85 37.62,-79 37.62,-73 37.62,-73 37.62,-44 37.62,-44 37.62,-38 43.62,-32 49.62,-32"/>
<text text-anchor="middle" x="131.62" y="-72.45" font-family="Helvetica,sans-Serif" font-weight="bold" font-size="9.00">root</text>
</g>
<g id="clust5" class="cluster">
<title>cluster_src/features</title>
<path fill="#ffffff" stroke="black" stroke-width="2" d="M31.38,-147C31.38,-147 570.5,-147 570.5,-147 576.5,-147 582.5,-153 582.5,-159 582.5,-159 582.5,-254 582.5,-254 582.5,-260 576.5,-266 570.5,-266 570.5,-266 31.38,-266 31.38,-266 25.38,-266 19.38,-260 19.38,-254 19.38,-254 19.38,-159 19.38,-159 19.38,-153 25.38,-147 31.38,-147"/>
<text text-anchor="middle" x="300.94" y="-253.45" font-family="Helvetica,sans-Serif" font-weight="bold" font-size="9.00">features</text>
</g>
<g id="clust6" class="cluster">
<title>cluster_src/features/catalog</title>
<path fill="#ffffff" stroke="black" stroke-width="2" d="M39.38,-155C39.38,-155 562.5,-155 562.5,-155 568.5,-155 574.5,-161 574.5,-167 574.5,-167 574.5,-227 574.5,-227 574.5,-233 568.5,-239 562.5,-239 562.5,-239 39.38,-239 39.38,-239 33.38,-239 27.38,-233 27.38,-227 27.38,-227 27.38,-167 27.38,-167 27.38,-161 33.38,-155 39.38,-155"/>
<text text-anchor="middle" x="300.94" y="-226.45" font-family="Helvetica,sans-Serif" font-weight="bold" font-size="9.00">catalog</text>
</g>
<g id="clust7" class="cluster">
<title>cluster_src/screens</title>
<path fill="#ffffff" stroke="black" stroke-width="2" d="M41.62,-274C41.62,-274 220.88,-274 220.88,-274 226.88,-274 232.88,-280 232.88,-286 232.88,-286 232.88,-350 232.88,-350 232.88,-356 226.88,-362 220.88,-362 220.88,-362 41.62,-362 41.62,-362 35.62,-362 29.62,-356 29.62,-350 29.62,-350 29.62,-286 29.62,-286 29.62,-280 35.62,-274 41.62,-274"/>
<text text-anchor="middle" x="131.25" y="-349.45" font-family="Helvetica,sans-Serif" font-weight="bold" font-size="9.00">screens</text>
</g>
<g id="clust8" class="cluster">
<title>cluster_src/screens/root</title>
<path fill="#ffffff" stroke="black" stroke-width="2" d="M49.62,-282C49.62,-282 212.88,-282 212.88,-282 218.88,-282 224.88,-288 224.88,-294 224.88,-294 224.88,-323 224.88,-323 224.88,-329 218.88,-335 212.88,-335 212.88,-335 49.62,-335 49.62,-335 43.62,-335 37.62,-329 37.62,-323 37.62,-323 37.62,-294 37.62,-294 37.62,-288 43.62,-282 49.62,-282"/>
<text text-anchor="middle" x="131.25" y="-322.45" font-family="Helvetica,sans-Serif" font-weight="bold" font-size="9.00">root</text>
</g>
<g id="clust9" class="cluster">
<title>cluster_src/shared</title>
<path fill="#ffffff" stroke="black" stroke-width="2" d="M28,-370C28,-370 333.5,-370 333.5,-370 339.5,-370 345.5,-376 345.5,-382 345.5,-382 345.5,-690 345.5,-690 345.5,-696 339.5,-702 333.5,-702 333.5,-702 28,-702 28,-702 22,-702 16,-696 16,-690 16,-690 16,-382 16,-382 16,-376 22,-370 28,-370"/>
<text text-anchor="middle" x="180.75" y="-689.45" font-family="Helvetica,sans-Serif" font-weight="bold" font-size="9.00">shared</text>
</g>
<g id="clust10" class="cluster">
<title>cluster_src/shared/consts</title>
<path fill="#ffffff" stroke="black" stroke-width="2" d="M49.12,-378C49.12,-378 96.12,-378 96.12,-378 102.12,-378 108.12,-384 108.12,-390 108.12,-390 108.12,-419 108.12,-419 108.12,-425 102.12,-431 96.12,-431 96.12,-431 49.12,-431 49.12,-431 43.12,-431 37.12,-425 37.12,-419 37.12,-419 37.12,-390 37.12,-390 37.12,-384 43.12,-378 49.12,-378"/>
<text text-anchor="middle" x="72.62" y="-418.45" font-family="Helvetica,sans-Serif" font-weight="bold" font-size="9.00">consts</text>
</g>
<g id="clust11" class="cluster">
<title>cluster_src/shared/types</title>
<path fill="#ffffff" stroke="black" stroke-width="2" d="M49.62,-439C49.62,-439 95.62,-439 95.62,-439 101.62,-439 107.62,-445 107.62,-451 107.62,-451 107.62,-480 107.62,-480 107.62,-486 101.62,-492 95.62,-492 95.62,-492 49.63,-492 49.63,-492 43.62,-492 37.62,-486 37.62,-480 37.62,-480 37.62,-451 37.62,-451 37.62,-445 43.62,-439 49.62,-439"/>
<text text-anchor="middle" x="72.62" y="-479.45" font-family="Helvetica,sans-Serif" font-weight="bold" font-size="9.00">types</text>
</g>
<g id="clust12" class="cluster">
<title>cluster_src/shared/ui</title>
<path fill="#ffffff" stroke="black" stroke-width="2" d="M36,-500C36,-500 325.5,-500 325.5,-500 331.5,-500 337.5,-506 337.5,-512 337.5,-512 337.5,-663 337.5,-663 337.5,-669 331.5,-675 325.5,-675 325.5,-675 36,-675 36,-675 30,-675 24,-669 24,-663 24,-663 24,-512 24,-512 24,-506 30,-500 36,-500"/>
<text text-anchor="middle" x="180.75" y="-662.45" font-family="Helvetica,sans-Serif" font-weight="bold" font-size="9.00">ui</text>
</g>
<g id="clust13" class="cluster">
<title>cluster_src/shared/ui/dialog</title>
<path fill="#ffffff" stroke="black" stroke-width="2" d="M49.62,-508C49.62,-508 317.5,-508 317.5,-508 323.5,-508 329.5,-514 329.5,-520 329.5,-520 329.5,-549 329.5,-549 329.5,-555 323.5,-561 317.5,-561 317.5,-561 49.62,-561 49.62,-561 43.62,-561 37.62,-555 37.62,-549 37.62,-549 37.62,-520 37.62,-520 37.62,-514 43.62,-508 49.62,-508"/>
<text text-anchor="middle" x="183.56" y="-548.45" font-family="Helvetica,sans-Serif" font-weight="bold" font-size="9.00">dialog</text>
</g>
<g id="clust14" class="cluster">
<title>cluster_src/shared/ui/optimize&#45;image</title>
<path fill="#ffffff" stroke="black" stroke-width="2" d="M49.62,-569C49.62,-569 224.5,-569 224.5,-569 230.5,-569 236.5,-575 236.5,-581 236.5,-581 236.5,-610 236.5,-610 236.5,-616 230.5,-622 224.5,-622 224.5,-622 49.62,-622 49.62,-622 43.62,-622 37.62,-616 37.62,-610 37.62,-610 37.62,-581 37.62,-581 37.62,-575 43.62,-569 49.62,-569"/>
<text text-anchor="middle" x="137.06" y="-609.45" font-family="Helvetica,sans-Serif" font-weight="bold" font-size="9.00">optimize&#45;image</text>
</g>
<g id="clust15" class="cluster">
<title>cluster_src/widgets</title>
<path fill="#ffffff" stroke="black" stroke-width="2" d="M41.62,-710C41.62,-710 1057.25,-710 1057.25,-710 1063.25,-710 1069.25,-716 1069.25,-722 1069.25,-722 1069.25,-1308 1069.25,-1308 1069.25,-1314 1063.25,-1320 1057.25,-1320 1057.25,-1320 41.62,-1320 41.62,-1320 35.62,-1320 29.62,-1314 29.62,-1308 29.62,-1308 29.62,-722 29.62,-722 29.62,-716 35.62,-710 41.62,-710"/>
<text text-anchor="middle" x="549.44" y="-1307.45" font-family="Helvetica,sans-Serif" font-weight="bold" font-size="9.00">widgets</text>
</g>
<g id="clust16" class="cluster">
<title>cluster_src/widgets/consultation</title>
<path fill="#ffffff" stroke="black" stroke-width="2" d="M500.25,-1043C500.25,-1043 897.5,-1043 897.5,-1043 903.5,-1043 909.5,-1049 909.5,-1055 909.5,-1055 909.5,-1098 909.5,-1098 909.5,-1104 903.5,-1110 897.5,-1110 897.5,-1110 500.25,-1110 500.25,-1110 494.25,-1110 488.25,-1104 488.25,-1098 488.25,-1098 488.25,-1055 488.25,-1055 488.25,-1049 494.25,-1043 500.25,-1043"/>
<text text-anchor="middle" x="698.88" y="-1097.45" font-family="Helvetica,sans-Serif" font-weight="bold" font-size="9.00">consultation</text>
</g>
<g id="clust17" class="cluster">
<title>cluster_src/widgets/contact</title>
<path fill="#ffffff" stroke="black" stroke-width="2" d="M267.62,-911C267.62,-911 552,-911 552,-911 558,-911 564,-917 564,-923 564,-923 564,-952 564,-952 564,-958 558,-964 552,-964 552,-964 267.62,-964 267.62,-964 261.62,-964 255.62,-958 255.62,-952 255.62,-952 255.62,-923 255.62,-923 255.62,-917 261.62,-911 267.62,-911"/>
<text text-anchor="middle" x="409.81" y="-951.45" font-family="Helvetica,sans-Serif" font-weight="bold" font-size="9.00">contact</text>
</g>
<g id="clust18" class="cluster">
<title>cluster_src/widgets/documentation</title>
<path fill="#ffffff" stroke="black" stroke-width="2" d="M267.62,-972C267.62,-972 567.75,-972 567.75,-972 573.75,-972 579.75,-978 579.75,-984 579.75,-984 579.75,-1013 579.75,-1013 579.75,-1019 573.75,-1025 567.75,-1025 567.75,-1025 267.62,-1025 267.62,-1025 261.62,-1025 255.62,-1019 255.62,-1013 255.62,-1013 255.62,-984 255.62,-984 255.62,-978 261.62,-972 267.62,-972"/>
<text text-anchor="middle" x="417.69" y="-1012.45" font-family="Helvetica,sans-Serif" font-weight="bold" font-size="9.00">documentation</text>
</g>
<g id="clust19" class="cluster">
<title>cluster_src/widgets/faq</title>
<path fill="#ffffff" stroke="black" stroke-width="2" d="M49.62,-718C49.62,-718 313.62,-718 313.62,-718 319.62,-718 325.62,-724 325.62,-730 325.62,-730 325.62,-759 325.62,-759 325.62,-765 319.62,-771 313.62,-771 313.62,-771 49.62,-771 49.62,-771 43.62,-771 37.62,-765 37.62,-759 37.62,-759 37.62,-730 37.62,-730 37.62,-724 43.62,-718 49.62,-718"/>
<text text-anchor="middle" x="181.62" y="-758.45" font-family="Helvetica,sans-Serif" font-weight="bold" font-size="9.00">faq</text>
</g>
<g id="clust20" class="cluster">
<title>cluster_src/widgets/footer</title>
<path fill="#ffffff" stroke="black" stroke-width="2" d="M49.62,-850C49.62,-850 316,-850 316,-850 322,-850 328,-856 328,-862 328,-862 328,-891 328,-891 328,-897 322,-903 316,-903 316,-903 49.62,-903 49.62,-903 43.62,-903 37.62,-897 37.62,-891 37.62,-891 37.62,-862 37.62,-862 37.62,-856 43.62,-850 49.62,-850"/>
<text text-anchor="middle" x="182.81" y="-890.45" font-family="Helvetica,sans-Serif" font-weight="bold" font-size="9.00">footer</text>
</g>
<g id="clust21" class="cluster">
<title>cluster_src/widgets/header</title>
<path fill="#ffffff" stroke="black" stroke-width="2" d="M49.62,-1033C49.62,-1033 319,-1033 319,-1033 325,-1033 331,-1039 331,-1045 331,-1045 331,-1074 331,-1074 331,-1080 325,-1086 319,-1086 319,-1086 49.62,-1086 49.62,-1086 43.62,-1086 37.62,-1080 37.62,-1074 37.62,-1074 37.62,-1045 37.62,-1045 37.62,-1039 43.62,-1033 49.62,-1033"/>
<text text-anchor="middle" x="184.31" y="-1073.45" font-family="Helvetica,sans-Serif" font-weight="bold" font-size="9.00">header</text>
</g>
<g id="clust22" class="cluster">
<title>cluster_src/widgets/hero</title>
<path fill="#ffffff" stroke="black" stroke-width="2" d="M267.62,-1118C267.62,-1118 546.75,-1118 546.75,-1118 552.75,-1118 558.75,-1124 558.75,-1130 558.75,-1130 558.75,-1159 558.75,-1159 558.75,-1165 552.75,-1171 546.75,-1171 546.75,-1171 267.62,-1171 267.62,-1171 261.62,-1171 255.62,-1165 255.62,-1159 255.62,-1159 255.62,-1130 255.62,-1130 255.62,-1124 261.62,-1118 267.62,-1118"/>
<text text-anchor="middle" x="407.19" y="-1158.45" font-family="Helvetica,sans-Serif" font-weight="bold" font-size="9.00">hero</text>
</g>
<g id="clust23" class="cluster">
<title>cluster_src/widgets/information</title>
<path fill="#ffffff" stroke="black" stroke-width="2" d="M49.62,-1179C49.62,-1179 327.62,-1179 327.62,-1179 333.62,-1179 339.62,-1185 339.62,-1191 339.62,-1191 339.62,-1220 339.62,-1220 339.62,-1226 333.62,-1232 327.62,-1232 327.62,-1232 49.62,-1232 49.62,-1232 43.62,-1232 37.62,-1226 37.62,-1220 37.62,-1220 37.62,-1191 37.62,-1191 37.62,-1185 43.62,-1179 49.62,-1179"/>
<text text-anchor="middle" x="188.62" y="-1219.45" font-family="Helvetica,sans-Serif" font-weight="bold" font-size="9.00">information</text>
</g>
<g id="clust24" class="cluster">
<title>cluster_src/widgets/nuaces</title>
<path fill="#ffffff" stroke="black" stroke-width="2" d="M49.62,-1240C49.62,-1240 319.75,-1240 319.75,-1240 325.75,-1240 331.75,-1246 331.75,-1252 331.75,-1252 331.75,-1281 331.75,-1281 331.75,-1287 325.75,-1293 319.75,-1293 319.75,-1293 49.62,-1293 49.62,-1293 43.62,-1293 37.62,-1287 37.62,-1281 37.62,-1281 37.62,-1252 37.62,-1252 37.62,-1246 43.62,-1240 49.62,-1240"/>
<text text-anchor="middle" x="184.69" y="-1280.45" font-family="Helvetica,sans-Serif" font-weight="bold" font-size="9.00">nuaces</text>
</g>
<g id="clust25" class="cluster">
<title>cluster_src/widgets/policy</title>
<path fill="#ffffff" stroke="black" stroke-width="2" d="M835.62,-982C835.62,-982 1049.25,-982 1049.25,-982 1055.25,-982 1061.25,-988 1061.25,-994 1061.25,-994 1061.25,-1023 1061.25,-1023 1061.25,-1029 1055.25,-1035 1049.25,-1035 1049.25,-1035 835.62,-1035 835.62,-1035 829.62,-1035 823.62,-1029 823.62,-1023 823.62,-1023 823.62,-994 823.62,-994 823.62,-988 829.62,-982 835.62,-982"/>
<text text-anchor="middle" x="942.44" y="-1022.45" font-family="Helvetica,sans-Serif" font-weight="bold" font-size="9.00">policy</text>
</g>
<g id="clust26" class="cluster">
<title>cluster_src/widgets/presentation</title>
<path fill="#ffffff" stroke="black" stroke-width="2" d="M500.25,-1179C500.25,-1179 898.25,-1179 898.25,-1179 904.25,-1179 910.25,-1185 910.25,-1191 910.25,-1191 910.25,-1234 910.25,-1234 910.25,-1240 904.25,-1246 898.25,-1246 898.25,-1246 500.25,-1246 500.25,-1246 494.25,-1246 488.25,-1240 488.25,-1234 488.25,-1234 488.25,-1191 488.25,-1191 488.25,-1185 494.25,-1179 500.25,-1179"/>
<text text-anchor="middle" x="699.25" y="-1233.45" font-family="Helvetica,sans-Serif" font-weight="bold" font-size="9.00">presentation</text>
</g>
<g id="clust27" class="cluster">
<title>cluster_src/widgets/vacancy</title>
<path fill="#ffffff" stroke="black" stroke-width="2" d="M267.62,-789C267.62,-789 553.88,-789 553.88,-789 559.88,-789 565.88,-795 565.88,-801 565.88,-801 565.88,-830 565.88,-830 565.88,-836 559.88,-842 553.88,-842 553.88,-842 267.62,-842 267.62,-842 261.62,-842 255.62,-836 255.62,-830 255.62,-830 255.62,-801 255.62,-801 255.62,-795 261.62,-789 267.62,-789"/>
<text text-anchor="middle" x="410.75" y="-829.45" font-family="Helvetica,sans-Serif" font-weight="bold" font-size="9.00">vacancy</text>
</g>
<!-- src/app/provider/root/index.ts -->
<g id="node1" class="node">
<title>src/app/provider/root/index.ts</title>
<g id="a_node1"><a xlink:href="src/app/provider/root/index.ts" xlink:title="index.ts">
<path fill="#ddfeff" stroke="black" d="M93.46,-58.25C93.46,-58.25 51.79,-58.25 51.79,-58.25 48.71,-58.25 45.62,-55.17 45.62,-52.08 45.62,-52.08 45.62,-45.92 45.62,-45.92 45.62,-42.83 48.71,-39.75 51.79,-39.75 51.79,-39.75 93.46,-39.75 93.46,-39.75 96.54,-39.75 99.62,-42.83 99.62,-45.92 99.62,-45.92 99.62,-52.08 99.62,-52.08 99.62,-55.17 96.54,-58.25 93.46,-58.25"/>
<text text-anchor="start" x="56.88" y="-45.7" font-family="Helvetica,sans-Serif" font-size="9.00">index.ts</text>
</a>
</g>
</g>
<!-- src/app/provider/root/root.provider.tsx -->
<g id="node2" class="node">
<title>src/app/provider/root/root.provider.tsx</title>
<g id="a_node2"><a xlink:href="src/app/provider/root/root.provider.tsx" xlink:title="root.provider.tsx">
<path fill="#bbfeff" stroke="black" d="M211.46,-58.25C211.46,-58.25 143.29,-58.25 143.29,-58.25 140.21,-58.25 137.12,-55.17 137.12,-52.08 137.12,-52.08 137.12,-45.92 137.12,-45.92 137.12,-42.83 140.21,-39.75 143.29,-39.75 143.29,-39.75 211.46,-39.75 211.46,-39.75 214.54,-39.75 217.62,-42.83 217.62,-45.92 217.62,-45.92 217.62,-52.08 217.62,-52.08 217.62,-55.17 214.54,-58.25 211.46,-58.25"/>
<text text-anchor="start" x="145.12" y="-45.7" font-family="Helvetica,sans-Serif" font-size="9.00">root.provider.tsx</text>
</a>
</g>
</g>
<!-- src/app/provider/root/index.ts&#45;&gt;src/app/provider/root/root.provider.tsx -->
<g id="edge1" class="edge">
<title>src/app/provider/root/index.ts&#45;&gt;src/app/provider/root/root.provider.tsx</title>
<path fill="none" stroke="#000000" stroke-width="2" stroke-opacity="0.200000" d="M100.09,-49C109.17,-49 119.62,-49 129.82,-49"/>
<polygon fill="#000000" fill-opacity="0.200000" stroke="#000000" stroke-width="2" stroke-opacity="0.200000" points="135.82,-51.1 129.82,-49 135.82,-46.9 135.82,-51.1"/>
</g>
<!-- src/features/catalog/catalog.card&#45;modal.tsx -->
<g id="node3" class="node">
<title>src/features/catalog/catalog.card&#45;modal.tsx</title>
<g id="a_node3"><a xlink:href="src/features/catalog/catalog.card-modal.tsx" xlink:title="catalog.card&#45;modal.tsx">
<path fill="#bbfeff" stroke="black" d="M455.58,-181.25C455.58,-181.25 359.67,-181.25 359.67,-181.25 356.58,-181.25 353.5,-178.17 353.5,-175.08 353.5,-175.08 353.5,-168.92 353.5,-168.92 353.5,-165.83 356.58,-162.75 359.67,-162.75 359.67,-162.75 455.58,-162.75 455.58,-162.75 458.67,-162.75 461.75,-165.83 461.75,-168.92 461.75,-168.92 461.75,-175.08 461.75,-175.08 461.75,-178.17 458.67,-181.25 455.58,-181.25"/>
<text text-anchor="start" x="361.5" y="-168.7" font-family="Helvetica,sans-Serif" font-size="9.00">catalog.card&#45;modal.tsx</text>
</a>
</g>
</g>
<!-- src/features/catalog/catalog.card.scss -->
<g id="node4" class="node">
<title>src/features/catalog/catalog.card.scss</title>
<g id="a_node4"><a xlink:href="src/features/catalog/catalog.card.scss" xlink:title="catalog.card.scss">
<path fill="#ffffcc" stroke="black" d="M560.33,-181.25C560.33,-181.25 486.17,-181.25 486.17,-181.25 483.08,-181.25 480,-178.17 480,-175.08 480,-175.08 480,-168.92 480,-168.92 480,-165.83 483.08,-162.75 486.17,-162.75 486.17,-162.75 560.33,-162.75 560.33,-162.75 563.42,-162.75 566.5,-165.83 566.5,-168.92 566.5,-168.92 566.5,-175.08 566.5,-175.08 566.5,-178.17 563.42,-181.25 560.33,-181.25"/>
<text text-anchor="start" x="488" y="-168.7" font-family="Helvetica,sans-Serif" font-size="9.00">catalog.card.scss</text>
</a>
</g>
</g>
<!-- src/features/catalog/catalog.card&#45;modal.tsx&#45;&gt;src/features/catalog/catalog.card.scss -->
<g id="edge2" class="edge">
<title>src/features/catalog/catalog.card&#45;modal.tsx&#45;&gt;src/features/catalog/catalog.card.scss</title>
<path fill="none" stroke="#000000" stroke-width="2" stroke-opacity="0.200000" d="M462.11,-172C464.95,-172 467.81,-172 470.65,-172"/>
<polygon fill="#000000" fill-opacity="0.200000" stroke="#000000" stroke-width="2" stroke-opacity="0.200000" points="470.59,-174.1 476.59,-172 470.59,-169.9 470.59,-174.1"/>
</g>
<!-- src/features/catalog/catalog.card.tsx -->
<g id="node5" class="node">
<title>src/features/catalog/catalog.card.tsx</title>
<g id="a_node5"><a xlink:href="src/features/catalog/catalog.card.tsx" xlink:title="catalog.card.tsx">
<path fill="#bbfeff" stroke="black" d="M324.33,-181.25C324.33,-181.25 256.92,-181.25 256.92,-181.25 253.83,-181.25 250.75,-178.17 250.75,-175.08 250.75,-175.08 250.75,-168.92 250.75,-168.92 250.75,-165.83 253.83,-162.75 256.92,-162.75 256.92,-162.75 324.33,-162.75 324.33,-162.75 327.42,-162.75 330.5,-165.83 330.5,-168.92 330.5,-168.92 330.5,-175.08 330.5,-175.08 330.5,-178.17 327.42,-181.25 324.33,-181.25"/>
<text text-anchor="start" x="258.75" y="-168.7" font-family="Helvetica,sans-Serif" font-size="9.00">catalog.card.tsx</text>
</a>
</g>
</g>
<!-- src/features/catalog/catalog.card.tsx&#45;&gt;src/features/catalog/catalog.card&#45;modal.tsx -->
<g id="edge3" class="edge">
<title>src/features/catalog/catalog.card.tsx&#45;&gt;src/features/catalog/catalog.card&#45;modal.tsx</title>
<path fill="none" stroke="#000000" stroke-width="2" stroke-opacity="0.200000" d="M330.88,-172C335.24,-172 339.76,-172 344.32,-172"/>
<polygon fill="#000000" fill-opacity="0.200000" stroke="#000000" stroke-width="2" stroke-opacity="0.200000" points="344.08,-174.1 350.08,-172 344.08,-169.9 344.08,-174.1"/>
</g>
<!-- src/features/catalog/catalog.scss -->
<g id="node6" class="node">
<title>src/features/catalog/catalog.scss</title>
<g id="a_node6"><a xlink:href="src/features/catalog/catalog.scss" xlink:title="catalog.scss">
<path fill="#ffffcc" stroke="black" d="M317.58,-212.25C317.58,-212.25 263.67,-212.25 263.67,-212.25 260.58,-212.25 257.5,-209.17 257.5,-206.08 257.5,-206.08 257.5,-199.92 257.5,-199.92 257.5,-196.83 260.58,-193.75 263.67,-193.75 263.67,-193.75 317.58,-193.75 317.58,-193.75 320.67,-193.75 323.75,-196.83 323.75,-199.92 323.75,-199.92 323.75,-206.08 323.75,-206.08 323.75,-209.17 320.67,-212.25 317.58,-212.25"/>
<text text-anchor="start" x="265.5" y="-199.7" font-family="Helvetica,sans-Serif" font-size="9.00">catalog.scss</text>
</a>
</g>
</g>
<!-- src/features/catalog/catalog.type.ts -->
<g id="node7" class="node">
<title>src/features/catalog/catalog.type.ts</title>
<g id="a_node7"><a xlink:href="src/features/catalog/catalog.type.ts" xlink:title="no&#45;orphans">
<path fill="#ccffcc" stroke="orange" d="M103.71,-181.25C103.71,-181.25 41.54,-181.25 41.54,-181.25 38.46,-181.25 35.38,-178.17 35.38,-175.08 35.38,-175.08 35.38,-168.92 35.38,-168.92 35.38,-165.83 38.46,-162.75 41.54,-162.75 41.54,-162.75 103.71,-162.75 103.71,-162.75 106.79,-162.75 109.88,-165.83 109.88,-168.92 109.88,-168.92 109.88,-175.08 109.88,-175.08 109.88,-178.17 106.79,-181.25 103.71,-181.25"/>
<text text-anchor="start" x="43.38" y="-168.7" font-family="Helvetica,sans-Serif" font-size="9.00" fill="orange">catalog.type.ts</text>
</a>
</g>
</g>
<!-- src/features/catalog/catalog.ui.tsx -->
<g id="node8" class="node">
<title>src/features/catalog/catalog.ui.tsx</title>
<g id="a_node8"><a xlink:href="src/features/catalog/catalog.ui.tsx" xlink:title="catalog.ui.tsx">
<path fill="#bbfeff" stroke="black" d="M205.83,-212.25C205.83,-212.25 148.92,-212.25 148.92,-212.25 145.83,-212.25 142.75,-209.17 142.75,-206.08 142.75,-206.08 142.75,-199.92 142.75,-199.92 142.75,-196.83 145.83,-193.75 148.92,-193.75 148.92,-193.75 205.83,-193.75 205.83,-193.75 208.92,-193.75 212,-196.83 212,-199.92 212,-199.92 212,-206.08 212,-206.08 212,-209.17 208.92,-212.25 205.83,-212.25"/>
<text text-anchor="start" x="150.75" y="-199.7" font-family="Helvetica,sans-Serif" font-size="9.00">catalog.ui.tsx</text>
</a>
</g>
</g>
<!-- src/features/catalog/catalog.ui.tsx&#45;&gt;src/features/catalog/catalog.card.tsx -->
<g id="edge4" class="edge">
<title>src/features/catalog/catalog.ui.tsx&#45;&gt;src/features/catalog/catalog.card.tsx</title>
<path fill="none" stroke="#000000" stroke-width="2" stroke-opacity="0.200000" d="M212.36,-193.53C223.05,-190.55 235.01,-187.22 246.26,-184.08"/>
<polygon fill="#000000" fill-opacity="0.200000" stroke="#000000" stroke-width="2" stroke-opacity="0.200000" points="246.56,-186.18 251.78,-182.55 245.44,-182.13 246.56,-186.18"/>
</g>
<!-- src/features/catalog/catalog.ui.tsx&#45;&gt;src/features/catalog/catalog.scss -->
<g id="edge5" class="edge">
<title>src/features/catalog/catalog.ui.tsx&#45;&gt;src/features/catalog/catalog.scss</title>
<path fill="none" stroke="#000000" stroke-width="2" stroke-opacity="0.200000" d="M212.36,-203C223.76,-203 236.61,-203 248.5,-203"/>
<polygon fill="#000000" fill-opacity="0.200000" stroke="#000000" stroke-width="2" stroke-opacity="0.200000" points="248.35,-205.1 254.35,-203 248.35,-200.9 248.35,-205.1"/>
</g>
<!-- src/features/catalog/index.ts -->
<g id="node9" class="node">
<title>src/features/catalog/index.ts</title>
<g id="a_node9"><a xlink:href="src/features/catalog/index.ts" xlink:title="index.ts">
<path fill="#ddfeff" stroke="black" d="M93.46,-212.25C93.46,-212.25 51.79,-212.25 51.79,-212.25 48.71,-212.25 45.62,-209.17 45.62,-206.08 45.62,-206.08 45.62,-199.92 45.62,-199.92 45.62,-196.83 48.71,-193.75 51.79,-193.75 51.79,-193.75 93.46,-193.75 93.46,-193.75 96.54,-193.75 99.62,-196.83 99.62,-199.92 99.62,-199.92 99.62,-206.08 99.62,-206.08 99.62,-209.17 96.54,-212.25 93.46,-212.25"/>
<text text-anchor="start" x="56.88" y="-199.7" font-family="Helvetica,sans-Serif" font-size="9.00">index.ts</text>
</a>
</g>
</g>
<!-- src/features/catalog/index.ts&#45;&gt;src/features/catalog/catalog.ui.tsx -->
<g id="edge6" class="edge">
<title>src/features/catalog/index.ts&#45;&gt;src/features/catalog/catalog.ui.tsx</title>
<path fill="none" stroke="#000000" stroke-width="2" stroke-opacity="0.200000" d="M100.09,-203C110.92,-203 123.71,-203 135.68,-203"/>
<polygon fill="#000000" fill-opacity="0.200000" stroke="#000000" stroke-width="2" stroke-opacity="0.200000" points="141.62,-205.1 135.62,-203 141.62,-200.9 141.62,-205.1"/>
</g>
<!-- src/screens/root/index.ts -->
<g id="node10" class="node">
<title>src/screens/root/index.ts</title>
<g id="a_node10"><a xlink:href="src/screens/root/index.ts" xlink:title="index.ts">
<path fill="#ddfeff" stroke="black" d="M93.46,-308.25C93.46,-308.25 51.79,-308.25 51.79,-308.25 48.71,-308.25 45.62,-305.17 45.62,-302.08 45.62,-302.08 45.62,-295.92 45.62,-295.92 45.62,-292.83 48.71,-289.75 51.79,-289.75 51.79,-289.75 93.46,-289.75 93.46,-289.75 96.54,-289.75 99.62,-292.83 99.62,-295.92 99.62,-295.92 99.62,-302.08 99.62,-302.08 99.62,-305.17 96.54,-308.25 93.46,-308.25"/>
<text text-anchor="start" x="56.88" y="-295.7" font-family="Helvetica,sans-Serif" font-size="9.00">index.ts</text>
</a>
</g>
</g>
<!-- src/screens/root/root&#45;page.ui.tsx -->
<g id="node11" class="node">
<title>src/screens/root/root&#45;page.ui.tsx</title>
<g id="a_node11"><a xlink:href="src/screens/root/root-page.ui.tsx" xlink:title="root&#45;page.ui.tsx">
<path fill="#bbfeff" stroke="black" d="M210.71,-308.25C210.71,-308.25 144.04,-308.25 144.04,-308.25 140.96,-308.25 137.88,-305.17 137.88,-302.08 137.88,-302.08 137.88,-295.92 137.88,-295.92 137.88,-292.83 140.96,-289.75 144.04,-289.75 144.04,-289.75 210.71,-289.75 210.71,-289.75 213.79,-289.75 216.88,-292.83 216.88,-295.92 216.88,-295.92 216.88,-302.08 216.88,-302.08 216.88,-305.17 213.79,-308.25 210.71,-308.25"/>
<text text-anchor="start" x="145.88" y="-295.7" font-family="Helvetica,sans-Serif" font-size="9.00">root&#45;page.ui.tsx</text>
</a>
</g>
</g>
<!-- src/screens/root/index.ts&#45;&gt;src/screens/root/root&#45;page.ui.tsx -->
<g id="edge7" class="edge">
<title>src/screens/root/index.ts&#45;&gt;src/screens/root/root&#45;page.ui.tsx</title>
<path fill="none" stroke="#000000" stroke-width="2" stroke-opacity="0.200000" d="M100.09,-299C109.36,-299 120.07,-299 130.47,-299"/>
<polygon fill="#000000" fill-opacity="0.200000" stroke="#000000" stroke-width="2" stroke-opacity="0.200000" points="136.6,-301.1 130.6,-299 136.6,-296.9 136.6,-301.1"/>
</g>
<!-- src/shared/consts/catalog.ts -->
<g id="node12" class="node">
<title>src/shared/consts/catalog.ts</title>
<g id="a_node12"><a xlink:href="src/shared/consts/catalog.ts" xlink:title="no&#45;orphans">
<path fill="#ccffcc" stroke="orange" d="M93.96,-404.25C93.96,-404.25 51.29,-404.25 51.29,-404.25 48.21,-404.25 45.12,-401.17 45.12,-398.08 45.12,-398.08 45.12,-391.92 45.12,-391.92 45.12,-388.83 48.21,-385.75 51.29,-385.75 51.29,-385.75 93.96,-385.75 93.96,-385.75 97.04,-385.75 100.12,-388.83 100.12,-391.92 100.12,-391.92 100.12,-398.08 100.12,-398.08 100.12,-401.17 97.04,-404.25 93.96,-404.25"/>
<text text-anchor="start" x="53.12" y="-391.7" font-family="Helvetica,sans-Serif" font-size="9.00" fill="orange">catalog.ts</text>
</a>
</g>
</g>
<!-- src/shared/types/env.d.ts -->
<g id="node13" class="node">
<title>src/shared/types/env.d.ts</title>
<g id="a_node13"><a xlink:href="src/shared/types/env.d.ts" xlink:title="env.d.ts">
<path fill="#ccffcc" stroke="black" d="M93.46,-465.25C93.46,-465.25 51.79,-465.25 51.79,-465.25 48.71,-465.25 45.62,-462.17 45.62,-459.08 45.62,-459.08 45.62,-452.92 45.62,-452.92 45.62,-449.83 48.71,-446.75 51.79,-446.75 51.79,-446.75 93.46,-446.75 93.46,-446.75 96.54,-446.75 99.62,-449.83 99.62,-452.92 99.62,-452.92 99.62,-459.08 99.62,-459.08 99.62,-462.17 96.54,-465.25 93.46,-465.25"/>
<text text-anchor="start" x="57.25" y="-452.7" font-family="Helvetica,sans-Serif" font-size="9.00">env.d.ts</text>
</a>
</g>
</g>
<!-- src/shared/ui/dialog/dialog.scss -->
<g id="node14" class="node">
<title>src/shared/ui/dialog/dialog.scss</title>
<g id="a_node14"><a xlink:href="src/shared/ui/dialog/dialog.scss" xlink:title="dialog.scss">
<path fill="#ffffcc" stroke="black" d="M315.33,-534.25C315.33,-534.25 265.92,-534.25 265.92,-534.25 262.83,-534.25 259.75,-531.17 259.75,-528.08 259.75,-528.08 259.75,-521.92 259.75,-521.92 259.75,-518.83 262.83,-515.75 265.92,-515.75 265.92,-515.75 315.33,-515.75 315.33,-515.75 318.42,-515.75 321.5,-518.83 321.5,-521.92 321.5,-521.92 321.5,-528.08 321.5,-528.08 321.5,-531.17 318.42,-534.25 315.33,-534.25"/>
<text text-anchor="start" x="267.75" y="-521.7" font-family="Helvetica,sans-Serif" font-size="9.00">dialog.scss</text>
</a>
</g>
</g>
<!-- src/shared/ui/dialog/dialog.tsx -->
<g id="node15" class="node">
<title>src/shared/ui/dialog/dialog.tsx</title>
<g id="a_node15"><a xlink:href="src/shared/ui/dialog/dialog.tsx" xlink:title="dialog.tsx">
<path fill="#bbfeff" stroke="black" d="M198.71,-534.25C198.71,-534.25 156.04,-534.25 156.04,-534.25 152.96,-534.25 149.88,-531.17 149.88,-528.08 149.88,-528.08 149.88,-521.92 149.88,-521.92 149.88,-518.83 152.96,-515.75 156.04,-515.75 156.04,-515.75 198.71,-515.75 198.71,-515.75 201.79,-515.75 204.88,-518.83 204.88,-521.92 204.88,-521.92 204.88,-528.08 204.88,-528.08 204.88,-531.17 201.79,-534.25 198.71,-534.25"/>
<text text-anchor="start" x="157.88" y="-521.7" font-family="Helvetica,sans-Serif" font-size="9.00">dialog.tsx</text>
</a>
</g>
</g>
<!-- src/shared/ui/dialog/dialog.tsx&#45;&gt;src/shared/ui/dialog/dialog.scss -->
<g id="edge8" class="edge">
<title>src/shared/ui/dialog/dialog.tsx&#45;&gt;src/shared/ui/dialog/dialog.scss</title>
<path fill="none" stroke="#000000" stroke-width="2" stroke-opacity="0.200000" d="M205.31,-525C218.83,-525 235.48,-525 250.39,-525"/>
<polygon fill="#000000" fill-opacity="0.200000" stroke="#000000" stroke-width="2" stroke-opacity="0.200000" points="250.39,-527.1 256.39,-525 250.39,-522.9 250.39,-527.1"/>
</g>
<!-- src/shared/ui/dialog/index.ts -->
<g id="node16" class="node">
<title>src/shared/ui/dialog/index.ts</title>
<g id="a_node16"><a xlink:href="src/shared/ui/dialog/index.ts" xlink:title="index.ts">
<path fill="#ddfeff" stroke="black" d="M93.46,-534.25C93.46,-534.25 51.79,-534.25 51.79,-534.25 48.71,-534.25 45.62,-531.17 45.62,-528.08 45.62,-528.08 45.62,-521.92 45.62,-521.92 45.62,-518.83 48.71,-515.75 51.79,-515.75 51.79,-515.75 93.46,-515.75 93.46,-515.75 96.54,-515.75 99.62,-518.83 99.62,-521.92 99.62,-521.92 99.62,-528.08 99.62,-528.08 99.62,-531.17 96.54,-534.25 93.46,-534.25"/>
<text text-anchor="start" x="56.88" y="-521.7" font-family="Helvetica,sans-Serif" font-size="9.00">index.ts</text>
</a>
</g>
</g>
<!-- src/shared/ui/dialog/index.ts&#45;&gt;src/shared/ui/dialog/dialog.tsx -->
<g id="edge9" class="edge">
<title>src/shared/ui/dialog/index.ts&#45;&gt;src/shared/ui/dialog/dialog.tsx</title>
<path fill="none" stroke="#000000" stroke-width="2" stroke-opacity="0.200000" d="M100.09,-525C113.05,-525 128.8,-525 142.62,-525"/>
<polygon fill="#000000" fill-opacity="0.200000" stroke="#000000" stroke-width="2" stroke-opacity="0.200000" points="148.65,-527.1 142.65,-525 148.65,-522.9 148.65,-527.1"/>
</g>
<!-- src/shared/ui/optimize&#45;image/index.ts -->
<g id="node17" class="node">
<title>src/shared/ui/optimize&#45;image/index.ts</title>
<g id="a_node17"><a xlink:href="src/shared/ui/optimize-image/index.ts" xlink:title="index.ts">
<path fill="#ddfeff" stroke="black" d="M93.46,-595.25C93.46,-595.25 51.79,-595.25 51.79,-595.25 48.71,-595.25 45.62,-592.17 45.62,-589.08 45.62,-589.08 45.62,-582.92 45.62,-582.92 45.62,-579.83 48.71,-576.75 51.79,-576.75 51.79,-576.75 93.46,-576.75 93.46,-576.75 96.54,-576.75 99.62,-579.83 99.62,-582.92 99.62,-582.92 99.62,-589.08 99.62,-589.08 99.62,-592.17 96.54,-595.25 93.46,-595.25"/>
<text text-anchor="start" x="56.88" y="-582.7" font-family="Helvetica,sans-Serif" font-size="9.00">index.ts</text>
</a>
</g>
</g>
<!-- src/shared/ui/optimize&#45;image/optimize&#45;image.ui.tsx -->
<g id="node18" class="node">
<title>src/shared/ui/optimize&#45;image/optimize&#45;image.ui.tsx</title>
<g id="a_node18"><a xlink:href="src/shared/ui/optimize-image/optimize-image.ui.tsx" xlink:title="optimize&#45;image.ui.tsx">
<path fill="#bbfeff" stroke="black" d="M222.33,-595.25C222.33,-595.25 132.42,-595.25 132.42,-595.25 129.33,-595.25 126.25,-592.17 126.25,-589.08 126.25,-589.08 126.25,-582.92 126.25,-582.92 126.25,-579.83 129.33,-576.75 132.42,-576.75 132.42,-576.75 222.33,-576.75 222.33,-576.75 225.42,-576.75 228.5,-579.83 228.5,-582.92 228.5,-582.92 228.5,-589.08 228.5,-589.08 228.5,-592.17 225.42,-595.25 222.33,-595.25"/>
<text text-anchor="start" x="134.25" y="-582.7" font-family="Helvetica,sans-Serif" font-size="9.00">optimize&#45;image.ui.tsx</text>
</a>
</g>
</g>
<!-- src/shared/ui/optimize&#45;image/index.ts&#45;&gt;src/shared/ui/optimize&#45;image/optimize&#45;image.ui.tsx -->
<g id="edge10" class="edge">
<title>src/shared/ui/optimize&#45;image/index.ts&#45;&gt;src/shared/ui/optimize&#45;image/optimize&#45;image.ui.tsx</title>
<path fill="none" stroke="#000000" stroke-width="2" stroke-opacity="0.200000" d="M100.09,-586C105.94,-586 112.36,-586 118.91,-586"/>
<polygon fill="#000000" fill-opacity="0.200000" stroke="#000000" stroke-width="2" stroke-opacity="0.200000" points="125.06,-588.1 119.06,-586 125.06,-583.9 125.06,-588.1"/>
</g>
<!-- src/shared/ui/optimize&#45;link.tsx -->
<g id="node19" class="node">
<title>src/shared/ui/optimize&#45;link.tsx</title>
<g id="a_node19"><a xlink:href="src/shared/ui/optimize-link.tsx" xlink:title="no&#45;orphans">
<path fill="#ccffcc" stroke="orange" d="M107.08,-648.25C107.08,-648.25 38.17,-648.25 38.17,-648.25 35.08,-648.25 32,-645.17 32,-642.08 32,-642.08 32,-635.92 32,-635.92 32,-632.83 35.08,-629.75 38.17,-629.75 38.17,-629.75 107.08,-629.75 107.08,-629.75 110.17,-629.75 113.25,-632.83 113.25,-635.92 113.25,-635.92 113.25,-642.08 113.25,-642.08 113.25,-645.17 110.17,-648.25 107.08,-648.25"/>
<text text-anchor="start" x="40" y="-635.7" font-family="Helvetica,sans-Serif" font-size="9.00" fill="orange">optimize&#45;link.tsx</text>
</a>
</g>
</g>
<!-- src/widgets/consultation/consultation.modal.tsx -->
<g id="node20" class="node">
<title>src/widgets/consultation/consultation.modal.tsx</title>
<g id="a_node20"><a xlink:href="src/widgets/consultation/consultation.modal.tsx" xlink:title="consultation.modal.tsx">
<path fill="#bbfeff" stroke="black" d="M795.08,-1069.25C795.08,-1069.25 700.67,-1069.25 700.67,-1069.25 697.58,-1069.25 694.5,-1066.17 694.5,-1063.08 694.5,-1063.08 694.5,-1056.92 694.5,-1056.92 694.5,-1053.83 697.58,-1050.75 700.67,-1050.75 700.67,-1050.75 795.08,-1050.75 795.08,-1050.75 798.17,-1050.75 801.25,-1053.83 801.25,-1056.92 801.25,-1056.92 801.25,-1063.08 801.25,-1063.08 801.25,-1066.17 798.17,-1069.25 795.08,-1069.25"/>
<text text-anchor="start" x="702.5" y="-1056.7" font-family="Helvetica,sans-Serif" font-size="9.00">consultation.modal.tsx</text>
</a>
</g>
</g>
<!-- src/widgets/policy/index.ts -->
<g id="node21" class="node">
<title>src/widgets/policy/index.ts</title>
<g id="a_node21"><a xlink:href="src/widgets/policy/index.ts" xlink:title="index.ts">
<path fill="#ddfeff" stroke="black" d="M879.46,-1008.25C879.46,-1008.25 837.79,-1008.25 837.79,-1008.25 834.71,-1008.25 831.62,-1005.17 831.62,-1002.08 831.62,-1002.08 831.62,-995.92 831.62,-995.92 831.62,-992.83 834.71,-989.75 837.79,-989.75 837.79,-989.75 879.46,-989.75 879.46,-989.75 882.54,-989.75 885.62,-992.83 885.62,-995.92 885.62,-995.92 885.62,-1002.08 885.62,-1002.08 885.62,-1005.17 882.54,-1008.25 879.46,-1008.25"/>
<text text-anchor="start" x="842.88" y="-995.7" font-family="Helvetica,sans-Serif" font-size="9.00">index.ts</text>
</a>
</g>
</g>
<!-- src/widgets/consultation/consultation.modal.tsx&#45;&gt;src/widgets/policy/index.ts -->
<g id="edge11" class="edge">
<title>src/widgets/consultation/consultation.modal.tsx&#45;&gt;src/widgets/policy/index.ts</title>
<path fill="none" stroke="#000000" stroke-width="2" stroke-opacity="0.200000" d="M775.62,-1050.26C784.23,-1046.77 793.69,-1042.56 802,-1038 814.81,-1030.97 828.25,-1021.6 838.71,-1013.82"/>
<polygon fill="#000000" fill-opacity="0.200000" stroke="#000000" stroke-width="2" stroke-opacity="0.200000" points="839.83,-1015.61 843.34,-1010.31 837.29,-1012.26 839.83,-1015.61"/>
</g>
<!-- src/widgets/consultation/consultation.scss -->
<g id="node22" class="node">
<title>src/widgets/consultation/consultation.scss</title>
<g id="a_node22"><a xlink:href="src/widgets/consultation/consultation.scss" xlink:title="consultation.scss">
<path fill="#ffffcc" stroke="black" d="M895.33,-1076.25C895.33,-1076.25 821.92,-1076.25 821.92,-1076.25 818.83,-1076.25 815.75,-1073.17 815.75,-1070.08 815.75,-1070.08 815.75,-1063.92 815.75,-1063.92 815.75,-1060.83 818.83,-1057.75 821.92,-1057.75 821.92,-1057.75 895.33,-1057.75 895.33,-1057.75 898.42,-1057.75 901.5,-1060.83 901.5,-1063.92 901.5,-1063.92 901.5,-1070.08 901.5,-1070.08 901.5,-1073.17 898.42,-1076.25 895.33,-1076.25"/>
<text text-anchor="start" x="823.75" y="-1063.7" font-family="Helvetica,sans-Serif" font-size="9.00">consultation.scss</text>
</a>
</g>
</g>
<!-- src/widgets/consultation/consultation.modal.tsx&#45;&gt;src/widgets/consultation/consultation.scss -->
<g id="edge12" class="edge">
<title>src/widgets/consultation/consultation.modal.tsx&#45;&gt;src/widgets/consultation/consultation.scss</title>
<path fill="none" stroke="#000000" stroke-width="2" stroke-opacity="0.200000" d="M801.66,-1063.4C803.4,-1063.51 805.15,-1063.62 806.89,-1063.73"/>
<polygon fill="#000000" fill-opacity="0.200000" stroke="#000000" stroke-width="2" stroke-opacity="0.200000" points="806.39,-1065.81 812.51,-1064.1 806.66,-1061.61 806.39,-1065.81"/>
</g>
<!-- src/widgets/policy/policy.ui.tsx -->
<g id="node50" class="node">
<title>src/widgets/policy/policy.ui.tsx</title>
<g id="a_node50"><a xlink:href="src/widgets/policy/policy.ui.tsx" xlink:title="policy.ui.tsx">
<path fill="#bbfeff" stroke="black" d="M974.58,-1008.25C974.58,-1008.25 924.42,-1008.25 924.42,-1008.25 921.33,-1008.25 918.25,-1005.17 918.25,-1002.08 918.25,-1002.08 918.25,-995.92 918.25,-995.92 918.25,-992.83 921.33,-989.75 924.42,-989.75 924.42,-989.75 974.58,-989.75 974.58,-989.75 977.67,-989.75 980.75,-992.83 980.75,-995.92 980.75,-995.92 980.75,-1002.08 980.75,-1002.08 980.75,-1005.17 977.67,-1008.25 974.58,-1008.25"/>
<text text-anchor="start" x="926.25" y="-995.7" font-family="Helvetica,sans-Serif" font-size="9.00">policy.ui.tsx</text>
</a>
</g>
</g>
<!-- src/widgets/policy/index.ts&#45;&gt;src/widgets/policy/policy.ui.tsx -->
<g id="edge41" class="edge">
<title>src/widgets/policy/index.ts&#45;&gt;src/widgets/policy/policy.ui.tsx</title>
<path fill="none" stroke="#000000" stroke-width="2" stroke-opacity="0.200000" d="M885.81,-999C893.65,-999 902.41,-999 910.83,-999"/>
<polygon fill="#000000" fill-opacity="0.200000" stroke="#000000" stroke-width="2" stroke-opacity="0.200000" points="916.81,-1001.1 910.81,-999 916.81,-996.9 916.81,-1001.1"/>
</g>
<!-- src/widgets/consultation/consultation.ui.tsx -->
<g id="node23" class="node">
<title>src/widgets/consultation/consultation.ui.tsx</title>
<g id="a_node23"><a xlink:href="src/widgets/consultation/consultation.ui.tsx" xlink:title="consultation.ui.tsx">
<path fill="#bbfeff" stroke="black" d="M673.83,-1083.25C673.83,-1083.25 597.42,-1083.25 597.42,-1083.25 594.33,-1083.25 591.25,-1080.17 591.25,-1077.08 591.25,-1077.08 591.25,-1070.92 591.25,-1070.92 591.25,-1067.83 594.33,-1064.75 597.42,-1064.75 597.42,-1064.75 673.83,-1064.75 673.83,-1064.75 676.92,-1064.75 680,-1067.83 680,-1070.92 680,-1070.92 680,-1077.08 680,-1077.08 680,-1080.17 676.92,-1083.25 673.83,-1083.25"/>
<text text-anchor="start" x="599.25" y="-1070.7" font-family="Helvetica,sans-Serif" font-size="9.00">consultation.ui.tsx</text>
</a>
</g>
</g>
<!-- src/widgets/consultation/consultation.ui.tsx&#45;&gt;src/widgets/consultation/consultation.modal.tsx -->
<g id="edge13" class="edge">
<title>src/widgets/consultation/consultation.ui.tsx&#45;&gt;src/widgets/consultation/consultation.modal.tsx</title>
<path fill="none" stroke="#000000" stroke-width="2" stroke-opacity="0.200000" d="M680.2,-1068.47C681.91,-1068.25 683.65,-1068.03 685.38,-1067.81"/>
<polygon fill="#000000" fill-opacity="0.200000" stroke="#000000" stroke-width="2" stroke-opacity="0.200000" points="685.43,-1069.92 691.12,-1067.08 684.9,-1065.75 685.43,-1069.92"/>
</g>
<!-- src/widgets/consultation/consultation.ui.tsx&#45;&gt;src/widgets/consultation/consultation.scss -->
<g id="edge14" class="edge">
<title>src/widgets/consultation/consultation.ui.tsx&#45;&gt;src/widgets/consultation/consultation.scss</title>
<path fill="none" stroke="#000000" stroke-width="2" stroke-opacity="0.200000" d="M680.21,-1076.1C713.59,-1077.27 760.76,-1077.95 802,-1075 803.51,-1074.89 805.03,-1074.77 806.57,-1074.63"/>
<polygon fill="#000000" fill-opacity="0.200000" stroke="#000000" stroke-width="2" stroke-opacity="0.200000" points="806.71,-1076.73 812.47,-1074.02 806.28,-1072.55 806.71,-1076.73"/>
</g>
<!-- src/widgets/consultation/index.ts -->
<g id="node24" class="node">
<title>src/widgets/consultation/index.ts</title>
<g id="a_node24"><a xlink:href="src/widgets/consultation/index.ts" xlink:title="index.ts">
<path fill="#ddfeff" stroke="black" d="M544.08,-1076.25C544.08,-1076.25 502.42,-1076.25 502.42,-1076.25 499.33,-1076.25 496.25,-1073.17 496.25,-1070.08 496.25,-1070.08 496.25,-1063.92 496.25,-1063.92 496.25,-1060.83 499.33,-1057.75 502.42,-1057.75 502.42,-1057.75 544.08,-1057.75 544.08,-1057.75 547.17,-1057.75 550.25,-1060.83 550.25,-1063.92 550.25,-1063.92 550.25,-1070.08 550.25,-1070.08 550.25,-1073.17 547.17,-1076.25 544.08,-1076.25"/>
<text text-anchor="start" x="507.5" y="-1063.7" font-family="Helvetica,sans-Serif" font-size="9.00">index.ts</text>
</a>
</g>
</g>
<!-- src/widgets/consultation/index.ts&#45;&gt;src/widgets/consultation/consultation.modal.tsx -->
<g id="edge15" class="edge">
<title>src/widgets/consultation/index.ts&#45;&gt;src/widgets/consultation/consultation.modal.tsx</title>
<path fill="none" stroke="#000000" stroke-width="2" stroke-opacity="0.200000" d="M550.62,-1063.08C562.74,-1061.47 577.32,-1059.79 590.5,-1059 622.49,-1057.08 658.22,-1057.14 687.45,-1057.77"/>
<polygon fill="#000000" fill-opacity="0.200000" stroke="#000000" stroke-width="2" stroke-opacity="0.200000" points="693.3,-1060 687.35,-1057.76 693.4,-1055.8 693.3,-1060"/>
</g>
<!-- src/widgets/consultation/index.ts&#45;&gt;src/widgets/consultation/consultation.ui.tsx -->
<g id="edge16" class="edge">
<title>src/widgets/consultation/index.ts&#45;&gt;src/widgets/consultation/consultation.ui.tsx</title>
<path fill="none" stroke="#000000" stroke-width="2" stroke-opacity="0.200000" d="M550.69,-1068.68C560.72,-1069.31 572.52,-1070.06 584.04,-1070.79"/>
<polygon fill="#000000" fill-opacity="0.200000" stroke="#000000" stroke-width="2" stroke-opacity="0.200000" points="590.03,-1073.28 584.18,-1070.8 590.3,-1069.08 590.03,-1073.28"/>
</g>
<!-- src/widgets/contact/contact.scss -->
<g id="node25" class="node">
<title>src/widgets/contact/contact.scss</title>
<g id="a_node25"><a xlink:href="src/widgets/contact/contact.scss" xlink:title="contact.scss">
<path fill="#ffffcc" stroke="black" d="M549.83,-937.25C549.83,-937.25 496.67,-937.25 496.67,-937.25 493.58,-937.25 490.5,-934.17 490.5,-931.08 490.5,-931.08 490.5,-924.92 490.5,-924.92 490.5,-921.83 493.58,-918.75 496.67,-918.75 496.67,-918.75 549.83,-918.75 549.83,-918.75 552.92,-918.75 556,-921.83 556,-924.92 556,-924.92 556,-931.08 556,-931.08 556,-934.17 552.92,-937.25 549.83,-937.25"/>
<text text-anchor="start" x="498.5" y="-924.7" font-family="Helvetica,sans-Serif" font-size="9.00">contact.scss</text>
</a>
</g>
</g>
<!-- src/widgets/contact/contact.ui.tsx -->
<g id="node26" class="node">
<title>src/widgets/contact/contact.ui.tsx</title>
<g id="a_node26"><a xlink:href="src/widgets/contact/contact.ui.tsx" xlink:title="contact.ui.tsx">
<path fill="#bbfeff" stroke="black" d="M435.71,-937.25C435.71,-937.25 379.54,-937.25 379.54,-937.25 376.46,-937.25 373.38,-934.17 373.38,-931.08 373.38,-931.08 373.38,-924.92 373.38,-924.92 373.38,-921.83 376.46,-918.75 379.54,-918.75 379.54,-918.75 435.71,-918.75 435.71,-918.75 438.79,-918.75 441.88,-921.83 441.88,-924.92 441.88,-924.92 441.88,-931.08 441.88,-931.08 441.88,-934.17 438.79,-937.25 435.71,-937.25"/>
<text text-anchor="start" x="381.38" y="-924.7" font-family="Helvetica,sans-Serif" font-size="9.00">contact.ui.tsx</text>
</a>
</g>
</g>
<!-- src/widgets/contact/contact.ui.tsx&#45;&gt;src/widgets/contact/contact.scss -->
<g id="edge17" class="edge">
<title>src/widgets/contact/contact.ui.tsx&#45;&gt;src/widgets/contact/contact.scss</title>
<path fill="none" stroke="#000000" stroke-width="2" stroke-opacity="0.200000" d="M442.1,-928C454.44,-928 468.56,-928 481.47,-928"/>
<polygon fill="#000000" fill-opacity="0.200000" stroke="#000000" stroke-width="2" stroke-opacity="0.200000" points="481.16,-930.1 487.16,-928 481.16,-925.9 481.16,-930.1"/>
</g>
<!-- src/widgets/contact/index.ts -->
<g id="node27" class="node">
<title>src/widgets/contact/index.ts</title>
<g id="a_node27"><a xlink:href="src/widgets/contact/index.ts" xlink:title="index.ts">
<path fill="#ddfeff" stroke="black" d="M311.46,-937.25C311.46,-937.25 269.79,-937.25 269.79,-937.25 266.71,-937.25 263.62,-934.17 263.62,-931.08 263.62,-931.08 263.62,-924.92 263.62,-924.92 263.62,-921.83 266.71,-918.75 269.79,-918.75 269.79,-918.75 311.46,-918.75 311.46,-918.75 314.54,-918.75 317.62,-921.83 317.62,-924.92 317.62,-924.92 317.62,-931.08 317.62,-931.08 317.62,-934.17 314.54,-937.25 311.46,-937.25"/>
<text text-anchor="start" x="274.88" y="-924.7" font-family="Helvetica,sans-Serif" font-size="9.00">index.ts</text>
</a>
</g>
</g>
<!-- src/widgets/contact/index.ts&#45;&gt;src/widgets/contact/contact.ui.tsx -->
<g id="edge18" class="edge">
<title>src/widgets/contact/index.ts&#45;&gt;src/widgets/contact/contact.ui.tsx</title>
<path fill="none" stroke="#000000" stroke-width="2" stroke-opacity="0.200000" d="M318.01,-928C332.15,-928 349.9,-928 365.78,-928"/>
<polygon fill="#000000" fill-opacity="0.200000" stroke="#000000" stroke-width="2" stroke-opacity="0.200000" points="371.93,-930.1 365.93,-928 371.93,-925.9 371.93,-930.1"/>
</g>
<!-- src/widgets/documentation/documentation.scss -->
<g id="node28" class="node">
<title>src/widgets/documentation/documentation.scss</title>
<g id="a_node28"><a xlink:href="src/widgets/documentation/documentation.scss" xlink:title="documentation.scss">
<path fill="#ffffcc" stroke="black" d="M565.58,-998.25C565.58,-998.25 480.92,-998.25 480.92,-998.25 477.83,-998.25 474.75,-995.17 474.75,-992.08 474.75,-992.08 474.75,-985.92 474.75,-985.92 474.75,-982.83 477.83,-979.75 480.92,-979.75 480.92,-979.75 565.58,-979.75 565.58,-979.75 568.67,-979.75 571.75,-982.83 571.75,-985.92 571.75,-985.92 571.75,-992.08 571.75,-992.08 571.75,-995.17 568.67,-998.25 565.58,-998.25"/>
<text text-anchor="start" x="482.75" y="-985.7" font-family="Helvetica,sans-Serif" font-size="9.00">documentation.scss</text>
</a>
</g>
</g>
<!-- src/widgets/documentation/documentation.ui.tsx -->
<g id="node29" class="node">
<title>src/widgets/documentation/documentation.ui.tsx</title>
<g id="a_node29"><a xlink:href="src/widgets/documentation/documentation.ui.tsx" xlink:title="documentation.ui.tsx">
<path fill="#bbfeff" stroke="black" d="M451.46,-998.25C451.46,-998.25 363.79,-998.25 363.79,-998.25 360.71,-998.25 357.62,-995.17 357.62,-992.08 357.62,-992.08 357.62,-985.92 357.62,-985.92 357.62,-982.83 360.71,-979.75 363.79,-979.75 363.79,-979.75 451.46,-979.75 451.46,-979.75 454.54,-979.75 457.62,-982.83 457.62,-985.92 457.62,-985.92 457.62,-992.08 457.62,-992.08 457.62,-995.17 454.54,-998.25 451.46,-998.25"/>
<text text-anchor="start" x="365.62" y="-985.7" font-family="Helvetica,sans-Serif" font-size="9.00">documentation.ui.tsx</text>
</a>
</g>
</g>
<!-- src/widgets/documentation/documentation.ui.tsx&#45;&gt;src/widgets/documentation/documentation.scss -->
<g id="edge19" class="edge">
<title>src/widgets/documentation/documentation.ui.tsx&#45;&gt;src/widgets/documentation/documentation.scss</title>
<path fill="none" stroke="#000000" stroke-width="2" stroke-opacity="0.200000" d="M457.8,-989C460.39,-989 463,-989 465.6,-989"/>
<polygon fill="#000000" fill-opacity="0.200000" stroke="#000000" stroke-width="2" stroke-opacity="0.200000" points="465.41,-991.1 471.41,-989 465.41,-986.9 465.41,-991.1"/>
</g>
<!-- src/widgets/documentation/index.ts -->
<g id="node30" class="node">
<title>src/widgets/documentation/index.ts</title>
<g id="a_node30"><a xlink:href="src/widgets/documentation/index.ts" xlink:title="index.ts">
<path fill="#ddfeff" stroke="black" d="M311.46,-998.25C311.46,-998.25 269.79,-998.25 269.79,-998.25 266.71,-998.25 263.62,-995.17 263.62,-992.08 263.62,-992.08 263.62,-985.92 263.62,-985.92 263.62,-982.83 266.71,-979.75 269.79,-979.75 269.79,-979.75 311.46,-979.75 311.46,-979.75 314.54,-979.75 317.62,-982.83 317.62,-985.92 317.62,-985.92 317.62,-992.08 317.62,-992.08 317.62,-995.17 314.54,-998.25 311.46,-998.25"/>
<text text-anchor="start" x="274.88" y="-985.7" font-family="Helvetica,sans-Serif" font-size="9.00">index.ts</text>
</a>
</g>
</g>
<!-- src/widgets/documentation/index.ts&#45;&gt;src/widgets/documentation/documentation.ui.tsx -->
<g id="edge20" class="edge">
<title>src/widgets/documentation/index.ts&#45;&gt;src/widgets/documentation/documentation.ui.tsx</title>
<path fill="none" stroke="#000000" stroke-width="2" stroke-opacity="0.200000" d="M318.01,-989C327.67,-989 339.02,-989 350.3,-989"/>
<polygon fill="#000000" fill-opacity="0.200000" stroke="#000000" stroke-width="2" stroke-opacity="0.200000" points="356.3,-991.1 350.3,-989 356.3,-986.9 356.3,-991.1"/>
</g>
<!-- src/widgets/faq/faq.scss -->
<g id="node31" class="node">
<title>src/widgets/faq/faq.scss</title>
<g id="a_node31"><a xlink:href="src/widgets/faq/faq.scss" xlink:title="faq.scss">
<path fill="#ffffcc" stroke="black" d="M311.46,-744.25C311.46,-744.25 269.79,-744.25 269.79,-744.25 266.71,-744.25 263.62,-741.17 263.62,-738.08 263.62,-738.08 263.62,-731.92 263.62,-731.92 263.62,-728.83 266.71,-725.75 269.79,-725.75 269.79,-725.75 311.46,-725.75 311.46,-725.75 314.54,-725.75 317.62,-728.83 317.62,-731.92 317.62,-731.92 317.62,-738.08 317.62,-738.08 317.62,-741.17 314.54,-744.25 311.46,-744.25"/>
<text text-anchor="start" x="274.12" y="-731.7" font-family="Helvetica,sans-Serif" font-size="9.00">faq.scss</text>
</a>
</g>
</g>
<!-- src/widgets/faq/faq.ui.tsx -->
<g id="node32" class="node">
<title>src/widgets/faq/faq.ui.tsx</title>
<g id="a_node32"><a xlink:href="src/widgets/faq/faq.ui.tsx" xlink:title="faq.ui.tsx">
<path fill="#bbfeff" stroke="black" d="M198.21,-744.25C198.21,-744.25 156.54,-744.25 156.54,-744.25 153.46,-744.25 150.38,-741.17 150.38,-738.08 150.38,-738.08 150.38,-731.92 150.38,-731.92 150.38,-728.83 153.46,-725.75 156.54,-725.75 156.54,-725.75 198.21,-725.75 198.21,-725.75 201.29,-725.75 204.38,-728.83 204.38,-731.92 204.38,-731.92 204.38,-738.08 204.38,-738.08 204.38,-741.17 201.29,-744.25 198.21,-744.25"/>
<text text-anchor="start" x="159.38" y="-731.7" font-family="Helvetica,sans-Serif" font-size="9.00">faq.ui.tsx</text>
</a>
</g>
</g>
<!-- src/widgets/faq/faq.ui.tsx&#45;&gt;src/widgets/faq/faq.scss -->
<g id="edge21" class="edge">
<title>src/widgets/faq/faq.ui.tsx&#45;&gt;src/widgets/faq/faq.scss</title>
<path fill="none" stroke="#000000" stroke-width="2" stroke-opacity="0.200000" d="M204.74,-735C219.7,-735 238.62,-735 254.79,-735"/>
<polygon fill="#000000" fill-opacity="0.200000" stroke="#000000" stroke-width="2" stroke-opacity="0.200000" points="254.42,-737.1 260.42,-735 254.42,-732.9 254.42,-737.1"/>
</g>
<!-- src/widgets/faq/index.ts -->
<g id="node33" class="node">
<title>src/widgets/faq/index.ts</title>
<g id="a_node33"><a xlink:href="src/widgets/faq/index.ts" xlink:title="index.ts">
<path fill="#ddfeff" stroke="black" d="M93.46,-744.25C93.46,-744.25 51.79,-744.25 51.79,-744.25 48.71,-744.25 45.62,-741.17 45.62,-738.08 45.62,-738.08 45.62,-731.92 45.62,-731.92 45.62,-728.83 48.71,-725.75 51.79,-725.75 51.79,-725.75 93.46,-725.75 93.46,-725.75 96.54,-725.75 99.62,-728.83 99.62,-731.92 99.62,-731.92 99.62,-738.08 99.62,-738.08 99.62,-741.17 96.54,-744.25 93.46,-744.25"/>
<text text-anchor="start" x="56.88" y="-731.7" font-family="Helvetica,sans-Serif" font-size="9.00">index.ts</text>
</a>
</g>
</g>
<!-- src/widgets/faq/index.ts&#45;&gt;src/widgets/faq/faq.ui.tsx -->
<g id="edge22" class="edge">
<title>src/widgets/faq/index.ts&#45;&gt;src/widgets/faq/faq.ui.tsx</title>
<path fill="none" stroke="#000000" stroke-width="2" stroke-opacity="0.200000" d="M100.09,-735C113.15,-735 129.05,-735 142.95,-735"/>
<polygon fill="#000000" fill-opacity="0.200000" stroke="#000000" stroke-width="2" stroke-opacity="0.200000" points="149,-737.1 143,-735 149,-732.9 149,-737.1"/>
</g>
<!-- src/widgets/footer/footer.scss -->
<g id="node34" class="node">
<title>src/widgets/footer/footer.scss</title>
<g id="a_node34"><a xlink:href="src/widgets/footer/footer.scss" xlink:title="footer.scss">
<path fill="#ffffcc" stroke="black" d="M313.83,-876.25C313.83,-876.25 267.42,-876.25 267.42,-876.25 264.33,-876.25 261.25,-873.17 261.25,-870.08 261.25,-870.08 261.25,-863.92 261.25,-863.92 261.25,-860.83 264.33,-857.75 267.42,-857.75 267.42,-857.75 313.83,-857.75 313.83,-857.75 316.92,-857.75 320,-860.83 320,-863.92 320,-863.92 320,-870.08 320,-870.08 320,-873.17 316.92,-876.25 313.83,-876.25"/>
<text text-anchor="start" x="269.25" y="-863.7" font-family="Helvetica,sans-Serif" font-size="9.00">footer.scss</text>
</a>
</g>
</g>
<!-- src/widgets/footer/footer.ui.tsx -->
<g id="node35" class="node">
<title>src/widgets/footer/footer.ui.tsx</title>
<g id="a_node35"><a xlink:href="src/widgets/footer/footer.ui.tsx" xlink:title="footer.ui.tsx">
<path fill="#bbfeff" stroke="black" d="M202.08,-876.25C202.08,-876.25 152.67,-876.25 152.67,-876.25 149.58,-876.25 146.5,-873.17 146.5,-870.08 146.5,-870.08 146.5,-863.92 146.5,-863.92 146.5,-860.83 149.58,-857.75 152.67,-857.75 152.67,-857.75 202.08,-857.75 202.08,-857.75 205.17,-857.75 208.25,-860.83 208.25,-863.92 208.25,-863.92 208.25,-870.08 208.25,-870.08 208.25,-873.17 205.17,-876.25 202.08,-876.25"/>
<text text-anchor="start" x="154.5" y="-863.7" font-family="Helvetica,sans-Serif" font-size="9.00">footer.ui.tsx</text>
</a>
</g>
</g>
<!-- src/widgets/footer/footer.ui.tsx&#45;&gt;src/widgets/policy/index.ts -->
<g id="edge25" class="edge">
<title>src/widgets/footer/footer.ui.tsx&#45;&gt;src/widgets/policy/index.ts</title>
<path fill="none" stroke="#000000" stroke-width="2" stroke-opacity="0.200000" d="M183.27,-857.52C193.06,-839.68 216.98,-801.52 249.62,-786 281.16,-771.01 371.71,-780 406.62,-780 406.62,-780 406.62,-780 636.62,-780 750.75,-780 827.03,-929.17 850.2,-981.28"/>
<polygon fill="#000000" fill-opacity="0.200000" stroke="#000000" stroke-width="2" stroke-opacity="0.200000" points="848.16,-981.86 852.47,-986.53 852.01,-980.19 848.16,-981.86"/>
</g>
<!-- src/widgets/footer/footer.ui.tsx&#45;&gt;src/widgets/contact/index.ts -->
<g id="edge23" class="edge">
<title>src/widgets/footer/footer.ui.tsx&#45;&gt;src/widgets/contact/index.ts</title>
<path fill="none" stroke="#000000" stroke-width="2" stroke-opacity="0.200000" d="M195.76,-876.53C214.1,-886.59 243.2,-902.54 264.13,-914.02"/>
<polygon fill="#000000" fill-opacity="0.200000" stroke="#000000" stroke-width="2" stroke-opacity="0.200000" points="263.07,-915.84 269.34,-916.88 265.09,-912.15 263.07,-915.84"/>
</g>
<!-- src/widgets/footer/footer.ui.tsx&#45;&gt;src/widgets/documentation/index.ts -->
<g id="edge24" class="edge">
<title>src/widgets/footer/footer.ui.tsx&#45;&gt;src/widgets/documentation/index.ts</title>
<path fill="none" stroke="#000000" stroke-width="2" stroke-opacity="0.200000" d="M183.29,-876.62C193.49,-895.81 218.57,-939.36 249.62,-967 252.86,-969.88 256.53,-972.53 260.31,-974.92"/>
<polygon fill="#000000" fill-opacity="0.200000" stroke="#000000" stroke-width="2" stroke-opacity="0.200000" points="259.25,-976.73 265.5,-977.93 261.36,-973.1 259.25,-976.73"/>
</g>
<!-- src/widgets/footer/footer.ui.tsx&#45;&gt;src/widgets/footer/footer.scss -->
<g id="edge27" class="edge">
<title>src/widgets/footer/footer.ui.tsx&#45;&gt;src/widgets/footer/footer.scss</title>
<path fill="none" stroke="#000000" stroke-width="2" stroke-opacity="0.200000" d="M208.48,-867C221.89,-867 237.82,-867 252.01,-867"/>
<polygon fill="#000000" fill-opacity="0.200000" stroke="#000000" stroke-width="2" stroke-opacity="0.200000" points="252,-869.1 258,-867 252,-864.9 252,-869.1"/>
</g>
<!-- src/widgets/vacancy/index.ts -->
<g id="node36" class="node">
<title>src/widgets/vacancy/index.ts</title>
<g id="a_node36"><a xlink:href="src/widgets/vacancy/index.ts" xlink:title="index.ts">
<path fill="#ddfeff" stroke="black" d="M311.46,-815.25C311.46,-815.25 269.79,-815.25 269.79,-815.25 266.71,-815.25 263.62,-812.17 263.62,-809.08 263.62,-809.08 263.62,-802.92 263.62,-802.92 263.62,-799.83 266.71,-796.75 269.79,-796.75 269.79,-796.75 311.46,-796.75 311.46,-796.75 314.54,-796.75 317.62,-799.83 317.62,-802.92 317.62,-802.92 317.62,-809.08 317.62,-809.08 317.62,-812.17 314.54,-815.25 311.46,-815.25"/>
<text text-anchor="start" x="274.88" y="-802.7" font-family="Helvetica,sans-Serif" font-size="9.00">index.ts</text>
</a>
</g>
</g>
<!-- src/widgets/footer/footer.ui.tsx&#45;&gt;src/widgets/vacancy/index.ts -->
<g id="edge26" class="edge">
<title>src/widgets/footer/footer.ui.tsx&#45;&gt;src/widgets/vacancy/index.ts</title>
<path fill="none" stroke="#000000" stroke-width="2" stroke-opacity="0.200000" d="M195.76,-857.47C214.1,-847.41 243.2,-831.46 264.13,-819.98"/>
<polygon fill="#000000" fill-opacity="0.200000" stroke="#000000" stroke-width="2" stroke-opacity="0.200000" points="265.09,-821.85 269.34,-817.12 263.07,-818.16 265.09,-821.85"/>
</g>
<!-- src/widgets/vacancy/vacancy.ui.tsx -->
<g id="node56" class="node">
<title>src/widgets/vacancy/vacancy.ui.tsx</title>
<g id="a_node56"><a xlink:href="src/widgets/vacancy/vacancy.ui.tsx" xlink:title="vacancy.ui.tsx">
<path fill="#bbfeff" stroke="black" d="M437.58,-815.25C437.58,-815.25 377.67,-815.25 377.67,-815.25 374.58,-815.25 371.5,-812.17 371.5,-809.08 371.5,-809.08 371.5,-802.92 371.5,-802.92 371.5,-799.83 374.58,-796.75 377.67,-796.75 377.67,-796.75 437.58,-796.75 437.58,-796.75 440.67,-796.75 443.75,-799.83 443.75,-802.92 443.75,-802.92 443.75,-809.08 443.75,-809.08 443.75,-812.17 440.67,-815.25 437.58,-815.25"/>
<text text-anchor="start" x="379.5" y="-802.7" font-family="Helvetica,sans-Serif" font-size="9.00">vacancy.ui.tsx</text>
</a>
</g>
</g>
<!-- src/widgets/vacancy/index.ts&#45;&gt;src/widgets/vacancy/vacancy.ui.tsx -->
<g id="edge49" class="edge">
<title>src/widgets/vacancy/index.ts&#45;&gt;src/widgets/vacancy/vacancy.ui.tsx</title>
<path fill="none" stroke="#000000" stroke-width="2" stroke-opacity="0.200000" d="M318.01,-806C331.69,-806 348.75,-806 364.23,-806"/>
<polygon fill="#000000" fill-opacity="0.200000" stroke="#000000" stroke-width="2" stroke-opacity="0.200000" points="370.21,-808.1 364.21,-806 370.21,-803.9 370.21,-808.1"/>
</g>
<!-- src/widgets/footer/index.ts -->
<g id="node37" class="node">
<title>src/widgets/footer/index.ts</title>
<g id="a_node37"><a xlink:href="src/widgets/footer/index.ts" xlink:title="index.ts">
<path fill="#ddfeff" stroke="black" d="M93.46,-876.25C93.46,-876.25 51.79,-876.25 51.79,-876.25 48.71,-876.25 45.62,-873.17 45.62,-870.08 45.62,-870.08 45.62,-863.92 45.62,-863.92 45.62,-860.83 48.71,-857.75 51.79,-857.75 51.79,-857.75 93.46,-857.75 93.46,-857.75 96.54,-857.75 99.62,-860.83 99.62,-863.92 99.62,-863.92 99.62,-870.08 99.62,-870.08 99.62,-873.17 96.54,-876.25 93.46,-876.25"/>
<text text-anchor="start" x="56.88" y="-863.7" font-family="Helvetica,sans-Serif" font-size="9.00">index.ts</text>
</a>
</g>
</g>
<!-- src/widgets/footer/index.ts&#45;&gt;src/widgets/footer/footer.ui.tsx -->
<g id="edge28" class="edge">
<title>src/widgets/footer/index.ts&#45;&gt;src/widgets/footer/footer.ui.tsx</title>
<path fill="none" stroke="#000000" stroke-width="2" stroke-opacity="0.200000" d="M100.09,-867C111.93,-867 126.1,-867 138.99,-867"/>
<polygon fill="#000000" fill-opacity="0.200000" stroke="#000000" stroke-width="2" stroke-opacity="0.200000" points="145,-869.1 139,-867 145,-864.9 145,-869.1"/>
</g>
<!-- src/widgets/header/header.scss -->
<g id="node38" class="node">
<title>src/widgets/header/header.scss</title>
<g id="a_node38"><a xlink:href="src/widgets/header/header.scss" xlink:title="header.scss">
<path fill="#ffffcc" stroke="black" d="M316.83,-1059.25C316.83,-1059.25 264.42,-1059.25 264.42,-1059.25 261.33,-1059.25 258.25,-1056.17 258.25,-1053.08 258.25,-1053.08 258.25,-1046.92 258.25,-1046.92 258.25,-1043.83 261.33,-1040.75 264.42,-1040.75 264.42,-1040.75 316.83,-1040.75 316.83,-1040.75 319.92,-1040.75 323,-1043.83 323,-1046.92 323,-1046.92 323,-1053.08 323,-1053.08 323,-1056.17 319.92,-1059.25 316.83,-1059.25"/>
<text text-anchor="start" x="266.25" y="-1046.7" font-family="Helvetica,sans-Serif" font-size="9.00">header.scss</text>
</a>
</g>
</g>
<!-- src/widgets/header/header.ui.tsx -->
<g id="node39" class="node">
<title>src/widgets/header/header.ui.tsx</title>
<g id="a_node39"><a xlink:href="src/widgets/header/header.ui.tsx" xlink:title="header.ui.tsx">
<path fill="#bbfeff" stroke="black" d="M205.08,-1059.25C205.08,-1059.25 149.67,-1059.25 149.67,-1059.25 146.58,-1059.25 143.5,-1056.17 143.5,-1053.08 143.5,-1053.08 143.5,-1046.92 143.5,-1046.92 143.5,-1043.83 146.58,-1040.75 149.67,-1040.75 149.67,-1040.75 205.08,-1040.75 205.08,-1040.75 208.17,-1040.75 211.25,-1043.83 211.25,-1046.92 211.25,-1046.92 211.25,-1053.08 211.25,-1053.08 211.25,-1056.17 208.17,-1059.25 205.08,-1059.25"/>
<text text-anchor="start" x="151.5" y="-1046.7" font-family="Helvetica,sans-Serif" font-size="9.00">header.ui.tsx</text>
</a>
</g>
</g>
<!-- src/widgets/header/header.ui.tsx&#45;&gt;src/widgets/contact/index.ts -->
<g id="edge29" class="edge">
<title>src/widgets/header/header.ui.tsx&#45;&gt;src/widgets/contact/index.ts</title>
<path fill="none" stroke="#000000" stroke-width="2" stroke-opacity="0.200000" d="M186.55,-1040.38C199.64,-1025.06 226.2,-994.28 249.62,-969 257.39,-960.62 266.23,-951.51 273.63,-944.01"/>
<polygon fill="#000000" fill-opacity="0.200000" stroke="#000000" stroke-width="2" stroke-opacity="0.200000" points="275.08,-945.53 277.81,-939.79 272.1,-942.57 275.08,-945.53"/>
</g>
<!-- src/widgets/header/header.ui.tsx&#45;&gt;src/widgets/documentation/index.ts -->
<g id="edge30" class="edge">
<title>src/widgets/header/header.ui.tsx&#45;&gt;src/widgets/documentation/index.ts</title>
<path fill="none" stroke="#000000" stroke-width="2" stroke-opacity="0.200000" d="M195.76,-1040.47C214.1,-1030.41 243.2,-1014.46 264.13,-1002.98"/>
<polygon fill="#000000" fill-opacity="0.200000" stroke="#000000" stroke-width="2" stroke-opacity="0.200000" points="265.09,-1004.85 269.34,-1000.12 263.07,-1001.16 265.09,-1004.85"/>
</g>
<!-- src/widgets/header/header.ui.tsx&#45;&gt;src/widgets/header/header.scss -->
<g id="edge31" class="edge">
<title>src/widgets/header/header.ui.tsx&#45;&gt;src/widgets/header/header.scss</title>
<path fill="none" stroke="#000000" stroke-width="2" stroke-opacity="0.200000" d="M211.45,-1050C223.31,-1050 236.81,-1050 249.21,-1050"/>
<polygon fill="#000000" fill-opacity="0.200000" stroke="#000000" stroke-width="2" stroke-opacity="0.200000" points="248.98,-1052.1 254.98,-1050 248.98,-1047.9 248.98,-1052.1"/>
</g>
<!-- src/widgets/header/index.ts -->
<g id="node40" class="node">
<title>src/widgets/header/index.ts</title>
<g id="a_node40"><a xlink:href="src/widgets/header/index.ts" xlink:title="index.ts">
<path fill="#ddfeff" stroke="black" d="M93.46,-1059.25C93.46,-1059.25 51.79,-1059.25 51.79,-1059.25 48.71,-1059.25 45.62,-1056.17 45.62,-1053.08 45.62,-1053.08 45.62,-1046.92 45.62,-1046.92 45.62,-1043.83 48.71,-1040.75 51.79,-1040.75 51.79,-1040.75 93.46,-1040.75 93.46,-1040.75 96.54,-1040.75 99.62,-1043.83 99.62,-1046.92 99.62,-1046.92 99.62,-1053.08 99.62,-1053.08 99.62,-1056.17 96.54,-1059.25 93.46,-1059.25"/>
<text text-anchor="start" x="56.88" y="-1046.7" font-family="Helvetica,sans-Serif" font-size="9.00">index.ts</text>
</a>
</g>
</g>
<!-- src/widgets/header/index.ts&#45;&gt;src/widgets/header/header.ui.tsx -->
<g id="edge32" class="edge">
<title>src/widgets/header/index.ts&#45;&gt;src/widgets/header/header.ui.tsx</title>
<path fill="none" stroke="#000000" stroke-width="2" stroke-opacity="0.200000" d="M100.09,-1050C111.02,-1050 123.94,-1050 136.01,-1050"/>
<polygon fill="#000000" fill-opacity="0.200000" stroke="#000000" stroke-width="2" stroke-opacity="0.200000" points="142,-1052.1 136,-1050 142,-1047.9 142,-1052.1"/>
</g>
<!-- src/widgets/hero/hero.scss -->
<g id="node41" class="node">
<title>src/widgets/hero/hero.scss</title>
<g id="a_node41"><a xlink:href="src/widgets/hero/hero.scss" xlink:title="hero.scss">
<path fill="#ffffcc" stroke="black" d="M544.58,-1144.25C544.58,-1144.25 501.92,-1144.25 501.92,-1144.25 498.83,-1144.25 495.75,-1141.17 495.75,-1138.08 495.75,-1138.08 495.75,-1131.92 495.75,-1131.92 495.75,-1128.83 498.83,-1125.75 501.92,-1125.75 501.92,-1125.75 544.58,-1125.75 544.58,-1125.75 547.67,-1125.75 550.75,-1128.83 550.75,-1131.92 550.75,-1131.92 550.75,-1138.08 550.75,-1138.08 550.75,-1141.17 547.67,-1144.25 544.58,-1144.25"/>
<text text-anchor="start" x="503.75" y="-1131.7" font-family="Helvetica,sans-Serif" font-size="9.00">hero.scss</text>
</a>
</g>
</g>
<!-- src/widgets/hero/hero.ui.tsx -->
<g id="node42" class="node">
<title>src/widgets/hero/hero.ui.tsx</title>
<g id="a_node42"><a xlink:href="src/widgets/hero/hero.ui.tsx" xlink:title="hero.ui.tsx">
<path fill="#bbfeff" stroke="black" d="M430.46,-1144.25C430.46,-1144.25 384.79,-1144.25 384.79,-1144.25 381.71,-1144.25 378.62,-1141.17 378.62,-1138.08 378.62,-1138.08 378.62,-1131.92 378.62,-1131.92 378.62,-1128.83 381.71,-1125.75 384.79,-1125.75 384.79,-1125.75 430.46,-1125.75 430.46,-1125.75 433.54,-1125.75 436.62,-1128.83 436.62,-1131.92 436.62,-1131.92 436.62,-1138.08 436.62,-1138.08 436.62,-1141.17 433.54,-1144.25 430.46,-1144.25"/>
<text text-anchor="start" x="386.62" y="-1131.7" font-family="Helvetica,sans-Serif" font-size="9.00">hero.ui.tsx</text>
</a>
</g>
</g>
<!-- src/widgets/hero/hero.ui.tsx&#45;&gt;src/widgets/policy/index.ts -->
<g id="edge34" class="edge">
<title>src/widgets/hero/hero.ui.tsx&#45;&gt;src/widgets/policy/index.ts</title>
<path fill="none" stroke="#000000" stroke-width="2" stroke-opacity="0.200000" d="M412.12,-1125.4C419.89,-1105.56 440.69,-1060.17 474.75,-1040 475.69,-1039.45 728.03,-1012.71 822.49,-1002.72"/>
<polygon fill="#000000" fill-opacity="0.200000" stroke="#000000" stroke-width="2" stroke-opacity="0.200000" points="822.63,-1004.81 828.37,-1002.09 822.18,-1000.64 822.63,-1004.81"/>
</g>
<!-- src/widgets/hero/hero.ui.tsx&#45;&gt;src/widgets/consultation/index.ts -->
<g id="edge33" class="edge">
<title>src/widgets/hero/hero.ui.tsx&#45;&gt;src/widgets/consultation/index.ts</title>
<path fill="none" stroke="#000000" stroke-width="2" stroke-opacity="0.200000" d="M424.9,-1125.26C444.14,-1113.74 476.32,-1094.49 498.37,-1081.29"/>
<polygon fill="#000000" fill-opacity="0.200000" stroke="#000000" stroke-width="2" stroke-opacity="0.200000" points="499.33,-1083.16 503.4,-1078.28 497.18,-1079.56 499.33,-1083.16"/>
</g>
<!-- src/widgets/hero/hero.ui.tsx&#45;&gt;src/widgets/hero/hero.scss -->
<g id="edge35" class="edge">
<title>src/widgets/hero/hero.ui.tsx&#45;&gt;src/widgets/hero/hero.scss</title>
<path fill="none" stroke="#000000" stroke-width="2" stroke-opacity="0.200000" d="M437,-1135C452.09,-1135 470.78,-1135 486.81,-1135"/>
<polygon fill="#000000" fill-opacity="0.200000" stroke="#000000" stroke-width="2" stroke-opacity="0.200000" points="486.38,-1137.1 492.38,-1135 486.38,-1132.9 486.38,-1137.1"/>
</g>
<!-- src/widgets/hero/index.ts -->
<g id="node43" class="node">
<title>src/widgets/hero/index.ts</title>
<g id="a_node43"><a xlink:href="src/widgets/hero/index.ts" xlink:title="index.ts">
<path fill="#ddfeff" stroke="black" d="M311.46,-1144.25C311.46,-1144.25 269.79,-1144.25 269.79,-1144.25 266.71,-1144.25 263.62,-1141.17 263.62,-1138.08 263.62,-1138.08 263.62,-1131.92 263.62,-1131.92 263.62,-1128.83 266.71,-1125.75 269.79,-1125.75 269.79,-1125.75 311.46,-1125.75 311.46,-1125.75 314.54,-1125.75 317.62,-1128.83 317.62,-1131.92 317.62,-1131.92 317.62,-1138.08 317.62,-1138.08 317.62,-1141.17 314.54,-1144.25 311.46,-1144.25"/>
<text text-anchor="start" x="274.88" y="-1131.7" font-family="Helvetica,sans-Serif" font-size="9.00">index.ts</text>
</a>
</g>
</g>
<!-- src/widgets/hero/index.ts&#45;&gt;src/widgets/hero/hero.ui.tsx -->
<g id="edge36" class="edge">
<title>src/widgets/hero/index.ts&#45;&gt;src/widgets/hero/hero.ui.tsx</title>
<path fill="none" stroke="#000000" stroke-width="2" stroke-opacity="0.200000" d="M318.01,-1135C333.79,-1135 354.05,-1135 371.21,-1135"/>
<polygon fill="#000000" fill-opacity="0.200000" stroke="#000000" stroke-width="2" stroke-opacity="0.200000" points="377.35,-1137.1 371.35,-1135 377.35,-1132.9 377.35,-1137.1"/>
</g>
<!-- src/widgets/information/index.ts -->
<g id="node44" class="node">
<title>src/widgets/information/index.ts</title>
<g id="a_node44"><a xlink:href="src/widgets/information/index.ts" xlink:title="index.ts">
<path fill="#ddfeff" stroke="black" d="M93.46,-1205.25C93.46,-1205.25 51.79,-1205.25 51.79,-1205.25 48.71,-1205.25 45.62,-1202.17 45.62,-1199.08 45.62,-1199.08 45.62,-1192.92 45.62,-1192.92 45.62,-1189.83 48.71,-1186.75 51.79,-1186.75 51.79,-1186.75 93.46,-1186.75 93.46,-1186.75 96.54,-1186.75 99.62,-1189.83 99.62,-1192.92 99.62,-1192.92 99.62,-1199.08 99.62,-1199.08 99.62,-1202.17 96.54,-1205.25 93.46,-1205.25"/>
<text text-anchor="start" x="56.88" y="-1192.7" font-family="Helvetica,sans-Serif" font-size="9.00">index.ts</text>
</a>
</g>
</g>
<!-- src/widgets/information/information.ui.tsx -->
<g id="node45" class="node">
<title>src/widgets/information/information.ui.tsx</title>
<g id="a_node45"><a xlink:href="src/widgets/information/information.ui.tsx" xlink:title="information.ui.tsx">
<path fill="#bbfeff" stroke="black" d="M213.71,-1205.25C213.71,-1205.25 141.04,-1205.25 141.04,-1205.25 137.96,-1205.25 134.88,-1202.17 134.88,-1199.08 134.88,-1199.08 134.88,-1192.92 134.88,-1192.92 134.88,-1189.83 137.96,-1186.75 141.04,-1186.75 141.04,-1186.75 213.71,-1186.75 213.71,-1186.75 216.79,-1186.75 219.88,-1189.83 219.88,-1192.92 219.88,-1192.92 219.88,-1199.08 219.88,-1199.08 219.88,-1202.17 216.79,-1205.25 213.71,-1205.25"/>
<text text-anchor="start" x="142.88" y="-1192.7" font-family="Helvetica,sans-Serif" font-size="9.00">information.ui.tsx</text>
</a>
</g>
</g>
<!-- src/widgets/information/index.ts&#45;&gt;src/widgets/information/information.ui.tsx -->
<g id="edge37" class="edge">
<title>src/widgets/information/index.ts&#45;&gt;src/widgets/information/information.ui.tsx</title>
<path fill="none" stroke="#000000" stroke-width="2" stroke-opacity="0.200000" d="M100.09,-1196C108.43,-1196 117.92,-1196 127.31,-1196"/>
<polygon fill="#000000" fill-opacity="0.200000" stroke="#000000" stroke-width="2" stroke-opacity="0.200000" points="133.45,-1198.1 127.45,-1196 133.45,-1193.9 133.45,-1198.1"/>
</g>
<!-- src/widgets/information/information.scss -->
<g id="node46" class="node">
<title>src/widgets/information/information.scss</title>
<g id="a_node46"><a xlink:href="src/widgets/information/information.scss" xlink:title="information.scss">
<path fill="#ffffcc" stroke="black" d="M325.46,-1205.25C325.46,-1205.25 255.79,-1205.25 255.79,-1205.25 252.71,-1205.25 249.62,-1202.17 249.62,-1199.08 249.62,-1199.08 249.62,-1192.92 249.62,-1192.92 249.62,-1189.83 252.71,-1186.75 255.79,-1186.75 255.79,-1186.75 325.46,-1186.75 325.46,-1186.75 328.54,-1186.75 331.62,-1189.83 331.62,-1192.92 331.62,-1192.92 331.62,-1199.08 331.62,-1199.08 331.62,-1202.17 328.54,-1205.25 325.46,-1205.25"/>
<text text-anchor="start" x="257.62" y="-1192.7" font-family="Helvetica,sans-Serif" font-size="9.00">information.scss</text>
</a>
</g>
</g>
<!-- src/widgets/information/information.ui.tsx&#45;&gt;src/widgets/information/information.scss -->
<g id="edge38" class="edge">
<title>src/widgets/information/information.ui.tsx&#45;&gt;src/widgets/information/information.scss</title>
<path fill="none" stroke="#000000" stroke-width="2" stroke-opacity="0.200000" d="M220.12,-1196C226.64,-1196 233.44,-1196 240.13,-1196"/>
<polygon fill="#000000" fill-opacity="0.200000" stroke="#000000" stroke-width="2" stroke-opacity="0.200000" points="240.1,-1198.1 246.1,-1196 240.1,-1193.9 240.1,-1198.1"/>
</g>
<!-- src/widgets/nuaces/index.ts -->
<g id="node47" class="node">
<title>src/widgets/nuaces/index.ts</title>
<g id="a_node47"><a xlink:href="src/widgets/nuaces/index.ts" xlink:title="index.ts">
<path fill="#ddfeff" stroke="black" d="M93.46,-1266.25C93.46,-1266.25 51.79,-1266.25 51.79,-1266.25 48.71,-1266.25 45.62,-1263.17 45.62,-1260.08 45.62,-1260.08 45.62,-1253.92 45.62,-1253.92 45.62,-1250.83 48.71,-1247.75 51.79,-1247.75 51.79,-1247.75 93.46,-1247.75 93.46,-1247.75 96.54,-1247.75 99.62,-1250.83 99.62,-1253.92 99.62,-1253.92 99.62,-1260.08 99.62,-1260.08 99.62,-1263.17 96.54,-1266.25 93.46,-1266.25"/>
<text text-anchor="start" x="56.88" y="-1253.7" font-family="Helvetica,sans-Serif" font-size="9.00">index.ts</text>
</a>
</g>
</g>
<!-- src/widgets/nuaces/nuaces.ui.tsx -->
<g id="node48" class="node">
<title>src/widgets/nuaces/nuaces.ui.tsx</title>
<g id="a_node48"><a xlink:href="src/widgets/nuaces/nuaces.ui.tsx" xlink:title="nuaces.ui.tsx">
<path fill="#bbfeff" stroke="black" d="M205.83,-1266.25C205.83,-1266.25 148.92,-1266.25 148.92,-1266.25 145.83,-1266.25 142.75,-1263.17 142.75,-1260.08 142.75,-1260.08 142.75,-1253.92 142.75,-1253.92 142.75,-1250.83 145.83,-1247.75 148.92,-1247.75 148.92,-1247.75 205.83,-1247.75 205.83,-1247.75 208.92,-1247.75 212,-1250.83 212,-1253.92 212,-1253.92 212,-1260.08 212,-1260.08 212,-1263.17 208.92,-1266.25 205.83,-1266.25"/>
<text text-anchor="start" x="150.75" y="-1253.7" font-family="Helvetica,sans-Serif" font-size="9.00">nuaces.ui.tsx</text>
</a>
</g>
</g>
<!-- src/widgets/nuaces/index.ts&#45;&gt;src/widgets/nuaces/nuaces.ui.tsx -->
<g id="edge39" class="edge">
<title>src/widgets/nuaces/index.ts&#45;&gt;src/widgets/nuaces/nuaces.ui.tsx</title>
<path fill="none" stroke="#000000" stroke-width="2" stroke-opacity="0.200000" d="M100.09,-1257C110.92,-1257 123.71,-1257 135.68,-1257"/>
<polygon fill="#000000" fill-opacity="0.200000" stroke="#000000" stroke-width="2" stroke-opacity="0.200000" points="141.62,-1259.1 135.62,-1257 141.62,-1254.9 141.62,-1259.1"/>
</g>
<!-- src/widgets/nuaces/nuaces.scss -->
<g id="node49" class="node">
<title>src/widgets/nuaces/nuaces.scss</title>
<g id="a_node49"><a xlink:href="src/widgets/nuaces/nuaces.scss" xlink:title="nuaces.scss">
<path fill="#ffffcc" stroke="black" d="M317.58,-1266.25C317.58,-1266.25 263.67,-1266.25 263.67,-1266.25 260.58,-1266.25 257.5,-1263.17 257.5,-1260.08 257.5,-1260.08 257.5,-1253.92 257.5,-1253.92 257.5,-1250.83 260.58,-1247.75 263.67,-1247.75 263.67,-1247.75 317.58,-1247.75 317.58,-1247.75 320.67,-1247.75 323.75,-1250.83 323.75,-1253.92 323.75,-1253.92 323.75,-1260.08 323.75,-1260.08 323.75,-1263.17 320.67,-1266.25 317.58,-1266.25"/>
<text text-anchor="start" x="265.5" y="-1253.7" font-family="Helvetica,sans-Serif" font-size="9.00">nuaces.scss</text>
</a>
</g>
</g>
<!-- src/widgets/nuaces/nuaces.ui.tsx&#45;&gt;src/widgets/nuaces/nuaces.scss -->
<g id="edge40" class="edge">
<title>src/widgets/nuaces/nuaces.ui.tsx&#45;&gt;src/widgets/nuaces/nuaces.scss</title>
<path fill="none" stroke="#000000" stroke-width="2" stroke-opacity="0.200000" d="M212.36,-1257C223.76,-1257 236.61,-1257 248.5,-1257"/>
<polygon fill="#000000" fill-opacity="0.200000" stroke="#000000" stroke-width="2" stroke-opacity="0.200000" points="248.35,-1259.1 254.35,-1257 248.35,-1254.9 248.35,-1259.1"/>
</g>
<!-- src/widgets/policy/policy.scss -->
<g id="node51" class="node">
<title>src/widgets/policy/policy.scss</title>
<g id="a_node51"><a xlink:href="src/widgets/policy/policy.scss" xlink:title="policy.scss">
<path fill="#ffffcc" stroke="black" d="M1047.08,-1008.25C1047.08,-1008.25 999.92,-1008.25 999.92,-1008.25 996.83,-1008.25 993.75,-1005.17 993.75,-1002.08 993.75,-1002.08 993.75,-995.92 993.75,-995.92 993.75,-992.83 996.83,-989.75 999.92,-989.75 999.92,-989.75 1047.08,-989.75 1047.08,-989.75 1050.17,-989.75 1053.25,-992.83 1053.25,-995.92 1053.25,-995.92 1053.25,-1002.08 1053.25,-1002.08 1053.25,-1005.17 1050.17,-1008.25 1047.08,-1008.25"/>
<text text-anchor="start" x="1001.75" y="-995.7" font-family="Helvetica,sans-Serif" font-size="9.00">policy.scss</text>
</a>
</g>
</g>
<!-- src/widgets/policy/policy.ui.tsx&#45;&gt;src/widgets/policy/policy.scss -->
<g id="edge42" class="edge">
<title>src/widgets/policy/policy.ui.tsx&#45;&gt;src/widgets/policy/policy.scss</title>
<path fill="none" stroke="#000000" stroke-width="2" stroke-opacity="0.200000" d="M981.03,-999C982.2,-999 983.37,-999 984.55,-999"/>
<polygon fill="#000000" fill-opacity="0.200000" stroke="#000000" stroke-width="2" stroke-opacity="0.200000" points="984.5,-1001.1 990.5,-999 984.5,-996.9 984.5,-1001.1"/>
</g>
<!-- src/widgets/presentation/index.ts -->
<g id="node52" class="node">
<title>src/widgets/presentation/index.ts</title>
<g id="a_node52"><a xlink:href="src/widgets/presentation/index.ts" xlink:title="index.ts">
<path fill="#ddfeff" stroke="black" d="M544.08,-1212.25C544.08,-1212.25 502.42,-1212.25 502.42,-1212.25 499.33,-1212.25 496.25,-1209.17 496.25,-1206.08 496.25,-1206.08 496.25,-1199.92 496.25,-1199.92 496.25,-1196.83 499.33,-1193.75 502.42,-1193.75 502.42,-1193.75 544.08,-1193.75 544.08,-1193.75 547.17,-1193.75 550.25,-1196.83 550.25,-1199.92 550.25,-1199.92 550.25,-1206.08 550.25,-1206.08 550.25,-1209.17 547.17,-1212.25 544.08,-1212.25"/>
<text text-anchor="start" x="507.5" y="-1199.7" font-family="Helvetica,sans-Serif" font-size="9.00">index.ts</text>
</a>
</g>
</g>
<!-- src/widgets/presentation/presentation.modal.tsx -->
<g id="node53" class="node">
<title>src/widgets/presentation/presentation.modal.tsx</title>
<g id="a_node53"><a xlink:href="src/widgets/presentation/presentation.modal.tsx" xlink:title="presentation.modal.tsx">
<path fill="#bbfeff" stroke="black" d="M795.83,-1205.25C795.83,-1205.25 699.92,-1205.25 699.92,-1205.25 696.83,-1205.25 693.75,-1202.17 693.75,-1199.08 693.75,-1199.08 693.75,-1192.92 693.75,-1192.92 693.75,-1189.83 696.83,-1186.75 699.92,-1186.75 699.92,-1186.75 795.83,-1186.75 795.83,-1186.75 798.92,-1186.75 802,-1189.83 802,-1192.92 802,-1192.92 802,-1199.08 802,-1199.08 802,-1202.17 798.92,-1205.25 795.83,-1205.25"/>
<text text-anchor="start" x="701.75" y="-1192.7" font-family="Helvetica,sans-Serif" font-size="9.00">presentation.modal.tsx</text>
</a>
</g>
</g>
<!-- src/widgets/presentation/index.ts&#45;&gt;src/widgets/presentation/presentation.modal.tsx -->
<g id="edge43" class="edge">
<title>src/widgets/presentation/index.ts&#45;&gt;src/widgets/presentation/presentation.modal.tsx</title>
<path fill="none" stroke="#000000" stroke-width="2" stroke-opacity="0.200000" d="M550.62,-1199.08C562.74,-1197.47 577.32,-1195.79 590.5,-1195 622.11,-1193.1 657.38,-1193.14 686.41,-1193.74"/>
<polygon fill="#000000" fill-opacity="0.200000" stroke="#000000" stroke-width="2" stroke-opacity="0.200000" points="692.22,-1195.98 686.27,-1193.74 692.32,-1191.78 692.22,-1195.98"/>
</g>
<!-- src/widgets/presentation/presentation.ui.tsx -->
<g id="node54" class="node">
<title>src/widgets/presentation/presentation.ui.tsx</title>
<g id="a_node54"><a xlink:href="src/widgets/presentation/presentation.ui.tsx" xlink:title="presentation.ui.tsx">
<path fill="#bbfeff" stroke="black" d="M674.58,-1219.25C674.58,-1219.25 596.67,-1219.25 596.67,-1219.25 593.58,-1219.25 590.5,-1216.17 590.5,-1213.08 590.5,-1213.08 590.5,-1206.92 590.5,-1206.92 590.5,-1203.83 593.58,-1200.75 596.67,-1200.75 596.67,-1200.75 674.58,-1200.75 674.58,-1200.75 677.67,-1200.75 680.75,-1203.83 680.75,-1206.92 680.75,-1206.92 680.75,-1213.08 680.75,-1213.08 680.75,-1216.17 677.67,-1219.25 674.58,-1219.25"/>
<text text-anchor="start" x="598.5" y="-1206.7" font-family="Helvetica,sans-Serif" font-size="9.00">presentation.ui.tsx</text>
</a>
</g>
</g>
<!-- src/widgets/presentation/index.ts&#45;&gt;src/widgets/presentation/presentation.ui.tsx -->
<g id="edge44" class="edge">
<title>src/widgets/presentation/index.ts&#45;&gt;src/widgets/presentation/presentation.ui.tsx</title>
<path fill="none" stroke="#000000" stroke-width="2" stroke-opacity="0.200000" d="M550.69,-1204.68C560.51,-1205.3 572.02,-1206.03 583.31,-1206.75"/>
<polygon fill="#000000" fill-opacity="0.200000" stroke="#000000" stroke-width="2" stroke-opacity="0.200000" points="589.17,-1209.22 583.31,-1206.75 589.43,-1205.03 589.17,-1209.22"/>
</g>
<!-- src/widgets/presentation/presentation.modal.tsx&#45;&gt;src/widgets/policy/index.ts -->
<g id="edge45" class="edge">
<title>src/widgets/presentation/presentation.modal.tsx&#45;&gt;src/widgets/policy/index.ts</title>
<path fill="none" stroke="#000000" stroke-width="2" stroke-opacity="0.200000" d="M756.78,-1186.47C768.59,-1171.72 790.66,-1142 802,-1113 814,-1082.31 799.48,-1069.07 815,-1040 820.37,-1029.95 829.09,-1020.91 837.25,-1013.9"/>
<polygon fill="#000000" fill-opacity="0.200000" stroke="#000000" stroke-width="2" stroke-opacity="0.200000" points="838.2,-1015.82 841.53,-1010.41 835.55,-1012.57 838.2,-1015.82"/>
</g>
<!-- src/widgets/presentation/presentation.scss -->
<g id="node55" class="node">
<title>src/widgets/presentation/presentation.scss</title>
<g id="a_node55"><a xlink:href="src/widgets/presentation/presentation.scss" xlink:title="presentation.scss">
<path fill="#ffffcc" stroke="black" d="M896.08,-1212.25C896.08,-1212.25 821.17,-1212.25 821.17,-1212.25 818.08,-1212.25 815,-1209.17 815,-1206.08 815,-1206.08 815,-1199.92 815,-1199.92 815,-1196.83 818.08,-1193.75 821.17,-1193.75 821.17,-1193.75 896.08,-1193.75 896.08,-1193.75 899.17,-1193.75 902.25,-1196.83 902.25,-1199.92 902.25,-1199.92 902.25,-1206.08 902.25,-1206.08 902.25,-1209.17 899.17,-1212.25 896.08,-1212.25"/>
<text text-anchor="start" x="823" y="-1199.7" font-family="Helvetica,sans-Serif" font-size="9.00">presentation.scss</text>
</a>
</g>
</g>
<!-- src/widgets/presentation/presentation.modal.tsx&#45;&gt;src/widgets/presentation/presentation.scss -->
<g id="edge46" class="edge">
<title>src/widgets/presentation/presentation.modal.tsx&#45;&gt;src/widgets/presentation/presentation.scss</title>
<path fill="none" stroke="#000000" stroke-width="2" stroke-opacity="0.200000" d="M802.29,-1199.44C803.47,-1199.51 804.65,-1199.59 805.83,-1199.67"/>
<polygon fill="#000000" fill-opacity="0.200000" stroke="#000000" stroke-width="2" stroke-opacity="0.200000" points="805.64,-1201.76 811.77,-1200.05 805.91,-1197.57 805.64,-1201.76"/>
</g>
<!-- src/widgets/presentation/presentation.ui.tsx&#45;&gt;src/widgets/presentation/presentation.modal.tsx -->
<g id="edge47" class="edge">
<title>src/widgets/presentation/presentation.ui.tsx&#45;&gt;src/widgets/presentation/presentation.modal.tsx</title>
<path fill="none" stroke="#000000" stroke-width="2" stroke-opacity="0.200000" d="M681.15,-1204.35C682.29,-1204.2 683.44,-1204.05 684.6,-1203.91"/>
<polygon fill="#000000" fill-opacity="0.200000" stroke="#000000" stroke-width="2" stroke-opacity="0.200000" points="684.8,-1206 690.49,-1203.16 684.27,-1201.83 684.8,-1206"/>
</g>
<!-- src/widgets/presentation/presentation.ui.tsx&#45;&gt;src/widgets/presentation/presentation.scss -->
<g id="edge48" class="edge">
<title>src/widgets/presentation/presentation.ui.tsx&#45;&gt;src/widgets/presentation/presentation.scss</title>
<path fill="none" stroke="#000000" stroke-width="2" stroke-opacity="0.200000" d="M680.91,-1212.13C714.24,-1213.27 761.05,-1213.93 802,-1211 803.28,-1210.91 804.57,-1210.81 805.87,-1210.69"/>
<polygon fill="#000000" fill-opacity="0.200000" stroke="#000000" stroke-width="2" stroke-opacity="0.200000" points="805.8,-1212.81 811.56,-1210.12 805.38,-1208.63 805.8,-1212.81"/>
</g>
<!-- src/widgets/vacancy/vacancy.ui.tsx&#45;&gt;src/widgets/policy/index.ts -->
<g id="edge51" class="edge">
<title>src/widgets/vacancy/vacancy.ui.tsx&#45;&gt;src/widgets/policy/index.ts</title>
<path fill="none" stroke="#000000" stroke-width="2" stroke-opacity="0.200000" d="M431.2,-815.7C505.39,-847.59 741.78,-949.2 826.8,-985.75"/>
<polygon fill="#000000" fill-opacity="0.200000" stroke="#000000" stroke-width="2" stroke-opacity="0.200000" points="825.88,-987.64 832.23,-988.08 827.54,-983.78 825.88,-987.64"/>
</g>
<!-- src/widgets/vacancy/vacancy.ui.tsx&#45;&gt;src/widgets/consultation/index.ts -->
<g id="edge50" class="edge">
<title>src/widgets/vacancy/vacancy.ui.tsx&#45;&gt;src/widgets/consultation/index.ts</title>
<path fill="none" stroke="#000000" stroke-width="2" stroke-opacity="0.200000" d="M415.21,-815.6C426.82,-833.09 450.76,-871.69 461.75,-908 477.3,-959.34 449.24,-980.81 474.75,-1028 480.01,-1037.73 488.8,-1045.97 497.39,-1052.34"/>
<polygon fill="#000000" fill-opacity="0.200000" stroke="#000000" stroke-width="2" stroke-opacity="0.200000" points="496.18,-1054.05 502.31,-1055.72 498.56,-1050.59 496.18,-1054.05"/>
</g>
<!-- src/widgets/vacancy/vacancy.scss -->
<g id="node57" class="node">
<title>src/widgets/vacancy/vacancy.scss</title>
<g id="a_node57"><a xlink:href="src/widgets/vacancy/vacancy.scss" xlink:title="vacancy.scss">
<path fill="#ffffcc" stroke="black" d="M551.71,-815.25C551.71,-815.25 494.79,-815.25 494.79,-815.25 491.71,-815.25 488.62,-812.17 488.62,-809.08 488.62,-809.08 488.62,-802.92 488.62,-802.92 488.62,-799.83 491.71,-796.75 494.79,-796.75 494.79,-796.75 551.71,-796.75 551.71,-796.75 554.79,-796.75 557.88,-799.83 557.88,-802.92 557.88,-802.92 557.88,-809.08 557.88,-809.08 557.88,-812.17 554.79,-815.25 551.71,-815.25"/>
<text text-anchor="start" x="496.62" y="-802.7" font-family="Helvetica,sans-Serif" font-size="9.00">vacancy.scss</text>
</a>
</g>
</g>
<!-- src/widgets/vacancy/vacancy.ui.tsx&#45;&gt;src/widgets/vacancy/vacancy.scss -->
<g id="edge52" class="edge">
<title>src/widgets/vacancy/vacancy.ui.tsx&#45;&gt;src/widgets/vacancy/vacancy.scss</title>
<path fill="none" stroke="#000000" stroke-width="2" stroke-opacity="0.200000" d="M443.95,-806C455.27,-806 467.92,-806 479.7,-806"/>
<polygon fill="#000000" fill-opacity="0.200000" stroke="#000000" stroke-width="2" stroke-opacity="0.200000" points="479.47,-808.1 485.47,-806 479.47,-803.9 479.47,-808.1"/>
</g>
</g>
</svg>
