<svg width="50" height="50" viewBox="0 0 50 50" fill="none" xmlns="http://www.w3.org/2000/svg">
<g clip-path="url(#clip0_758_1205)">
<path d="M25 4.6875C20.9826 4.6875 17.0554 5.87881 13.715 8.11077C10.3746 10.3427 7.77111 13.5151 6.23371 17.2267C4.6963 20.9384 4.29405 25.0225 5.07781 28.9628C5.86157 32.903 7.79615 36.5224 10.6369 39.3631C13.4777 42.2039 17.097 44.1384 21.0372 44.9222C24.9775 45.706 29.0616 45.3037 32.7733 43.7663C36.4849 42.2289 39.6573 39.6254 41.8892 36.285C44.1212 32.9446 45.3125 29.0174 45.3125 25C45.3068 19.6145 43.1649 14.4513 39.3568 10.6432C35.5487 6.83507 30.3855 4.69319 25 4.6875ZM30.793 26.1055L22.9805 33.918C22.8353 34.0631 22.663 34.1783 22.4733 34.2569C22.2836 34.3354 22.0803 34.3759 21.875 34.3759C21.6697 34.3759 21.4664 34.3354 21.2767 34.2569C21.0871 34.1783 20.9147 34.0631 20.7695 33.918C20.6244 33.7728 20.5092 33.6005 20.4306 33.4108C20.3521 33.2211 20.3116 33.0178 20.3116 32.8125C20.3116 32.6072 20.3521 32.4039 20.4306 32.2142C20.5092 32.0245 20.6244 31.8522 20.7695 31.707L27.4785 25L20.7695 18.293C20.4764 17.9998 20.3116 17.6021 20.3116 17.1875C20.3116 16.7729 20.4764 16.3752 20.7695 16.082C21.0627 15.7888 21.4604 15.6241 21.875 15.6241C22.2896 15.6241 22.6873 15.7888 22.9805 16.082L30.793 23.8945C30.9383 24.0396 31.0535 24.212 31.1321 24.4017C31.2108 24.5913 31.2512 24.7947 31.2512 25C31.2512 25.2053 31.2108 25.4087 31.1321 25.5983C31.0535 25.788 30.9383 25.9604 30.793 26.1055Z" fill="white" fill-opacity="0.5"/>
</g>
<defs>
<clipPath id="clip0_758_1205">
<rect width="50" height="50" fill="white"/>
</clipPath>
</defs>
</svg>
